%TF.GenerationSoftware,KiCad,Pcbnew,9.0.2*%
%TF.CreationDate,2025-08-01T12:08:27+09:00*%
%TF.ProjectId,CL70_PCB,434c3730-5f50-4434-922e-6b696361645f,rev?*%
%TF.SameCoordinates,Original*%
%TF.FileFunction,Copper,L2,Bot*%
%TF.FilePolarity,Positive*%
%FSLAX46Y46*%
G04 Gerber Fmt 4.6, Leading zero omitted, Abs format (unit mm)*
G04 Created by KiCad (PCBNEW 9.0.2) date 2025-08-01 12:08:27*
%MOMM*%
%LPD*%
G01*
G04 APERTURE LIST*
G04 Aperture macros list*
%AMRoundRect*
0 Rectangle with rounded corners*
0 $1 Rounding radius*
0 $2 $3 $4 $5 $6 $7 $8 $9 X,Y pos of 4 corners*
0 Add a 4 corners polygon primitive as box body*
4,1,4,$2,$3,$4,$5,$6,$7,$8,$9,$2,$3,0*
0 Add four circle primitives for the rounded corners*
1,1,$1+$1,$2,$3*
1,1,$1+$1,$4,$5*
1,1,$1+$1,$6,$7*
1,1,$1+$1,$8,$9*
0 Add four rect primitives between the rounded corners*
20,1,$1+$1,$2,$3,$4,$5,0*
20,1,$1+$1,$4,$5,$6,$7,0*
20,1,$1+$1,$6,$7,$8,$9,0*
20,1,$1+$1,$8,$9,$2,$3,0*%
G04 Aperture macros list end*
%TA.AperFunction,EtchedComponent*%
%ADD10C,0.000000*%
%TD*%
%TA.AperFunction,ComponentPad*%
%ADD11C,2.500000*%
%TD*%
%TA.AperFunction,ComponentPad*%
%ADD12R,1.800000X1.800000*%
%TD*%
%TA.AperFunction,ComponentPad*%
%ADD13C,1.800000*%
%TD*%
%TA.AperFunction,SMDPad,CuDef*%
%ADD14RoundRect,0.250000X-1.025000X-1.000000X1.025000X-1.000000X1.025000X1.000000X-1.025000X1.000000X0*%
%TD*%
%TA.AperFunction,ComponentPad*%
%ADD15R,2.000000X2.000000*%
%TD*%
%TA.AperFunction,ComponentPad*%
%ADD16C,2.000000*%
%TD*%
%TA.AperFunction,ComponentPad*%
%ADD17R,2.000000X3.200000*%
%TD*%
%TA.AperFunction,SMDPad,CuDef*%
%ADD18R,1.000000X0.750000*%
%TD*%
%TA.AperFunction,SMDPad,CuDef*%
%ADD19R,1.800000X1.000000*%
%TD*%
%TA.AperFunction,SMDPad,CuDef*%
%ADD20RoundRect,0.225000X0.375000X-0.225000X0.375000X0.225000X-0.375000X0.225000X-0.375000X-0.225000X0*%
%TD*%
%TA.AperFunction,SMDPad,CuDef*%
%ADD21R,0.750000X1.000000*%
%TD*%
%TA.AperFunction,SMDPad,CuDef*%
%ADD22R,0.900000X0.800000*%
%TD*%
%TA.AperFunction,SMDPad,CuDef*%
%ADD23R,1.000000X1.200000*%
%TD*%
%TA.AperFunction,SMDPad,CuDef*%
%ADD24R,1.000000X0.900000*%
%TD*%
%TA.AperFunction,SMDPad,CuDef*%
%ADD25R,1.800000X1.100000*%
%TD*%
%TA.AperFunction,ComponentPad*%
%ADD26C,1.700000*%
%TD*%
%TA.AperFunction,ComponentPad*%
%ADD27R,1.700000X1.700000*%
%TD*%
%TA.AperFunction,SMDPad,CuDef*%
%ADD28R,0.800000X0.900000*%
%TD*%
%TA.AperFunction,SMDPad,CuDef*%
%ADD29RoundRect,0.250000X0.350000X-0.450000X0.350000X0.450000X-0.350000X0.450000X-0.350000X-0.450000X0*%
%TD*%
%TA.AperFunction,SMDPad,CuDef*%
%ADD30R,0.600000X1.450000*%
%TD*%
%TA.AperFunction,SMDPad,CuDef*%
%ADD31R,0.300000X1.450000*%
%TD*%
%TA.AperFunction,ComponentPad*%
%ADD32O,1.000000X1.600000*%
%TD*%
%TA.AperFunction,ComponentPad*%
%ADD33O,1.000000X2.100000*%
%TD*%
%TA.AperFunction,SMDPad,CuDef*%
%ADD34O,0.250000X1.000000*%
%TD*%
%TA.AperFunction,SMDPad,CuDef*%
%ADD35O,1.000000X0.250000*%
%TD*%
%TA.AperFunction,SMDPad,CuDef*%
%ADD36RoundRect,0.500000X-2.000000X2.000000X-2.000000X-2.000000X2.000000X-2.000000X2.000000X2.000000X0*%
%TD*%
%TA.AperFunction,SMDPad,CuDef*%
%ADD37RoundRect,0.250000X0.625000X-0.375000X0.625000X0.375000X-0.625000X0.375000X-0.625000X-0.375000X0*%
%TD*%
%TA.AperFunction,ViaPad*%
%ADD38C,0.600000*%
%TD*%
%TA.AperFunction,Conductor*%
%ADD39C,0.381000*%
%TD*%
%TA.AperFunction,Conductor*%
%ADD40C,0.254000*%
%TD*%
G04 APERTURE END LIST*
D10*
%TA.AperFunction,EtchedComponent*%
%TO.C,G\u002A\u002A\u002A*%
G36*
X282032755Y-158224788D02*
G01*
X282032755Y-158968510D01*
X281572656Y-158968510D01*
X281112556Y-158968510D01*
X281112556Y-158855061D01*
X281112556Y-158741612D01*
X281440298Y-158741612D01*
X281768040Y-158741612D01*
X281768040Y-158111339D01*
X281768040Y-157481066D01*
X281900398Y-157481066D01*
X282032755Y-157481066D01*
X282032755Y-158224788D01*
G37*
%TD.AperFunction*%
%TA.AperFunction,EtchedComponent*%
G36*
X268521860Y-158675324D02*
G01*
X268570025Y-158700173D01*
X268605540Y-158738859D01*
X268626242Y-158786769D01*
X268629971Y-158839290D01*
X268614562Y-158891810D01*
X268577855Y-158939715D01*
X268549490Y-158962858D01*
X268516970Y-158977440D01*
X268475325Y-158981116D01*
X268464097Y-158980839D01*
X268402750Y-158967189D01*
X268356815Y-158934263D01*
X268328000Y-158883837D01*
X268318015Y-158817686D01*
X268325594Y-158773995D01*
X268353612Y-158725315D01*
X268397327Y-158688752D01*
X268451480Y-158670120D01*
X268463209Y-158668926D01*
X268521860Y-158675324D01*
G37*
%TD.AperFunction*%
%TA.AperFunction,EtchedComponent*%
G36*
X269433014Y-157600649D02*
G01*
X269616378Y-157720233D01*
X269616378Y-157840153D01*
X269616137Y-157871253D01*
X269614741Y-157916950D01*
X269612377Y-157948381D01*
X269609366Y-157960074D01*
X269604424Y-157957830D01*
X269581341Y-157944486D01*
X269543062Y-157921144D01*
X269493367Y-157890123D01*
X269436041Y-157853744D01*
X269269728Y-157747414D01*
X269266456Y-158357962D01*
X269263185Y-158968510D01*
X269124645Y-158968510D01*
X268986105Y-158968510D01*
X268986105Y-158224788D01*
X268986105Y-157481066D01*
X269117878Y-157481066D01*
X269249651Y-157481066D01*
X269433014Y-157600649D01*
G37*
%TD.AperFunction*%
%TA.AperFunction,EtchedComponent*%
G36*
X259758909Y-157594515D02*
G01*
X259758909Y-157707964D01*
X259387048Y-157707964D01*
X259357123Y-157707983D01*
X259265589Y-157708290D01*
X259183730Y-157708933D01*
X259114653Y-157709863D01*
X259061465Y-157711029D01*
X259027274Y-157712384D01*
X259015187Y-157713877D01*
X259016202Y-157716332D01*
X259026369Y-157737159D01*
X259046589Y-157777407D01*
X259075791Y-157834983D01*
X259112908Y-157907793D01*
X259156871Y-157993742D01*
X259206612Y-158090736D01*
X259261061Y-158196682D01*
X259319150Y-158309485D01*
X259341403Y-158352658D01*
X259399135Y-158464662D01*
X259453370Y-158569887D01*
X259502957Y-158666101D01*
X259546747Y-158751070D01*
X259583588Y-158822562D01*
X259612330Y-158878344D01*
X259631822Y-158916183D01*
X259640913Y-158933845D01*
X259658713Y-158968510D01*
X259516577Y-158968175D01*
X259374442Y-158967839D01*
X259056154Y-158344864D01*
X258737867Y-157721889D01*
X258737867Y-157601477D01*
X258737867Y-157481066D01*
X259248388Y-157481066D01*
X259758909Y-157481066D01*
X259758909Y-157594515D01*
G37*
%TD.AperFunction*%
%TA.AperFunction,EtchedComponent*%
G36*
X280961291Y-157594515D02*
G01*
X280961291Y-157707964D01*
X280589430Y-157707964D01*
X280559505Y-157707983D01*
X280467971Y-157708290D01*
X280386112Y-157708933D01*
X280317035Y-157709863D01*
X280263847Y-157711029D01*
X280229656Y-157712384D01*
X280217569Y-157713877D01*
X280218584Y-157716332D01*
X280228752Y-157737159D01*
X280248971Y-157777407D01*
X280278173Y-157834983D01*
X280315290Y-157907793D01*
X280359253Y-157993742D01*
X280408994Y-158090736D01*
X280463443Y-158196682D01*
X280521532Y-158309485D01*
X280543786Y-158352658D01*
X280601517Y-158464662D01*
X280655752Y-158569887D01*
X280705339Y-158666101D01*
X280749129Y-158751070D01*
X280785970Y-158822562D01*
X280814712Y-158878344D01*
X280834204Y-158916183D01*
X280843295Y-158933845D01*
X280861095Y-158968510D01*
X280718960Y-158968175D01*
X280576824Y-158967839D01*
X280258537Y-158344864D01*
X279940249Y-157721889D01*
X279940249Y-157601477D01*
X279940249Y-157481066D01*
X280450770Y-157481066D01*
X280961291Y-157481066D01*
X280961291Y-157594515D01*
G37*
%TD.AperFunction*%
%TA.AperFunction,EtchedComponent*%
G36*
X270795465Y-157849493D02*
G01*
X270827354Y-157851706D01*
X270839107Y-157855141D01*
X270835689Y-157866440D01*
X270824559Y-157899383D01*
X270806517Y-157951508D01*
X270782401Y-158020433D01*
X270753048Y-158103776D01*
X270719294Y-158199156D01*
X270681975Y-158304190D01*
X270641929Y-158416496D01*
X270444751Y-158968510D01*
X270298400Y-158968510D01*
X270152049Y-158968510D01*
X269960256Y-158429627D01*
X269928502Y-158340286D01*
X269890935Y-158234255D01*
X269856657Y-158137143D01*
X269826535Y-158051421D01*
X269801433Y-157979558D01*
X269782217Y-157924026D01*
X269769751Y-157887295D01*
X269764901Y-157871835D01*
X269765511Y-157865394D01*
X269774811Y-157859105D01*
X269797492Y-157855302D01*
X269837493Y-157853428D01*
X269898754Y-157852927D01*
X270036167Y-157852927D01*
X270161343Y-158256302D01*
X270182730Y-158324943D01*
X270211439Y-158416172D01*
X270237414Y-158497670D01*
X270259723Y-158566562D01*
X270277431Y-158619975D01*
X270289606Y-158655035D01*
X270295315Y-158668869D01*
X270299361Y-158662979D01*
X270310239Y-158635988D01*
X270326774Y-158589719D01*
X270348061Y-158526854D01*
X270373197Y-158450074D01*
X270401275Y-158362060D01*
X270431392Y-158265494D01*
X270558673Y-157852927D01*
X270698890Y-157849363D01*
X270748493Y-157848709D01*
X270795465Y-157849493D01*
G37*
%TD.AperFunction*%
%TA.AperFunction,EtchedComponent*%
G36*
X277860348Y-158224788D02*
G01*
X277860348Y-158968510D01*
X277727991Y-158968510D01*
X277595633Y-158968510D01*
X277595633Y-158716401D01*
X277595633Y-158464292D01*
X277397097Y-158464142D01*
X277302878Y-158462979D01*
X277223751Y-158458838D01*
X277159466Y-158450778D01*
X277104765Y-158437860D01*
X277054386Y-158419143D01*
X277003068Y-158393686D01*
X276939834Y-158350507D01*
X276873471Y-158279759D01*
X276823477Y-158194127D01*
X276791334Y-158097111D01*
X276778526Y-157992210D01*
X276780614Y-157963736D01*
X277056319Y-157963736D01*
X277062746Y-158044825D01*
X277090259Y-158115766D01*
X277137253Y-158173522D01*
X277202121Y-158215056D01*
X277233070Y-158225972D01*
X277277475Y-158235057D01*
X277337061Y-158241550D01*
X277416830Y-158246176D01*
X277424129Y-158246479D01*
X277484522Y-158248135D01*
X277535066Y-158248065D01*
X277570654Y-158246363D01*
X277586179Y-158243121D01*
X277587001Y-158241268D01*
X277589749Y-158219822D01*
X277592121Y-158178144D01*
X277593983Y-158120121D01*
X277595198Y-158049637D01*
X277595633Y-157970578D01*
X277595633Y-157707964D01*
X277441216Y-157708035D01*
X277380935Y-157708961D01*
X277320672Y-157711685D01*
X277271788Y-157715769D01*
X277241198Y-157720772D01*
X277174310Y-157748650D01*
X277117115Y-157796370D01*
X277078245Y-157861235D01*
X277058138Y-157942714D01*
X277056319Y-157963736D01*
X276780614Y-157963736D01*
X276786538Y-157882925D01*
X276796441Y-157836592D01*
X276834791Y-157734040D01*
X276892241Y-157647095D01*
X276967435Y-157577152D01*
X277059013Y-157525605D01*
X277165617Y-157493848D01*
X277183712Y-157491471D01*
X277229458Y-157488122D01*
X277293087Y-157485258D01*
X277370165Y-157483028D01*
X277456257Y-157481581D01*
X277546932Y-157481066D01*
X277860348Y-157481066D01*
X277860348Y-157970578D01*
X277860348Y-158224788D01*
G37*
%TD.AperFunction*%
%TA.AperFunction,EtchedComponent*%
G36*
X258149307Y-157475343D02*
G01*
X258246676Y-157506984D01*
X258332963Y-157554122D01*
X258405534Y-157615030D01*
X258461752Y-157687980D01*
X258498983Y-157771246D01*
X258514589Y-157863100D01*
X258517271Y-157928560D01*
X258394148Y-157932170D01*
X258347671Y-157933509D01*
X258306014Y-157933146D01*
X258280717Y-157927939D01*
X258266786Y-157915208D01*
X258259224Y-157892272D01*
X258253037Y-157856450D01*
X258248707Y-157837479D01*
X258220630Y-157781698D01*
X258174769Y-157736368D01*
X258115891Y-157703624D01*
X258048763Y-157685602D01*
X257978152Y-157684436D01*
X257908825Y-157702263D01*
X257862237Y-157726460D01*
X257809299Y-157774016D01*
X257777718Y-157834890D01*
X257767246Y-157909445D01*
X257767577Y-157928571D01*
X257770388Y-157959767D01*
X257777380Y-157989911D01*
X257790116Y-158021052D01*
X257810160Y-158055240D01*
X257839075Y-158094523D01*
X257878427Y-158140950D01*
X257929777Y-158196571D01*
X257994691Y-158263434D01*
X258074731Y-158343587D01*
X258171461Y-158439081D01*
X258511136Y-158773126D01*
X258511052Y-158870818D01*
X258510968Y-158968510D01*
X257994145Y-158968510D01*
X257477321Y-158968510D01*
X257477321Y-158855061D01*
X257477321Y-158741612D01*
X257805063Y-158741612D01*
X257886623Y-158741391D01*
X257966423Y-158740696D01*
X258034250Y-158739599D01*
X258086796Y-158738169D01*
X258120751Y-158736477D01*
X258132805Y-158734594D01*
X258132778Y-158734465D01*
X258123285Y-158723201D01*
X258098278Y-158696712D01*
X258060061Y-158657355D01*
X258010939Y-158607486D01*
X257953220Y-158549461D01*
X257889207Y-158485636D01*
X257793776Y-158389290D01*
X257709988Y-158300413D01*
X257642783Y-158222994D01*
X257590692Y-158154665D01*
X257552248Y-158093056D01*
X257525983Y-158035798D01*
X257510430Y-157980522D01*
X257504119Y-157924859D01*
X257505584Y-157866439D01*
X257524240Y-157769746D01*
X257564860Y-157680474D01*
X257625556Y-157604137D01*
X257704739Y-157542291D01*
X257800819Y-157496491D01*
X257912209Y-157468293D01*
X257931871Y-157465465D01*
X258043494Y-157460928D01*
X258149307Y-157475343D01*
G37*
%TD.AperFunction*%
%TA.AperFunction,EtchedComponent*%
G36*
X263254518Y-157475343D02*
G01*
X263351887Y-157506984D01*
X263438174Y-157554122D01*
X263510745Y-157615030D01*
X263566963Y-157687980D01*
X263604194Y-157771246D01*
X263619800Y-157863100D01*
X263622482Y-157928560D01*
X263499359Y-157932170D01*
X263452882Y-157933509D01*
X263411225Y-157933146D01*
X263385928Y-157927939D01*
X263371997Y-157915208D01*
X263364435Y-157892272D01*
X263358248Y-157856450D01*
X263353918Y-157837479D01*
X263325841Y-157781698D01*
X263279980Y-157736368D01*
X263221102Y-157703624D01*
X263153974Y-157685602D01*
X263083363Y-157684436D01*
X263014036Y-157702263D01*
X262967448Y-157726460D01*
X262914509Y-157774016D01*
X262882929Y-157834890D01*
X262872457Y-157909445D01*
X262872788Y-157928571D01*
X262875599Y-157959767D01*
X262882591Y-157989911D01*
X262895327Y-158021052D01*
X262915371Y-158055240D01*
X262944286Y-158094523D01*
X262983638Y-158140950D01*
X263034988Y-158196571D01*
X263099901Y-158263434D01*
X263179942Y-158343587D01*
X263276672Y-158439081D01*
X263616347Y-158773126D01*
X263616263Y-158870818D01*
X263616179Y-158968510D01*
X263099355Y-158968510D01*
X262582532Y-158968510D01*
X262582532Y-158855061D01*
X262582532Y-158741612D01*
X262910274Y-158741612D01*
X262991834Y-158741391D01*
X263071633Y-158740696D01*
X263139461Y-158739599D01*
X263192007Y-158738169D01*
X263225962Y-158736477D01*
X263238015Y-158734594D01*
X263237989Y-158734465D01*
X263228496Y-158723201D01*
X263203489Y-158696712D01*
X263165271Y-158657355D01*
X263116150Y-158607486D01*
X263058430Y-158549461D01*
X262994417Y-158485636D01*
X262898987Y-158389290D01*
X262815199Y-158300413D01*
X262747994Y-158222994D01*
X262695903Y-158154665D01*
X262657459Y-158093056D01*
X262631194Y-158035798D01*
X262615641Y-157980522D01*
X262609330Y-157924859D01*
X262610795Y-157866439D01*
X262629450Y-157769746D01*
X262670071Y-157680474D01*
X262730767Y-157604137D01*
X262809949Y-157542291D01*
X262906030Y-157496491D01*
X263017420Y-157468293D01*
X263037081Y-157465465D01*
X263148705Y-157460928D01*
X263254518Y-157475343D01*
G37*
%TD.AperFunction*%
%TA.AperFunction,EtchedComponent*%
G36*
X265851243Y-157475343D02*
G01*
X265948611Y-157506984D01*
X266034899Y-157554122D01*
X266107470Y-157615030D01*
X266163688Y-157687980D01*
X266200918Y-157771246D01*
X266216524Y-157863100D01*
X266219207Y-157928560D01*
X266096084Y-157932170D01*
X266049607Y-157933509D01*
X266007949Y-157933146D01*
X265982653Y-157927939D01*
X265968721Y-157915208D01*
X265961160Y-157892272D01*
X265954972Y-157856450D01*
X265950643Y-157837479D01*
X265922565Y-157781698D01*
X265876704Y-157736368D01*
X265817826Y-157703624D01*
X265750699Y-157685602D01*
X265680088Y-157684436D01*
X265610760Y-157702263D01*
X265564173Y-157726460D01*
X265511234Y-157774016D01*
X265479653Y-157834890D01*
X265469182Y-157909445D01*
X265469513Y-157928571D01*
X265472324Y-157959767D01*
X265479315Y-157989911D01*
X265492051Y-158021052D01*
X265512095Y-158055240D01*
X265541011Y-158094523D01*
X265580362Y-158140950D01*
X265631713Y-158196571D01*
X265696626Y-158263434D01*
X265776666Y-158343587D01*
X265873397Y-158439081D01*
X266213072Y-158773126D01*
X266212988Y-158870818D01*
X266212904Y-158968510D01*
X265696080Y-158968510D01*
X265179256Y-158968510D01*
X265179256Y-158855061D01*
X265179256Y-158741612D01*
X265506998Y-158741612D01*
X265588558Y-158741391D01*
X265668358Y-158740696D01*
X265736186Y-158739599D01*
X265788732Y-158738169D01*
X265822686Y-158736477D01*
X265834740Y-158734594D01*
X265834714Y-158734465D01*
X265825221Y-158723201D01*
X265800213Y-158696712D01*
X265761996Y-158657355D01*
X265712875Y-158607486D01*
X265655155Y-158549461D01*
X265591142Y-158485636D01*
X265495712Y-158389290D01*
X265411924Y-158300413D01*
X265344718Y-158222994D01*
X265292627Y-158154665D01*
X265254184Y-158093056D01*
X265227919Y-158035798D01*
X265212365Y-157980522D01*
X265206055Y-157924859D01*
X265207520Y-157866439D01*
X265226175Y-157769746D01*
X265266795Y-157680474D01*
X265327491Y-157604137D01*
X265406674Y-157542291D01*
X265502755Y-157496491D01*
X265614145Y-157468293D01*
X265633806Y-157465465D01*
X265745429Y-157460928D01*
X265851243Y-157475343D01*
G37*
%TD.AperFunction*%
%TA.AperFunction,EtchedComponent*%
G36*
X273246750Y-158224788D02*
G01*
X273246750Y-158968510D01*
X273114393Y-158968510D01*
X272982035Y-158968510D01*
X272982035Y-158697080D01*
X272982035Y-158425650D01*
X272841491Y-158429214D01*
X272700947Y-158432778D01*
X272558706Y-158697493D01*
X272416465Y-158962208D01*
X272263373Y-158965755D01*
X272259213Y-158965848D01*
X272201714Y-158966342D01*
X272155607Y-158965309D01*
X272125492Y-158962947D01*
X272115970Y-158959452D01*
X272121172Y-158950368D01*
X272143257Y-158910941D01*
X272172101Y-158858566D01*
X272205820Y-158796750D01*
X272242531Y-158729002D01*
X272280353Y-158658829D01*
X272317401Y-158589741D01*
X272351794Y-158525245D01*
X272381648Y-158468850D01*
X272405081Y-158424064D01*
X272420210Y-158394395D01*
X272425151Y-158383352D01*
X272422474Y-158381617D01*
X272403813Y-158370144D01*
X272374371Y-158352343D01*
X272366412Y-158347340D01*
X272314200Y-158305375D01*
X272263686Y-158251396D01*
X272221665Y-158193462D01*
X272194933Y-158139628D01*
X272173878Y-158060612D01*
X272164587Y-157960074D01*
X272446379Y-157960074D01*
X272449223Y-158009542D01*
X272466140Y-158072954D01*
X272500320Y-158122169D01*
X272554094Y-158161552D01*
X272576969Y-158173370D01*
X272600960Y-158182370D01*
X272629771Y-158188533D01*
X272668501Y-158192618D01*
X272722246Y-158195384D01*
X272796105Y-158197591D01*
X272982035Y-158202325D01*
X272982035Y-157953963D01*
X272982035Y-157705600D01*
X272802020Y-157709934D01*
X272744219Y-157711528D01*
X272686860Y-157714136D01*
X272645201Y-157718077D01*
X272613851Y-157724155D01*
X272587421Y-157733173D01*
X272560521Y-157745934D01*
X272515356Y-157775176D01*
X272475689Y-157821543D01*
X272453343Y-157881963D01*
X272446379Y-157960074D01*
X272164587Y-157960074D01*
X272163925Y-157952906D01*
X272175075Y-157849464D01*
X272206217Y-157753403D01*
X272256240Y-157667838D01*
X272324034Y-157595885D01*
X272408487Y-157540663D01*
X272409198Y-157540310D01*
X272447008Y-157523124D01*
X272485451Y-157509541D01*
X272528036Y-157499156D01*
X272578274Y-157491566D01*
X272639673Y-157486366D01*
X272715742Y-157483152D01*
X272809992Y-157481520D01*
X272925931Y-157481066D01*
X273246750Y-157481066D01*
X273246750Y-157953963D01*
X273246750Y-158224788D01*
G37*
%TD.AperFunction*%
%TA.AperFunction,EtchedComponent*%
G36*
X261063055Y-158229892D02*
G01*
X261062686Y-158312972D01*
X261061178Y-158376700D01*
X261058028Y-158426629D01*
X261052734Y-158468314D01*
X261044793Y-158507309D01*
X261033703Y-158549168D01*
X261019545Y-158594365D01*
X260968993Y-158710064D01*
X260903647Y-158807164D01*
X260824490Y-158884626D01*
X260732508Y-158941413D01*
X260628685Y-158976485D01*
X260583723Y-158984741D01*
X260465235Y-158990924D01*
X260354552Y-158973883D01*
X260253297Y-158934615D01*
X260163093Y-158874117D01*
X260085561Y-158793383D01*
X260022324Y-158693410D01*
X259975006Y-158575194D01*
X259971620Y-158563841D01*
X259943889Y-158438690D01*
X259930048Y-158305904D01*
X259929782Y-158217344D01*
X260201284Y-158217344D01*
X260206289Y-158340726D01*
X260223226Y-158457593D01*
X260252201Y-158561003D01*
X260280494Y-158619426D01*
X260325405Y-158679617D01*
X260378111Y-158725899D01*
X260433342Y-158752696D01*
X260468617Y-158760286D01*
X260543899Y-158760105D01*
X260611634Y-158736163D01*
X260670739Y-158688963D01*
X260720130Y-158619011D01*
X260723611Y-158612499D01*
X260755495Y-158537202D01*
X260777320Y-158450218D01*
X260789853Y-158347447D01*
X260793860Y-158224788D01*
X260787819Y-158085207D01*
X260769227Y-157964662D01*
X260738036Y-157865714D01*
X260694198Y-157788218D01*
X260637668Y-157732024D01*
X260625903Y-157723989D01*
X260559084Y-157694446D01*
X260489849Y-157687646D01*
X260421917Y-157702299D01*
X260359005Y-157737113D01*
X260304830Y-157790799D01*
X260263109Y-157862065D01*
X260256768Y-157877527D01*
X260226631Y-157978802D01*
X260208100Y-158094389D01*
X260201284Y-158217344D01*
X259929782Y-158217344D01*
X259929642Y-158170523D01*
X259942220Y-158037587D01*
X259967329Y-157912133D01*
X260004514Y-157799202D01*
X260053324Y-157703832D01*
X260105371Y-157635200D01*
X260184869Y-157562729D01*
X260274445Y-157509682D01*
X260370982Y-157475866D01*
X260471364Y-157461086D01*
X260572475Y-157465150D01*
X260671198Y-157487864D01*
X260764416Y-157529034D01*
X260849014Y-157588468D01*
X260921876Y-157665971D01*
X260979883Y-157761350D01*
X260991108Y-157785431D01*
X261017261Y-157847736D01*
X261036393Y-157906857D01*
X261049522Y-157968459D01*
X261057664Y-158038206D01*
X261061835Y-158121761D01*
X261063053Y-158224788D01*
X261063055Y-158229892D01*
G37*
%TD.AperFunction*%
%TA.AperFunction,EtchedComponent*%
G36*
X264970748Y-158229892D02*
G01*
X264970379Y-158312972D01*
X264968870Y-158376700D01*
X264965720Y-158426629D01*
X264960426Y-158468314D01*
X264952486Y-158507309D01*
X264941396Y-158549168D01*
X264927237Y-158594365D01*
X264876685Y-158710064D01*
X264811339Y-158807164D01*
X264732182Y-158884626D01*
X264640201Y-158941413D01*
X264536378Y-158976485D01*
X264491415Y-158984741D01*
X264372927Y-158990924D01*
X264262244Y-158973883D01*
X264160989Y-158934615D01*
X264070785Y-158874117D01*
X263993253Y-158793383D01*
X263930017Y-158693410D01*
X263882698Y-158575194D01*
X263879312Y-158563841D01*
X263851581Y-158438690D01*
X263837740Y-158305904D01*
X263837475Y-158217344D01*
X264108976Y-158217344D01*
X264113982Y-158340726D01*
X264130918Y-158457593D01*
X264159894Y-158561003D01*
X264188186Y-158619426D01*
X264233097Y-158679617D01*
X264285803Y-158725899D01*
X264341035Y-158752696D01*
X264376309Y-158760286D01*
X264451591Y-158760105D01*
X264519327Y-158736163D01*
X264578431Y-158688963D01*
X264627822Y-158619011D01*
X264631303Y-158612499D01*
X264663188Y-158537202D01*
X264685013Y-158450218D01*
X264697546Y-158347447D01*
X264701553Y-158224788D01*
X264695511Y-158085207D01*
X264676919Y-157964662D01*
X264645728Y-157865714D01*
X264601890Y-157788218D01*
X264545360Y-157732024D01*
X264533596Y-157723989D01*
X264466776Y-157694446D01*
X264397541Y-157687646D01*
X264329609Y-157702299D01*
X264266697Y-157737113D01*
X264212522Y-157790799D01*
X264170802Y-157862065D01*
X264164460Y-157877527D01*
X264134323Y-157978802D01*
X264115793Y-158094389D01*
X264108976Y-158217344D01*
X263837475Y-158217344D01*
X263837335Y-158170523D01*
X263849913Y-158037587D01*
X263875021Y-157912133D01*
X263912206Y-157799202D01*
X263961017Y-157703832D01*
X264013063Y-157635200D01*
X264092561Y-157562729D01*
X264182137Y-157509682D01*
X264278674Y-157475866D01*
X264379056Y-157461086D01*
X264480167Y-157465150D01*
X264578890Y-157487864D01*
X264672109Y-157529034D01*
X264756707Y-157588468D01*
X264829568Y-157665971D01*
X264887576Y-157761350D01*
X264898801Y-157785431D01*
X264924953Y-157847736D01*
X264944085Y-157906857D01*
X264957214Y-157968459D01*
X264965356Y-158038206D01*
X264969528Y-158121761D01*
X264970745Y-158224788D01*
X264970748Y-158229892D01*
G37*
%TD.AperFunction*%
%TA.AperFunction,EtchedComponent*%
G36*
X268071691Y-158229892D02*
G01*
X268071321Y-158312972D01*
X268069813Y-158376700D01*
X268066663Y-158426629D01*
X268061369Y-158468314D01*
X268053428Y-158507309D01*
X268042338Y-158549168D01*
X268028180Y-158594365D01*
X267977628Y-158710064D01*
X267912282Y-158807164D01*
X267833125Y-158884626D01*
X267741143Y-158941413D01*
X267637321Y-158976485D01*
X267592358Y-158984741D01*
X267473870Y-158990924D01*
X267363187Y-158973883D01*
X267261932Y-158934615D01*
X267171728Y-158874117D01*
X267094196Y-158793383D01*
X267030960Y-158693410D01*
X266983641Y-158575194D01*
X266980255Y-158563841D01*
X266952524Y-158438690D01*
X266938683Y-158305904D01*
X266938418Y-158217344D01*
X267209919Y-158217344D01*
X267214924Y-158340726D01*
X267231861Y-158457593D01*
X267260837Y-158561003D01*
X267289129Y-158619426D01*
X267334040Y-158679617D01*
X267386746Y-158725899D01*
X267441978Y-158752696D01*
X267477252Y-158760286D01*
X267552534Y-158760105D01*
X267620270Y-158736163D01*
X267679374Y-158688963D01*
X267728765Y-158619011D01*
X267732246Y-158612499D01*
X267764131Y-158537202D01*
X267785956Y-158450218D01*
X267798488Y-158347447D01*
X267802496Y-158224788D01*
X267796454Y-158085207D01*
X267777862Y-157964662D01*
X267746671Y-157865714D01*
X267702833Y-157788218D01*
X267646303Y-157732024D01*
X267634539Y-157723989D01*
X267567719Y-157694446D01*
X267498484Y-157687646D01*
X267430552Y-157702299D01*
X267367640Y-157737113D01*
X267313465Y-157790799D01*
X267271745Y-157862065D01*
X267265403Y-157877527D01*
X267235266Y-157978802D01*
X267216735Y-158094389D01*
X267209919Y-158217344D01*
X266938418Y-158217344D01*
X266938278Y-158170523D01*
X266950856Y-158037587D01*
X266975964Y-157912133D01*
X267013149Y-157799202D01*
X267061959Y-157703832D01*
X267114006Y-157635200D01*
X267193504Y-157562729D01*
X267283080Y-157509682D01*
X267379617Y-157475866D01*
X267479999Y-157461086D01*
X267581110Y-157465150D01*
X267679833Y-157487864D01*
X267773052Y-157529034D01*
X267857650Y-157588468D01*
X267930511Y-157665971D01*
X267988519Y-157761350D01*
X267999744Y-157785431D01*
X268025896Y-157847736D01*
X268045028Y-157906857D01*
X268058157Y-157968459D01*
X268066299Y-158038206D01*
X268070470Y-158121761D01*
X268071688Y-158224788D01*
X268071691Y-158229892D01*
G37*
%TD.AperFunction*%
%TA.AperFunction,EtchedComponent*%
G36*
X271987822Y-158290803D02*
G01*
X271998404Y-158413870D01*
X271995907Y-158479122D01*
X271975917Y-158601699D01*
X271936606Y-158709960D01*
X271878779Y-158802758D01*
X271803242Y-158878950D01*
X271710800Y-158937389D01*
X271602260Y-158976931D01*
X271554083Y-158985497D01*
X271474180Y-158989898D01*
X271388268Y-158986122D01*
X271306473Y-158974744D01*
X271238923Y-158956338D01*
X271186018Y-158932515D01*
X271112167Y-158885577D01*
X271050881Y-158829644D01*
X271006312Y-158768755D01*
X270982609Y-158706947D01*
X270974616Y-158665979D01*
X271100796Y-158665979D01*
X271118519Y-158665992D01*
X271170315Y-158666584D01*
X271203773Y-158668939D01*
X271224314Y-158674254D01*
X271237356Y-158683726D01*
X271248318Y-158698549D01*
X271266167Y-158719430D01*
X271314448Y-158750906D01*
X271377832Y-158771495D01*
X271450472Y-158778875D01*
X271522849Y-158771641D01*
X271599083Y-158743826D01*
X271661124Y-158695752D01*
X271678439Y-158673722D01*
X271706135Y-158623383D01*
X271726299Y-158568122D01*
X271734095Y-158519614D01*
X271734095Y-158489867D01*
X271346477Y-158486534D01*
X270958859Y-158483200D01*
X270961794Y-158382356D01*
X270964498Y-158327734D01*
X270968010Y-158300421D01*
X271213952Y-158300421D01*
X271474023Y-158300421D01*
X271496372Y-158300380D01*
X271572045Y-158299604D01*
X271637369Y-158297960D01*
X271688629Y-158295607D01*
X271722109Y-158292701D01*
X271734095Y-158289400D01*
X271733257Y-158283826D01*
X271726334Y-158258602D01*
X271714697Y-158223400D01*
X271684604Y-158163310D01*
X271637772Y-158111456D01*
X271580704Y-158075420D01*
X271517285Y-158055000D01*
X271451396Y-158049994D01*
X271386923Y-158060200D01*
X271327746Y-158085415D01*
X271277751Y-158125438D01*
X271240820Y-158180066D01*
X271220835Y-158249098D01*
X271213952Y-158300421D01*
X270968010Y-158300421D01*
X270976112Y-158237421D01*
X270997829Y-158158546D01*
X271031597Y-158082746D01*
X271039555Y-158068233D01*
X271101004Y-157985442D01*
X271180139Y-157920133D01*
X271275880Y-157873028D01*
X271387150Y-157844849D01*
X271461012Y-157838083D01*
X271571400Y-157846509D01*
X271673264Y-157876650D01*
X271764692Y-157926726D01*
X271843772Y-157994958D01*
X271908595Y-158079568D01*
X271957249Y-158178776D01*
X271987439Y-158289400D01*
X271987822Y-158290803D01*
G37*
%TD.AperFunction*%
%TA.AperFunction,EtchedComponent*%
G36*
X276063298Y-157473507D02*
G01*
X276147896Y-157492334D01*
X276244142Y-157532159D01*
X276348466Y-157599476D01*
X276438371Y-157686121D01*
X276511181Y-157789900D01*
X276544479Y-157857957D01*
X276583607Y-157977855D01*
X276606100Y-158108200D01*
X276611854Y-158243697D01*
X276600764Y-158379053D01*
X276572727Y-158508973D01*
X276527639Y-158628163D01*
X276523352Y-158636919D01*
X276460757Y-158735981D01*
X276379836Y-158823174D01*
X276284914Y-158895170D01*
X276180318Y-158948635D01*
X276070373Y-158980242D01*
X276063735Y-158981311D01*
X276013917Y-158986063D01*
X275952741Y-158988107D01*
X275891929Y-158987001D01*
X275812689Y-158978842D01*
X275691112Y-158947952D01*
X275582452Y-158896510D01*
X275488324Y-158825832D01*
X275410342Y-158737237D01*
X275350120Y-158632041D01*
X275309273Y-158511562D01*
X275300959Y-158476897D01*
X275437540Y-158476897D01*
X275574121Y-158476897D01*
X275602888Y-158546304D01*
X275624973Y-158590345D01*
X275678461Y-158656039D01*
X275748873Y-158703364D01*
X275835654Y-158731996D01*
X275938248Y-158741612D01*
X275962767Y-158741325D01*
X276012860Y-158737052D01*
X276056148Y-158725299D01*
X276105671Y-158703064D01*
X276134051Y-158687923D01*
X276192031Y-158647045D01*
X276237893Y-158595659D01*
X276278797Y-158526462D01*
X276279762Y-158524551D01*
X276306642Y-158461113D01*
X276324215Y-158393497D01*
X276333755Y-158314890D01*
X276336541Y-158218485D01*
X276331594Y-158123775D01*
X276310137Y-158009769D01*
X276272210Y-157912171D01*
X276218374Y-157832317D01*
X276149188Y-157771544D01*
X276125649Y-157756826D01*
X276058035Y-157725777D01*
X275985790Y-157711176D01*
X275900199Y-157710902D01*
X275839177Y-157719044D01*
X275752374Y-157747936D01*
X275680292Y-157794963D01*
X275625175Y-157858494D01*
X275589267Y-157936897D01*
X275574769Y-157985284D01*
X275437864Y-157985284D01*
X275300959Y-157985284D01*
X275308621Y-157950619D01*
X275313728Y-157929326D01*
X275343137Y-157840066D01*
X275383003Y-157754727D01*
X275429618Y-157680404D01*
X275479273Y-157624190D01*
X275490162Y-157614799D01*
X275557753Y-157566957D01*
X275637194Y-157523894D01*
X275717420Y-157491764D01*
X275771256Y-157478270D01*
X275865166Y-157466463D01*
X275965784Y-157464879D01*
X276063298Y-157473507D01*
G37*
%TD.AperFunction*%
%TA.AperFunction,EtchedComponent*%
G36*
X283021512Y-157473507D02*
G01*
X283106109Y-157492334D01*
X283202356Y-157532159D01*
X283306680Y-157599476D01*
X283396584Y-157686121D01*
X283469394Y-157789900D01*
X283502692Y-157857957D01*
X283541821Y-157977855D01*
X283564313Y-158108200D01*
X283570067Y-158243697D01*
X283558977Y-158379053D01*
X283530941Y-158508973D01*
X283485853Y-158628163D01*
X283481566Y-158636919D01*
X283418970Y-158735981D01*
X283338049Y-158823174D01*
X283243128Y-158895170D01*
X283138532Y-158948635D01*
X283028586Y-158980242D01*
X283021949Y-158981311D01*
X282972131Y-158986063D01*
X282910955Y-158988107D01*
X282850142Y-158987001D01*
X282770902Y-158978842D01*
X282649325Y-158947952D01*
X282540666Y-158896510D01*
X282446538Y-158825832D01*
X282368555Y-158737237D01*
X282308334Y-158632041D01*
X282267487Y-158511562D01*
X282259173Y-158476897D01*
X282395754Y-158476897D01*
X282532334Y-158476897D01*
X282561102Y-158546304D01*
X282583186Y-158590345D01*
X282636674Y-158656039D01*
X282707087Y-158703364D01*
X282793868Y-158731996D01*
X282896461Y-158741612D01*
X282920981Y-158741325D01*
X282971074Y-158737052D01*
X283014361Y-158725299D01*
X283063884Y-158703064D01*
X283092264Y-158687923D01*
X283150245Y-158647045D01*
X283196107Y-158595659D01*
X283237010Y-158526462D01*
X283237975Y-158524551D01*
X283264856Y-158461113D01*
X283282428Y-158393497D01*
X283291968Y-158314890D01*
X283294754Y-158218485D01*
X283289808Y-158123775D01*
X283268351Y-158009769D01*
X283230424Y-157912171D01*
X283176587Y-157832317D01*
X283107402Y-157771544D01*
X283083863Y-157756826D01*
X283016248Y-157725777D01*
X282944003Y-157711176D01*
X282858413Y-157710902D01*
X282797390Y-157719044D01*
X282710588Y-157747936D01*
X282638505Y-157794963D01*
X282583388Y-157858494D01*
X282547480Y-157936897D01*
X282532983Y-157985284D01*
X282396078Y-157985284D01*
X282259173Y-157985284D01*
X282266834Y-157950619D01*
X282271941Y-157929326D01*
X282301350Y-157840066D01*
X282341216Y-157754727D01*
X282387831Y-157680404D01*
X282437487Y-157624190D01*
X282448375Y-157614799D01*
X282515966Y-157566957D01*
X282595407Y-157523894D01*
X282675633Y-157491764D01*
X282729470Y-157478270D01*
X282823380Y-157466463D01*
X282923998Y-157464879D01*
X283021512Y-157473507D01*
G37*
%TD.AperFunction*%
%TA.AperFunction,EtchedComponent*%
G36*
X279731738Y-158224788D02*
G01*
X279731740Y-158229892D01*
X279731371Y-158312972D01*
X279729863Y-158376700D01*
X279726713Y-158426629D01*
X279721419Y-158468314D01*
X279713478Y-158507309D01*
X279702388Y-158549168D01*
X279688230Y-158594365D01*
X279637678Y-158710064D01*
X279572331Y-158807164D01*
X279493175Y-158884626D01*
X279401193Y-158941413D01*
X279297370Y-158976485D01*
X279252408Y-158984741D01*
X279133920Y-158990924D01*
X279023237Y-158973883D01*
X278921982Y-158934615D01*
X278831777Y-158874117D01*
X278754246Y-158793383D01*
X278691009Y-158693410D01*
X278643691Y-158575194D01*
X278640304Y-158563841D01*
X278612574Y-158438690D01*
X278598733Y-158305904D01*
X278598471Y-158218485D01*
X278869474Y-158218485D01*
X278870261Y-158268580D01*
X278881017Y-158394077D01*
X278903834Y-158503743D01*
X278938027Y-158596009D01*
X278982913Y-158669304D01*
X279037808Y-158722056D01*
X279102027Y-158752696D01*
X279106305Y-158753852D01*
X279183597Y-158762937D01*
X279253723Y-158748431D01*
X279315691Y-158711153D01*
X279368508Y-158651926D01*
X279411181Y-158571571D01*
X279442717Y-158470908D01*
X279442927Y-158469996D01*
X279453866Y-158401699D01*
X279460415Y-158316961D01*
X279462574Y-158224035D01*
X279460344Y-158131176D01*
X279453725Y-158046636D01*
X279442717Y-157978668D01*
X279441747Y-157974538D01*
X279410162Y-157876836D01*
X279367159Y-157798002D01*
X279314139Y-157739228D01*
X279252504Y-157701704D01*
X279183655Y-157686621D01*
X279108994Y-157695169D01*
X279087948Y-157702015D01*
X279024378Y-157739471D01*
X278970721Y-157798453D01*
X278927689Y-157877405D01*
X278895994Y-157974766D01*
X278876352Y-158088979D01*
X278869474Y-158218485D01*
X278598471Y-158218485D01*
X278598327Y-158170523D01*
X278610905Y-158037587D01*
X278636013Y-157912133D01*
X278673199Y-157799202D01*
X278722009Y-157703832D01*
X278774056Y-157635200D01*
X278853554Y-157562729D01*
X278943130Y-157509682D01*
X279039667Y-157475866D01*
X279140049Y-157461086D01*
X279241160Y-157465150D01*
X279339883Y-157487864D01*
X279433101Y-157529034D01*
X279517699Y-157588468D01*
X279590561Y-157665971D01*
X279648568Y-157761350D01*
X279659793Y-157785431D01*
X279685945Y-157847736D01*
X279705078Y-157906857D01*
X279718207Y-157968459D01*
X279726349Y-158038206D01*
X279730520Y-158121761D01*
X279731729Y-158224035D01*
X279731738Y-158224788D01*
G37*
%TD.AperFunction*%
%TA.AperFunction,EtchedComponent*%
G36*
X262235148Y-157509428D02*
G01*
X262237133Y-157522231D01*
X262241693Y-157558593D01*
X262248023Y-157613213D01*
X262255709Y-157682152D01*
X262264340Y-157761475D01*
X262273501Y-157847246D01*
X262282781Y-157935528D01*
X262291766Y-158022385D01*
X262300043Y-158103880D01*
X262307200Y-158176078D01*
X262312823Y-158235042D01*
X262316500Y-158276835D01*
X262317817Y-158297521D01*
X262317810Y-158299193D01*
X262316133Y-158311716D01*
X262308209Y-158319494D01*
X262289297Y-158323655D01*
X262254657Y-158325326D01*
X262199548Y-158325632D01*
X262081279Y-158325632D01*
X262032242Y-158276594D01*
X261987651Y-158240567D01*
X261916759Y-158209800D01*
X261832424Y-158199648D01*
X261814279Y-158200079D01*
X261729866Y-158215350D01*
X261657624Y-158250787D01*
X261600186Y-158304087D01*
X261560186Y-158372947D01*
X261540259Y-158455065D01*
X261540818Y-158532410D01*
X261561761Y-158610261D01*
X261602277Y-158674949D01*
X261660229Y-158724098D01*
X261733483Y-158755330D01*
X261819901Y-158766269D01*
X261867420Y-158762964D01*
X261940752Y-158743439D01*
X262001920Y-158708607D01*
X262046969Y-158661026D01*
X262071944Y-158603254D01*
X262080316Y-158565136D01*
X262213283Y-158565136D01*
X262346250Y-158565136D01*
X262337951Y-158618709D01*
X262329105Y-158660231D01*
X262292657Y-158748306D01*
X262235306Y-158825889D01*
X262159248Y-158890911D01*
X262066680Y-158941302D01*
X261959799Y-158974993D01*
X261958961Y-158975175D01*
X261837962Y-158990589D01*
X261723909Y-158984529D01*
X261618622Y-158958927D01*
X261523916Y-158915722D01*
X261441609Y-158856846D01*
X261373519Y-158784238D01*
X261321464Y-158699830D01*
X261287260Y-158605560D01*
X261272725Y-158503363D01*
X261279677Y-158395174D01*
X261309933Y-158282928D01*
X261327716Y-158242292D01*
X261381218Y-158161122D01*
X261450767Y-158093947D01*
X261532554Y-158042033D01*
X261622773Y-158006650D01*
X261717616Y-157989065D01*
X261813276Y-157990548D01*
X261905945Y-158012365D01*
X261991816Y-158055786D01*
X262056408Y-158099253D01*
X262049226Y-158051723D01*
X262045766Y-158026143D01*
X262039993Y-157978805D01*
X262033191Y-157919714D01*
X262026210Y-157856079D01*
X262010376Y-157707964D01*
X261678786Y-157707964D01*
X261347197Y-157707964D01*
X261347197Y-157594515D01*
X261347197Y-157481066D01*
X261788148Y-157481066D01*
X262229098Y-157481066D01*
X262235148Y-157509428D01*
G37*
%TD.AperFunction*%
%TA.AperFunction,EtchedComponent*%
G36*
X275074542Y-158224788D02*
G01*
X275074542Y-158528382D01*
X275074542Y-158968510D01*
X274717934Y-158968510D01*
X274631870Y-158968352D01*
X274535242Y-158967564D01*
X274458384Y-158965985D01*
X274398174Y-158963476D01*
X274351489Y-158959894D01*
X274315204Y-158955098D01*
X274286197Y-158948947D01*
X274218231Y-158926623D01*
X274127060Y-158877625D01*
X274053966Y-158811751D01*
X273999859Y-158729696D01*
X273984456Y-158687490D01*
X273972199Y-158615966D01*
X273970587Y-158542354D01*
X274243632Y-158542354D01*
X274254773Y-158607497D01*
X274288336Y-158664168D01*
X274343468Y-158709417D01*
X274344822Y-158710207D01*
X274364128Y-158719785D01*
X274386815Y-158726799D01*
X274417248Y-158731765D01*
X274459793Y-158735198D01*
X274518817Y-158737612D01*
X274598685Y-158739523D01*
X274809827Y-158743737D01*
X274809827Y-158528382D01*
X274809827Y-158313026D01*
X274628929Y-158313026D01*
X274591530Y-158313266D01*
X274497185Y-158317101D01*
X274423313Y-158326536D01*
X274366614Y-158342764D01*
X274323794Y-158366978D01*
X274291555Y-158400371D01*
X274266600Y-158444137D01*
X274255769Y-158471688D01*
X274243632Y-158542354D01*
X273970587Y-158542354D01*
X273970487Y-158537794D01*
X273979350Y-158462421D01*
X273998818Y-158399294D01*
X274006498Y-158383678D01*
X274058784Y-158309556D01*
X274127928Y-158251465D01*
X274209450Y-158213360D01*
X274225647Y-158208310D01*
X274259388Y-158197045D01*
X274272937Y-158189605D01*
X274269233Y-158183329D01*
X274251215Y-158175558D01*
X274224466Y-158165874D01*
X274209367Y-158161761D01*
X274202902Y-158158966D01*
X274180252Y-158145343D01*
X274148417Y-158124204D01*
X274117015Y-158099033D01*
X274067797Y-158036182D01*
X274038415Y-157958300D01*
X274034966Y-157923657D01*
X274295327Y-157923657D01*
X274312804Y-157984873D01*
X274351468Y-158038040D01*
X274409690Y-158079078D01*
X274430164Y-158088866D01*
X274456754Y-158099091D01*
X274485477Y-158105651D01*
X274522101Y-158109345D01*
X274572396Y-158110974D01*
X274642128Y-158111339D01*
X274809827Y-158111339D01*
X274809827Y-157909652D01*
X274809827Y-157707964D01*
X274641534Y-157707964D01*
X274624400Y-157708015D01*
X274531115Y-157710889D01*
X274458770Y-157719088D01*
X274403941Y-157733878D01*
X274363200Y-157756526D01*
X274333124Y-157788299D01*
X274310287Y-157830463D01*
X274300668Y-157858467D01*
X274295327Y-157923657D01*
X274034966Y-157923657D01*
X274029247Y-157866209D01*
X274031550Y-157818400D01*
X274037251Y-157770579D01*
X274045004Y-157737158D01*
X274046946Y-157732046D01*
X274085059Y-157661649D01*
X274138532Y-157599457D01*
X274200171Y-157553962D01*
X274218429Y-157544297D01*
X274257974Y-157525583D01*
X274297856Y-157510911D01*
X274341628Y-157499805D01*
X274392841Y-157491787D01*
X274455047Y-157486382D01*
X274531799Y-157483111D01*
X274626647Y-157481498D01*
X274743145Y-157481066D01*
X275074542Y-157481066D01*
X275074542Y-157909652D01*
X275074542Y-158224788D01*
G37*
%TD.AperFunction*%
%TA.AperFunction,EtchedComponent*%
G36*
X257251205Y-158538687D02*
G01*
X257236059Y-158592527D01*
X257214545Y-158646879D01*
X257185614Y-158707324D01*
X257167314Y-158740078D01*
X257101857Y-158824345D01*
X257019171Y-158894721D01*
X256923845Y-158947778D01*
X256820471Y-158980087D01*
X256791102Y-158985184D01*
X256674098Y-158992185D01*
X256562793Y-158978392D01*
X256459717Y-158945445D01*
X256367403Y-158894979D01*
X256288382Y-158828631D01*
X256225185Y-158748039D01*
X256180346Y-158654840D01*
X256156394Y-158550671D01*
X256154427Y-158510309D01*
X256414332Y-158510309D01*
X256430346Y-158583428D01*
X256464576Y-158650150D01*
X256516371Y-158706186D01*
X256585080Y-158747246D01*
X256587170Y-158748108D01*
X256662680Y-158766306D01*
X256741043Y-158763359D01*
X256816338Y-158740999D01*
X256882646Y-158700963D01*
X256934048Y-158644985D01*
X256970699Y-158569436D01*
X256984102Y-158491459D01*
X256974935Y-158415251D01*
X256944206Y-158344513D01*
X256892923Y-158282943D01*
X256822096Y-158234242D01*
X256813086Y-158229807D01*
X256733386Y-158204364D01*
X256653904Y-158202062D01*
X256578721Y-158222494D01*
X256511916Y-158265250D01*
X256482097Y-158295460D01*
X256439557Y-158362036D01*
X256417185Y-158435082D01*
X256414332Y-158510309D01*
X256154427Y-158510309D01*
X256152122Y-158463033D01*
X256165312Y-158352473D01*
X256199330Y-158252629D01*
X256253139Y-158165546D01*
X256325702Y-158093271D01*
X256415985Y-158037852D01*
X256448580Y-158023588D01*
X256480560Y-158013372D01*
X256516046Y-158007511D01*
X256562267Y-158004851D01*
X256626452Y-158004237D01*
X256637070Y-158004248D01*
X256696918Y-158004978D01*
X256739487Y-158007706D01*
X256771686Y-158013623D01*
X256800428Y-158023920D01*
X256832624Y-158039790D01*
X256861066Y-158056677D01*
X256911979Y-158093547D01*
X256955527Y-158132292D01*
X257010919Y-158189286D01*
X257010919Y-158132025D01*
X257008930Y-158089352D01*
X256994691Y-158002941D01*
X256968943Y-157918363D01*
X256934300Y-157843323D01*
X256893375Y-157785522D01*
X256881115Y-157773169D01*
X256820466Y-157730589D01*
X256751577Y-157705889D01*
X256679219Y-157698560D01*
X256608164Y-157708093D01*
X256543184Y-157733978D01*
X256489052Y-157775708D01*
X256450539Y-157832771D01*
X256427239Y-157884441D01*
X256295146Y-157884441D01*
X256163054Y-157884441D01*
X256169830Y-157842687D01*
X256184123Y-157788018D01*
X256222741Y-157707922D01*
X256278371Y-157632587D01*
X256346455Y-157567842D01*
X256422435Y-157519518D01*
X256506357Y-157486196D01*
X256618822Y-157463120D01*
X256730597Y-157462839D01*
X256838663Y-157484351D01*
X256939999Y-157526658D01*
X257031589Y-157588759D01*
X257110413Y-157669654D01*
X257173452Y-157768342D01*
X257206986Y-157840174D01*
X257232322Y-157909176D01*
X257250096Y-157980161D01*
X257261426Y-158058888D01*
X257267426Y-158151116D01*
X257269213Y-158262605D01*
X257268922Y-158324461D01*
X257266588Y-158410233D01*
X257261032Y-158479783D01*
X257259084Y-158491459D01*
X257251205Y-158538687D01*
G37*
%TD.AperFunction*%
%TD*%
D11*
%TO.P,S45,1,1*%
%TO.N,COL6*%
X272415000Y-146685000D03*
%TO.P,S45,2,2*%
%TO.N,Net-(D45-A)*%
X278765000Y-144145000D03*
%TD*%
%TO.P,S53,1,1*%
%TO.N,COL4*%
X186690000Y-165735000D03*
%TO.P,S53,2,2*%
%TO.N,Net-(D53-A)*%
X193040000Y-163195000D03*
%TD*%
%TO.P,S10,1,1*%
%TO.N,COL5*%
X220027500Y-108585000D03*
%TO.P,S10,2,2*%
%TO.N,Net-(D10-A)*%
X226377500Y-106045000D03*
%TD*%
%TO.P,S9,1,1*%
%TO.N,COL4*%
X200977500Y-108585000D03*
%TO.P,S9,2,2*%
%TO.N,Net-(D9-A)*%
X207327500Y-106045000D03*
%TD*%
%TO.P,S18,1,1*%
%TO.N,COL0*%
X43815000Y-132397500D03*
%TO.P,S18,2,2*%
%TO.N,Net-(D18-A)*%
X50165000Y-129857500D03*
%TD*%
%TO.P,S16,1,1*%
%TO.N,COL8*%
X334327500Y-108585000D03*
%TO.P,S16,2,2*%
%TO.N,Net-(D16-A)*%
X340677500Y-106045000D03*
%TD*%
%TO.P,S35,1,1*%
%TO.N,COL1*%
X74771250Y-146685000D03*
%TO.P,S35,2,2*%
%TO.N,Net-(D35-A)*%
X81121250Y-144145000D03*
%TD*%
%TO.P,S61,1,1*%
%TO.N,COL1*%
X70008750Y-184785000D03*
%TO.P,S61,2,2*%
%TO.N,Net-(D61-A)*%
X76358750Y-182245000D03*
%TD*%
D12*
%TO.P,LED1,1,K*%
%TO.N,GND*%
X46355000Y-174625000D03*
D13*
%TO.P,LED1,2,A*%
%TO.N,Net-(LED1-A)*%
X48895000Y-174625000D03*
%TD*%
D14*
%TO.P,S65,1,1*%
%TO.N,COL4*%
X216752500Y-184785000D03*
%TO.P,S65,2,2*%
%TO.N,Net-(D65-A)*%
X229679500Y-182245000D03*
%TD*%
D11*
%TO.P,S3,1,1*%
%TO.N,COL1*%
X86677500Y-108585000D03*
%TO.P,S3,2,2*%
%TO.N,Net-(D3-A)*%
X93027500Y-106045000D03*
%TD*%
D14*
%TO.P,S64,1,1*%
%TO.N,COL3*%
X159602500Y-184785000D03*
%TO.P,S64,2,2*%
%TO.N,Net-(D64-A)*%
X172529500Y-182245000D03*
%TD*%
D11*
%TO.P,S49,1,1*%
%TO.N,COL2*%
X110490000Y-165735000D03*
%TO.P,S49,2,2*%
%TO.N,Net-(D49-A)*%
X116840000Y-163195000D03*
%TD*%
%TO.P,S50,1,1*%
%TO.N,COL2*%
X129540000Y-165735000D03*
%TO.P,S50,2,2*%
%TO.N,Net-(D50-A)*%
X135890000Y-163195000D03*
%TD*%
%TO.P,S1,1,1*%
%TO.N,COL0*%
X43815000Y-108585000D03*
%TO.P,S1,2,2*%
%TO.N,Net-(D1-A)*%
X50165000Y-106045000D03*
%TD*%
%TO.P,S33,1,1*%
%TO.N,COL8*%
X358140000Y-127635000D03*
%TO.P,S33,2,2*%
%TO.N,Net-(D33-A)*%
X364490000Y-125095000D03*
%TD*%
%TO.P,S55,1,1*%
%TO.N,COL5*%
X224790000Y-165735000D03*
%TO.P,S55,2,2*%
%TO.N,Net-(D55-A)*%
X231140000Y-163195000D03*
%TD*%
%TO.P,S60,1,1*%
%TO.N,COL8*%
X339090000Y-165735000D03*
%TO.P,S60,2,2*%
%TO.N,Net-(D60-A)*%
X345440000Y-163195000D03*
%TD*%
%TO.P,S41,1,1*%
%TO.N,COL4*%
X196215000Y-146685000D03*
%TO.P,S41,2,2*%
%TO.N,Net-(D41-A)*%
X202565000Y-144145000D03*
%TD*%
%TO.P,S5,1,1*%
%TO.N,COL2*%
X124777500Y-108585000D03*
%TO.P,S5,2,2*%
%TO.N,Net-(D5-A)*%
X131127500Y-106045000D03*
%TD*%
D14*
%TO.P,S47,1,1*%
%TO.N,COL7*%
X319146250Y-146685000D03*
%TO.P,S47,2,2*%
%TO.N,Net-(D47-A)*%
X332073250Y-144145000D03*
%TD*%
D11*
%TO.P,S57,1,1*%
%TO.N,COL6*%
X262890000Y-165735000D03*
%TO.P,S57,2,2*%
%TO.N,Net-(D57-A)*%
X269240000Y-163195000D03*
%TD*%
%TO.P,S26,1,1*%
%TO.N,COL4*%
X210502500Y-127635000D03*
%TO.P,S26,2,2*%
%TO.N,Net-(D26-A)*%
X216852500Y-125095000D03*
%TD*%
%TO.P,S43,1,1*%
%TO.N,COL5*%
X234315000Y-146685000D03*
%TO.P,S43,2,2*%
%TO.N,Net-(D43-A)*%
X240665000Y-144145000D03*
%TD*%
%TO.P,S51,1,1*%
%TO.N,COL3*%
X148590000Y-165735000D03*
%TO.P,S51,2,2*%
%TO.N,Net-(D51-A)*%
X154940000Y-163195000D03*
%TD*%
D14*
%TO.P,S59,1,1*%
%TO.N,COL7*%
X307240000Y-165735000D03*
%TO.P,S59,2,2*%
%TO.N,Net-(D59-A)*%
X320167000Y-163195000D03*
%TD*%
D11*
%TO.P,S4,1,1*%
%TO.N,COL2*%
X105727500Y-108585000D03*
%TO.P,S4,2,2*%
%TO.N,Net-(D4-A)*%
X112077500Y-106045000D03*
%TD*%
%TO.P,S63,1,1*%
%TO.N,COL2*%
X120015000Y-184785000D03*
%TO.P,S63,2,2*%
%TO.N,Net-(D63-A)*%
X126365000Y-182245000D03*
%TD*%
%TO.P,S27,1,1*%
%TO.N,COL5*%
X229552500Y-127635000D03*
%TO.P,S27,2,2*%
%TO.N,Net-(D27-A)*%
X235902500Y-125095000D03*
%TD*%
%TO.P,S58,1,1*%
%TO.N,COL6*%
X281940000Y-165735000D03*
%TO.P,S58,2,2*%
%TO.N,Net-(D58-A)*%
X288290000Y-163195000D03*
%TD*%
%TO.P,S7,1,1*%
%TO.N,COL3*%
X162877500Y-108585000D03*
%TO.P,S7,2,2*%
%TO.N,Net-(D7-A)*%
X169227500Y-106045000D03*
%TD*%
%TO.P,S62,1,1*%
%TO.N,COL1*%
X93821250Y-184785000D03*
%TO.P,S62,2,2*%
%TO.N,Net-(D62-A)*%
X100171250Y-182245000D03*
%TD*%
%TO.P,S14,1,1*%
%TO.N,COL7*%
X296227500Y-108585000D03*
%TO.P,S14,2,2*%
%TO.N,Net-(D14-A)*%
X302577500Y-106045000D03*
%TD*%
%TO.P,S39,1,1*%
%TO.N,COL3*%
X158115000Y-146685000D03*
%TO.P,S39,2,2*%
%TO.N,Net-(D39-A)*%
X164465000Y-144145000D03*
%TD*%
%TO.P,S24,1,1*%
%TO.N,COL3*%
X172402500Y-127635000D03*
%TO.P,S24,2,2*%
%TO.N,Net-(D24-A)*%
X178752500Y-125095000D03*
%TD*%
%TO.P,S54,1,1*%
%TO.N,COL4*%
X205740000Y-165735000D03*
%TO.P,S54,2,2*%
%TO.N,Net-(D54-A)*%
X212090000Y-163195000D03*
%TD*%
%TO.P,S68,1,1*%
%TO.N,COL7*%
X320040000Y-184785000D03*
%TO.P,S68,2,2*%
%TO.N,Net-(D68-A)*%
X326390000Y-182245000D03*
%TD*%
%TO.P,S29,1,1*%
%TO.N,COL6*%
X267652500Y-127635000D03*
%TO.P,S29,2,2*%
%TO.N,Net-(D29-A)*%
X274002500Y-125095000D03*
%TD*%
D12*
%TO.P,LED3,1,K*%
%TO.N,GND*%
X46355000Y-187312500D03*
D13*
%TO.P,LED3,2,A*%
%TO.N,Net-(LED3-A)*%
X48895000Y-187312500D03*
%TD*%
D11*
%TO.P,S25,1,1*%
%TO.N,COL4*%
X191452500Y-127635000D03*
%TO.P,S25,2,2*%
%TO.N,Net-(D25-A)*%
X197802500Y-125095000D03*
%TD*%
%TO.P,S36,1,1*%
%TO.N,COL2*%
X100965000Y-146685000D03*
%TO.P,S36,2,2*%
%TO.N,Net-(D36-A)*%
X107315000Y-144145000D03*
%TD*%
%TO.P,S22,1,1*%
%TO.N,COL2*%
X134302500Y-127635000D03*
%TO.P,S22,2,2*%
%TO.N,Net-(D22-A)*%
X140652500Y-125095000D03*
%TD*%
%TO.P,S67,1,1*%
%TO.N,COL6*%
X289083750Y-184785000D03*
%TO.P,S67,2,2*%
%TO.N,Net-(D67-A)*%
X295433750Y-182245000D03*
%TD*%
%TO.P,S34,1,1*%
%TO.N,COL0*%
X43815000Y-151447500D03*
%TO.P,S34,2,2*%
%TO.N,Net-(D34-A)*%
X50165000Y-148907500D03*
%TD*%
%TO.P,S70,1,1*%
%TO.N,COL8*%
X358140000Y-184785000D03*
%TO.P,S70,2,2*%
%TO.N,Net-(D70-A)*%
X364490000Y-182245000D03*
%TD*%
%TO.P,S28,1,1*%
%TO.N,COL5*%
X248602500Y-127635000D03*
%TO.P,S28,2,2*%
%TO.N,Net-(D28-A)*%
X254952500Y-125095000D03*
%TD*%
%TO.P,S30,1,1*%
%TO.N,COL6*%
X286702500Y-127635000D03*
%TO.P,S30,2,2*%
%TO.N,Net-(D30-A)*%
X293052500Y-125095000D03*
%TD*%
%TO.P,S13,1,1*%
%TO.N,COL6*%
X277177500Y-108585000D03*
%TO.P,S13,2,2*%
%TO.N,Net-(D13-A)*%
X283527500Y-106045000D03*
%TD*%
%TO.P,S23,1,1*%
%TO.N,COL3*%
X153352500Y-127635000D03*
%TO.P,S23,2,2*%
%TO.N,Net-(D23-A)*%
X159702500Y-125095000D03*
%TD*%
%TO.P,S56,1,1*%
%TO.N,COL5*%
X243840000Y-165735000D03*
%TO.P,S56,2,2*%
%TO.N,Net-(D56-A)*%
X250190000Y-163195000D03*
%TD*%
%TO.P,S17,1,1*%
%TO.N,COL8*%
X358140000Y-108585000D03*
%TO.P,S17,2,2*%
%TO.N,Net-(D17-A)*%
X364490000Y-106045000D03*
%TD*%
%TO.P,S31,1,1*%
%TO.N,COL7*%
X305752500Y-127635000D03*
%TO.P,S31,2,2*%
%TO.N,Net-(D31-A)*%
X312102500Y-125095000D03*
%TD*%
%TO.P,S52,1,1*%
%TO.N,COL3*%
X167640000Y-165735000D03*
%TO.P,S52,2,2*%
%TO.N,Net-(D52-A)*%
X173990000Y-163195000D03*
%TD*%
D15*
%TO.P,RESW1,A,A*%
%TO.N,RESW_A*%
X368975000Y-166250000D03*
D16*
%TO.P,RESW1,B,B*%
%TO.N,RESW_B*%
X373975000Y-166250000D03*
%TO.P,RESW1,C,C*%
%TO.N,GND*%
X371475000Y-166250000D03*
D17*
%TO.P,RESW1,MP*%
%TO.N,N/C*%
X365875000Y-158750000D03*
X377075000Y-158750000D03*
D16*
%TO.P,RESW1,S1,S1*%
%TO.N,Net-(D71-A)*%
X373975000Y-151750000D03*
%TO.P,RESW1,S2,S2*%
%TO.N,COL8*%
X368975000Y-151750000D03*
%TD*%
D11*
%TO.P,S46,1,1*%
%TO.N,COL7*%
X291465000Y-146685000D03*
%TO.P,S46,2,2*%
%TO.N,Net-(D46-A)*%
X297815000Y-144145000D03*
%TD*%
%TO.P,S11,1,1*%
%TO.N,COL5*%
X239077500Y-108585000D03*
%TO.P,S11,2,2*%
%TO.N,Net-(D11-A)*%
X245427500Y-106045000D03*
%TD*%
%TO.P,S12,1,1*%
%TO.N,COL6*%
X258127500Y-108585000D03*
%TO.P,S12,2,2*%
%TO.N,Net-(D12-A)*%
X264477500Y-106045000D03*
%TD*%
D14*
%TO.P,S48,1,1*%
%TO.N,COL1*%
X76258750Y-165735000D03*
%TO.P,S48,2,2*%
%TO.N,Net-(D48-A)*%
X89185750Y-163195000D03*
%TD*%
D11*
%TO.P,S42,1,1*%
%TO.N,COL5*%
X215265000Y-146685000D03*
%TO.P,S42,2,2*%
%TO.N,Net-(D42-A)*%
X221615000Y-144145000D03*
%TD*%
%TO.P,S66,1,1*%
%TO.N,COL5*%
X262890000Y-184785000D03*
%TO.P,S66,2,2*%
%TO.N,Net-(D66-A)*%
X269240000Y-182245000D03*
%TD*%
%TO.P,S69,1,1*%
%TO.N,COL8*%
X339090000Y-184785000D03*
%TO.P,S69,2,2*%
%TO.N,Net-(D69-A)*%
X345440000Y-182245000D03*
%TD*%
%TO.P,S40,1,1*%
%TO.N,COL4*%
X177165000Y-146685000D03*
%TO.P,S40,2,2*%
%TO.N,Net-(D40-A)*%
X183515000Y-144145000D03*
%TD*%
%TO.P,S19,1,1*%
%TO.N,COL1*%
X72390000Y-127635000D03*
%TO.P,S19,2,2*%
%TO.N,Net-(D19-A)*%
X78740000Y-125095000D03*
%TD*%
%TO.P,S6,1,1*%
%TO.N,COL3*%
X143827500Y-108585000D03*
%TO.P,S6,2,2*%
%TO.N,Net-(D6-A)*%
X150177500Y-106045000D03*
%TD*%
%TO.P,S21,1,1*%
%TO.N,COL2*%
X115252500Y-127635000D03*
%TO.P,S21,2,2*%
%TO.N,Net-(D21-A)*%
X121602500Y-125095000D03*
%TD*%
%TO.P,S15,1,1*%
%TO.N,COL7*%
X315277500Y-108585000D03*
%TO.P,S15,2,2*%
%TO.N,Net-(D15-A)*%
X321627500Y-106045000D03*
%TD*%
D12*
%TO.P,LED2,1,K*%
%TO.N,GND*%
X46355000Y-180968750D03*
D13*
%TO.P,LED2,2,A*%
%TO.N,Net-(LED2-A)*%
X48895000Y-180968750D03*
%TD*%
D11*
%TO.P,S20,1,1*%
%TO.N,COL1*%
X96202500Y-127635000D03*
%TO.P,S20,2,2*%
%TO.N,Net-(D20-A)*%
X102552500Y-125095000D03*
%TD*%
%TO.P,S37,1,1*%
%TO.N,COL2*%
X120015000Y-146685000D03*
%TO.P,S37,2,2*%
%TO.N,Net-(D37-A)*%
X126365000Y-144145000D03*
%TD*%
%TO.P,S32,1,1*%
%TO.N,COL7*%
X329565000Y-127635000D03*
%TO.P,S32,2,2*%
%TO.N,Net-(D32-A)*%
X335915000Y-125095000D03*
%TD*%
%TO.P,S8,1,1*%
%TO.N,COL4*%
X181927500Y-108585000D03*
%TO.P,S8,2,2*%
%TO.N,Net-(D8-A)*%
X188277500Y-106045000D03*
%TD*%
%TO.P,S38,1,1*%
%TO.N,COL3*%
X139065000Y-146685000D03*
%TO.P,S38,2,2*%
%TO.N,Net-(D38-A)*%
X145415000Y-144145000D03*
%TD*%
%TO.P,S44,1,1*%
%TO.N,COL6*%
X253365000Y-146685000D03*
%TO.P,S44,2,2*%
%TO.N,Net-(D44-A)*%
X259715000Y-144145000D03*
%TD*%
%TO.P,S2,1,1*%
%TO.N,COL1*%
X67627500Y-108585000D03*
%TO.P,S2,2,2*%
%TO.N,Net-(D2-A)*%
X73977500Y-106045000D03*
%TD*%
D18*
%TO.P,C6,1*%
%TO.N,GND*%
X353200000Y-153250000D03*
%TO.P,C6,2*%
%TO.N,+5V*%
X351500000Y-153250000D03*
%TD*%
D19*
%TO.P,RGB7,1,VDD*%
%TO.N,+5V*%
X94812500Y-121443750D03*
%TO.P,RGB7,2,DOUT*%
%TO.N,Net-(RGB7-DOUT)*%
X94812500Y-118243750D03*
%TO.P,RGB7,3,VSS*%
%TO.N,GND*%
X100012500Y-118243750D03*
%TO.P,RGB7,4,DIN*%
%TO.N,Net-(RGB6-DOUT)*%
X100012500Y-121443750D03*
%TD*%
D20*
%TO.P,D8,1,K*%
%TO.N,ROW1*%
X193675000Y-112043750D03*
%TO.P,D8,2,A*%
%TO.N,Net-(D8-A)*%
X193675000Y-108743750D03*
%TD*%
D19*
%TO.P,RGB16,1,VDD*%
%TO.N,+5V*%
X357187500Y-175337500D03*
%TO.P,RGB16,2,DOUT*%
%TO.N,unconnected-(RGB16-DOUT-Pad2)*%
X357187500Y-178537500D03*
%TO.P,RGB16,3,VSS*%
%TO.N,GND*%
X351987500Y-178537500D03*
%TO.P,RGB16,4,DIN*%
%TO.N,Net-(RGB15-DOUT)*%
X351987500Y-175337500D03*
%TD*%
%TO.P,RGB14,1,VDD*%
%TO.N,+5V*%
X273843750Y-175418750D03*
%TO.P,RGB14,2,DOUT*%
%TO.N,Net-(RGB14-DOUT)*%
X273843750Y-178618750D03*
%TO.P,RGB14,3,VSS*%
%TO.N,GND*%
X268643750Y-178618750D03*
%TO.P,RGB14,4,DIN*%
%TO.N,Net-(RGB13-DOUT)*%
X268643750Y-175418750D03*
%TD*%
D21*
%TO.P,CRGB14,1*%
%TO.N,+5V*%
X277018750Y-176100000D03*
%TO.P,CRGB14,2*%
%TO.N,GND*%
X277018750Y-177800000D03*
%TD*%
D20*
%TO.P,D58,1,K*%
%TO.N,ROW6*%
X293687500Y-169068750D03*
%TO.P,D58,2,A*%
%TO.N,Net-(D58-A)*%
X293687500Y-165768750D03*
%TD*%
%TO.P,D49,1,K*%
%TO.N,ROW7*%
X122237500Y-169068750D03*
%TO.P,D49,2,A*%
%TO.N,Net-(D49-A)*%
X122237500Y-165768750D03*
%TD*%
%TO.P,D60,1,K*%
%TO.N,ROW6*%
X346868750Y-173831250D03*
%TO.P,D60,2,A*%
%TO.N,Net-(D60-A)*%
X346868750Y-170531250D03*
%TD*%
D18*
%TO.P,C1,1*%
%TO.N,Net-(U1-UCAP)*%
X350500000Y-138906250D03*
%TO.P,C1,2*%
%TO.N,GND*%
X348800000Y-138906250D03*
%TD*%
D20*
%TO.P,D55,1,K*%
%TO.N,ROW7*%
X236537500Y-169068750D03*
%TO.P,D55,2,A*%
%TO.N,Net-(D55-A)*%
X236537500Y-165768750D03*
%TD*%
%TO.P,D71,1,K*%
%TO.N,ROW7*%
X365750000Y-155050000D03*
%TO.P,D71,2,A*%
%TO.N,Net-(D71-A)*%
X365750000Y-151750000D03*
%TD*%
D19*
%TO.P,RGB6,1,VDD*%
%TO.N,+5V*%
X136087500Y-121443750D03*
%TO.P,RGB6,2,DOUT*%
%TO.N,Net-(RGB6-DOUT)*%
X136087500Y-118243750D03*
%TO.P,RGB6,3,VSS*%
%TO.N,GND*%
X141287500Y-118243750D03*
%TO.P,RGB6,4,DIN*%
%TO.N,Net-(RGB5-DOUT)*%
X141287500Y-121443750D03*
%TD*%
D20*
%TO.P,D57,1,K*%
%TO.N,ROW7*%
X274637500Y-169068750D03*
%TO.P,D57,2,A*%
%TO.N,Net-(D57-A)*%
X274637500Y-165768750D03*
%TD*%
%TO.P,D14,1,K*%
%TO.N,ROW1*%
X307975000Y-111981250D03*
%TO.P,D14,2,A*%
%TO.N,Net-(D14-A)*%
X307975000Y-108681250D03*
%TD*%
%TO.P,D7,1,K*%
%TO.N,ROW0*%
X174625000Y-112043750D03*
%TO.P,D7,2,A*%
%TO.N,Net-(D7-A)*%
X174625000Y-108743750D03*
%TD*%
D18*
%TO.P,C9,1*%
%TO.N,GND*%
X364800000Y-169900000D03*
%TO.P,C9,2*%
%TO.N,RESW_A*%
X366500000Y-169900000D03*
%TD*%
D19*
%TO.P,RGB8,1,VDD*%
%TO.N,+5V*%
X52750000Y-121450000D03*
%TO.P,RGB8,2,DOUT*%
%TO.N,Net-(RGB8-DOUT)*%
X52750000Y-118250000D03*
%TO.P,RGB8,3,VSS*%
%TO.N,GND*%
X57950000Y-118250000D03*
%TO.P,RGB8,4,DIN*%
%TO.N,Net-(RGB7-DOUT)*%
X57950000Y-121450000D03*
%TD*%
D20*
%TO.P,D47,1,K*%
%TO.N,ROW5*%
X330200000Y-154781250D03*
%TO.P,D47,2,A*%
%TO.N,Net-(D47-A)*%
X330200000Y-151481250D03*
%TD*%
%TO.P,D4,1,K*%
%TO.N,ROW1*%
X117475000Y-112043750D03*
%TO.P,D4,2,A*%
%TO.N,Net-(D4-A)*%
X117475000Y-108743750D03*
%TD*%
D21*
%TO.P,CRGB15,1*%
%TO.N,+5V*%
X317500000Y-176100000D03*
%TO.P,CRGB15,2*%
%TO.N,GND*%
X317500000Y-177800000D03*
%TD*%
D22*
%TO.P,RC1,1*%
%TO.N,D-*%
X346075000Y-136525000D03*
%TO.P,RC1,2*%
%TO.N,Net-(U2-IO2)*%
X346075000Y-134725000D03*
%TD*%
D21*
%TO.P,CRGB2,1*%
%TO.N,+5V*%
X317500000Y-120762500D03*
%TO.P,CRGB2,2*%
%TO.N,GND*%
X317500000Y-119062500D03*
%TD*%
D20*
%TO.P,D27,1,K*%
%TO.N,ROW3*%
X241300000Y-130968750D03*
%TO.P,D27,2,A*%
%TO.N,Net-(D27-A)*%
X241300000Y-127668750D03*
%TD*%
%TO.P,D26,1,K*%
%TO.N,ROW2*%
X222250000Y-130968750D03*
%TO.P,D26,2,A*%
%TO.N,Net-(D26-A)*%
X222250000Y-127668750D03*
%TD*%
D22*
%TO.P,RC2,1*%
%TO.N,Net-(U2-IO1)*%
X348000000Y-134750000D03*
%TO.P,RC2,2*%
%TO.N,D+*%
X348000000Y-136550000D03*
%TD*%
D20*
%TO.P,D20,1,K*%
%TO.N,ROW2*%
X107950000Y-130968750D03*
%TO.P,D20,2,A*%
%TO.N,Net-(D20-A)*%
X107950000Y-127668750D03*
%TD*%
D23*
%TO.P,U2,1,GND*%
%TO.N,GND*%
X350756250Y-107837500D03*
D24*
%TO.P,U2,2,IO1*%
%TO.N,Net-(U2-IO1)*%
X350756250Y-109537500D03*
%TO.P,U2,3,IO2*%
%TO.N,Net-(U2-IO2)*%
X348456250Y-109537500D03*
%TO.P,U2,4,VCC*%
%TO.N,VCC*%
X348456250Y-107637500D03*
%TD*%
D18*
%TO.P,C8,1*%
%TO.N,RESW_B*%
X366500000Y-171500000D03*
%TO.P,C8,2*%
%TO.N,GND*%
X364800000Y-171500000D03*
%TD*%
D21*
%TO.P,CRGB9,1*%
%TO.N,+5V*%
X61250000Y-176100000D03*
%TO.P,CRGB9,2*%
%TO.N,GND*%
X61250000Y-177800000D03*
%TD*%
%TO.P,CRGB11,1*%
%TO.N,+5V*%
X144750000Y-176550000D03*
%TO.P,CRGB11,2*%
%TO.N,GND*%
X144750000Y-178250000D03*
%TD*%
D20*
%TO.P,D65,1,K*%
%TO.N,ROW8*%
X232568750Y-189037500D03*
%TO.P,D65,2,A*%
%TO.N,Net-(D65-A)*%
X232568750Y-185737500D03*
%TD*%
%TO.P,D5,1,K*%
%TO.N,ROW0*%
X136525000Y-112043750D03*
%TO.P,D5,2,A*%
%TO.N,Net-(D5-A)*%
X136525000Y-108743750D03*
%TD*%
D21*
%TO.P,CRGB16,1*%
%TO.N,+5V*%
X360362500Y-176100000D03*
%TO.P,CRGB16,2*%
%TO.N,GND*%
X360362500Y-177800000D03*
%TD*%
D20*
%TO.P,D37,1,K*%
%TO.N,ROW5*%
X131762500Y-150018750D03*
%TO.P,D37,2,A*%
%TO.N,Net-(D37-A)*%
X131762500Y-146718750D03*
%TD*%
%TO.P,D51,1,K*%
%TO.N,ROW7*%
X160337500Y-169193750D03*
%TO.P,D51,2,A*%
%TO.N,Net-(D51-A)*%
X160337500Y-165893750D03*
%TD*%
D21*
%TO.P,C4,1*%
%TO.N,GND*%
X345281250Y-138906250D03*
%TO.P,C4,2*%
%TO.N,+5V*%
X345281250Y-140606250D03*
%TD*%
D20*
%TO.P,D6,1,K*%
%TO.N,ROW1*%
X155575000Y-112043750D03*
%TO.P,D6,2,A*%
%TO.N,Net-(D6-A)*%
X155575000Y-108743750D03*
%TD*%
%TO.P,D62,1,K*%
%TO.N,ROW9*%
X105568750Y-188243750D03*
%TO.P,D62,2,A*%
%TO.N,Net-(D62-A)*%
X105568750Y-184943750D03*
%TD*%
%TO.P,D18,1,K*%
%TO.N,ROW2*%
X55562500Y-135856250D03*
%TO.P,D18,2,A*%
%TO.N,Net-(D18-A)*%
X55562500Y-132556250D03*
%TD*%
D19*
%TO.P,RGB13,1,VDD*%
%TO.N,+5V*%
X230981250Y-174600000D03*
%TO.P,RGB13,2,DOUT*%
%TO.N,Net-(RGB13-DOUT)*%
X230981250Y-177800000D03*
%TO.P,RGB13,3,VSS*%
%TO.N,GND*%
X225781250Y-177800000D03*
%TO.P,RGB13,4,DIN*%
%TO.N,Net-(RGB12-DOUT)*%
X225781250Y-174600000D03*
%TD*%
D18*
%TO.P,C3,1*%
%TO.N,XTAL2*%
X359800000Y-146843750D03*
%TO.P,C3,2*%
%TO.N,GND*%
X361500000Y-146843750D03*
%TD*%
D20*
%TO.P,D13,1,K*%
%TO.N,ROW0*%
X288925000Y-111981250D03*
%TO.P,D13,2,A*%
%TO.N,Net-(D13-A)*%
X288925000Y-108681250D03*
%TD*%
D21*
%TO.P,CRGB4,1*%
%TO.N,+5V*%
X234156250Y-120650000D03*
%TO.P,CRGB4,2*%
%TO.N,GND*%
X234156250Y-118950000D03*
%TD*%
D25*
%TO.P,SW1,1,1*%
%TO.N,GND*%
X365050000Y-138906250D03*
%TO.P,SW1,2,2*%
%TO.N,RESET*%
X358850000Y-142606250D03*
%TO.P,SW1,3*%
%TO.N,N/C*%
X365050000Y-142606250D03*
%TO.P,SW1,4*%
X358850000Y-138906250D03*
%TD*%
D20*
%TO.P,D50,1,K*%
%TO.N,ROW6*%
X141287500Y-169193750D03*
%TO.P,D50,2,A*%
%TO.N,Net-(D50-A)*%
X141287500Y-165893750D03*
%TD*%
%TO.P,D43,1,K*%
%TO.N,ROW5*%
X246062500Y-150081250D03*
%TO.P,D43,2,A*%
%TO.N,Net-(D43-A)*%
X246062500Y-146781250D03*
%TD*%
%TO.P,D59,1,K*%
%TO.N,ROW7*%
X323056250Y-169987500D03*
%TO.P,D59,2,A*%
%TO.N,Net-(D59-A)*%
X323056250Y-166687500D03*
%TD*%
D18*
%TO.P,C7,1*%
%TO.N,GND*%
X356750000Y-142500000D03*
%TO.P,C7,2*%
%TO.N,+5V*%
X355050000Y-142500000D03*
%TD*%
D20*
%TO.P,D41,1,K*%
%TO.N,ROW5*%
X207962500Y-150081250D03*
%TO.P,D41,2,A*%
%TO.N,Net-(D41-A)*%
X207962500Y-146781250D03*
%TD*%
D19*
%TO.P,RGB12,1,VDD*%
%TO.N,+5V*%
X183575000Y-174600000D03*
%TO.P,RGB12,2,DOUT*%
%TO.N,Net-(RGB12-DOUT)*%
X183575000Y-177800000D03*
%TO.P,RGB12,3,VSS*%
%TO.N,GND*%
X178375000Y-177800000D03*
%TO.P,RGB12,4,DIN*%
%TO.N,Net-(RGB11-DOUT)*%
X178375000Y-174600000D03*
%TD*%
D20*
%TO.P,D39,1,K*%
%TO.N,ROW5*%
X169862500Y-150018750D03*
%TO.P,D39,2,A*%
%TO.N,Net-(D39-A)*%
X169862500Y-146718750D03*
%TD*%
D19*
%TO.P,RGB4,1,VDD*%
%TO.N,+5V*%
X225781250Y-121443750D03*
%TO.P,RGB4,2,DOUT*%
%TO.N,Net-(RGB4-DOUT)*%
X225781250Y-118243750D03*
%TO.P,RGB4,3,VSS*%
%TO.N,GND*%
X230981250Y-118243750D03*
%TO.P,RGB4,4,DIN*%
%TO.N,Net-(RGB3-DOUT)*%
X230981250Y-121443750D03*
%TD*%
D26*
%TO.P,J1,1,MISO*%
%TO.N,RGBLED*%
X358000000Y-160460000D03*
%TO.P,J1,2,VCC*%
%TO.N,+5V*%
X355460000Y-160460000D03*
%TO.P,J1,3,SCK*%
%TO.N,COL8*%
X358000000Y-163000000D03*
%TO.P,J1,4,MOSI*%
%TO.N,SLOCK_IND*%
X355460000Y-163000000D03*
%TO.P,J1,5,~{RST}*%
%TO.N,RESET*%
X358000000Y-165540000D03*
D27*
%TO.P,J1,6,GND*%
%TO.N,GND*%
X355460000Y-165540000D03*
%TD*%
D19*
%TO.P,RGB2,1,VDD*%
%TO.N,+5V*%
X309125000Y-121443750D03*
%TO.P,RGB2,2,DOUT*%
%TO.N,Net-(RGB2-DOUT)*%
X309125000Y-118243750D03*
%TO.P,RGB2,3,VSS*%
%TO.N,GND*%
X314325000Y-118243750D03*
%TO.P,RGB2,4,DIN*%
%TO.N,Net-(RGB1-DOUT)*%
X314325000Y-121443750D03*
%TD*%
D28*
%TO.P,RC8,1*%
%TO.N,Net-(U1-~{HWB}{slash}PE2)*%
X343000000Y-152750000D03*
%TO.P,RC8,2*%
%TO.N,GND*%
X341200000Y-152750000D03*
%TD*%
D20*
%TO.P,D30,1,K*%
%TO.N,ROW2*%
X298450000Y-131031250D03*
%TO.P,D30,2,A*%
%TO.N,Net-(D30-A)*%
X298450000Y-127731250D03*
%TD*%
%TO.P,D54,1,K*%
%TO.N,ROW6*%
X217487500Y-169068750D03*
%TO.P,D54,2,A*%
%TO.N,Net-(D54-A)*%
X217487500Y-165768750D03*
%TD*%
%TO.P,D24,1,K*%
%TO.N,ROW2*%
X184150000Y-130968750D03*
%TO.P,D24,2,A*%
%TO.N,Net-(D24-A)*%
X184150000Y-127668750D03*
%TD*%
%TO.P,D36,1,K*%
%TO.N,ROW4*%
X112712500Y-150018750D03*
%TO.P,D36,2,A*%
%TO.N,Net-(D36-A)*%
X112712500Y-146718750D03*
%TD*%
D22*
%TO.P,RC7,1*%
%TO.N,GND*%
X353137500Y-109425000D03*
%TO.P,RC7,2*%
%TO.N,Net-(USB1-CC2)*%
X353137500Y-107625000D03*
%TD*%
D20*
%TO.P,D9,1,K*%
%TO.N,ROW0*%
X212725000Y-112043750D03*
%TO.P,D9,2,A*%
%TO.N,Net-(D9-A)*%
X212725000Y-108743750D03*
%TD*%
%TO.P,D38,1,K*%
%TO.N,ROW4*%
X150812500Y-150081250D03*
%TO.P,D38,2,A*%
%TO.N,Net-(D38-A)*%
X150812500Y-146781250D03*
%TD*%
%TO.P,D31,1,K*%
%TO.N,ROW3*%
X317500000Y-130968750D03*
%TO.P,D31,2,A*%
%TO.N,Net-(D31-A)*%
X317500000Y-127668750D03*
%TD*%
D19*
%TO.P,RGB1,1,VDD*%
%TO.N,+5V*%
X351987500Y-121468750D03*
%TO.P,RGB1,2,DOUT*%
%TO.N,Net-(RGB1-DOUT)*%
X351987500Y-118268750D03*
%TO.P,RGB1,3,VSS*%
%TO.N,GND*%
X357187500Y-118268750D03*
%TO.P,RGB1,4,DIN*%
%TO.N,RGBLED*%
X357187500Y-121468750D03*
%TD*%
D28*
%TO.P,RLED1,1*%
%TO.N,LAYER_IND*%
X61118750Y-182562500D03*
%TO.P,RLED1,2*%
%TO.N,Net-(LED1-A)*%
X59318750Y-182562500D03*
%TD*%
%TO.P,RLED2,1*%
%TO.N,CAPS_IND*%
X61118750Y-185737500D03*
%TO.P,RLED2,2*%
%TO.N,Net-(LED2-A)*%
X59318750Y-185737500D03*
%TD*%
D19*
%TO.P,RGB5,1,VDD*%
%TO.N,+5V*%
X178156250Y-121443750D03*
%TO.P,RGB5,2,DOUT*%
%TO.N,Net-(RGB5-DOUT)*%
X178156250Y-118243750D03*
%TO.P,RGB5,3,VSS*%
%TO.N,GND*%
X183356250Y-118243750D03*
%TO.P,RGB5,4,DIN*%
%TO.N,Net-(RGB4-DOUT)*%
X183356250Y-121443750D03*
%TD*%
D18*
%TO.P,C2,1*%
%TO.N,XTAL1*%
X359843750Y-149225000D03*
%TO.P,C2,2*%
%TO.N,GND*%
X361543750Y-149225000D03*
%TD*%
D20*
%TO.P,D32,1,K*%
%TO.N,ROW2*%
X337343750Y-135731250D03*
%TO.P,D32,2,A*%
%TO.N,Net-(D32-A)*%
X337343750Y-132431250D03*
%TD*%
%TO.P,D21,1,K*%
%TO.N,ROW3*%
X127000000Y-130968750D03*
%TO.P,D21,2,A*%
%TO.N,Net-(D21-A)*%
X127000000Y-127668750D03*
%TD*%
%TO.P,D22,1,K*%
%TO.N,ROW2*%
X146050000Y-130968750D03*
%TO.P,D22,2,A*%
%TO.N,Net-(D22-A)*%
X146050000Y-127668750D03*
%TD*%
%TO.P,D40,1,K*%
%TO.N,ROW4*%
X188912500Y-150018750D03*
%TO.P,D40,2,A*%
%TO.N,Net-(D40-A)*%
X188912500Y-146718750D03*
%TD*%
D29*
%TO.P,Y1,1,1*%
%TO.N,XTAL1*%
X355193750Y-149043750D03*
%TO.P,Y1,2,2*%
%TO.N,GND*%
X355193750Y-146843750D03*
%TO.P,Y1,3,3*%
%TO.N,XTAL2*%
X356893750Y-146843750D03*
%TO.P,Y1,4,4*%
%TO.N,GND*%
X356893750Y-149043750D03*
%TD*%
D19*
%TO.P,RGB10,1,VDD*%
%TO.N,+5V*%
X100012500Y-175418750D03*
%TO.P,RGB10,2,DOUT*%
%TO.N,Net-(RGB10-DOUT)*%
X100012500Y-178618750D03*
%TO.P,RGB10,3,VSS*%
%TO.N,GND*%
X94812500Y-178618750D03*
%TO.P,RGB10,4,DIN*%
%TO.N,Net-(RGB10-DIN)*%
X94812500Y-175418750D03*
%TD*%
D20*
%TO.P,D53,1,K*%
%TO.N,ROW7*%
X198437500Y-169193750D03*
%TO.P,D53,2,A*%
%TO.N,Net-(D53-A)*%
X198437500Y-165893750D03*
%TD*%
D19*
%TO.P,RGB3,1,VDD*%
%TO.N,+5V*%
X268643750Y-121443750D03*
%TO.P,RGB3,2,DOUT*%
%TO.N,Net-(RGB3-DOUT)*%
X268643750Y-118243750D03*
%TO.P,RGB3,3,VSS*%
%TO.N,GND*%
X273843750Y-118243750D03*
%TO.P,RGB3,4,DIN*%
%TO.N,Net-(RGB2-DOUT)*%
X273843750Y-121443750D03*
%TD*%
D20*
%TO.P,D34,1,K*%
%TO.N,ROW4*%
X55562500Y-154843750D03*
%TO.P,D34,2,A*%
%TO.N,Net-(D34-A)*%
X55562500Y-151543750D03*
%TD*%
%TO.P,D52,1,K*%
%TO.N,ROW6*%
X179387500Y-169193750D03*
%TO.P,D52,2,A*%
%TO.N,Net-(D52-A)*%
X179387500Y-165893750D03*
%TD*%
D28*
%TO.P,RC5,1*%
%TO.N,Net-(U1-PD1)*%
X364912500Y-168275000D03*
%TO.P,RC5,2*%
%TO.N,RESW_A*%
X366712500Y-168275000D03*
%TD*%
D30*
%TO.P,USB1,1,GND*%
%TO.N,GND*%
X346825000Y-103500000D03*
%TO.P,USB1,2,VBUS*%
%TO.N,VCC*%
X347600000Y-103500000D03*
D31*
%TO.P,USB1,3,SBU2*%
%TO.N,unconnected-(USB1-SBU2-Pad3)*%
X348300000Y-103500000D03*
%TO.P,USB1,4,CC1*%
%TO.N,Net-(USB1-CC1)*%
X348800000Y-103500000D03*
%TO.P,USB1,5,DN2*%
%TO.N,Net-(U2-IO2)*%
X349300000Y-103500000D03*
%TO.P,USB1,6,DP1*%
%TO.N,Net-(U2-IO1)*%
X349800000Y-103500000D03*
%TO.P,USB1,7,DN1*%
%TO.N,Net-(U2-IO2)*%
X350300000Y-103500000D03*
%TO.P,USB1,8,DP2*%
%TO.N,Net-(U2-IO1)*%
X350800000Y-103500000D03*
%TO.P,USB1,9,SBU1*%
%TO.N,unconnected-(USB1-SBU1-Pad9)*%
X351300000Y-103500000D03*
%TO.P,USB1,10,CC2*%
%TO.N,Net-(USB1-CC2)*%
X351800000Y-103500000D03*
D30*
%TO.P,USB1,11,VBUS*%
%TO.N,VCC*%
X352500000Y-103500000D03*
%TO.P,USB1,12,GND*%
%TO.N,GND*%
X353275000Y-103500000D03*
D32*
%TO.P,USB1,13,SHIELD*%
X345730000Y-98405000D03*
D33*
X345730000Y-102585000D03*
D32*
X354370000Y-98405000D03*
D33*
X354370000Y-102585000D03*
%TD*%
D20*
%TO.P,D15,1,K*%
%TO.N,ROW0*%
X327025000Y-111918750D03*
%TO.P,D15,2,A*%
%TO.N,Net-(D15-A)*%
X327025000Y-108618750D03*
%TD*%
D21*
%TO.P,CRGB6,1*%
%TO.N,+5V*%
X144750000Y-120750000D03*
%TO.P,CRGB6,2*%
%TO.N,GND*%
X144750000Y-119050000D03*
%TD*%
D20*
%TO.P,D44,1,K*%
%TO.N,ROW4*%
X265112500Y-150018750D03*
%TO.P,D44,2,A*%
%TO.N,Net-(D44-A)*%
X265112500Y-146718750D03*
%TD*%
%TO.P,D19,1,K*%
%TO.N,ROW3*%
X84137500Y-131031250D03*
%TO.P,D19,2,A*%
%TO.N,Net-(D19-A)*%
X84137500Y-127731250D03*
%TD*%
D21*
%TO.P,CRGB5,1*%
%TO.N,+5V*%
X187000000Y-120750000D03*
%TO.P,CRGB5,2*%
%TO.N,GND*%
X187000000Y-119050000D03*
%TD*%
D19*
%TO.P,RGB15,1,VDD*%
%TO.N,+5V*%
X314325000Y-175393750D03*
%TO.P,RGB15,2,DOUT*%
%TO.N,Net-(RGB15-DOUT)*%
X314325000Y-178593750D03*
%TO.P,RGB15,3,VSS*%
%TO.N,GND*%
X309125000Y-178593750D03*
%TO.P,RGB15,4,DIN*%
%TO.N,Net-(RGB14-DOUT)*%
X309125000Y-175393750D03*
%TD*%
D20*
%TO.P,D12,1,K*%
%TO.N,ROW1*%
X269875000Y-111981250D03*
%TO.P,D12,2,A*%
%TO.N,Net-(D12-A)*%
X269875000Y-108681250D03*
%TD*%
%TO.P,D70,1,K*%
%TO.N,ROW9*%
X365918750Y-192881250D03*
%TO.P,D70,2,A*%
%TO.N,Net-(D70-A)*%
X365918750Y-189581250D03*
%TD*%
D21*
%TO.P,CRGB10,1*%
%TO.N,+5V*%
X103250000Y-176250000D03*
%TO.P,CRGB10,2*%
%TO.N,GND*%
X103250000Y-177950000D03*
%TD*%
D20*
%TO.P,D64,1,K*%
%TO.N,ROW9*%
X175418750Y-188912500D03*
%TO.P,D64,2,A*%
%TO.N,Net-(D64-A)*%
X175418750Y-185612500D03*
%TD*%
D28*
%TO.P,RC3,1*%
%TO.N,+5V*%
X354450000Y-139750000D03*
%TO.P,RC3,2*%
%TO.N,RESET*%
X356250000Y-139750000D03*
%TD*%
%TO.P,RLED3,1*%
%TO.N,SLOCK_IND*%
X61118750Y-188912500D03*
%TO.P,RLED3,2*%
%TO.N,Net-(LED3-A)*%
X59318750Y-188912500D03*
%TD*%
D21*
%TO.P,CRGB7,1*%
%TO.N,+5V*%
X103500000Y-120750000D03*
%TO.P,CRGB7,2*%
%TO.N,GND*%
X103500000Y-119050000D03*
%TD*%
D20*
%TO.P,D69,1,K*%
%TO.N,ROW8*%
X346868750Y-192881250D03*
%TO.P,D69,2,A*%
%TO.N,Net-(D69-A)*%
X346868750Y-189581250D03*
%TD*%
%TO.P,D3,1,K*%
%TO.N,ROW0*%
X98425000Y-112043750D03*
%TO.P,D3,2,A*%
%TO.N,Net-(D3-A)*%
X98425000Y-108743750D03*
%TD*%
D19*
%TO.P,RGB11,1,VDD*%
%TO.N,+5V*%
X141287500Y-175393750D03*
%TO.P,RGB11,2,DOUT*%
%TO.N,Net-(RGB11-DOUT)*%
X141287500Y-178593750D03*
%TO.P,RGB11,3,VSS*%
%TO.N,GND*%
X136087500Y-178593750D03*
%TO.P,RGB11,4,DIN*%
%TO.N,Net-(RGB10-DOUT)*%
X136087500Y-175393750D03*
%TD*%
D20*
%TO.P,D48,1,K*%
%TO.N,ROW6*%
X92075000Y-169925000D03*
%TO.P,D48,2,A*%
%TO.N,Net-(D48-A)*%
X92075000Y-166625000D03*
%TD*%
%TO.P,D17,1,K*%
%TO.N,ROW0*%
X365918750Y-116681250D03*
%TO.P,D17,2,A*%
%TO.N,Net-(D17-A)*%
X365918750Y-113381250D03*
%TD*%
%TO.P,D25,1,K*%
%TO.N,ROW3*%
X203200000Y-130968750D03*
%TO.P,D25,2,A*%
%TO.N,Net-(D25-A)*%
X203200000Y-127668750D03*
%TD*%
%TO.P,D46,1,K*%
%TO.N,ROW4*%
X303212500Y-150018750D03*
%TO.P,D46,2,A*%
%TO.N,Net-(D46-A)*%
X303212500Y-146718750D03*
%TD*%
%TO.P,D67,1,K*%
%TO.N,ROW8*%
X300831250Y-188243750D03*
%TO.P,D67,2,A*%
%TO.N,Net-(D67-A)*%
X300831250Y-184943750D03*
%TD*%
%TO.P,D1,1,K*%
%TO.N,ROW0*%
X55562500Y-112043750D03*
%TO.P,D1,2,A*%
%TO.N,Net-(D1-A)*%
X55562500Y-108743750D03*
%TD*%
%TO.P,D2,1,K*%
%TO.N,ROW1*%
X79375000Y-112043750D03*
%TO.P,D2,2,A*%
%TO.N,Net-(D2-A)*%
X79375000Y-108743750D03*
%TD*%
D19*
%TO.P,RGB9,1,VDD*%
%TO.N,+5V*%
X57943750Y-175418750D03*
%TO.P,RGB9,2,DOUT*%
%TO.N,Net-(RGB10-DIN)*%
X57943750Y-178618750D03*
%TO.P,RGB9,3,VSS*%
%TO.N,GND*%
X52743750Y-178618750D03*
%TO.P,RGB9,4,DIN*%
%TO.N,Net-(RGB8-DOUT)*%
X52743750Y-175418750D03*
%TD*%
D20*
%TO.P,D11,1,K*%
%TO.N,ROW0*%
X250825000Y-112043750D03*
%TO.P,D11,2,A*%
%TO.N,Net-(D11-A)*%
X250825000Y-108743750D03*
%TD*%
%TO.P,D61,1,K*%
%TO.N,ROW8*%
X81756250Y-188243750D03*
%TO.P,D61,2,A*%
%TO.N,Net-(D61-A)*%
X81756250Y-184943750D03*
%TD*%
%TO.P,D33,1,K*%
%TO.N,ROW3*%
X365918750Y-135731250D03*
%TO.P,D33,2,A*%
%TO.N,Net-(D33-A)*%
X365918750Y-132431250D03*
%TD*%
%TO.P,D56,1,K*%
%TO.N,ROW6*%
X255587500Y-169068750D03*
%TO.P,D56,2,A*%
%TO.N,Net-(D56-A)*%
X255587500Y-165768750D03*
%TD*%
%TO.P,D28,1,K*%
%TO.N,ROW2*%
X260350000Y-130968750D03*
%TO.P,D28,2,A*%
%TO.N,Net-(D28-A)*%
X260350000Y-127668750D03*
%TD*%
D21*
%TO.P,CRGB3,1*%
%TO.N,+5V*%
X277018750Y-120762500D03*
%TO.P,CRGB3,2*%
%TO.N,GND*%
X277018750Y-119062500D03*
%TD*%
%TO.P,CRGB13,1*%
%TO.N,+5V*%
X234156250Y-175418750D03*
%TO.P,CRGB13,2*%
%TO.N,GND*%
X234156250Y-177118750D03*
%TD*%
D20*
%TO.P,D68,1,K*%
%TO.N,ROW9*%
X327818750Y-192881250D03*
%TO.P,D68,2,A*%
%TO.N,Net-(D68-A)*%
X327818750Y-189581250D03*
%TD*%
D21*
%TO.P,C5,1*%
%TO.N,GND*%
X341312500Y-149550000D03*
%TO.P,C5,2*%
%TO.N,+5V*%
X341312500Y-151250000D03*
%TD*%
D20*
%TO.P,D23,1,K*%
%TO.N,ROW3*%
X165100000Y-130968750D03*
%TO.P,D23,2,A*%
%TO.N,Net-(D23-A)*%
X165100000Y-127668750D03*
%TD*%
%TO.P,D16,1,K*%
%TO.N,ROW1*%
X342106250Y-116681250D03*
%TO.P,D16,2,A*%
%TO.N,Net-(D16-A)*%
X342106250Y-113381250D03*
%TD*%
%TO.P,D10,1,K*%
%TO.N,ROW1*%
X231775000Y-112043750D03*
%TO.P,D10,2,A*%
%TO.N,Net-(D10-A)*%
X231775000Y-108743750D03*
%TD*%
%TO.P,D66,1,K*%
%TO.N,ROW9*%
X274637500Y-188243750D03*
%TO.P,D66,2,A*%
%TO.N,Net-(D66-A)*%
X274637500Y-184943750D03*
%TD*%
D22*
%TO.P,RC6,1*%
%TO.N,GND*%
X345200000Y-109425000D03*
%TO.P,RC6,2*%
%TO.N,Net-(USB1-CC1)*%
X345200000Y-107625000D03*
%TD*%
D20*
%TO.P,D42,1,K*%
%TO.N,ROW4*%
X227012500Y-150018750D03*
%TO.P,D42,2,A*%
%TO.N,Net-(D42-A)*%
X227012500Y-146718750D03*
%TD*%
%TO.P,D29,1,K*%
%TO.N,ROW3*%
X279400000Y-130968750D03*
%TO.P,D29,2,A*%
%TO.N,Net-(D29-A)*%
X279400000Y-127668750D03*
%TD*%
D21*
%TO.P,CRGB12,1*%
%TO.N,+5V*%
X187250000Y-175500000D03*
%TO.P,CRGB12,2*%
%TO.N,GND*%
X187250000Y-177200000D03*
%TD*%
D20*
%TO.P,D63,1,K*%
%TO.N,ROW8*%
X131762500Y-188243750D03*
%TO.P,D63,2,A*%
%TO.N,Net-(D63-A)*%
X131762500Y-184943750D03*
%TD*%
D21*
%TO.P,CRGB1,1*%
%TO.N,+5V*%
X360362500Y-120762500D03*
%TO.P,CRGB1,2*%
%TO.N,GND*%
X360362500Y-119062500D03*
%TD*%
D28*
%TO.P,RC4,1*%
%TO.N,Net-(U1-PD2)*%
X364912500Y-173100000D03*
%TO.P,RC4,2*%
%TO.N,RESW_B*%
X366712500Y-173100000D03*
%TD*%
D20*
%TO.P,D35,1,K*%
%TO.N,ROW5*%
X86518750Y-150018750D03*
%TO.P,D35,2,A*%
%TO.N,Net-(D35-A)*%
X86518750Y-146718750D03*
%TD*%
D21*
%TO.P,CRGB8,1*%
%TO.N,+5V*%
X61500000Y-121000000D03*
%TO.P,CRGB8,2*%
%TO.N,GND*%
X61500000Y-119300000D03*
%TD*%
D34*
%TO.P,U1,1,PE6*%
%TO.N,CAPS_IND*%
X345956250Y-144237500D03*
%TO.P,U1,2,UVCC*%
%TO.N,+5V*%
X346456250Y-144237500D03*
%TO.P,U1,3,D-*%
%TO.N,D-*%
X346956250Y-144237500D03*
%TO.P,U1,4,D+*%
%TO.N,D+*%
X347456250Y-144237500D03*
%TO.P,U1,5,UGND*%
%TO.N,GND*%
X347956250Y-144237500D03*
%TO.P,U1,6,UCAP*%
%TO.N,Net-(U1-UCAP)*%
X348456250Y-144237500D03*
%TO.P,U1,7,VBUS*%
%TO.N,+5V*%
X348956250Y-144237500D03*
%TO.P,U1,8,PB0*%
%TO.N,COL7*%
X349456250Y-144237500D03*
%TO.P,U1,9,PB1*%
%TO.N,COL8*%
X349956250Y-144237500D03*
%TO.P,U1,10,PB2*%
%TO.N,SLOCK_IND*%
X350456250Y-144237500D03*
%TO.P,U1,11,PB3*%
%TO.N,RGBLED*%
X350956250Y-144237500D03*
D35*
%TO.P,U1,12,PB7*%
%TO.N,LAYER_IND*%
X351856250Y-145137500D03*
%TO.P,U1,13,~{RESET}*%
%TO.N,RESET*%
X351856250Y-145637500D03*
%TO.P,U1,14,VCC*%
%TO.N,+5V*%
X351856250Y-146137500D03*
%TO.P,U1,15,GND*%
%TO.N,GND*%
X351856250Y-146637500D03*
%TO.P,U1,16,XTAL2*%
%TO.N,XTAL2*%
X351856250Y-147137500D03*
%TO.P,U1,17,XTAL1*%
%TO.N,XTAL1*%
X351856250Y-147637500D03*
%TO.P,U1,18,PD0*%
%TO.N,ROW7*%
X351856250Y-148137500D03*
%TO.P,U1,19,PD1*%
%TO.N,Net-(U1-PD1)*%
X351856250Y-148637500D03*
%TO.P,U1,20,PD2*%
%TO.N,Net-(U1-PD2)*%
X351856250Y-149137500D03*
%TO.P,U1,21,PD3*%
%TO.N,ROW8*%
X351856250Y-149637500D03*
%TO.P,U1,22,PD5*%
%TO.N,ROW9*%
X351856250Y-150137500D03*
D34*
%TO.P,U1,23,GND*%
%TO.N,GND*%
X350956250Y-151037500D03*
%TO.P,U1,24,AVCC*%
%TO.N,+5V*%
X350456250Y-151037500D03*
%TO.P,U1,25,PD4*%
%TO.N,ROW6*%
X349956250Y-151037500D03*
%TO.P,U1,26,PD6*%
%TO.N,ROW4*%
X349456250Y-151037500D03*
%TO.P,U1,27,PD7*%
%TO.N,ROW5*%
X348956250Y-151037500D03*
%TO.P,U1,28,PB4*%
%TO.N,ROW2*%
X348456250Y-151037500D03*
%TO.P,U1,29,PB5*%
%TO.N,ROW3*%
X347956250Y-151037500D03*
%TO.P,U1,30,PB6*%
%TO.N,ROW1*%
X347456250Y-151037500D03*
%TO.P,U1,31,PC6*%
%TO.N,ROW0*%
X346956250Y-151037500D03*
%TO.P,U1,32,PC7*%
%TO.N,COL6*%
X346456250Y-151037500D03*
%TO.P,U1,33,~{HWB}/PE2*%
%TO.N,Net-(U1-~{HWB}{slash}PE2)*%
X345956250Y-151037500D03*
D35*
%TO.P,U1,34,VCC*%
%TO.N,+5V*%
X345056250Y-150137500D03*
%TO.P,U1,35,GND*%
%TO.N,GND*%
X345056250Y-149637500D03*
%TO.P,U1,36,PF7*%
%TO.N,COL5*%
X345056250Y-149137500D03*
%TO.P,U1,37,PF6*%
%TO.N,COL4*%
X345056250Y-148637500D03*
%TO.P,U1,38,PF5*%
%TO.N,COL3*%
X345056250Y-148137500D03*
%TO.P,U1,39,PF4*%
%TO.N,COL2*%
X345056250Y-147637500D03*
%TO.P,U1,40,PF1*%
%TO.N,COL1*%
X345056250Y-147137500D03*
%TO.P,U1,41,PF0*%
%TO.N,COL0*%
X345056250Y-146637500D03*
%TO.P,U1,42,AREF*%
%TO.N,unconnected-(U1-AREF-Pad42)*%
X345056250Y-146137500D03*
%TO.P,U1,43,GND*%
%TO.N,GND*%
X345056250Y-145637500D03*
%TO.P,U1,44,AVCC*%
%TO.N,+5V*%
X345056250Y-145137500D03*
D36*
%TO.P,U1,45,GND*%
%TO.N,GND*%
X348456250Y-147637500D03*
%TD*%
D20*
%TO.P,D45,1,K*%
%TO.N,ROW5*%
X284162500Y-150081250D03*
%TO.P,D45,2,A*%
%TO.N,Net-(D45-A)*%
X284162500Y-146781250D03*
%TD*%
D37*
%TO.P,F1,1*%
%TO.N,+5V*%
X347662500Y-115512500D03*
%TO.P,F1,2*%
%TO.N,VCC*%
X347662500Y-112712500D03*
%TD*%
D38*
%TO.N,LAYER_IND*%
X62500000Y-182500000D03*
%TO.N,GND*%
X346075000Y-138112500D03*
X363500000Y-170500000D03*
X348456250Y-138112500D03*
X328750000Y-115500000D03*
X353250000Y-155000000D03*
X345250000Y-114250000D03*
%TO.N,+5V*%
X349000000Y-121000000D03*
X349083250Y-141191144D03*
X353441144Y-141191144D03*
X355000000Y-141500000D03*
X348056644Y-117056644D03*
X346250000Y-141250000D03*
X350583250Y-152500000D03*
X351000000Y-120000000D03*
X339750000Y-121000000D03*
X343250000Y-145000000D03*
X343250000Y-150264500D03*
X355460000Y-156500000D03*
%TO.N,ROW0*%
X338525000Y-138375000D03*
X353250000Y-134250000D03*
X356750000Y-115500000D03*
X330750000Y-115500000D03*
%TO.N,ROW1*%
X337377000Y-138386712D03*
X342106250Y-129643750D03*
%TO.N,ROW3*%
X349500000Y-136500000D03*
X343750000Y-136500000D03*
%TO.N,ROW6*%
X349500000Y-162750000D03*
X347530403Y-157310806D03*
%TO.N,ROW7*%
X363851999Y-154750000D03*
X361238000Y-156250000D03*
%TO.N,VCC*%
X348456250Y-105956250D03*
X351250000Y-106000000D03*
%TO.N,COL8*%
X354000000Y-136500000D03*
%TO.N,SLOCK_IND*%
X351000000Y-142250000D03*
X62500000Y-189000000D03*
%TO.N,RESET*%
X357500000Y-143750000D03*
%TO.N,RGBLED*%
X353250000Y-135123000D03*
X353250000Y-139750000D03*
%TO.N,Net-(USB1-CC1)*%
X348763479Y-105217592D03*
X345250000Y-106500000D03*
%TO.N,Net-(USB1-CC2)*%
X351518044Y-105246239D03*
X353137500Y-106750000D03*
%TO.N,Net-(RGB1-DOUT)*%
X349000000Y-120000000D03*
X339750000Y-120000000D03*
%TO.N,LAYER_IND*%
X353056644Y-143443356D03*
%TO.N,CAPS_IND*%
X345250000Y-142250000D03*
X62500000Y-185750000D03*
%TO.N,COL0*%
X342433125Y-143190067D03*
%TO.N,COL1*%
X341760686Y-142756673D03*
X70000000Y-168500000D03*
%TO.N,COL2*%
X341098287Y-142308085D03*
%TO.N,COL3*%
X153000000Y-186250000D03*
X340451796Y-141836861D03*
%TO.N,COL4*%
X210000000Y-186250000D03*
X339800000Y-141373000D03*
%TO.N,COL5*%
X339124501Y-140873000D03*
%TO.N,COL6*%
X338500000Y-140373000D03*
%TO.N,COL7*%
X351503000Y-137997000D03*
X292250000Y-157000000D03*
X332750000Y-139550000D03*
X304750000Y-169500000D03*
%TD*%
D39*
%TO.N,GND*%
X353275000Y-103500000D02*
X353275000Y-105318750D01*
X133200000Y-119050000D02*
X135250000Y-117000000D01*
D40*
X355193750Y-146843750D02*
X355193750Y-147343750D01*
X347956250Y-140293750D02*
X347956250Y-144237500D01*
D39*
X268643750Y-178618750D02*
X270025000Y-180000000D01*
X178375000Y-177800000D02*
X179825000Y-179250000D01*
X139243750Y-118243750D02*
X141287500Y-118243750D01*
X61250000Y-177800000D02*
X93993750Y-177800000D01*
X185200000Y-179250000D02*
X187250000Y-177200000D01*
X361500000Y-146843750D02*
X359953500Y-145297250D01*
X357187500Y-118268750D02*
X359568750Y-118268750D01*
X91450000Y-119300000D02*
X93750000Y-117000000D01*
X52743750Y-178618750D02*
X51000000Y-176875000D01*
X361500000Y-149181250D02*
X361543750Y-149225000D01*
X45218750Y-180968750D02*
X46355000Y-180968750D01*
X353275000Y-103500000D02*
X353455000Y-103500000D01*
X61500000Y-119300000D02*
X91450000Y-119300000D01*
X277018750Y-177800000D02*
X308331250Y-177800000D01*
X358750000Y-148000000D02*
X360343750Y-148000000D01*
X98243750Y-118243750D02*
X100012500Y-118243750D01*
X50000000Y-172750000D02*
X44500000Y-172750000D01*
X44500000Y-172750000D02*
X40750000Y-169000000D01*
D40*
X351856250Y-146637500D02*
X349456250Y-146637500D01*
D39*
X353250000Y-153300000D02*
X353200000Y-153250000D01*
X344250000Y-108500000D02*
X344275000Y-108500000D01*
D40*
X345056250Y-145637500D02*
X346456250Y-145637500D01*
D39*
X315300000Y-180000000D02*
X317500000Y-177800000D01*
X187000000Y-119050000D02*
X222700000Y-119050000D01*
X308000000Y-117000000D02*
X305937500Y-119062500D01*
X359568750Y-118268750D02*
X360362500Y-119062500D01*
X346825000Y-103500000D02*
X346645000Y-103500000D01*
X361321500Y-172821500D02*
X355460000Y-166960000D01*
D40*
X355193750Y-147343750D02*
X356893750Y-149043750D01*
D39*
X276200000Y-118243750D02*
X277018750Y-119062500D01*
X328750000Y-115500000D02*
X325187500Y-119062500D01*
X361321500Y-176841000D02*
X361321500Y-172821500D01*
X51000000Y-176875000D02*
X51000000Y-173750000D01*
X351250000Y-177800000D02*
X351987500Y-178537500D01*
X180500000Y-117000000D02*
X181743750Y-118243750D01*
X351987500Y-178537500D02*
X353450000Y-180000000D01*
X353275000Y-105318750D02*
X350756250Y-107837500D01*
X40750000Y-124000000D02*
X48000000Y-116750000D01*
X44500000Y-186500000D02*
X45312500Y-187312500D01*
X46355000Y-173645000D02*
X46355000Y-174625000D01*
X309125000Y-178593750D02*
X310531250Y-180000000D01*
X345281250Y-138906250D02*
X346075000Y-138112500D01*
X96193750Y-180000000D02*
X101200000Y-180000000D01*
X56450000Y-116750000D02*
X57950000Y-118250000D01*
X274818750Y-180000000D02*
X277018750Y-177800000D01*
X345250000Y-114250000D02*
X345200000Y-114200000D01*
X177925000Y-178250000D02*
X178375000Y-177800000D01*
X187250000Y-177200000D02*
X222450000Y-177200000D01*
X270025000Y-180000000D02*
X274818750Y-180000000D01*
D40*
X345056250Y-149637500D02*
X346456250Y-149637500D01*
D39*
X358500000Y-148750000D02*
X358206250Y-149043750D01*
D40*
X351650000Y-152400000D02*
X352662500Y-152400000D01*
D39*
X363000000Y-145750000D02*
X361906250Y-146843750D01*
X364500000Y-171500000D02*
X363500000Y-170500000D01*
X364800000Y-169900000D02*
X365633500Y-170733500D01*
X222450000Y-177200000D02*
X223050000Y-177800000D01*
X45312500Y-187312500D02*
X46355000Y-187312500D01*
D40*
X352952586Y-146637500D02*
X353264118Y-146325967D01*
D39*
X358750000Y-148000000D02*
X358500000Y-148250000D01*
D40*
X352662500Y-152400000D02*
X353200000Y-152937500D01*
D39*
X356750000Y-142500000D02*
X356750000Y-143547250D01*
X364800000Y-171500000D02*
X364500000Y-171500000D01*
X45218750Y-180968750D02*
X44500000Y-181687500D01*
D40*
X351856250Y-146637500D02*
X352952586Y-146637500D01*
D39*
X310531250Y-180000000D02*
X315300000Y-180000000D01*
X46355000Y-174625000D02*
X45375000Y-174625000D01*
X346645000Y-103500000D02*
X345730000Y-102585000D01*
X224750000Y-117000000D02*
X229737500Y-117000000D01*
X141287500Y-118243750D02*
X143943750Y-118243750D01*
X234156250Y-118950000D02*
X236106250Y-117000000D01*
D40*
X340609500Y-150253000D02*
X340609500Y-152159500D01*
X349456250Y-146637500D02*
X348456250Y-147637500D01*
D39*
X135443750Y-177950000D02*
X136087500Y-178593750D01*
X52743750Y-178618750D02*
X54125000Y-180000000D01*
X371475000Y-167356250D02*
X371475000Y-166250000D01*
X365050000Y-138906250D02*
X363000000Y-140956250D01*
X355268750Y-118268750D02*
X353137500Y-116137500D01*
X353450000Y-180000000D02*
X358162500Y-180000000D01*
X305937500Y-119062500D02*
X277018750Y-119062500D01*
X227231250Y-179250000D02*
X232025000Y-179250000D01*
X44500000Y-180250000D02*
X45218750Y-180968750D01*
X51000000Y-173750000D02*
X50000000Y-172750000D01*
X308331250Y-177800000D02*
X309125000Y-178593750D01*
X44500000Y-175500000D02*
X44500000Y-180250000D01*
X273843750Y-118243750D02*
X276200000Y-118243750D01*
X135250000Y-117000000D02*
X138000000Y-117000000D01*
X143000000Y-180000000D02*
X144750000Y-178250000D01*
X101200000Y-180000000D02*
X103250000Y-177950000D01*
X229737500Y-117000000D02*
X230981250Y-118243750D01*
D40*
X353200000Y-152937500D02*
X353200000Y-153250000D01*
D39*
X360362500Y-177800000D02*
X361321500Y-176841000D01*
X57950000Y-118250000D02*
X58950000Y-119250000D01*
X232025000Y-179250000D02*
X234156250Y-177118750D01*
X136087500Y-178593750D02*
X137493750Y-180000000D01*
X345200000Y-114200000D02*
X345200000Y-109425000D01*
X359953500Y-145297250D02*
X355000000Y-145297250D01*
X355460000Y-166960000D02*
X355460000Y-165540000D01*
X325187500Y-119062500D02*
X317500000Y-119062500D01*
X183356250Y-118243750D02*
X186193750Y-118243750D01*
X45375000Y-174625000D02*
X44500000Y-175500000D01*
D40*
X350956250Y-150137500D02*
X348456250Y-147637500D01*
X341312500Y-149550000D02*
X341400000Y-149637500D01*
D39*
X316681250Y-118243750D02*
X317500000Y-119062500D01*
D40*
X350956250Y-151706250D02*
X351650000Y-152400000D01*
D39*
X365633500Y-170733500D02*
X368097750Y-170733500D01*
D40*
X340609500Y-152159500D02*
X341200000Y-152750000D01*
D39*
X353250000Y-155000000D02*
X353250000Y-153300000D01*
X365633500Y-170733500D02*
X365566500Y-170733500D01*
X350756250Y-107837500D02*
X352168750Y-109250000D01*
X103250000Y-177950000D02*
X135443750Y-177950000D01*
X354382638Y-145297250D02*
X353214944Y-146464944D01*
X344250000Y-106075000D02*
X344250000Y-108500000D01*
X100012500Y-118243750D02*
X102693750Y-118243750D01*
X363000000Y-140956250D02*
X363000000Y-145750000D01*
X94812500Y-178618750D02*
X96193750Y-180000000D01*
X236106250Y-117000000D02*
X272600000Y-117000000D01*
D40*
X348800000Y-138906250D02*
X348800000Y-139450000D01*
D39*
X93750000Y-117000000D02*
X97000000Y-117000000D01*
X143943750Y-118243750D02*
X144750000Y-119050000D01*
X93993750Y-177800000D02*
X94812500Y-178618750D01*
X175200000Y-119050000D02*
X177250000Y-117000000D01*
D40*
X347956250Y-147137500D02*
X348456250Y-147637500D01*
D39*
X61450000Y-119250000D02*
X61500000Y-119300000D01*
X102693750Y-118243750D02*
X103500000Y-119050000D01*
X361906250Y-146843750D02*
X361500000Y-146843750D01*
X58950000Y-119250000D02*
X61450000Y-119250000D01*
X363500000Y-170500000D02*
X364100000Y-169900000D01*
X314325000Y-118243750D02*
X316681250Y-118243750D01*
X233450000Y-118243750D02*
X234156250Y-118950000D01*
X234156250Y-177118750D02*
X267143750Y-177118750D01*
X364100000Y-169900000D02*
X364800000Y-169900000D01*
X137493750Y-180000000D02*
X143000000Y-180000000D01*
D40*
X347956250Y-144237500D02*
X347956250Y-147137500D01*
D39*
X358162500Y-180000000D02*
X360362500Y-177800000D01*
X360750000Y-148000000D02*
X361543750Y-148793750D01*
X181743750Y-118243750D02*
X183356250Y-118243750D01*
X225781250Y-177800000D02*
X227231250Y-179250000D01*
X222700000Y-119050000D02*
X224750000Y-117000000D01*
X365566500Y-170733500D02*
X364800000Y-171500000D01*
X352962500Y-109250000D02*
X353137500Y-109425000D01*
D40*
X341400000Y-149637500D02*
X345056250Y-149637500D01*
D39*
X267143750Y-177118750D02*
X268643750Y-178618750D01*
X348800000Y-138456250D02*
X348456250Y-138112500D01*
X47250000Y-172750000D02*
X46355000Y-173645000D01*
X355000000Y-145297250D02*
X354382638Y-145297250D01*
X50000000Y-172750000D02*
X47250000Y-172750000D01*
X361543750Y-148793750D02*
X361543750Y-149225000D01*
X360343750Y-148000000D02*
X361500000Y-146843750D01*
D40*
X346456250Y-145637500D02*
X348456250Y-147637500D01*
X341312500Y-149550000D02*
X340609500Y-150253000D01*
D39*
X144750000Y-119050000D02*
X175200000Y-119050000D01*
X358500000Y-148250000D02*
X358500000Y-148750000D01*
X356750000Y-143547250D02*
X355000000Y-145297250D01*
X350950000Y-107837500D02*
X350756250Y-107837500D01*
D40*
X350956250Y-151037500D02*
X350956250Y-150137500D01*
D39*
X353455000Y-103500000D02*
X354370000Y-102585000D01*
X179825000Y-179250000D02*
X185200000Y-179250000D01*
X368097750Y-170733500D02*
X371475000Y-167356250D01*
X348800000Y-138906250D02*
X348800000Y-138456250D01*
X58918750Y-180000000D02*
X61118750Y-177800000D01*
D40*
X350956250Y-151037500D02*
X350956250Y-151706250D01*
X346456250Y-149637500D02*
X348456250Y-147637500D01*
D39*
X177250000Y-117000000D02*
X180500000Y-117000000D01*
X48000000Y-116750000D02*
X56450000Y-116750000D01*
D40*
X348800000Y-139450000D02*
X347956250Y-140293750D01*
D39*
X346825000Y-103500000D02*
X344250000Y-106075000D01*
X353137500Y-116137500D02*
X353137500Y-109425000D01*
X358206250Y-149043750D02*
X356893750Y-149043750D01*
X144750000Y-178250000D02*
X177925000Y-178250000D01*
X223050000Y-177800000D02*
X225781250Y-177800000D01*
X44500000Y-181687500D02*
X44500000Y-186500000D01*
X272600000Y-117000000D02*
X273843750Y-118243750D01*
X344275000Y-108500000D02*
X345200000Y-109425000D01*
X352168750Y-109250000D02*
X352962500Y-109250000D01*
X186193750Y-118243750D02*
X187000000Y-119050000D01*
X97000000Y-117000000D02*
X98243750Y-118243750D01*
X230981250Y-118243750D02*
X233450000Y-118243750D01*
X103500000Y-119050000D02*
X133200000Y-119050000D01*
X40750000Y-169000000D02*
X40750000Y-124000000D01*
X313081250Y-117000000D02*
X308000000Y-117000000D01*
X317500000Y-177800000D02*
X351250000Y-177800000D01*
X314325000Y-118243750D02*
X313081250Y-117000000D01*
X357187500Y-118268750D02*
X355268750Y-118268750D01*
X54125000Y-180000000D02*
X58918750Y-180000000D01*
X360343750Y-148000000D02*
X360750000Y-148000000D01*
X138000000Y-117000000D02*
X139243750Y-118243750D01*
D40*
%TO.N,Net-(U1-UCAP)*%
X348456250Y-140643750D02*
X348456250Y-144237500D01*
X350193750Y-138906250D02*
X348456250Y-140643750D01*
X350500000Y-138906250D02*
X350193750Y-138906250D01*
%TO.N,XTAL1*%
X356221750Y-150071750D02*
X358997000Y-150071750D01*
X355193750Y-149043750D02*
X356221750Y-150071750D01*
X354993750Y-149043750D02*
X355193750Y-149043750D01*
X358997000Y-150071750D02*
X359843750Y-149225000D01*
X351856250Y-147637500D02*
X353587500Y-147637500D01*
X353587500Y-147637500D02*
X354993750Y-149043750D01*
%TO.N,XTAL2*%
X356893750Y-146843750D02*
X359956250Y-146843750D01*
X354250000Y-146571734D02*
X354250000Y-146163158D01*
X353684234Y-147137500D02*
X354250000Y-146571734D01*
X351856250Y-147137500D02*
X353684234Y-147137500D01*
X354597408Y-145815750D02*
X355865750Y-145815750D01*
X354250000Y-146163158D02*
X354597408Y-145815750D01*
X355865750Y-145815750D02*
X356893750Y-146843750D01*
D39*
%TO.N,+5V*%
X317737500Y-121000000D02*
X339750000Y-121000000D01*
X225781250Y-121443750D02*
X227087500Y-122750000D01*
X357187500Y-175337500D02*
X359600000Y-175337500D01*
X141287500Y-175393750D02*
X143593750Y-175393750D01*
X222250000Y-175500000D02*
X224250000Y-173500000D01*
X355460000Y-156500000D02*
X354710000Y-155750000D01*
X52750000Y-121450000D02*
X52675000Y-121450000D01*
X347662500Y-115512500D02*
X347662500Y-116662500D01*
X144750000Y-176550000D02*
X173700000Y-176550000D01*
X136087500Y-121443750D02*
X136087500Y-121337500D01*
X317500000Y-176100000D02*
X349042000Y-176100000D01*
X94812500Y-121443750D02*
X96118750Y-122750000D01*
X182100000Y-174600000D02*
X183575000Y-174600000D01*
X144750000Y-120750000D02*
X177462500Y-120750000D01*
X314325000Y-175393750D02*
X316793750Y-175393750D01*
X355050000Y-141550000D02*
X355000000Y-141500000D01*
X177462500Y-120750000D02*
X178156250Y-121443750D01*
X228250000Y-173500000D02*
X229350000Y-174600000D01*
X317500000Y-120762500D02*
X317737500Y-121000000D01*
X267262500Y-120650000D02*
X234156250Y-120650000D01*
X133000000Y-176250000D02*
X135000000Y-174250000D01*
D40*
X350456250Y-151037500D02*
X350456250Y-152373000D01*
D39*
X354500000Y-174000000D02*
X355837500Y-175337500D01*
D40*
X61118750Y-175968750D02*
X61118750Y-176100000D01*
D39*
X349042000Y-176100000D02*
X351142000Y-174000000D01*
X352500000Y-155750000D02*
X351500000Y-154750000D01*
X276337500Y-175418750D02*
X277018750Y-176100000D01*
X101500000Y-122750000D02*
X103500000Y-120750000D01*
X135393750Y-120750000D02*
X136087500Y-121443750D01*
X273843750Y-175418750D02*
X276337500Y-175418750D01*
X351142000Y-174000000D02*
X354500000Y-174000000D01*
X187250000Y-175500000D02*
X222250000Y-175500000D01*
X183575000Y-174600000D02*
X186350000Y-174600000D01*
X352879000Y-120577250D02*
X351987500Y-121468750D01*
X351000000Y-120000000D02*
X351987500Y-120987500D01*
X268056250Y-121443750D02*
X267262500Y-120650000D01*
X308250000Y-174000000D02*
X311500000Y-174000000D01*
X355050000Y-142500000D02*
X355050000Y-141550000D01*
X230981250Y-174600000D02*
X233337500Y-174600000D01*
X222000000Y-121443750D02*
X225781250Y-121443750D01*
X141643750Y-175393750D02*
X141731250Y-175306250D01*
X103500000Y-120750000D02*
X135393750Y-120750000D01*
X355460000Y-160460000D02*
X354218500Y-161701500D01*
X50750000Y-143886152D02*
X47750000Y-146886152D01*
D40*
X345281250Y-140606250D02*
X345723962Y-140606250D01*
D39*
X52675000Y-121450000D02*
X48000000Y-126125000D01*
X61250000Y-176100000D02*
X91650000Y-176100000D01*
D40*
X350456250Y-152373000D02*
X351333250Y-153250000D01*
D39*
X50750000Y-168225000D02*
X57943750Y-175418750D01*
X135000000Y-174250000D02*
X140143750Y-174250000D01*
X360177250Y-120577250D02*
X352879000Y-120577250D01*
X355000000Y-141500000D02*
X354905712Y-141500000D01*
X234156250Y-175418750D02*
X266081250Y-175418750D01*
X309125000Y-121625000D02*
X310250000Y-122750000D01*
D40*
X342200000Y-151250000D02*
X343312500Y-150137500D01*
D39*
X309125000Y-121443750D02*
X309125000Y-121625000D01*
X224250000Y-173500000D02*
X228250000Y-173500000D01*
X52750000Y-121450000D02*
X53800000Y-122500000D01*
X48000000Y-126125000D02*
X48000000Y-131000000D01*
D40*
X343312500Y-150137500D02*
X345056250Y-150137500D01*
D39*
X47750000Y-149829849D02*
X50750000Y-152829849D01*
X137393750Y-122750000D02*
X142750000Y-122750000D01*
X102418750Y-175418750D02*
X103250000Y-176250000D01*
X141287500Y-175393750D02*
X141643750Y-175393750D01*
X178156250Y-121443750D02*
X179462500Y-122750000D01*
D40*
X351856250Y-146137500D02*
X352809118Y-146137500D01*
D39*
X268643750Y-121443750D02*
X268056250Y-121443750D01*
X355050000Y-142500000D02*
X355050000Y-143806816D01*
X93500000Y-174250000D02*
X98843750Y-174250000D01*
D40*
X345723962Y-140606250D02*
X346456250Y-141338538D01*
D39*
X316250000Y-122750000D02*
X317500000Y-121500000D01*
X277018750Y-176100000D02*
X306150000Y-176100000D01*
X308443750Y-120762500D02*
X309125000Y-121443750D01*
X186350000Y-174600000D02*
X187250000Y-175500000D01*
D40*
X343387500Y-145137500D02*
X343250000Y-145000000D01*
D39*
X317500000Y-121500000D02*
X317500000Y-120762500D01*
X62250000Y-121000000D02*
X62693750Y-121443750D01*
X179462500Y-122750000D02*
X185000000Y-122750000D01*
X227087500Y-122750000D02*
X232056250Y-122750000D01*
X355837500Y-175337500D02*
X357187500Y-175337500D01*
X135781250Y-121750000D02*
X136087500Y-121443750D01*
X354710000Y-155750000D02*
X352500000Y-155750000D01*
X50750000Y-152829849D02*
X50750000Y-168225000D01*
X143593750Y-175393750D02*
X144750000Y-176550000D01*
D40*
X346456250Y-141338538D02*
X346456250Y-144237500D01*
D39*
X312893750Y-175393750D02*
X314325000Y-175393750D01*
X354450000Y-139750000D02*
X354450000Y-140182288D01*
X268643750Y-121443750D02*
X269950000Y-122750000D01*
X91650000Y-176100000D02*
X93500000Y-174250000D01*
D40*
X57943750Y-175418750D02*
X60568750Y-175418750D01*
D39*
X316793750Y-175393750D02*
X317500000Y-176100000D01*
X354450000Y-140182288D02*
X353441144Y-141191144D01*
X62693750Y-121443750D02*
X94812500Y-121443750D01*
X173700000Y-176550000D02*
X176750000Y-173500000D01*
X359600000Y-175337500D02*
X360362500Y-176100000D01*
X351518750Y-121000000D02*
X351987500Y-121468750D01*
X310250000Y-122750000D02*
X316250000Y-122750000D01*
X61500000Y-121000000D02*
X62250000Y-121000000D01*
X103250000Y-176250000D02*
X133000000Y-176250000D01*
X275031250Y-122750000D02*
X277018750Y-120762500D01*
X349000000Y-121000000D02*
X351518750Y-121000000D01*
X232056250Y-122750000D02*
X234156250Y-120650000D01*
X277018750Y-120762500D02*
X308443750Y-120762500D01*
X140143750Y-174250000D02*
X141287500Y-175393750D01*
D40*
X341312500Y-151250000D02*
X342200000Y-151250000D01*
D39*
X272418750Y-175418750D02*
X273843750Y-175418750D01*
X360362500Y-120762500D02*
X360177250Y-120577250D01*
X50750000Y-133750000D02*
X50750000Y-143886152D01*
D40*
X60568750Y-175418750D02*
X61118750Y-175968750D01*
D39*
X267250000Y-174250000D02*
X271250000Y-174250000D01*
X351987500Y-120987500D02*
X351987500Y-121468750D01*
X271250000Y-174250000D02*
X272418750Y-175418750D01*
D40*
X352809118Y-146137500D02*
X353473309Y-145473309D01*
D39*
X269950000Y-122750000D02*
X275031250Y-122750000D01*
X185000000Y-122750000D02*
X187000000Y-120750000D01*
X266081250Y-175418750D02*
X267250000Y-174250000D01*
X229350000Y-174600000D02*
X230981250Y-174600000D01*
X354218500Y-166968500D02*
X360362500Y-173112500D01*
X142750000Y-122750000D02*
X144750000Y-120750000D01*
D40*
X345056250Y-145137500D02*
X343387500Y-145137500D01*
X351333250Y-153250000D02*
X351500000Y-153250000D01*
X348956250Y-144237500D02*
X348956250Y-141318144D01*
D39*
X96118750Y-122750000D02*
X101500000Y-122750000D01*
X100012500Y-175418750D02*
X102418750Y-175418750D01*
X306150000Y-176100000D02*
X308250000Y-174000000D01*
X351500000Y-154750000D02*
X351500000Y-153250000D01*
X136087500Y-121443750D02*
X137393750Y-122750000D01*
X98843750Y-174250000D02*
X100012500Y-175418750D01*
X360362500Y-173112500D02*
X360362500Y-176100000D01*
X48000000Y-131000000D02*
X50750000Y-133750000D01*
X176750000Y-173500000D02*
X181000000Y-173500000D01*
X347662500Y-116662500D02*
X348056644Y-117056644D01*
X60000000Y-122500000D02*
X61500000Y-121000000D01*
X181000000Y-173500000D02*
X182100000Y-174600000D01*
X221306250Y-120750000D02*
X222000000Y-121443750D01*
X233337500Y-174600000D02*
X234156250Y-175418750D01*
X187000000Y-120750000D02*
X221306250Y-120750000D01*
D40*
X348956250Y-141318144D02*
X349083250Y-141191144D01*
D39*
X355050000Y-143806816D02*
X353178408Y-145678408D01*
X53800000Y-122500000D02*
X60000000Y-122500000D01*
X354218500Y-161701500D02*
X354218500Y-166968500D01*
X47750000Y-146886152D02*
X47750000Y-149829849D01*
X311500000Y-174000000D02*
X312893750Y-175393750D01*
D40*
%TO.N,ROW0*%
X292693750Y-115750000D02*
X323193750Y-115750000D01*
X247118750Y-115750000D02*
X250825000Y-112043750D01*
X346956250Y-153293750D02*
X346956250Y-151037500D01*
X101881250Y-115500000D02*
X133068750Y-115500000D01*
X323193750Y-115750000D02*
X327025000Y-111918750D01*
X352930000Y-129678112D02*
X365918750Y-116689362D01*
X136525000Y-112043750D02*
X139981250Y-115500000D01*
X363931250Y-116681250D02*
X365918750Y-116681250D01*
X55562500Y-112043750D02*
X58768750Y-115250000D01*
X250825000Y-112043750D02*
X254531250Y-115750000D01*
X98425000Y-112043750D02*
X101881250Y-115500000D01*
X95218750Y-115250000D02*
X98425000Y-112043750D01*
X345865000Y-154385000D02*
X346956250Y-153293750D01*
X337705000Y-139195000D02*
X337705000Y-153024596D01*
X330750000Y-115500000D02*
X327168750Y-111918750D01*
X133068750Y-115500000D02*
X136525000Y-112043750D01*
X339065404Y-154385000D02*
X345865000Y-154385000D01*
X212725000Y-112043750D02*
X216431250Y-115750000D01*
X254531250Y-115750000D02*
X285156250Y-115750000D01*
X362750000Y-115500000D02*
X363931250Y-116681250D01*
X171168750Y-115500000D02*
X174625000Y-112043750D01*
X288925000Y-111981250D02*
X292693750Y-115750000D01*
X174625000Y-112043750D02*
X178331250Y-115750000D01*
X209018750Y-115750000D02*
X212725000Y-112043750D01*
X285156250Y-115750000D02*
X288925000Y-111981250D01*
X216431250Y-115750000D02*
X247118750Y-115750000D01*
D39*
X327168750Y-111918750D02*
X327025000Y-111918750D01*
D40*
X139981250Y-115500000D02*
X171168750Y-115500000D01*
X337705000Y-153024596D02*
X339065404Y-154385000D01*
X353250000Y-134250000D02*
X352930000Y-133930000D01*
X58768750Y-115250000D02*
X95218750Y-115250000D01*
X352930000Y-133930000D02*
X352930000Y-129678112D01*
X365918750Y-116689362D02*
X365918750Y-116681250D01*
X178331250Y-115750000D02*
X209018750Y-115750000D01*
X338525000Y-138375000D02*
X337705000Y-139195000D01*
X356750000Y-115500000D02*
X362750000Y-115500000D01*
%TO.N,Net-(D1-A)*%
X55562500Y-108062500D02*
X53545000Y-106045000D01*
X53545000Y-106045000D02*
X50165000Y-106045000D01*
X55562500Y-108743750D02*
X55562500Y-108062500D01*
%TO.N,ROW1*%
X100500000Y-110500000D02*
X104750000Y-114750000D01*
X191250000Y-114750000D02*
X193675000Y-112325000D01*
X138500000Y-110500000D02*
X142750000Y-114750000D01*
X214750000Y-110500000D02*
X219000000Y-114750000D01*
X257000000Y-114750000D02*
X267106250Y-114750000D01*
X142750000Y-114750000D02*
X152868750Y-114750000D01*
X269875000Y-111981250D02*
X272643750Y-114750000D01*
X132430456Y-114750000D02*
X136680456Y-110500000D01*
X346160000Y-154840000D02*
X347456250Y-153543750D01*
X284767956Y-114750000D02*
X289017956Y-110500000D01*
X337377000Y-138386712D02*
X337250000Y-138513712D01*
X307975000Y-111981250D02*
X310743750Y-114750000D01*
X94000000Y-114500000D02*
X98000000Y-110500000D01*
X193675000Y-112043750D02*
X196381250Y-114750000D01*
X333500000Y-114750000D02*
X335250000Y-114750000D01*
X114768750Y-114750000D02*
X117475000Y-112043750D01*
X347456250Y-153543750D02*
X347456250Y-151037500D01*
X327000000Y-110250000D02*
X329000000Y-110250000D01*
X152868750Y-114750000D02*
X155575000Y-112043750D01*
X295250000Y-114750000D02*
X305206250Y-114750000D01*
X120181250Y-114750000D02*
X132430456Y-114750000D01*
X329000000Y-110250000D02*
X333500000Y-114750000D01*
X337250000Y-153213064D02*
X338876936Y-154840000D01*
X212880456Y-110500000D02*
X214750000Y-110500000D01*
X310743750Y-114750000D02*
X322500000Y-114750000D01*
X234481250Y-114750000D02*
X246730456Y-114750000D01*
X246730456Y-114750000D02*
X250980456Y-110500000D01*
X79375000Y-112043750D02*
X81831250Y-114500000D01*
X291000000Y-110500000D02*
X295250000Y-114750000D01*
X267106250Y-114750000D02*
X269875000Y-111981250D01*
X272643750Y-114750000D02*
X284767956Y-114750000D01*
X176750000Y-110500000D02*
X181000000Y-114750000D01*
X337250000Y-138513712D02*
X337250000Y-153213064D01*
X337181250Y-116681250D02*
X342106250Y-116681250D01*
X104750000Y-114750000D02*
X114768750Y-114750000D01*
X252750000Y-110500000D02*
X257000000Y-114750000D01*
X305206250Y-114750000D02*
X307975000Y-111981250D01*
X170530456Y-114750000D02*
X174780456Y-110500000D01*
X335250000Y-114750000D02*
X337181250Y-116681250D01*
X342106250Y-129643750D02*
X342106250Y-116681250D01*
X98000000Y-110500000D02*
X100500000Y-110500000D01*
X155575000Y-112043750D02*
X158281250Y-114750000D01*
X158281250Y-114750000D02*
X170530456Y-114750000D01*
X193675000Y-112325000D02*
X193675000Y-112043750D01*
X136680456Y-110500000D02*
X138500000Y-110500000D01*
X117475000Y-112043750D02*
X120181250Y-114750000D01*
X81831250Y-114500000D02*
X94000000Y-114500000D01*
X196381250Y-114750000D02*
X208630456Y-114750000D01*
X174780456Y-110500000D02*
X176750000Y-110500000D01*
X231775000Y-112043750D02*
X234481250Y-114750000D01*
X289017956Y-110500000D02*
X291000000Y-110500000D01*
X181000000Y-114750000D02*
X191250000Y-114750000D01*
X250980456Y-110500000D02*
X252750000Y-110500000D01*
X219000000Y-114750000D02*
X229068750Y-114750000D01*
X208630456Y-114750000D02*
X212880456Y-110500000D01*
X338876936Y-154840000D02*
X346160000Y-154840000D01*
X322500000Y-114750000D02*
X327000000Y-110250000D01*
X229068750Y-114750000D02*
X231775000Y-112043750D01*
%TO.N,Net-(D2-A)*%
X79375000Y-108743750D02*
X79375000Y-107875000D01*
X77545000Y-106045000D02*
X73977500Y-106045000D01*
X79375000Y-107875000D02*
X77545000Y-106045000D01*
%TO.N,Net-(D3-A)*%
X98425000Y-107925000D02*
X96545000Y-106045000D01*
X98425000Y-108743750D02*
X98425000Y-107925000D01*
X96545000Y-106045000D02*
X93027500Y-106045000D01*
%TO.N,Net-(D4-A)*%
X117475000Y-108743750D02*
X117475000Y-107975000D01*
X117475000Y-107975000D02*
X115545000Y-106045000D01*
X115545000Y-106045000D02*
X112077500Y-106045000D01*
%TO.N,Net-(D5-A)*%
X134545000Y-106045000D02*
X131127500Y-106045000D01*
X136525000Y-108743750D02*
X136525000Y-108025000D01*
X136525000Y-108025000D02*
X134545000Y-106045000D01*
%TO.N,Net-(D6-A)*%
X153670000Y-106045000D02*
X150177500Y-106045000D01*
X155575000Y-107950000D02*
X153670000Y-106045000D01*
X155575000Y-108743750D02*
X155575000Y-107950000D01*
%TO.N,Net-(D7-A)*%
X174625000Y-108000000D02*
X172670000Y-106045000D01*
X174625000Y-108743750D02*
X174625000Y-108000000D01*
X172670000Y-106045000D02*
X169227500Y-106045000D01*
%TO.N,Net-(D8-A)*%
X193675000Y-108743750D02*
X193675000Y-107925000D01*
X193675000Y-107925000D02*
X191795000Y-106045000D01*
X191795000Y-106045000D02*
X188277500Y-106045000D01*
%TO.N,Net-(D9-A)*%
X210795000Y-106045000D02*
X207327500Y-106045000D01*
X212725000Y-108743750D02*
X212725000Y-107975000D01*
X212725000Y-107975000D02*
X210795000Y-106045000D01*
%TO.N,Net-(D10-A)*%
X229795000Y-106045000D02*
X226377500Y-106045000D01*
X231775000Y-108025000D02*
X229795000Y-106045000D01*
X231775000Y-108743750D02*
X231775000Y-108025000D01*
%TO.N,Net-(D11-A)*%
X248795000Y-106045000D02*
X245427500Y-106045000D01*
X250825000Y-108075000D02*
X248795000Y-106045000D01*
X250825000Y-108743750D02*
X250825000Y-108075000D01*
%TO.N,Net-(D12-A)*%
X269875000Y-107875000D02*
X268045000Y-106045000D01*
X268045000Y-106045000D02*
X264477500Y-106045000D01*
X269875000Y-108681250D02*
X269875000Y-107875000D01*
%TO.N,Net-(D13-A)*%
X288925000Y-108681250D02*
X288925000Y-107925000D01*
X288925000Y-107925000D02*
X287045000Y-106045000D01*
X287045000Y-106045000D02*
X283527500Y-106045000D01*
%TO.N,Net-(D14-A)*%
X307975000Y-108681250D02*
X307975000Y-107975000D01*
X307975000Y-107975000D02*
X306045000Y-106045000D01*
X306045000Y-106045000D02*
X302577500Y-106045000D01*
%TO.N,Net-(D15-A)*%
X327025000Y-107775000D02*
X325295000Y-106045000D01*
X327025000Y-108618750D02*
X327025000Y-107775000D01*
X325295000Y-106045000D02*
X321627500Y-106045000D01*
%TO.N,Net-(D16-A)*%
X341250000Y-112525000D02*
X341250000Y-106617500D01*
X341250000Y-106617500D02*
X340677500Y-106045000D01*
X342106250Y-113381250D02*
X341250000Y-112525000D01*
%TO.N,Net-(D17-A)*%
X365250000Y-112712500D02*
X365250000Y-106805000D01*
X365250000Y-106805000D02*
X364490000Y-106045000D01*
X365918750Y-113381250D02*
X365250000Y-112712500D01*
%TO.N,ROW2*%
X298450000Y-131031250D02*
X303150000Y-135731250D01*
X222250000Y-130968750D02*
X227031250Y-135750000D01*
X348456250Y-151037500D02*
X348456250Y-154043750D01*
X112731250Y-135750000D02*
X141268750Y-135750000D01*
X265131250Y-135750000D02*
X293731250Y-135750000D01*
X184150000Y-130968750D02*
X188931250Y-135750000D01*
X293731250Y-135750000D02*
X298450000Y-131031250D01*
X217468750Y-135750000D02*
X222250000Y-130968750D01*
X336250000Y-153500000D02*
X336250000Y-136825000D01*
X107950000Y-130968750D02*
X112731250Y-135750000D01*
X348456250Y-154043750D02*
X346750000Y-155750000D01*
X179368750Y-135750000D02*
X184150000Y-130968750D01*
X227031250Y-135750000D02*
X255568750Y-135750000D01*
X146050000Y-130968750D02*
X150831250Y-135750000D01*
X150831250Y-135750000D02*
X179368750Y-135750000D01*
X338500000Y-155750000D02*
X336250000Y-153500000D01*
X103062500Y-135856250D02*
X107950000Y-130968750D01*
X255568750Y-135750000D02*
X260350000Y-130968750D01*
X346750000Y-155750000D02*
X338500000Y-155750000D01*
X260350000Y-130968750D02*
X265131250Y-135750000D01*
X303150000Y-135731250D02*
X337343750Y-135731250D01*
X188931250Y-135750000D02*
X217468750Y-135750000D01*
X55562500Y-135856250D02*
X103062500Y-135856250D01*
X336250000Y-136825000D02*
X337343750Y-135731250D01*
X141268750Y-135750000D02*
X146050000Y-130968750D01*
%TO.N,Net-(D18-A)*%
X55562500Y-132556250D02*
X55562500Y-131812500D01*
X53607500Y-129857500D02*
X50165000Y-129857500D01*
X55562500Y-131812500D02*
X53607500Y-129857500D01*
%TO.N,ROW3*%
X260430456Y-129500000D02*
X262250000Y-129500000D01*
X349500000Y-136500000D02*
X350250000Y-135750000D01*
X317500000Y-130968750D02*
X320781250Y-134250000D01*
X123218750Y-134750000D02*
X127000000Y-130968750D01*
X230000000Y-134750000D02*
X237518750Y-134750000D01*
X350250000Y-135750000D02*
X365900000Y-135750000D01*
X148250000Y-129250000D02*
X153750000Y-134750000D01*
X336750000Y-153356532D02*
X336750000Y-138000000D01*
X279400000Y-130968750D02*
X283181250Y-134750000D01*
X203200000Y-130968750D02*
X206981250Y-134750000D01*
X313718750Y-134750000D02*
X317500000Y-130968750D01*
X224500000Y-129250000D02*
X230000000Y-134750000D01*
X262250000Y-129500000D02*
X267500000Y-134750000D01*
X146380456Y-129250000D02*
X148250000Y-129250000D01*
X245081250Y-134750000D02*
X255180456Y-134750000D01*
X199418750Y-134750000D02*
X203200000Y-130968750D01*
X365900000Y-135750000D02*
X365918750Y-135731250D01*
X275618750Y-134750000D02*
X279400000Y-130968750D01*
X191500000Y-134750000D02*
X199418750Y-134750000D01*
X320781250Y-134250000D02*
X338000000Y-134250000D01*
X186250000Y-129500000D02*
X191500000Y-134750000D01*
X347956250Y-151037500D02*
X347956250Y-153793750D01*
X293342956Y-134750000D02*
X298592956Y-129500000D01*
X217080456Y-134750000D02*
X222580456Y-129250000D01*
X347956250Y-153793750D02*
X346455000Y-155295000D01*
X102289510Y-134750000D02*
X107789510Y-129250000D01*
X184230456Y-129500000D02*
X186250000Y-129500000D01*
X267500000Y-134750000D02*
X275618750Y-134750000D01*
X336750000Y-138000000D02*
X339250000Y-135500000D01*
X338688468Y-155295000D02*
X336750000Y-153356532D01*
X140880456Y-134750000D02*
X146380456Y-129250000D01*
X255180456Y-134750000D02*
X260430456Y-129500000D01*
X283181250Y-134750000D02*
X293342956Y-134750000D01*
X161318750Y-134750000D02*
X165100000Y-130968750D01*
X241300000Y-130968750D02*
X245081250Y-134750000D01*
X343750000Y-136500000D02*
X342750000Y-135500000D01*
X110000000Y-129250000D02*
X115500000Y-134750000D01*
X298592956Y-129500000D02*
X300500000Y-129500000D01*
X178980456Y-134750000D02*
X184230456Y-129500000D01*
X342750000Y-135500000D02*
X339250000Y-135500000D01*
X127000000Y-130968750D02*
X130781250Y-134750000D01*
X130781250Y-134750000D02*
X140880456Y-134750000D01*
X237518750Y-134750000D02*
X241300000Y-130968750D01*
X107789510Y-129250000D02*
X110000000Y-129250000D01*
X87856250Y-134750000D02*
X102289510Y-134750000D01*
X84137500Y-131031250D02*
X87856250Y-134750000D01*
X305750000Y-134750000D02*
X313718750Y-134750000D01*
X222580456Y-129250000D02*
X224500000Y-129250000D01*
X165100000Y-130968750D02*
X168881250Y-134750000D01*
X153750000Y-134750000D02*
X161318750Y-134750000D01*
X338000000Y-134250000D02*
X339250000Y-135500000D01*
X300500000Y-129500000D02*
X305750000Y-134750000D01*
X206981250Y-134750000D02*
X217080456Y-134750000D01*
X346455000Y-155295000D02*
X338688468Y-155295000D01*
X115500000Y-134750000D02*
X123218750Y-134750000D01*
X168881250Y-134750000D02*
X178980456Y-134750000D01*
%TO.N,Net-(D19-A)*%
X82345000Y-125095000D02*
X78740000Y-125095000D01*
X84137500Y-126887500D02*
X82345000Y-125095000D01*
X84137500Y-127731250D02*
X84137500Y-126887500D01*
%TO.N,Net-(D20-A)*%
X106095000Y-125095000D02*
X102552500Y-125095000D01*
X107950000Y-126950000D02*
X106095000Y-125095000D01*
X107950000Y-127668750D02*
X107950000Y-126950000D01*
%TO.N,Net-(D21-A)*%
X127000000Y-127000000D02*
X125095000Y-125095000D01*
X127000000Y-127668750D02*
X127000000Y-127000000D01*
X125095000Y-125095000D02*
X121602500Y-125095000D01*
%TO.N,Net-(D22-A)*%
X144345000Y-125095000D02*
X140652500Y-125095000D01*
X146050000Y-126800000D02*
X144345000Y-125095000D01*
X146050000Y-127668750D02*
X146050000Y-126800000D01*
%TO.N,Net-(D23-A)*%
X165100000Y-126850000D02*
X163345000Y-125095000D01*
X165100000Y-127668750D02*
X165100000Y-126850000D01*
X163345000Y-125095000D02*
X159702500Y-125095000D01*
%TO.N,Net-(D24-A)*%
X184150000Y-127668750D02*
X184150000Y-126900000D01*
X182345000Y-125095000D02*
X178752500Y-125095000D01*
X184150000Y-126900000D02*
X182345000Y-125095000D01*
%TO.N,Net-(D25-A)*%
X203200000Y-126950000D02*
X201345000Y-125095000D01*
X203200000Y-127668750D02*
X203200000Y-126950000D01*
X201345000Y-125095000D02*
X197802500Y-125095000D01*
%TO.N,Net-(D26-A)*%
X222250000Y-127668750D02*
X222250000Y-127000000D01*
X222250000Y-127000000D02*
X220345000Y-125095000D01*
X220345000Y-125095000D02*
X216852500Y-125095000D01*
%TO.N,Net-(D27-A)*%
X241300000Y-127050000D02*
X239345000Y-125095000D01*
X239345000Y-125095000D02*
X235902500Y-125095000D01*
X241300000Y-127668750D02*
X241300000Y-127050000D01*
%TO.N,Net-(D28-A)*%
X258595000Y-125095000D02*
X254952500Y-125095000D01*
X260350000Y-127668750D02*
X260350000Y-126850000D01*
X260350000Y-126850000D02*
X258595000Y-125095000D01*
%TO.N,Net-(D29-A)*%
X279400000Y-126900000D02*
X277595000Y-125095000D01*
X279400000Y-127668750D02*
X279400000Y-126900000D01*
X277595000Y-125095000D02*
X274002500Y-125095000D01*
%TO.N,Net-(D30-A)*%
X296595000Y-125095000D02*
X293052500Y-125095000D01*
X298450000Y-127731250D02*
X298450000Y-126950000D01*
X298450000Y-126950000D02*
X296595000Y-125095000D01*
%TO.N,Net-(D31-A)*%
X317500000Y-127000000D02*
X315595000Y-125095000D01*
X315595000Y-125095000D02*
X312102500Y-125095000D01*
X317500000Y-127668750D02*
X317500000Y-127000000D01*
%TO.N,Net-(D32-A)*%
X336750000Y-131837500D02*
X336750000Y-125930000D01*
X337343750Y-132431250D02*
X336750000Y-131837500D01*
X336750000Y-125930000D02*
X335915000Y-125095000D01*
%TO.N,Net-(D33-A)*%
X365918750Y-132431250D02*
X365250000Y-131762500D01*
X365250000Y-131762500D02*
X365250000Y-125855000D01*
X365250000Y-125855000D02*
X364490000Y-125095000D01*
%TO.N,Net-(D34-A)*%
X55562500Y-150812500D02*
X53657500Y-148907500D01*
X55562500Y-151543750D02*
X55562500Y-150812500D01*
X53657500Y-148907500D02*
X50165000Y-148907500D01*
%TO.N,ROW4*%
X191893750Y-153000000D02*
X224031250Y-153000000D01*
X58406250Y-154843750D02*
X69250000Y-144000000D01*
X227012500Y-150018750D02*
X229993750Y-153000000D01*
X300231250Y-153000000D02*
X303212500Y-150018750D01*
X55562500Y-154843750D02*
X58406250Y-154843750D01*
X69250000Y-144000000D02*
X76750000Y-144000000D01*
X309943750Y-156750000D02*
X303212500Y-150018750D01*
X224031250Y-153000000D02*
X227012500Y-150018750D01*
X76750000Y-144000000D02*
X81750000Y-149000000D01*
X147893750Y-153000000D02*
X150812500Y-150081250D01*
X150812500Y-150081250D02*
X153731250Y-153000000D01*
X83250000Y-153000000D02*
X109731250Y-153000000D01*
X109731250Y-153000000D02*
X112712500Y-150018750D01*
X81750000Y-149000000D02*
X81750000Y-151500000D01*
X81750000Y-151500000D02*
X83250000Y-153000000D01*
X229993750Y-153000000D02*
X262131250Y-153000000D01*
X188912500Y-150018750D02*
X191893750Y-153000000D01*
X268093750Y-153000000D02*
X300231250Y-153000000D01*
X347250000Y-156750000D02*
X309943750Y-156750000D01*
X349456250Y-151037500D02*
X349456250Y-154543750D01*
X185931250Y-153000000D02*
X188912500Y-150018750D01*
X153731250Y-153000000D02*
X185931250Y-153000000D01*
X349456250Y-154543750D02*
X347250000Y-156750000D01*
X262131250Y-153000000D02*
X265112500Y-150018750D01*
X265112500Y-150018750D02*
X268093750Y-153000000D01*
X112712500Y-150018750D02*
X115693750Y-153000000D01*
X115693750Y-153000000D02*
X147893750Y-153000000D01*
%TO.N,ROW5*%
X118000000Y-152000000D02*
X129781250Y-152000000D01*
X129781250Y-152000000D02*
X131762500Y-150018750D01*
X333000000Y-156250000D02*
X347000000Y-156250000D01*
X330200000Y-154781250D02*
X331531250Y-154781250D01*
X261500000Y-152000000D02*
X265000000Y-148500000D01*
X229000000Y-148250000D02*
X232750000Y-152000000D01*
X232750000Y-152000000D02*
X244143750Y-152000000D01*
X303500000Y-148250000D02*
X305250000Y-148250000D01*
X194500000Y-152000000D02*
X206043750Y-152000000D01*
X131762500Y-150018750D02*
X133346750Y-151603000D01*
X156750000Y-152000000D02*
X167881250Y-152000000D01*
X282243750Y-152000000D02*
X284162500Y-150081250D01*
X171843750Y-152000000D02*
X185542956Y-152000000D01*
X227250000Y-148250000D02*
X229000000Y-148250000D01*
X109250000Y-152000000D02*
X112750000Y-148500000D01*
X311781250Y-154781250D02*
X330200000Y-154781250D01*
X206043750Y-152000000D02*
X207962500Y-150081250D01*
X191000000Y-148500000D02*
X194500000Y-152000000D01*
X209881250Y-152000000D02*
X223500000Y-152000000D01*
X267000000Y-148500000D02*
X270500000Y-152000000D01*
X331531250Y-154781250D02*
X333000000Y-156250000D01*
X153250000Y-148500000D02*
X156750000Y-152000000D01*
X284162500Y-150081250D02*
X286081250Y-152000000D01*
X189042956Y-148500000D02*
X191000000Y-148500000D01*
X207962500Y-150081250D02*
X209881250Y-152000000D01*
X270500000Y-152000000D02*
X282243750Y-152000000D01*
X88500000Y-152000000D02*
X109250000Y-152000000D01*
X151005456Y-148500000D02*
X153250000Y-148500000D01*
X305250000Y-148250000D02*
X311781250Y-154781250D01*
X223500000Y-152000000D02*
X227250000Y-148250000D01*
X246062500Y-150081250D02*
X247981250Y-152000000D01*
X133346750Y-151603000D02*
X147902456Y-151603000D01*
X114500000Y-148500000D02*
X118000000Y-152000000D01*
X167881250Y-152000000D02*
X169862500Y-150018750D01*
X299750000Y-152000000D02*
X303500000Y-148250000D01*
X265000000Y-148500000D02*
X267000000Y-148500000D01*
X347000000Y-156250000D02*
X348956250Y-154293750D01*
X112750000Y-148500000D02*
X114500000Y-148500000D01*
X348956250Y-154293750D02*
X348956250Y-151037500D01*
X185542956Y-152000000D02*
X189042956Y-148500000D01*
X147902456Y-151603000D02*
X151005456Y-148500000D01*
X86518750Y-150018750D02*
X88500000Y-152000000D01*
X247981250Y-152000000D02*
X261500000Y-152000000D01*
X169862500Y-150018750D02*
X171843750Y-152000000D01*
X286081250Y-152000000D02*
X299750000Y-152000000D01*
X244143750Y-152000000D02*
X246062500Y-150081250D01*
%TO.N,Net-(D35-A)*%
X86518750Y-146018750D02*
X84645000Y-144145000D01*
X86518750Y-146718750D02*
X86518750Y-146018750D01*
X84645000Y-144145000D02*
X81121250Y-144145000D01*
%TO.N,Net-(D36-A)*%
X110895000Y-144145000D02*
X107315000Y-144145000D01*
X112712500Y-146718750D02*
X112712500Y-145962500D01*
X112712500Y-145962500D02*
X110895000Y-144145000D01*
%TO.N,Net-(D37-A)*%
X131762500Y-146012500D02*
X129895000Y-144145000D01*
X129895000Y-144145000D02*
X126365000Y-144145000D01*
X131762500Y-146718750D02*
X131762500Y-146012500D01*
%TO.N,Net-(D38-A)*%
X150812500Y-146781250D02*
X150812500Y-146062500D01*
X148895000Y-144145000D02*
X145415000Y-144145000D01*
X150812500Y-146062500D02*
X148895000Y-144145000D01*
%TO.N,Net-(D39-A)*%
X167895000Y-144145000D02*
X164465000Y-144145000D01*
X169862500Y-146112500D02*
X167895000Y-144145000D01*
X169862500Y-146718750D02*
X169862500Y-146112500D01*
%TO.N,Net-(D40-A)*%
X188912500Y-146718750D02*
X188912500Y-145912500D01*
X188912500Y-145912500D02*
X187145000Y-144145000D01*
X187145000Y-144145000D02*
X183515000Y-144145000D01*
%TO.N,Net-(D41-A)*%
X207962500Y-145962500D02*
X206145000Y-144145000D01*
X206145000Y-144145000D02*
X202565000Y-144145000D01*
X207962500Y-146781250D02*
X207962500Y-145962500D01*
%TO.N,Net-(D42-A)*%
X225145000Y-144145000D02*
X221615000Y-144145000D01*
X227012500Y-146718750D02*
X227012500Y-146012500D01*
X227012500Y-146012500D02*
X225145000Y-144145000D01*
%TO.N,Net-(D43-A)*%
X246062500Y-146781250D02*
X246062500Y-146062500D01*
X244145000Y-144145000D02*
X240665000Y-144145000D01*
X246062500Y-146062500D02*
X244145000Y-144145000D01*
%TO.N,Net-(D44-A)*%
X265112500Y-146718750D02*
X265112500Y-146112500D01*
X263145000Y-144145000D02*
X259715000Y-144145000D01*
X265112500Y-146112500D02*
X263145000Y-144145000D01*
%TO.N,Net-(D45-A)*%
X284162500Y-146781250D02*
X284162500Y-146162500D01*
X282145000Y-144145000D02*
X278765000Y-144145000D01*
X284162500Y-146162500D02*
X282145000Y-144145000D01*
%TO.N,Net-(D46-A)*%
X301395000Y-144145000D02*
X297815000Y-144145000D01*
X303212500Y-146718750D02*
X303212500Y-145962500D01*
X303212500Y-145962500D02*
X301395000Y-144145000D01*
%TO.N,Net-(D47-A)*%
X329500000Y-150781250D02*
X329500000Y-146718250D01*
X330200000Y-151481250D02*
X329500000Y-150781250D01*
X329500000Y-146718250D02*
X332073250Y-144145000D01*
%TO.N,Net-(D48-A)*%
X90875000Y-166625000D02*
X92075000Y-166625000D01*
X89185750Y-163195000D02*
X89185750Y-164935750D01*
X89185750Y-164935750D02*
X90875000Y-166625000D01*
%TO.N,ROW6*%
X213806250Y-172750000D02*
X217487500Y-169068750D01*
X251906250Y-172750000D02*
X255587500Y-169068750D01*
X94900000Y-172750000D02*
X137731250Y-172750000D01*
X175831250Y-172750000D02*
X179387500Y-169193750D01*
X349956250Y-154793750D02*
X347500000Y-157250000D01*
X293687500Y-169068750D02*
X297368750Y-172750000D01*
X144843750Y-172750000D02*
X175831250Y-172750000D01*
X137731250Y-172750000D02*
X141287500Y-169193750D01*
X297368750Y-172750000D02*
X339000000Y-172750000D01*
X339000000Y-172750000D02*
X340081250Y-173831250D01*
X349956250Y-151037500D02*
X349956250Y-154793750D01*
X179387500Y-169193750D02*
X182943750Y-172750000D01*
X221168750Y-172750000D02*
X251906250Y-172750000D01*
X217487500Y-169068750D02*
X221168750Y-172750000D01*
X290006250Y-172750000D02*
X293687500Y-169068750D01*
X349500000Y-162750000D02*
X349500000Y-171200000D01*
X141287500Y-169193750D02*
X144843750Y-172750000D01*
X349500000Y-171200000D02*
X346868750Y-173831250D01*
X259268750Y-172750000D02*
X290006250Y-172750000D01*
X340081250Y-173831250D02*
X346868750Y-173831250D01*
X92075000Y-169925000D02*
X94900000Y-172750000D01*
X255587500Y-169068750D02*
X259268750Y-172750000D01*
X182943750Y-172750000D02*
X213806250Y-172750000D01*
%TO.N,Net-(D49-A)*%
X122237500Y-165768750D02*
X122237500Y-164987500D01*
X122237500Y-164987500D02*
X120445000Y-163195000D01*
X120445000Y-163195000D02*
X116840000Y-163195000D01*
%TO.N,ROW7*%
X364398643Y-155296644D02*
X365503356Y-155296644D01*
X365000000Y-153250000D02*
X365750000Y-154000000D01*
X299500000Y-171250000D02*
X321793750Y-171250000D01*
X360205000Y-151205000D02*
X360313111Y-151205000D01*
X234106250Y-171500000D02*
X236537500Y-169068750D01*
X261500000Y-171500000D02*
X272206250Y-171500000D01*
X185500000Y-171750000D02*
X195881250Y-171750000D01*
X289500000Y-171500000D02*
X293500000Y-167500000D01*
X137592956Y-171500000D02*
X141342956Y-167750000D01*
X365750000Y-154000000D02*
X365750000Y-155050000D01*
X321793750Y-171250000D02*
X323056250Y-169987500D01*
X329262500Y-169987500D02*
X323056250Y-169987500D01*
X359561194Y-157938806D02*
X341311194Y-157938806D01*
X219500000Y-167500000D02*
X223500000Y-171500000D01*
X143250000Y-167750000D02*
X147250000Y-171750000D01*
X341311194Y-157938806D02*
X329262500Y-169987500D01*
X295750000Y-167500000D02*
X299500000Y-171250000D01*
X217667956Y-167500000D02*
X219500000Y-167500000D01*
X362358111Y-153250000D02*
X365000000Y-153250000D01*
X236537500Y-169068750D02*
X238968750Y-171500000D01*
X274637500Y-169068750D02*
X277068750Y-171500000D01*
X360180000Y-151180000D02*
X360205000Y-151205000D01*
X213417956Y-171750000D02*
X217667956Y-167500000D01*
X124668750Y-171500000D02*
X137592956Y-171500000D01*
X251767956Y-171500000D02*
X255767956Y-167500000D01*
X354265750Y-149265750D02*
X354265750Y-150265750D01*
X277068750Y-171500000D02*
X289500000Y-171500000D01*
X157781250Y-171750000D02*
X160337500Y-169193750D01*
X257500000Y-167500000D02*
X261500000Y-171500000D01*
X353137500Y-148137500D02*
X354265750Y-149265750D01*
X223500000Y-171500000D02*
X234106250Y-171500000D01*
X175442956Y-171750000D02*
X179442956Y-167750000D01*
X238968750Y-171500000D02*
X251767956Y-171500000D01*
X293500000Y-167500000D02*
X295750000Y-167500000D01*
X351856250Y-148137500D02*
X353137500Y-148137500D01*
X162893750Y-171750000D02*
X175442956Y-171750000D01*
X355180000Y-151180000D02*
X360180000Y-151180000D01*
X195881250Y-171750000D02*
X198437500Y-169193750D01*
X147250000Y-171750000D02*
X157781250Y-171750000D01*
X272206250Y-171500000D02*
X274637500Y-169068750D01*
X365503356Y-155296644D02*
X365750000Y-155050000D01*
X354265750Y-150265750D02*
X355180000Y-151180000D01*
X361238000Y-156250000D02*
X361238000Y-156262000D01*
X360313111Y-151205000D02*
X362358111Y-153250000D01*
X255767956Y-167500000D02*
X257500000Y-167500000D01*
X179442956Y-167750000D02*
X181500000Y-167750000D01*
X181500000Y-167750000D02*
X185500000Y-171750000D01*
X141342956Y-167750000D02*
X143250000Y-167750000D01*
X198437500Y-169193750D02*
X200993750Y-171750000D01*
X122237500Y-169068750D02*
X124668750Y-171500000D01*
X160337500Y-169193750D02*
X162893750Y-171750000D01*
X200993750Y-171750000D02*
X213417956Y-171750000D01*
X363851999Y-154750000D02*
X364398643Y-155296644D01*
X361238000Y-156262000D02*
X359561194Y-157938806D01*
%TO.N,Net-(D50-A)*%
X141287500Y-165037500D02*
X139445000Y-163195000D01*
X141287500Y-165893750D02*
X141287500Y-165037500D01*
X139445000Y-163195000D02*
X135890000Y-163195000D01*
%TO.N,Net-(D51-A)*%
X160337500Y-165893750D02*
X160337500Y-165087500D01*
X158445000Y-163195000D02*
X154940000Y-163195000D01*
X160337500Y-165087500D02*
X158445000Y-163195000D01*
%TO.N,Net-(D52-A)*%
X179387500Y-165137500D02*
X177445000Y-163195000D01*
X179387500Y-165893750D02*
X179387500Y-165137500D01*
X177445000Y-163195000D02*
X173990000Y-163195000D01*
%TO.N,Net-(D53-A)*%
X198437500Y-165187500D02*
X196445000Y-163195000D01*
X196445000Y-163195000D02*
X193040000Y-163195000D01*
X198437500Y-165893750D02*
X198437500Y-165187500D01*
%TO.N,Net-(D54-A)*%
X215695000Y-163195000D02*
X212090000Y-163195000D01*
X217487500Y-165768750D02*
X217487500Y-164987500D01*
X217487500Y-164987500D02*
X215695000Y-163195000D01*
%TO.N,Net-(D55-A)*%
X234695000Y-163195000D02*
X231140000Y-163195000D01*
X236537500Y-165037500D02*
X234695000Y-163195000D01*
X236537500Y-165768750D02*
X236537500Y-165037500D01*
%TO.N,Net-(D56-A)*%
X253695000Y-163195000D02*
X250190000Y-163195000D01*
X255587500Y-165768750D02*
X255587500Y-165087500D01*
X255587500Y-165087500D02*
X253695000Y-163195000D01*
%TO.N,Net-(D57-A)*%
X274637500Y-165768750D02*
X274637500Y-164887500D01*
X274637500Y-164887500D02*
X272945000Y-163195000D01*
X272945000Y-163195000D02*
X269240000Y-163195000D01*
%TO.N,Net-(D58-A)*%
X291945000Y-163195000D02*
X288290000Y-163195000D01*
X293687500Y-164937500D02*
X291945000Y-163195000D01*
X293687500Y-165768750D02*
X293687500Y-164937500D01*
%TO.N,Net-(D59-A)*%
X320167000Y-163195000D02*
X320167000Y-164917000D01*
X321937500Y-166687500D02*
X323056250Y-166687500D01*
X320167000Y-164917000D02*
X321937500Y-166687500D01*
%TO.N,Net-(D60-A)*%
X346250000Y-169912500D02*
X346250000Y-164005000D01*
X346250000Y-164005000D02*
X345440000Y-163195000D01*
X346868750Y-170531250D02*
X346250000Y-169912500D01*
%TO.N,Net-(D61-A)*%
X81756250Y-184943750D02*
X81756250Y-184256250D01*
X81756250Y-184256250D02*
X79745000Y-182245000D01*
X79745000Y-182245000D02*
X76358750Y-182245000D01*
%TO.N,ROW8*%
X354653112Y-152545000D02*
X359758064Y-152545000D01*
X348237500Y-194250000D02*
X346868750Y-192881250D01*
X345500000Y-194250000D02*
X346868750Y-192881250D01*
X362295000Y-155081937D02*
X362295000Y-172045000D01*
X127756250Y-192250000D02*
X131762500Y-188243750D01*
X229356250Y-192250000D02*
X232568750Y-189037500D01*
X359758064Y-152545000D02*
X362295000Y-155081937D01*
X369000000Y-191750000D02*
X366500000Y-194250000D01*
X131762500Y-188243750D02*
X135768750Y-192250000D01*
X351856250Y-149637500D02*
X352487500Y-149637500D01*
X235781250Y-192250000D02*
X296825000Y-192250000D01*
X135768750Y-192250000D02*
X229356250Y-192250000D01*
X362295000Y-172045000D02*
X369000000Y-178750001D01*
X81756250Y-188243750D02*
X85762500Y-192250000D01*
X369000000Y-178750001D02*
X369000000Y-191750000D01*
X296825000Y-192250000D02*
X300831250Y-188243750D01*
X306837500Y-194250000D02*
X345500000Y-194250000D01*
X85762500Y-192250000D02*
X127756250Y-192250000D01*
X352900750Y-150050750D02*
X352900750Y-150792638D01*
X366500000Y-194250000D02*
X348237500Y-194250000D01*
X300831250Y-188243750D02*
X306837500Y-194250000D01*
X352487500Y-149637500D02*
X352900750Y-150050750D01*
X232568750Y-189037500D02*
X235781250Y-192250000D01*
X352900750Y-150792638D02*
X354653112Y-152545000D01*
%TO.N,ROW9*%
X352445750Y-150303862D02*
X352445750Y-150945750D01*
X300500000Y-186750000D02*
X302750000Y-186750000D01*
X345350000Y-191250000D02*
X356100000Y-191250000D01*
X232717956Y-187500000D02*
X234500000Y-187500000D01*
X127117956Y-191500000D02*
X132117956Y-186500000D01*
X138750000Y-191500000D02*
X172831250Y-191500000D01*
X368545000Y-178938468D02*
X368545000Y-191455000D01*
X108825000Y-191500000D02*
X127117956Y-191500000D01*
X172831250Y-191500000D02*
X175418750Y-188912500D01*
X354500000Y-153000000D02*
X359569596Y-153000000D01*
X361840000Y-172233468D02*
X368545000Y-178938468D01*
X352445750Y-150945750D02*
X354500000Y-153000000D01*
X351856250Y-150137500D02*
X352279388Y-150137500D01*
X368545000Y-191455000D02*
X367118750Y-192881250D01*
X178006250Y-191500000D02*
X228717956Y-191500000D01*
X271381250Y-191500000D02*
X274637500Y-188243750D01*
X274637500Y-188243750D02*
X277893750Y-191500000D01*
X132117956Y-186500000D02*
X133750000Y-186500000D01*
X322131250Y-192881250D02*
X327818750Y-192881250D01*
X356100000Y-191250000D02*
X357731250Y-192881250D01*
X238500000Y-191500000D02*
X271381250Y-191500000D01*
X321762500Y-193250000D02*
X322131250Y-192881250D01*
X277893750Y-191500000D02*
X295750000Y-191500000D01*
X352279388Y-150137500D02*
X352445750Y-150303862D01*
X234500000Y-187500000D02*
X238500000Y-191500000D01*
X361840000Y-155270404D02*
X361840000Y-172233468D01*
X295750000Y-191500000D02*
X300500000Y-186750000D01*
X228717956Y-191500000D02*
X232717956Y-187500000D01*
X357731250Y-192881250D02*
X365918750Y-192881250D01*
X175418750Y-188912500D02*
X178006250Y-191500000D01*
X328487500Y-193550000D02*
X343050000Y-193550000D01*
X105568750Y-188243750D02*
X108825000Y-191500000D01*
X343050000Y-193550000D02*
X345350000Y-191250000D01*
X309250000Y-193250000D02*
X321762500Y-193250000D01*
X133750000Y-186500000D02*
X138750000Y-191500000D01*
X367118750Y-192881250D02*
X365918750Y-192881250D01*
X327818750Y-192881250D02*
X328487500Y-193550000D01*
X359569596Y-153000000D02*
X361840000Y-155270404D01*
X302750000Y-186750000D02*
X309250000Y-193250000D01*
%TO.N,Net-(D62-A)*%
X105568750Y-184318750D02*
X103495000Y-182245000D01*
X105568750Y-184943750D02*
X105568750Y-184318750D01*
X103495000Y-182245000D02*
X100171250Y-182245000D01*
%TO.N,Net-(D63-A)*%
X129745000Y-182245000D02*
X126365000Y-182245000D01*
X131762500Y-184943750D02*
X131762500Y-184262500D01*
X131762500Y-184262500D02*
X129745000Y-182245000D01*
%TO.N,Net-(D64-A)*%
X172529500Y-182245000D02*
X172529500Y-184029500D01*
X174112500Y-185612500D02*
X175418750Y-185612500D01*
X172529500Y-184029500D02*
X174112500Y-185612500D01*
%TO.N,Net-(D65-A)*%
X231250000Y-185750000D02*
X231262500Y-185737500D01*
X231262500Y-185737500D02*
X232568750Y-185737500D01*
X229679500Y-184179500D02*
X231250000Y-185750000D01*
X229679500Y-182245000D02*
X229679500Y-184179500D01*
%TO.N,Net-(D66-A)*%
X272745000Y-182245000D02*
X269240000Y-182245000D01*
X274637500Y-184943750D02*
X274637500Y-184137500D01*
X274637500Y-184137500D02*
X272745000Y-182245000D01*
%TO.N,Net-(D67-A)*%
X298745000Y-182245000D02*
X295433750Y-182245000D01*
X300831250Y-184331250D02*
X298745000Y-182245000D01*
X300831250Y-184943750D02*
X300831250Y-184331250D01*
%TO.N,Net-(D68-A)*%
X327000000Y-188762500D02*
X327000000Y-182855000D01*
X327818750Y-189581250D02*
X327000000Y-188762500D01*
X327000000Y-182855000D02*
X326390000Y-182245000D01*
%TO.N,Net-(D69-A)*%
X346250000Y-183055000D02*
X345440000Y-182245000D01*
X346868750Y-189581250D02*
X346250000Y-188962500D01*
X346250000Y-188962500D02*
X346250000Y-183055000D01*
%TO.N,Net-(D70-A)*%
X365918750Y-189581250D02*
X365250000Y-188912500D01*
X365250000Y-188912500D02*
X365250000Y-183005000D01*
X365250000Y-183005000D02*
X364490000Y-182245000D01*
%TO.N,Net-(D71-A)*%
X368750000Y-149500000D02*
X373000000Y-149500000D01*
X365750000Y-151750000D02*
X366500000Y-151750000D01*
X373000000Y-149500000D02*
X373975000Y-150475000D01*
X373975000Y-150475000D02*
X373975000Y-151750000D01*
X366500000Y-151750000D02*
X368750000Y-149500000D01*
D39*
%TO.N,VCC*%
X347600000Y-105100000D02*
X348456250Y-105956250D01*
X352500000Y-105270678D02*
X351770678Y-106000000D01*
X348456250Y-107637500D02*
X347250000Y-108843750D01*
X351770678Y-106000000D02*
X351250000Y-106000000D01*
X352500000Y-103500000D02*
X352500000Y-105270678D01*
X347600000Y-103500000D02*
X347600000Y-105100000D01*
X348456250Y-105956250D02*
X348456250Y-107637500D01*
X347250000Y-112300000D02*
X347662500Y-112712500D01*
X347250000Y-108843750D02*
X347250000Y-112300000D01*
D40*
%TO.N,COL8*%
X354000000Y-137805989D02*
X349956250Y-141849739D01*
X349956250Y-141849739D02*
X349956250Y-144237500D01*
X354000000Y-136500000D02*
X354000000Y-137805989D01*
D39*
%TO.N,SLOCK_IND*%
X61118750Y-188912500D02*
X62412500Y-188912500D01*
D40*
X351000000Y-142250000D02*
X350456250Y-142793750D01*
X62412500Y-188912500D02*
X62500000Y-189000000D01*
X350456250Y-142793750D02*
X350456250Y-144237500D01*
%TO.N,RESET*%
X357250000Y-139750000D02*
X358850000Y-141350000D01*
X354000000Y-144123546D02*
X352486046Y-145637500D01*
X355769000Y-139750000D02*
X354000000Y-141519000D01*
X356250000Y-139750000D02*
X355769000Y-139750000D01*
X357500000Y-143750000D02*
X358250000Y-143750000D01*
X358850000Y-141350000D02*
X358850000Y-142606250D01*
X358850000Y-143150000D02*
X358850000Y-142606250D01*
X354000000Y-141519000D02*
X354000000Y-144123546D01*
X352486046Y-145637500D02*
X351856250Y-145637500D01*
X356250000Y-139750000D02*
X357250000Y-139750000D01*
X358250000Y-143750000D02*
X358850000Y-143150000D01*
%TO.N,RGBLED*%
X352500000Y-129500000D02*
X352570000Y-129430000D01*
X352750000Y-141500000D02*
X350956250Y-143293750D01*
X353250000Y-135123000D02*
X352500000Y-134373000D01*
X350956250Y-143293750D02*
X350956250Y-144237500D01*
X352500000Y-134373000D02*
X352500000Y-129500000D01*
X352570000Y-129421888D02*
X357187500Y-124804388D01*
X357187500Y-124804388D02*
X357187500Y-121468750D01*
X353250000Y-139750000D02*
X352750000Y-140250000D01*
X352570000Y-129430000D02*
X352570000Y-129421888D01*
X352750000Y-140250000D02*
X352750000Y-141500000D01*
D39*
%TO.N,Net-(LED1-A)*%
X53687500Y-182562500D02*
X50000000Y-178875000D01*
X50000000Y-175730000D02*
X48895000Y-174625000D01*
X50000000Y-178875000D02*
X50000000Y-175730000D01*
X59318750Y-182562500D02*
X53687500Y-182562500D01*
%TO.N,Net-(LED2-A)*%
X59318750Y-185737500D02*
X53663750Y-185737500D01*
X53663750Y-185737500D02*
X48895000Y-180968750D01*
%TO.N,Net-(LED3-A)*%
X53662500Y-188912500D02*
X52062500Y-187312500D01*
X52062500Y-187312500D02*
X48895000Y-187312500D01*
X59318750Y-188912500D02*
X53662500Y-188912500D01*
D40*
%TO.N,D-*%
X346956250Y-137706250D02*
X346956250Y-144237500D01*
X346075000Y-136525000D02*
X346075000Y-136825000D01*
X346075000Y-136825000D02*
X346956250Y-137706250D01*
%TO.N,Net-(U2-IO2)*%
X349284250Y-108709500D02*
X348456250Y-109537500D01*
X349300000Y-104800000D02*
X349750000Y-105250000D01*
X346075000Y-119925000D02*
X346075000Y-134725000D01*
X349320000Y-116680000D02*
X346075000Y-119925000D01*
X348456250Y-109537500D02*
X349320000Y-110401250D01*
X349750000Y-105250000D02*
X349750000Y-105750000D01*
X349284250Y-106215750D02*
X349284250Y-108709500D01*
X350300000Y-104700000D02*
X350300000Y-103500000D01*
X349300000Y-103500000D02*
X349300000Y-104800000D01*
X349750000Y-105750000D02*
X349284250Y-106215750D01*
X349320000Y-110401250D02*
X349320000Y-116680000D01*
X349750000Y-105250000D02*
X350300000Y-104700000D01*
%TO.N,Net-(U2-IO1)*%
X349750000Y-110250000D02*
X349750000Y-116875000D01*
X350800000Y-105450000D02*
X349750000Y-106500000D01*
X350756250Y-109537500D02*
X350462500Y-109537500D01*
X350800000Y-103500000D02*
X350800000Y-105450000D01*
X350800000Y-102550000D02*
X350800000Y-103500000D01*
X346505000Y-132005000D02*
X348000000Y-133500000D01*
X349750000Y-108531250D02*
X350756250Y-109537500D01*
X349750000Y-116875000D02*
X346505000Y-120120000D01*
X346505000Y-120120000D02*
X346505000Y-132005000D01*
X350500000Y-102250000D02*
X350800000Y-102550000D01*
X349800000Y-102469000D02*
X350019000Y-102250000D01*
X348000000Y-133500000D02*
X348000000Y-134750000D01*
X349750000Y-106500000D02*
X349750000Y-108531250D01*
X349800000Y-103500000D02*
X349800000Y-102469000D01*
X350462500Y-109537500D02*
X349750000Y-110250000D01*
X350019000Y-102250000D02*
X350500000Y-102250000D01*
%TO.N,D+*%
X347456250Y-137543750D02*
X347456250Y-144237500D01*
X348000000Y-136550000D02*
X348000000Y-137000000D01*
X348000000Y-137000000D02*
X347456250Y-137543750D01*
%TO.N,RESW_A*%
X368975000Y-167525000D02*
X368975000Y-166250000D01*
X366712500Y-168275000D02*
X368225000Y-168275000D01*
X368225000Y-168275000D02*
X368975000Y-167525000D01*
X368225000Y-169275000D02*
X368225000Y-168275000D01*
X366500000Y-169900000D02*
X367600000Y-169900000D01*
X367600000Y-169900000D02*
X368225000Y-169275000D01*
%TO.N,Net-(U1-PD2)*%
X351856250Y-149137500D02*
X352637500Y-149137500D01*
X362750000Y-154893470D02*
X362750000Y-171250000D01*
X364600000Y-173100000D02*
X364912500Y-173100000D01*
X359946532Y-152090000D02*
X362750000Y-154893470D01*
X353355750Y-149855750D02*
X353355750Y-150605750D01*
X353355750Y-150605750D02*
X354840000Y-152090000D01*
X352637500Y-149137500D02*
X353355750Y-149855750D01*
X362750000Y-171250000D02*
X364600000Y-173100000D01*
X354840000Y-152090000D02*
X359946532Y-152090000D01*
%TO.N,Net-(U1-PD1)*%
X351856250Y-148637500D02*
X352887500Y-148637500D01*
X363250000Y-154750001D02*
X363250000Y-166612500D01*
X363250000Y-166612500D02*
X364912500Y-168275000D01*
X353810750Y-150452638D02*
X354993112Y-151635000D01*
X360134999Y-151635000D02*
X363250000Y-154750001D01*
X353810750Y-149560750D02*
X353810750Y-150452638D01*
X352887500Y-148637500D02*
X353810750Y-149560750D01*
X354993112Y-151635000D02*
X360134999Y-151635000D01*
%TO.N,RESW_B*%
X366500000Y-171500000D02*
X369000000Y-171500000D01*
X367462500Y-173037500D02*
X369375000Y-171125000D01*
X369000000Y-171500000D02*
X369375000Y-171125000D01*
X371000000Y-169500000D02*
X372500000Y-169500000D01*
X369375000Y-171125000D02*
X371000000Y-169500000D01*
X373975000Y-168025000D02*
X373975000Y-166250000D01*
X372500000Y-169500000D02*
X373975000Y-168025000D01*
X366712500Y-173037500D02*
X367462500Y-173037500D01*
%TO.N,Net-(USB1-CC1)*%
X345200000Y-106550000D02*
X345250000Y-106500000D01*
X345200000Y-107625000D02*
X345200000Y-106550000D01*
X348763479Y-105217592D02*
X348763479Y-105236521D01*
X348800000Y-105200000D02*
X348800000Y-103500000D01*
X348763479Y-105236521D02*
X348800000Y-105200000D01*
%TO.N,Net-(USB1-CC2)*%
X351800000Y-104956553D02*
X351800000Y-103500000D01*
X353137500Y-106750000D02*
X353137500Y-107625000D01*
X351518044Y-105246239D02*
X351518044Y-105238509D01*
X351518044Y-105238509D02*
X351800000Y-104956553D01*
%TO.N,Net-(U1-~{HWB}{slash}PE2)*%
X345500000Y-152750000D02*
X345956250Y-152293750D01*
X345956250Y-152293750D02*
X345956250Y-151037500D01*
X343000000Y-152750000D02*
X345500000Y-152750000D01*
%TO.N,Net-(RGB1-DOUT)*%
X339684500Y-119934500D02*
X339750000Y-120000000D01*
X315834250Y-119934500D02*
X339684500Y-119934500D01*
X349000000Y-120000000D02*
X350731250Y-118268750D01*
X314325000Y-121443750D02*
X315834250Y-119934500D01*
X350731250Y-118268750D02*
X351987500Y-118268750D01*
%TO.N,Net-(RGB2-DOUT)*%
X273843750Y-121443750D02*
X275353000Y-119934500D01*
X307434250Y-119934500D02*
X309125000Y-118243750D01*
X275353000Y-119934500D02*
X307434250Y-119934500D01*
%TO.N,Net-(RGB3-DOUT)*%
X230981250Y-121443750D02*
X232603000Y-119822000D01*
X232603000Y-119822000D02*
X267065500Y-119822000D01*
X267065500Y-119822000D02*
X268643750Y-118243750D01*
%TO.N,Net-(RGB4-DOUT)*%
X183356250Y-121443750D02*
X184878000Y-119922000D01*
X224103000Y-119922000D02*
X225781250Y-118243750D01*
X184878000Y-119922000D02*
X224103000Y-119922000D01*
%TO.N,Net-(RGB5-DOUT)*%
X141287500Y-121443750D02*
X142809250Y-119922000D01*
X142809250Y-119922000D02*
X176478000Y-119922000D01*
X176478000Y-119922000D02*
X178156250Y-118243750D01*
%TO.N,Net-(RGB6-DOUT)*%
X136493750Y-118243750D02*
X136087500Y-118243750D01*
X101534250Y-119922000D02*
X134409250Y-119922000D01*
X100012500Y-121443750D02*
X101534250Y-119922000D01*
X134409250Y-119922000D02*
X136087500Y-118243750D01*
%TO.N,Net-(RGB7-DOUT)*%
X92884250Y-120172000D02*
X94812500Y-118243750D01*
X59228000Y-120172000D02*
X92884250Y-120172000D01*
X57950000Y-121450000D02*
X59228000Y-120172000D01*
%TO.N,Net-(RGB8-DOUT)*%
X49250000Y-118250000D02*
X46250000Y-121250000D01*
X45000000Y-133750000D02*
X45000000Y-136250000D01*
X46000000Y-151750000D02*
X44250000Y-153500000D01*
X46250000Y-121250000D02*
X46250000Y-132500000D01*
X52750000Y-174250000D02*
X52750000Y-175418750D01*
X44250000Y-153500000D02*
X44250000Y-165750000D01*
X44250000Y-165750000D02*
X52750000Y-174250000D01*
X45000000Y-136250000D02*
X46000000Y-137250000D01*
X52750000Y-118250000D02*
X49250000Y-118250000D01*
X46000000Y-137250000D02*
X46000000Y-151750000D01*
X46250000Y-132500000D02*
X45000000Y-133750000D01*
X52750000Y-175418750D02*
X52743750Y-175418750D01*
%TO.N,Net-(RGB10-DIN)*%
X57943750Y-178618750D02*
X59590500Y-176972000D01*
X94331250Y-175418750D02*
X94812500Y-175418750D01*
X59590500Y-176972000D02*
X93259250Y-176972000D01*
X93259250Y-176972000D02*
X94812500Y-175418750D01*
%TO.N,Net-(RGB10-DOUT)*%
X101509250Y-177122000D02*
X134359250Y-177122000D01*
X134359250Y-177122000D02*
X136087500Y-175393750D01*
X100012500Y-178618750D02*
X101509250Y-177122000D01*
%TO.N,Net-(RGB11-DOUT)*%
X177150000Y-174600000D02*
X178375000Y-174600000D01*
X174372000Y-177378000D02*
X177150000Y-174600000D01*
X142503250Y-177378000D02*
X174372000Y-177378000D01*
X141287500Y-178593750D02*
X142503250Y-177378000D01*
X178375000Y-174625000D02*
X178375000Y-174600000D01*
%TO.N,Net-(RGB12-DOUT)*%
X224400000Y-174600000D02*
X225781250Y-174600000D01*
X185003000Y-176372000D02*
X222628000Y-176372000D01*
X183575000Y-177800000D02*
X185003000Y-176372000D01*
X222628000Y-176372000D02*
X224400000Y-174600000D01*
%TO.N,Net-(RGB13-DOUT)*%
X267771750Y-176290750D02*
X268643750Y-175418750D01*
X232490500Y-176290750D02*
X267771750Y-176290750D01*
X230981250Y-177800000D02*
X232490500Y-176290750D01*
%TO.N,Net-(RGB14-DOUT)*%
X275490500Y-176972000D02*
X307546750Y-176972000D01*
X307546750Y-176972000D02*
X309125000Y-175393750D01*
X273843750Y-178618750D02*
X275490500Y-176972000D01*
%TO.N,Net-(RGB15-DOUT)*%
X350353000Y-176972000D02*
X351987500Y-175337500D01*
X314325000Y-178593750D02*
X315946750Y-176972000D01*
X315946750Y-176972000D02*
X350353000Y-176972000D01*
%TO.N,LAYER_IND*%
X352342579Y-145137500D02*
X351856250Y-145137500D01*
X353040580Y-143459420D02*
X353040580Y-144439498D01*
X353040580Y-144439498D02*
X352342579Y-145137500D01*
X351856250Y-145137500D02*
X352228421Y-145137500D01*
X353056644Y-143443356D02*
X353040580Y-143459420D01*
D39*
X61118750Y-182562500D02*
X62437500Y-182562500D01*
D40*
%TO.N,CAPS_IND*%
X62487500Y-185737500D02*
X62500000Y-185750000D01*
D39*
X61118750Y-185737500D02*
X62487500Y-185737500D01*
D40*
X345250000Y-142250000D02*
X345956250Y-142956250D01*
X345956250Y-142956250D02*
X345956250Y-144237500D01*
%TO.N,COL0*%
X341290000Y-144333192D02*
X341290000Y-145540000D01*
X343354834Y-146637500D02*
X345056250Y-146637500D01*
X343189334Y-146472000D02*
X343354834Y-146637500D01*
X342222000Y-146472000D02*
X343189334Y-146472000D01*
X341290000Y-145540000D02*
X342222000Y-146472000D01*
X342433125Y-143190067D02*
X341290000Y-144333192D01*
%TO.N,COL1*%
X72765000Y-165735000D02*
X70000000Y-168500000D01*
X342975867Y-146902000D02*
X343211368Y-147137500D01*
X341976336Y-146902000D02*
X342975867Y-146902000D01*
X341760686Y-142756673D02*
X340860000Y-143657359D01*
X343211368Y-147137500D02*
X345056250Y-147137500D01*
X74771250Y-160021250D02*
X74771250Y-146685000D01*
X340860000Y-143657359D02*
X340860000Y-145785664D01*
X76258750Y-165735000D02*
X72765000Y-165735000D01*
X76258750Y-161508750D02*
X74771250Y-160021250D01*
X340860000Y-145785664D02*
X341976336Y-146902000D01*
X76258750Y-165735000D02*
X76258750Y-161508750D01*
%TO.N,COL2*%
X343067902Y-147637500D02*
X345056250Y-147637500D01*
X340430000Y-142976372D02*
X340430000Y-145963776D01*
X342787402Y-147357000D02*
X343067902Y-147637500D01*
X340430000Y-145963776D02*
X341823224Y-147357000D01*
X341823224Y-147357000D02*
X342787402Y-147357000D01*
X341098287Y-142308085D02*
X340430000Y-142976372D01*
%TO.N,COL3*%
X159602500Y-184785000D02*
X157215000Y-184785000D01*
X340451796Y-141836861D02*
X340000000Y-142288657D01*
X157215000Y-184785000D02*
X155750000Y-186250000D01*
X342924434Y-148137500D02*
X345056250Y-148137500D01*
X155750000Y-186250000D02*
X153000000Y-186250000D01*
X340000000Y-146141888D02*
X341670112Y-147812000D01*
X342598934Y-147812000D02*
X342924434Y-148137500D01*
X340000000Y-142288657D02*
X340000000Y-146141888D01*
X341670112Y-147812000D02*
X342598934Y-147812000D01*
%TO.N,COL4*%
X342780968Y-148637500D02*
X345056250Y-148637500D01*
X339554501Y-146304501D02*
X341517000Y-148267000D01*
X213750000Y-186250000D02*
X215215000Y-184785000D01*
X341517000Y-148267000D02*
X342410467Y-148267000D01*
X342410467Y-148267000D02*
X342780968Y-148637500D01*
X339800000Y-141373000D02*
X339554501Y-141618499D01*
X215215000Y-184785000D02*
X216752500Y-184785000D01*
X339554501Y-141618499D02*
X339554501Y-146304501D01*
X210000000Y-186250000D02*
X213750000Y-186250000D01*
%TO.N,COL5*%
X339124501Y-146482613D02*
X341338888Y-148697000D01*
X342197000Y-148697000D02*
X342637500Y-149137500D01*
X341338888Y-148697000D02*
X342197000Y-148697000D01*
X342637500Y-149137500D02*
X345056250Y-149137500D01*
X339124501Y-140873000D02*
X339124501Y-146482613D01*
%TO.N,COL6*%
X345570000Y-153930000D02*
X346456250Y-153043750D01*
X338277000Y-140373000D02*
X338160000Y-140490000D01*
X339253872Y-153930000D02*
X345570000Y-153930000D01*
X346456250Y-153043750D02*
X346456250Y-151037500D01*
X338160000Y-152836128D02*
X339253872Y-153930000D01*
X338160000Y-140490000D02*
X338160000Y-152836128D01*
X338500000Y-140373000D02*
X338277000Y-140373000D01*
%TO.N,COL7*%
X332700000Y-139500000D02*
X320750000Y-139500000D01*
X332750000Y-139550000D02*
X332700000Y-139500000D01*
X351500000Y-138000000D02*
X351500000Y-139662521D01*
X304750000Y-168250000D02*
X307240000Y-165760000D01*
X320750000Y-139500000D02*
X319146250Y-141103750D01*
X300985000Y-165735000D02*
X292250000Y-157000000D01*
X304750000Y-169500000D02*
X304750000Y-168250000D01*
X351500000Y-139662521D02*
X349456250Y-141706271D01*
X349456250Y-141706271D02*
X349456250Y-144237500D01*
X351503000Y-137997000D02*
X351500000Y-138000000D01*
X307240000Y-165760000D02*
X307240000Y-165735000D01*
X319146250Y-141103750D02*
X319146250Y-146685000D01*
X307240000Y-165735000D02*
X300985000Y-165735000D01*
%TO.N,LAYER_IND*%
X62437500Y-182562500D02*
X62500000Y-182500000D01*
%TD*%
M02*
