%TF.GenerationSoftware,KiCad,Pcbnew,9.0.2*%
%TF.CreationDate,2025-08-01T12:08:27+09:00*%
%TF.ProjectId,CL70_PCB,434c3730-5f50-4434-922e-6b696361645f,rev?*%
%TF.SameCoordinates,Original*%
%TF.FileFunction,Soldermask,Top*%
%TF.FilePolarity,Negative*%
%FSLAX46Y46*%
G04 Gerber Fmt 4.6, Leading zero omitted, Abs format (unit mm)*
G04 Created by KiCad (PCBNEW 9.0.2) date 2025-08-01 12:08:27*
%MOMM*%
%LPD*%
G01*
G04 APERTURE LIST*
%ADD10C,0.000000*%
%ADD11C,1.750000*%
%ADD12C,4.000000*%
%ADD13C,2.500000*%
%ADD14C,3.050000*%
%ADD15R,2.000000X2.000000*%
%ADD16C,2.000000*%
%ADD17R,2.000000X3.200000*%
%ADD18C,0.650000*%
%ADD19O,1.000000X1.600000*%
%ADD20O,1.000000X2.100000*%
G04 APERTURE END LIST*
D10*
%TO.C,G\u002A\u002A\u002A*%
G36*
X308301542Y-189172936D02*
G01*
X308380034Y-189199379D01*
X308405338Y-189210415D01*
X308499565Y-189253188D01*
X308485810Y-189393260D01*
X308473456Y-189488473D01*
X308458488Y-189542109D01*
X308439594Y-189557018D01*
X308418264Y-189539830D01*
X308391340Y-189498851D01*
X308354667Y-189435700D01*
X308314413Y-189362011D01*
X308276740Y-189289420D01*
X308247816Y-189229561D01*
X308233804Y-189194069D01*
X308233333Y-189190833D01*
X308251138Y-189169916D01*
X308301542Y-189172936D01*
G37*
G36*
X308005585Y-188087701D02*
G01*
X308068518Y-188106583D01*
X308162229Y-188138428D01*
X308281285Y-188180713D01*
X308568205Y-188283649D01*
X308561880Y-188497123D01*
X308557450Y-188599928D01*
X308550614Y-188665555D01*
X308540050Y-188701257D01*
X308524436Y-188714287D01*
X308522222Y-188714664D01*
X308488149Y-188707849D01*
X308424799Y-188686182D01*
X308343167Y-188653610D01*
X308300000Y-188634941D01*
X308111111Y-188551149D01*
X308028780Y-188331130D01*
X307994760Y-188238966D01*
X307967383Y-188162425D01*
X307949970Y-188110937D01*
X307945447Y-188094444D01*
X307949651Y-188083070D01*
X307967830Y-188080343D01*
X308005585Y-188087701D01*
G37*
G36*
X308042127Y-188622293D02*
G01*
X308099936Y-188639261D01*
X308181924Y-188668381D01*
X308279793Y-188706890D01*
X308291178Y-188711583D01*
X308549806Y-188818680D01*
X308535424Y-188959061D01*
X308521913Y-189066262D01*
X308507080Y-189132938D01*
X308489890Y-189163008D01*
X308480955Y-189165631D01*
X308454176Y-189157331D01*
X308399421Y-189136885D01*
X308344444Y-189115108D01*
X308289787Y-189091707D01*
X308249772Y-189067992D01*
X308216802Y-189035341D01*
X308183280Y-188985130D01*
X308141611Y-188908734D01*
X308111632Y-188850807D01*
X308068186Y-188762418D01*
X308035778Y-188688636D01*
X308017982Y-188638153D01*
X308016797Y-188620239D01*
X308042127Y-188622293D01*
G37*
G36*
X307884459Y-187332269D02*
G01*
X307943376Y-187360130D01*
X308027638Y-187402383D01*
X308130396Y-187455605D01*
X308224403Y-187505432D01*
X308566666Y-187688642D01*
X308568366Y-187888765D01*
X308569969Y-187983205D01*
X308572794Y-188064072D01*
X308576336Y-188118533D01*
X308577862Y-188130169D01*
X308578382Y-188180168D01*
X308565180Y-188220078D01*
X308547622Y-188232181D01*
X308523527Y-188222230D01*
X308467707Y-188195816D01*
X308387997Y-188156737D01*
X308292228Y-188108789D01*
X308272463Y-188098787D01*
X308146692Y-188032257D01*
X308054327Y-187974507D01*
X307987562Y-187917672D01*
X307938593Y-187853886D01*
X307899616Y-187775285D01*
X307868897Y-187692088D01*
X307850880Y-187620813D01*
X307839070Y-187538302D01*
X307833810Y-187455897D01*
X307835442Y-187384940D01*
X307844308Y-187336773D01*
X307857736Y-187322222D01*
X307884459Y-187332269D01*
G37*
G36*
X307198596Y-188871562D02*
G01*
X307290142Y-188874912D01*
X307368747Y-188882225D01*
X307446114Y-188895910D01*
X307533946Y-188918374D01*
X307643945Y-188952025D01*
X307736488Y-188982233D01*
X308057176Y-189088277D01*
X308146147Y-189224835D01*
X308196547Y-189298488D01*
X308243899Y-189361439D01*
X308278124Y-189400309D01*
X308278670Y-189400807D01*
X308314667Y-189440693D01*
X308316435Y-189465394D01*
X308282257Y-189475116D01*
X308210412Y-189470065D01*
X308099184Y-189450449D01*
X308015656Y-189432413D01*
X307908019Y-189403303D01*
X307773009Y-189359633D01*
X307623297Y-189306123D01*
X307471553Y-189247492D01*
X307330450Y-189188462D01*
X307212658Y-189133751D01*
X307209110Y-189131971D01*
X307140967Y-189089789D01*
X307074322Y-189035643D01*
X307018135Y-188978613D01*
X306981363Y-188927780D01*
X306972873Y-188892489D01*
X306998030Y-188879313D01*
X307063723Y-188872227D01*
X307171556Y-188871084D01*
X307198596Y-188871562D01*
G37*
G36*
X307518187Y-189416716D02*
G01*
X307520170Y-189416852D01*
X307585549Y-189425020D01*
X307678454Y-189441480D01*
X307790589Y-189464255D01*
X307913661Y-189491367D01*
X308039374Y-189520840D01*
X308159433Y-189550695D01*
X308265542Y-189578955D01*
X308349407Y-189603642D01*
X308402732Y-189622780D01*
X308416324Y-189630486D01*
X308418184Y-189657619D01*
X308408626Y-189715918D01*
X308389642Y-189794173D01*
X308383111Y-189817435D01*
X308333573Y-189988888D01*
X308255675Y-189986116D01*
X308185545Y-189981054D01*
X308099512Y-189971517D01*
X308064491Y-189966733D01*
X307977143Y-189950822D01*
X307891369Y-189930441D01*
X307864491Y-189922595D01*
X307754118Y-189877758D01*
X307644815Y-189816134D01*
X307542846Y-189743421D01*
X307454476Y-189665315D01*
X307385973Y-189587516D01*
X307343600Y-189515719D01*
X307333623Y-189455624D01*
X307336994Y-189442916D01*
X307350399Y-189423866D01*
X307378577Y-189414073D01*
X307431262Y-189412151D01*
X307518187Y-189416716D01*
G37*
G36*
X307999670Y-184938264D02*
G01*
X308046129Y-184981720D01*
X308106593Y-185045585D01*
X308161771Y-185108381D01*
X308294190Y-185255265D01*
X308430056Y-185386719D01*
X308580333Y-185512296D01*
X308755991Y-185641550D01*
X308840118Y-185699330D01*
X308929293Y-185761964D01*
X309001713Y-185817443D01*
X309050880Y-185860443D01*
X309070296Y-185885639D01*
X309070158Y-185887803D01*
X309052764Y-185918930D01*
X309017742Y-185972929D01*
X308971818Y-186040285D01*
X308921717Y-186111480D01*
X308874166Y-186176997D01*
X308835888Y-186227319D01*
X308813610Y-186252929D01*
X308811111Y-186254375D01*
X308788051Y-186243397D01*
X308737803Y-186214870D01*
X308670881Y-186174780D01*
X308665422Y-186171437D01*
X308498607Y-186062905D01*
X308359956Y-185957434D01*
X308235553Y-185843789D01*
X308154991Y-185759395D01*
X308073658Y-185663945D01*
X308016172Y-185577267D01*
X307977338Y-185486642D01*
X307951961Y-185379348D01*
X307934844Y-185242664D01*
X307932246Y-185214042D01*
X307925283Y-185078082D01*
X307931794Y-184984393D01*
X307951776Y-184933008D01*
X307974273Y-184922222D01*
X307999670Y-184938264D01*
G37*
G36*
X311554523Y-189279635D02*
G01*
X311610498Y-189289717D01*
X311631463Y-189314788D01*
X311622121Y-189361610D01*
X311587180Y-189436949D01*
X311579766Y-189451630D01*
X311497923Y-189572270D01*
X311382614Y-189684989D01*
X311244770Y-189779875D01*
X311181769Y-189812501D01*
X311082097Y-189854074D01*
X310972638Y-189891438D01*
X310861202Y-189922956D01*
X310755599Y-189946993D01*
X310663640Y-189961910D01*
X310593134Y-189966071D01*
X310551894Y-189957839D01*
X310544444Y-189946069D01*
X310555061Y-189921949D01*
X310606919Y-189921949D01*
X310681237Y-189908595D01*
X310745029Y-189895629D01*
X310829193Y-189876646D01*
X310885125Y-189863214D01*
X311092624Y-189796204D01*
X311268368Y-189706398D01*
X311409152Y-189595783D01*
X311503362Y-189480007D01*
X311547972Y-189404454D01*
X311563517Y-189357600D01*
X311547843Y-189332774D01*
X311498797Y-189323306D01*
X311452426Y-189322222D01*
X311385409Y-189327386D01*
X311310352Y-189344944D01*
X311216857Y-189377995D01*
X311099634Y-189427386D01*
X311014221Y-189464797D01*
X310950204Y-189494602D01*
X310900842Y-189523240D01*
X310859389Y-189557150D01*
X310819103Y-189602771D01*
X310773240Y-189666542D01*
X310715057Y-189754904D01*
X310647904Y-189858743D01*
X310606919Y-189921949D01*
X310555061Y-189921949D01*
X310555840Y-189920179D01*
X310586787Y-189865432D01*
X310632424Y-189790113D01*
X310682370Y-189711068D01*
X310820295Y-189496663D01*
X311052314Y-189387220D01*
X311156060Y-189339292D01*
X311232826Y-189307831D01*
X311295370Y-189289400D01*
X311356454Y-189280566D01*
X311428836Y-189277893D01*
X311458833Y-189277777D01*
X311554523Y-189279635D01*
G37*
G36*
X311998180Y-188557169D02*
G01*
X312043744Y-188578292D01*
X312055555Y-188606816D01*
X312041250Y-188637405D01*
X312002909Y-188691933D01*
X311947391Y-188762390D01*
X311881556Y-188840766D01*
X311812263Y-188919050D01*
X311746372Y-188989234D01*
X311690743Y-189043307D01*
X311660677Y-189067919D01*
X311626179Y-189086059D01*
X311559540Y-189116297D01*
X311468653Y-189155439D01*
X311361409Y-189200293D01*
X311245702Y-189247666D01*
X311129424Y-189294365D01*
X311020468Y-189337197D01*
X310926726Y-189372970D01*
X310856092Y-189398491D01*
X310816457Y-189410567D01*
X310812298Y-189411111D01*
X310789736Y-189397879D01*
X310788888Y-189393077D01*
X310797621Y-189366890D01*
X310812600Y-189330389D01*
X310879954Y-189330389D01*
X310883551Y-189338091D01*
X310912607Y-189326517D01*
X310975438Y-189301465D01*
X311064539Y-189265929D01*
X311172406Y-189222901D01*
X311255555Y-189189729D01*
X311396655Y-189132246D01*
X311505840Y-189083166D01*
X311592936Y-189035637D01*
X311667772Y-188982807D01*
X311740177Y-188917824D01*
X311819979Y-188833837D01*
X311906780Y-188735727D01*
X312020985Y-188604788D01*
X311899381Y-188615828D01*
X311816581Y-188631856D01*
X311699880Y-188668273D01*
X311547539Y-188725668D01*
X311415315Y-188780100D01*
X311052852Y-188933333D01*
X310954422Y-189141182D01*
X310916562Y-189225295D01*
X310890818Y-189290921D01*
X310879954Y-189330389D01*
X310812600Y-189330389D01*
X310821395Y-189308959D01*
X310856569Y-189227867D01*
X310899156Y-189132966D01*
X311009423Y-188890889D01*
X311271378Y-188784344D01*
X311380595Y-188739458D01*
X311483365Y-188696397D01*
X311568019Y-188660100D01*
X311622222Y-188635823D01*
X311729891Y-188592717D01*
X311833566Y-188564896D01*
X311925558Y-188552875D01*
X311998180Y-188557169D01*
G37*
G36*
X312143286Y-187828678D02*
G01*
X312160040Y-187848119D01*
X312158670Y-187900014D01*
X312127805Y-187975210D01*
X312071328Y-188067657D01*
X311993117Y-188171304D01*
X311897054Y-188280101D01*
X311855989Y-188322222D01*
X311666666Y-188511111D01*
X311320355Y-188627777D01*
X311180696Y-188674467D01*
X311077607Y-188707811D01*
X311005716Y-188729159D01*
X310959646Y-188739861D01*
X310934025Y-188741266D01*
X310923478Y-188734724D01*
X310922150Y-188727777D01*
X310930837Y-188702488D01*
X310950274Y-188655418D01*
X311015528Y-188655418D01*
X311016179Y-188672779D01*
X311016913Y-188672600D01*
X311046849Y-188662273D01*
X311110646Y-188640431D01*
X311200090Y-188609879D01*
X311306970Y-188573426D01*
X311355555Y-188556870D01*
X311666666Y-188450883D01*
X311826078Y-188286671D01*
X311900630Y-188204401D01*
X311973059Y-188114949D01*
X312037283Y-188026943D01*
X312087219Y-187949014D01*
X312116786Y-187889793D01*
X312122222Y-187866457D01*
X312102441Y-187857867D01*
X312049891Y-187859191D01*
X311974756Y-187868936D01*
X311887222Y-187885610D01*
X311797476Y-187907722D01*
X311755555Y-187920161D01*
X311676909Y-187950359D01*
X311576611Y-187996268D01*
X311470829Y-188050257D01*
X311418647Y-188079206D01*
X311215072Y-188195969D01*
X311102227Y-188439156D01*
X311061209Y-188531335D01*
X311031424Y-188605846D01*
X311015528Y-188655418D01*
X310950274Y-188655418D01*
X310954714Y-188644665D01*
X310990424Y-188562163D01*
X311034610Y-188462839D01*
X311048735Y-188431556D01*
X311094838Y-188329531D01*
X311131821Y-188252858D01*
X311166621Y-188194867D01*
X311206171Y-188148886D01*
X311257410Y-188108245D01*
X311327271Y-188066273D01*
X311422692Y-188016298D01*
X311544444Y-187954771D01*
X311664409Y-187901037D01*
X311786308Y-187858659D01*
X311902642Y-187828935D01*
X312005914Y-187813164D01*
X312088628Y-187812646D01*
X312143286Y-187828678D01*
G37*
G36*
X311037366Y-188272922D02*
G01*
X311033792Y-188298088D01*
X311010972Y-188354900D01*
X310972035Y-188436601D01*
X310920108Y-188536433D01*
X310889152Y-188593016D01*
X310721818Y-188893990D01*
X310283131Y-189074885D01*
X310121331Y-189141088D01*
X309996455Y-189190882D01*
X309904687Y-189225620D01*
X309842210Y-189246656D01*
X309805206Y-189255340D01*
X309789859Y-189253026D01*
X309788896Y-189250000D01*
X309796934Y-189228591D01*
X309818857Y-189174220D01*
X309824631Y-189160148D01*
X309884655Y-189160148D01*
X309899872Y-189161654D01*
X309949064Y-189147813D01*
X310025416Y-189120931D01*
X310122112Y-189083310D01*
X310170214Y-189063588D01*
X310287372Y-189015009D01*
X310400049Y-188968603D01*
X310496938Y-188929007D01*
X310566734Y-188900856D01*
X310577777Y-188896483D01*
X310625977Y-188875934D01*
X310663195Y-188853089D01*
X310696194Y-188820098D01*
X310731734Y-188769111D01*
X310776580Y-188692277D01*
X310817600Y-188618050D01*
X310866496Y-188526682D01*
X310905137Y-188450207D01*
X310929704Y-188396499D01*
X310936378Y-188373435D01*
X310936278Y-188373315D01*
X310914220Y-188379552D01*
X310858315Y-188402708D01*
X310774593Y-188440074D01*
X310669083Y-188488940D01*
X310547814Y-188546598D01*
X310509740Y-188564974D01*
X310383648Y-188625442D01*
X310270325Y-188678664D01*
X310176121Y-188721751D01*
X310107385Y-188751810D01*
X310070465Y-188765952D01*
X310066761Y-188766666D01*
X310047342Y-188785984D01*
X310017861Y-188837641D01*
X309983409Y-188912198D01*
X309967918Y-188950000D01*
X309934176Y-189035393D01*
X309906080Y-189106345D01*
X309888064Y-189151662D01*
X309884655Y-189160148D01*
X309824631Y-189160148D01*
X309851391Y-189094924D01*
X309891259Y-188998738D01*
X309894451Y-188991071D01*
X309939793Y-188884101D01*
X309973820Y-188810913D01*
X310001484Y-188763931D01*
X310027738Y-188735575D01*
X310057533Y-188718267D01*
X310077777Y-188710518D01*
X310120609Y-188692631D01*
X310195976Y-188658137D01*
X310296728Y-188610433D01*
X310415714Y-188552918D01*
X310545782Y-188488991D01*
X310586900Y-188468569D01*
X310716717Y-188405199D01*
X310831968Y-188351371D01*
X310926917Y-188309575D01*
X310995827Y-188282305D01*
X311032960Y-188272051D01*
X311037366Y-188272922D01*
G37*
G36*
X311100335Y-187511318D02*
G01*
X311098842Y-187534742D01*
X311082479Y-187591784D01*
X311053700Y-187675134D01*
X311014959Y-187777482D01*
X310990305Y-187839196D01*
X310861639Y-188155555D01*
X310397486Y-188393403D01*
X310265643Y-188460656D01*
X310146936Y-188520625D01*
X310047082Y-188570468D01*
X309971798Y-188607345D01*
X309926801Y-188628414D01*
X309916666Y-188632292D01*
X309900934Y-188615708D01*
X309899615Y-188605555D01*
X309905107Y-188565343D01*
X309911086Y-188538888D01*
X309967047Y-188538888D01*
X309970708Y-188542605D01*
X309985769Y-188539226D01*
X310017001Y-188526546D01*
X310069177Y-188502360D01*
X310147069Y-188464464D01*
X310255448Y-188410652D01*
X310385210Y-188345682D01*
X310507905Y-188283294D01*
X310617549Y-188225965D01*
X310707668Y-188177206D01*
X310771790Y-188140532D01*
X310803442Y-188119455D01*
X310804949Y-188117905D01*
X310820902Y-188089310D01*
X310848301Y-188031682D01*
X310883115Y-187954429D01*
X310921311Y-187866954D01*
X310958857Y-187778665D01*
X310991720Y-187698966D01*
X311015869Y-187637263D01*
X311027270Y-187602963D01*
X311027390Y-187599043D01*
X311007725Y-187608789D01*
X310956553Y-187638272D01*
X310880069Y-187683692D01*
X310784468Y-187741252D01*
X310675944Y-187807153D01*
X310560693Y-187877598D01*
X310444909Y-187948788D01*
X310334787Y-188016924D01*
X310236523Y-188078209D01*
X310156310Y-188128844D01*
X310100345Y-188165031D01*
X310074821Y-188182972D01*
X310074475Y-188183302D01*
X310061783Y-188210347D01*
X310041784Y-188267327D01*
X310018425Y-188341181D01*
X309995651Y-188418849D01*
X309977409Y-188487268D01*
X309967643Y-188533378D01*
X309967047Y-188538888D01*
X309911086Y-188538888D01*
X309920202Y-188498548D01*
X309941858Y-188415619D01*
X309967034Y-188327000D01*
X309992687Y-188243140D01*
X310015777Y-188174485D01*
X310033260Y-188131482D01*
X310040350Y-188122222D01*
X310063767Y-188111092D01*
X310119923Y-188079711D01*
X310203688Y-188031087D01*
X310309931Y-187968233D01*
X310433522Y-187894158D01*
X310569330Y-187811872D01*
X310570744Y-187811011D01*
X310706456Y-187729168D01*
X310829988Y-187656228D01*
X310936236Y-187595080D01*
X311020096Y-187548611D01*
X311076465Y-187519711D01*
X311100239Y-187511266D01*
X311100335Y-187511318D01*
G37*
G36*
X306872222Y-187622114D02*
G01*
X306912088Y-187631451D01*
X306982525Y-187641938D01*
X307069769Y-187651592D01*
X307088888Y-187653323D01*
X307173802Y-187662047D01*
X307237331Y-187674454D01*
X307293641Y-187696061D01*
X307356896Y-187732380D01*
X307441263Y-187788928D01*
X307446555Y-187792568D01*
X307539568Y-187852166D01*
X307634607Y-187905784D01*
X307716120Y-187944890D01*
X307742520Y-187954916D01*
X307826663Y-187991587D01*
X307874244Y-188032269D01*
X307879089Y-188041179D01*
X307894979Y-188088963D01*
X307914204Y-188162235D01*
X307934444Y-188249810D01*
X307953380Y-188340504D01*
X307968693Y-188423132D01*
X307978062Y-188486509D01*
X307979169Y-188519451D01*
X307978577Y-188520928D01*
X307951282Y-188528026D01*
X307894751Y-188523892D01*
X307822147Y-188510618D01*
X307746635Y-188490298D01*
X307713584Y-188478795D01*
X307665810Y-188464533D01*
X307639623Y-188464098D01*
X307639409Y-188464293D01*
X307653356Y-188475271D01*
X307699634Y-188493924D01*
X307759158Y-188513390D01*
X307832600Y-188538067D01*
X307889885Y-188561904D01*
X307914019Y-188576252D01*
X307931757Y-188604620D01*
X307960917Y-188662554D01*
X307996411Y-188738589D01*
X308033151Y-188821258D01*
X308066047Y-188899095D01*
X308090013Y-188960633D01*
X308099959Y-188994406D01*
X308100000Y-188995358D01*
X308096155Y-189004681D01*
X308079672Y-189007753D01*
X308043125Y-189003686D01*
X307979087Y-188991589D01*
X307880134Y-188970572D01*
X307864073Y-188967085D01*
X307716857Y-188931141D01*
X307565613Y-188887305D01*
X307419533Y-188838862D01*
X307287807Y-188789098D01*
X307179625Y-188741298D01*
X307104176Y-188698747D01*
X307095176Y-188692203D01*
X307014269Y-188619544D01*
X306946301Y-188538597D01*
X306895268Y-188457025D01*
X306865167Y-188382493D01*
X306859992Y-188322666D01*
X306883177Y-188285551D01*
X306918147Y-188277839D01*
X306983401Y-188273969D01*
X307064882Y-188274770D01*
X307065731Y-188274805D01*
X307156459Y-188282312D01*
X307236233Y-188299806D01*
X307322856Y-188332258D01*
X307400842Y-188368343D01*
X307501631Y-188415816D01*
X307566951Y-188443762D01*
X307595891Y-188452135D01*
X307587543Y-188440888D01*
X307540997Y-188409976D01*
X307477656Y-188372222D01*
X307375492Y-188302953D01*
X307261811Y-188209761D01*
X307146780Y-188102575D01*
X307040567Y-187991328D01*
X306953337Y-187885950D01*
X306903232Y-187811111D01*
X306856809Y-187720265D01*
X306835407Y-187656409D01*
X306839493Y-187622395D01*
X306869534Y-187621071D01*
X306872222Y-187622114D01*
G37*
G36*
X307054990Y-183297085D02*
G01*
X307106900Y-183321338D01*
X307167087Y-183355815D01*
X307256517Y-183404181D01*
X307355197Y-183447616D01*
X307410780Y-183467096D01*
X307482566Y-183488553D01*
X307538665Y-183505394D01*
X307560509Y-183512011D01*
X307586948Y-183532817D01*
X307630398Y-183579452D01*
X307681563Y-183641920D01*
X307682731Y-183643431D01*
X307777777Y-183766497D01*
X308400000Y-183764898D01*
X308549845Y-183764240D01*
X308736632Y-183762980D01*
X308952863Y-183761191D01*
X309191041Y-183758948D01*
X309443667Y-183756324D01*
X309703244Y-183753395D01*
X309962275Y-183750234D01*
X310205026Y-183747029D01*
X311387830Y-183730759D01*
X311549470Y-183574992D01*
X311645110Y-183489890D01*
X311739122Y-183418802D01*
X311824477Y-183365979D01*
X311894146Y-183335672D01*
X311941099Y-183332130D01*
X311946738Y-183334750D01*
X311956852Y-183362763D01*
X311960838Y-183421382D01*
X311959284Y-183497280D01*
X311952779Y-183577132D01*
X311941911Y-183647610D01*
X311931200Y-183686433D01*
X311930865Y-183699796D01*
X311945685Y-183709558D01*
X311981653Y-183716464D01*
X312044761Y-183721259D01*
X312141003Y-183724688D01*
X312258960Y-183727187D01*
X312600000Y-183733333D01*
X312605862Y-186741798D01*
X312606616Y-187211859D01*
X312606977Y-187644581D01*
X312606948Y-188039313D01*
X312606532Y-188395408D01*
X312605734Y-188712214D01*
X312604556Y-188989085D01*
X312603002Y-189225369D01*
X312601075Y-189420419D01*
X312598779Y-189573585D01*
X312596117Y-189684218D01*
X312593092Y-189751669D01*
X312589912Y-189775131D01*
X312565774Y-189790304D01*
X312506256Y-189822953D01*
X312415785Y-189870784D01*
X312298788Y-189931504D01*
X312159691Y-190002819D01*
X312002920Y-190082436D01*
X311832902Y-190168062D01*
X311791343Y-190188888D01*
X311619907Y-190274986D01*
X311461550Y-190355029D01*
X311320539Y-190426822D01*
X311201143Y-190488169D01*
X311107628Y-190536874D01*
X311044263Y-190570741D01*
X311015315Y-190587575D01*
X311013952Y-190588888D01*
X311031641Y-190603566D01*
X311081472Y-190638351D01*
X311158009Y-190689618D01*
X311255816Y-190753744D01*
X311369457Y-190827103D01*
X311413949Y-190855555D01*
X311558066Y-190948675D01*
X311668065Y-191023038D01*
X311748206Y-191082303D01*
X311802750Y-191130129D01*
X311835956Y-191170173D01*
X311852084Y-191206095D01*
X311855555Y-191234779D01*
X311851603Y-191246461D01*
X311837008Y-191251405D01*
X311807660Y-191248343D01*
X311759449Y-191236005D01*
X311688267Y-191213122D01*
X311590004Y-191178426D01*
X311460551Y-191130646D01*
X311295798Y-191068514D01*
X311203266Y-191033333D01*
X311050559Y-190975630D01*
X310910492Y-190923571D01*
X310788689Y-190879177D01*
X310690772Y-190844469D01*
X310622363Y-190821467D01*
X310589085Y-190812193D01*
X310587665Y-190812099D01*
X310559657Y-190822062D01*
X310497868Y-190849550D01*
X310408067Y-190891814D01*
X310296024Y-190946104D01*
X310167507Y-191009669D01*
X310062041Y-191062655D01*
X309568526Y-191312221D01*
X309047482Y-191051518D01*
X308526438Y-190790815D01*
X308029885Y-191011884D01*
X307891667Y-191073136D01*
X307766890Y-191127889D01*
X307661289Y-191173672D01*
X307580597Y-191208012D01*
X307530549Y-191228438D01*
X307516666Y-191233143D01*
X307499755Y-191219361D01*
X307506937Y-191188400D01*
X307533447Y-191156885D01*
X307539770Y-191152520D01*
X307567297Y-191131601D01*
X307621336Y-191087717D01*
X307635511Y-191075973D01*
X307719790Y-191075973D01*
X307731400Y-191074305D01*
X307762142Y-191063578D01*
X307815253Y-191042446D01*
X307893970Y-191009566D01*
X308001530Y-190963593D01*
X308141170Y-190903184D01*
X308316128Y-190826995D01*
X308449099Y-190768908D01*
X308460121Y-190764089D01*
X308611111Y-190764089D01*
X308629866Y-190776369D01*
X308681722Y-190805190D01*
X308760059Y-190847146D01*
X308858259Y-190898834D01*
X308969705Y-190956850D01*
X309087779Y-191017787D01*
X309205861Y-191078242D01*
X309317335Y-191134810D01*
X309415583Y-191184086D01*
X309493986Y-191222667D01*
X309545925Y-191247146D01*
X309563983Y-191254290D01*
X309585295Y-191244977D01*
X309640546Y-191218156D01*
X309724141Y-191176619D01*
X309830480Y-191123161D01*
X309953967Y-191060574D01*
X310036205Y-191018656D01*
X310167123Y-190951190D01*
X310283723Y-190889960D01*
X310380511Y-190837947D01*
X310451990Y-190798130D01*
X310492663Y-190773492D01*
X310500000Y-190767159D01*
X310480631Y-190753231D01*
X310430446Y-190732113D01*
X310376444Y-190713613D01*
X310308778Y-190687805D01*
X310268404Y-190663167D01*
X310261468Y-190648928D01*
X310285505Y-190635817D01*
X310344063Y-190619044D01*
X310427538Y-190600267D01*
X310526327Y-190581148D01*
X310630824Y-190563345D01*
X310731428Y-190548518D01*
X310818533Y-190538326D01*
X310882536Y-190534430D01*
X310910221Y-190536821D01*
X310939758Y-190532181D01*
X311001982Y-190509444D01*
X311098040Y-190468086D01*
X311229079Y-190407583D01*
X311396247Y-190327411D01*
X311600689Y-190227044D01*
X311749110Y-190153225D01*
X312544444Y-189756049D01*
X312544444Y-186760110D01*
X312544444Y-183764172D01*
X312220148Y-183770975D01*
X311895853Y-183777777D01*
X311843423Y-183906743D01*
X311790993Y-184035709D01*
X312035387Y-184031819D01*
X312135247Y-184031366D01*
X312217900Y-184033127D01*
X312273730Y-184036763D01*
X312292816Y-184040965D01*
X312296307Y-184065927D01*
X312299134Y-184129062D01*
X312301192Y-184224102D01*
X312302373Y-184344778D01*
X312302573Y-184484821D01*
X312302093Y-184587877D01*
X312298335Y-185121755D01*
X312358555Y-185098859D01*
X312427740Y-185082773D01*
X312466350Y-185098776D01*
X312474392Y-185146915D01*
X312451869Y-185227232D01*
X312398786Y-185339773D01*
X312386307Y-185362871D01*
X312294837Y-185529534D01*
X312301165Y-185798100D01*
X312303524Y-185940275D01*
X312304672Y-186102065D01*
X312304492Y-186258654D01*
X312303747Y-186336185D01*
X312300000Y-186605705D01*
X312157258Y-186596373D01*
X312014517Y-186587041D01*
X311948734Y-186682409D01*
X311900684Y-186747034D01*
X311853851Y-186802165D01*
X311835919Y-186820110D01*
X311801552Y-186857875D01*
X311788888Y-186883849D01*
X311810223Y-186892315D01*
X311870923Y-186897278D01*
X311966028Y-186898518D01*
X312072222Y-186896419D01*
X312355555Y-186887583D01*
X312349580Y-188210458D01*
X312348334Y-188449385D01*
X312346833Y-188675385D01*
X312345126Y-188884488D01*
X312343260Y-189072727D01*
X312341282Y-189236135D01*
X312339240Y-189370744D01*
X312337183Y-189472586D01*
X312335157Y-189537694D01*
X312333318Y-189561872D01*
X312311228Y-189579100D01*
X312254560Y-189612450D01*
X312168878Y-189658958D01*
X312059743Y-189715662D01*
X311932717Y-189779598D01*
X311828183Y-189830938D01*
X311673375Y-189907514D01*
X311540113Y-189976096D01*
X311432714Y-190034313D01*
X311355497Y-190079795D01*
X311312781Y-190110172D01*
X311306480Y-190117283D01*
X311264468Y-190165244D01*
X311192483Y-190224277D01*
X311101137Y-190287339D01*
X311001043Y-190347388D01*
X310902812Y-190397380D01*
X310853177Y-190418130D01*
X310760019Y-190450183D01*
X310645347Y-190485369D01*
X310531007Y-190517052D01*
X310509069Y-190522643D01*
X310345345Y-190574823D01*
X310149896Y-190657353D01*
X310000000Y-190730264D01*
X309892521Y-190784849D01*
X309799068Y-190832236D01*
X309726790Y-190868807D01*
X309682836Y-190890941D01*
X309673145Y-190895734D01*
X309665278Y-190878748D01*
X309657923Y-190827095D01*
X309652305Y-190750550D01*
X309650923Y-190718210D01*
X309644444Y-190533333D01*
X309550000Y-190526500D01*
X309455555Y-190519666D01*
X309455555Y-190720944D01*
X309454745Y-190809331D01*
X309452575Y-190877958D01*
X309449434Y-190916938D01*
X309447633Y-190922222D01*
X309425828Y-190913161D01*
X309371437Y-190888292D01*
X309291920Y-190851085D01*
X309194735Y-190805009D01*
X309160977Y-190788888D01*
X309057904Y-190740434D01*
X308968173Y-190699846D01*
X308899853Y-190670656D01*
X308861011Y-190656395D01*
X308856352Y-190655555D01*
X308820848Y-190663775D01*
X308765069Y-190684329D01*
X308702935Y-190711057D01*
X308648366Y-190737797D01*
X308615282Y-190758390D01*
X308611111Y-190764089D01*
X308460121Y-190764089D01*
X308802636Y-190614338D01*
X308933333Y-190614338D01*
X309144444Y-190722706D01*
X309233869Y-190767438D01*
X309310124Y-190803413D01*
X309363711Y-190826278D01*
X309383333Y-190832204D01*
X309399546Y-190816560D01*
X309408537Y-190765132D01*
X309411111Y-190681344D01*
X309409777Y-190599906D01*
X309403361Y-190551325D01*
X309388239Y-190524035D01*
X309360787Y-190506474D01*
X309355555Y-190504043D01*
X309311161Y-190475048D01*
X309305596Y-190441386D01*
X309338943Y-190395855D01*
X309356996Y-190378388D01*
X309396717Y-190329584D01*
X309397500Y-190325753D01*
X309455555Y-190325753D01*
X309527777Y-190310310D01*
X309586523Y-190292989D01*
X309627417Y-190272777D01*
X309627777Y-190272490D01*
X309652865Y-190233357D01*
X309655555Y-190217028D01*
X309645579Y-190196082D01*
X309608887Y-190193645D01*
X309577777Y-190198533D01*
X309527969Y-190204362D01*
X309505377Y-190194192D01*
X309509589Y-190162312D01*
X309528026Y-190126579D01*
X309589035Y-190126579D01*
X309608068Y-190129357D01*
X309657336Y-190120318D01*
X309705555Y-190107375D01*
X309772273Y-190087580D01*
X309868924Y-190058944D01*
X309982819Y-190025227D01*
X310101269Y-189990186D01*
X310107169Y-189988441D01*
X310212433Y-189956885D01*
X310300962Y-189929531D01*
X310364742Y-189908919D01*
X310395760Y-189897584D01*
X310397434Y-189896534D01*
X310412156Y-189875927D01*
X310445444Y-189829530D01*
X310487368Y-189771177D01*
X310529160Y-189709939D01*
X310556243Y-189664150D01*
X310562741Y-189644222D01*
X310540280Y-189649243D01*
X310482707Y-189668515D01*
X310396183Y-189699793D01*
X310286864Y-189740834D01*
X310160912Y-189789392D01*
X310114502Y-189807566D01*
X309963031Y-189867805D01*
X309847817Y-189915537D01*
X309763361Y-189953477D01*
X309704164Y-189984341D01*
X309664726Y-190010844D01*
X309639549Y-190035700D01*
X309632344Y-190045632D01*
X309603422Y-190093448D01*
X309589304Y-190124520D01*
X309589035Y-190126579D01*
X309528026Y-190126579D01*
X309540189Y-190103007D01*
X309567555Y-190057541D01*
X309600414Y-190000921D01*
X309619947Y-189953104D01*
X309629041Y-189899768D01*
X309630583Y-189826593D01*
X309628667Y-189754427D01*
X309628210Y-189740726D01*
X309716687Y-189740726D01*
X309717911Y-189744444D01*
X309742584Y-189736809D01*
X309802236Y-189715500D01*
X309890408Y-189682911D01*
X310000639Y-189641434D01*
X310126470Y-189593463D01*
X310155804Y-189582199D01*
X310577777Y-189419954D01*
X310664186Y-189270459D01*
X310703884Y-189199026D01*
X310731560Y-189143848D01*
X310742380Y-189114727D01*
X310741963Y-189112732D01*
X310720275Y-189117970D01*
X310664185Y-189135839D01*
X310581044Y-189163738D01*
X310478204Y-189199071D01*
X310363017Y-189239238D01*
X310242835Y-189281641D01*
X310125009Y-189323682D01*
X310016891Y-189362763D01*
X309925834Y-189396285D01*
X309859188Y-189421649D01*
X309824306Y-189436258D01*
X309821093Y-189438196D01*
X309806965Y-189464748D01*
X309785932Y-189517453D01*
X309762192Y-189583857D01*
X309739941Y-189651506D01*
X309723373Y-189707947D01*
X309716687Y-189740726D01*
X309628210Y-189740726D01*
X309622222Y-189561105D01*
X309538888Y-189711259D01*
X309489924Y-189803562D01*
X309463741Y-189865302D01*
X309458654Y-189903020D01*
X309472976Y-189923254D01*
X309483071Y-189927690D01*
X309499148Y-189943049D01*
X309491048Y-189978813D01*
X309483071Y-189997254D01*
X309467920Y-190052810D01*
X309457926Y-190132210D01*
X309455555Y-190191700D01*
X309455555Y-190325753D01*
X309397500Y-190325753D01*
X309408396Y-190272443D01*
X309406996Y-190240560D01*
X309402975Y-190191700D01*
X309400000Y-190155555D01*
X309300038Y-190326519D01*
X309249100Y-190410679D01*
X309208336Y-190466278D01*
X309166944Y-190503938D01*
X309114119Y-190534280D01*
X309066705Y-190555911D01*
X308933333Y-190614338D01*
X308802636Y-190614338D01*
X309155555Y-190460038D01*
X309283333Y-190244760D01*
X309334261Y-190158302D01*
X309375553Y-190086961D01*
X309402643Y-190038707D01*
X309411111Y-190021642D01*
X309392012Y-190028798D01*
X309338209Y-190052986D01*
X309254937Y-190091747D01*
X309147435Y-190142622D01*
X309020939Y-190203151D01*
X308890559Y-190266089D01*
X308370008Y-190518374D01*
X308051670Y-190790222D01*
X307951363Y-190875877D01*
X307863043Y-190951292D01*
X307792126Y-191011841D01*
X307744028Y-191052900D01*
X307724167Y-191069845D01*
X307724074Y-191069923D01*
X307719790Y-191075973D01*
X307635511Y-191075973D01*
X307694725Y-191026916D01*
X307780303Y-190955244D01*
X307870912Y-190878745D01*
X307959389Y-190803466D01*
X308038574Y-190735453D01*
X308101308Y-190680752D01*
X308140429Y-190645408D01*
X308140880Y-190644979D01*
X308142225Y-190634816D01*
X308128034Y-190618615D01*
X308095283Y-190594673D01*
X308040948Y-190561285D01*
X307962004Y-190516746D01*
X307855428Y-190459353D01*
X307718195Y-190387400D01*
X307547282Y-190299184D01*
X307339665Y-190193000D01*
X307332311Y-190189250D01*
X307153140Y-190098160D01*
X306985642Y-190013494D01*
X306834082Y-189937372D01*
X306702728Y-189871915D01*
X306595843Y-189819243D01*
X306517695Y-189781476D01*
X306472548Y-189760735D01*
X306463428Y-189757366D01*
X306423895Y-189739395D01*
X306416441Y-189731997D01*
X306413581Y-189706423D01*
X306412993Y-189688888D01*
X306466946Y-189688888D01*
X307333473Y-190126649D01*
X307515559Y-190218389D01*
X307685743Y-190303655D01*
X307839861Y-190380394D01*
X307973752Y-190446558D01*
X308083253Y-190500096D01*
X308164203Y-190538956D01*
X308212439Y-190561090D01*
X308224333Y-190565538D01*
X308256178Y-190551395D01*
X308288375Y-190522789D01*
X308334604Y-190483844D01*
X308369597Y-190465736D01*
X308406603Y-190445057D01*
X308405231Y-190421694D01*
X308371222Y-190398334D01*
X308310318Y-190377660D01*
X308292386Y-190374316D01*
X308426168Y-190374316D01*
X308443423Y-190384321D01*
X308470561Y-190385285D01*
X308512410Y-190375405D01*
X308573796Y-190352876D01*
X308659548Y-190315892D01*
X308774493Y-190262649D01*
X308923459Y-190191342D01*
X308950467Y-190178283D01*
X309078560Y-190115728D01*
X309192768Y-190058878D01*
X309287128Y-190010791D01*
X309355675Y-189974524D01*
X309392445Y-189953133D01*
X309396909Y-189949445D01*
X309397266Y-189916517D01*
X309392978Y-189908112D01*
X309368485Y-189910173D01*
X309307722Y-189931811D01*
X309213667Y-189971745D01*
X309089296Y-190028696D01*
X308937586Y-190101382D01*
X308894687Y-190122379D01*
X308761379Y-190188733D01*
X308643351Y-190249127D01*
X308545842Y-190300742D01*
X308474094Y-190340759D01*
X308433345Y-190366363D01*
X308426168Y-190374316D01*
X308292386Y-190374316D01*
X308228260Y-190362358D01*
X308133159Y-190355168D01*
X307989424Y-190340338D01*
X307876475Y-190306628D01*
X307785319Y-190257617D01*
X307705159Y-190198819D01*
X307644938Y-190138281D01*
X307613600Y-190084047D01*
X307611111Y-190067909D01*
X307606351Y-190048816D01*
X307588819Y-190027931D01*
X307553634Y-190002381D01*
X307495913Y-189969296D01*
X307410778Y-189925803D01*
X307293346Y-189869032D01*
X307190073Y-189820211D01*
X307063425Y-189759431D01*
X306950657Y-189702978D01*
X306857970Y-189654149D01*
X306791567Y-189616241D01*
X306757649Y-189592549D01*
X306754808Y-189588888D01*
X306752041Y-189561187D01*
X306749036Y-189493023D01*
X306745871Y-189388375D01*
X306742625Y-189251223D01*
X306739376Y-189085547D01*
X306736203Y-188895328D01*
X306733183Y-188684545D01*
X306730395Y-188457177D01*
X306728024Y-188228568D01*
X306725458Y-187933128D01*
X306723781Y-187679673D01*
X306723016Y-187465754D01*
X306723189Y-187288920D01*
X306724151Y-187168344D01*
X306778056Y-187168344D01*
X306778115Y-187267979D01*
X306778511Y-187399999D01*
X306779227Y-187560386D01*
X306780247Y-187745121D01*
X306781552Y-187950185D01*
X306783127Y-188171559D01*
X306784300Y-188323940D01*
X306794087Y-189558991D01*
X307253464Y-189787847D01*
X307404126Y-189862391D01*
X307520772Y-189918614D01*
X307608822Y-189958697D01*
X307673695Y-189984817D01*
X307720809Y-189999154D01*
X307755583Y-190003887D01*
X307783437Y-190001196D01*
X307783803Y-190001116D01*
X307840447Y-189996764D01*
X307923840Y-189999773D01*
X308017020Y-190009461D01*
X308027382Y-190010941D01*
X308142433Y-190027648D01*
X308220534Y-190040640D01*
X308268455Y-190054186D01*
X308292967Y-190072554D01*
X308300843Y-190100016D01*
X308298851Y-190140839D01*
X308295199Y-190179807D01*
X308292080Y-190256040D01*
X308299981Y-190299970D01*
X308320316Y-190322484D01*
X308355633Y-190340227D01*
X308366666Y-190343495D01*
X308378684Y-190324296D01*
X308401369Y-190272630D01*
X308406397Y-190259825D01*
X308459480Y-190259825D01*
X308476330Y-190255179D01*
X308526427Y-190234118D01*
X308603113Y-190199795D01*
X308699727Y-190155361D01*
X308809612Y-190103966D01*
X308926108Y-190048763D01*
X309042556Y-189992903D01*
X309152297Y-189939536D01*
X309248671Y-189891815D01*
X309325021Y-189852890D01*
X309366666Y-189830507D01*
X309439022Y-189768934D01*
X309509614Y-189668515D01*
X309517537Y-189654487D01*
X309552227Y-189588707D01*
X309574034Y-189541347D01*
X309578441Y-189522258D01*
X309578167Y-189522222D01*
X309562614Y-189527240D01*
X309525206Y-189543216D01*
X309462990Y-189571530D01*
X309373015Y-189613562D01*
X309252329Y-189670694D01*
X309097979Y-189744306D01*
X308907016Y-189835778D01*
X308877777Y-189849806D01*
X308555555Y-190004434D01*
X308511111Y-190123818D01*
X308485689Y-190191667D01*
X308466521Y-190242027D01*
X308459480Y-190259825D01*
X308406397Y-190259825D01*
X308430686Y-190197972D01*
X308444444Y-190160837D01*
X308511111Y-189977777D01*
X308942966Y-189765544D01*
X309070294Y-189702000D01*
X309183557Y-189643627D01*
X309276823Y-189593633D01*
X309344159Y-189555230D01*
X309379632Y-189531626D01*
X309383531Y-189527184D01*
X309368012Y-189525888D01*
X309316575Y-189543039D01*
X309232955Y-189577015D01*
X309120890Y-189626196D01*
X308984117Y-189688960D01*
X308826372Y-189763687D01*
X308722222Y-189814073D01*
X308643940Y-189849421D01*
X308580738Y-189872758D01*
X308543015Y-189880432D01*
X308537849Y-189878831D01*
X308534245Y-189850505D01*
X308542160Y-189793450D01*
X308593727Y-189793450D01*
X308594934Y-189811111D01*
X308616727Y-189802089D01*
X308673135Y-189776744D01*
X308758551Y-189737650D01*
X308867364Y-189687386D01*
X308993967Y-189628527D01*
X309090876Y-189583263D01*
X309282790Y-189493456D01*
X309455555Y-189493456D01*
X309466143Y-189507134D01*
X309502331Y-189497715D01*
X309544444Y-189477777D01*
X309598005Y-189446027D01*
X309629666Y-189418706D01*
X309633333Y-189410659D01*
X309629790Y-189393544D01*
X309612427Y-189392440D01*
X309571142Y-189408943D01*
X309534087Y-189426338D01*
X309483818Y-189457228D01*
X309456953Y-189487218D01*
X309455555Y-189493456D01*
X309282790Y-189493456D01*
X309577777Y-189355415D01*
X309670911Y-189166596D01*
X309711398Y-189083209D01*
X309743290Y-189015055D01*
X309762148Y-188971749D01*
X309765355Y-188962017D01*
X309747480Y-188968962D01*
X309696290Y-188996273D01*
X309616468Y-189041262D01*
X309512698Y-189101242D01*
X309389664Y-189173525D01*
X309252048Y-189255425D01*
X309209762Y-189280783D01*
X309026300Y-189392312D01*
X308876458Y-189486244D01*
X308761468Y-189561758D01*
X308682560Y-189618036D01*
X308640967Y-189654260D01*
X308634952Y-189663210D01*
X308607573Y-189741769D01*
X308593727Y-189793450D01*
X308542160Y-189793450D01*
X308542257Y-189792751D01*
X308558498Y-189724404D01*
X308596855Y-189586444D01*
X308992871Y-189348875D01*
X309145168Y-189255877D01*
X309259413Y-189182342D01*
X309337016Y-189127288D01*
X309379385Y-189089729D01*
X309388888Y-189072319D01*
X309383537Y-189039223D01*
X309378657Y-189034400D01*
X309433333Y-189034400D01*
X309435734Y-189064997D01*
X309448746Y-189074130D01*
X309481081Y-189060825D01*
X309541451Y-189024110D01*
X309544886Y-189021943D01*
X309605477Y-188975285D01*
X309631105Y-188930544D01*
X309633333Y-188909764D01*
X309633333Y-188853420D01*
X309533333Y-188922222D01*
X309469944Y-188974092D01*
X309436587Y-189019646D01*
X309433333Y-189034400D01*
X309378657Y-189034400D01*
X309377578Y-189033333D01*
X309356242Y-189044789D01*
X309303509Y-189076700D01*
X309225299Y-189125379D01*
X309127530Y-189187137D01*
X309016123Y-189258288D01*
X309005356Y-189265203D01*
X308893004Y-189336184D01*
X308793435Y-189396808D01*
X308712589Y-189443645D01*
X308656405Y-189473266D01*
X308630822Y-189482240D01*
X308630175Y-189481870D01*
X308627616Y-189456705D01*
X308629428Y-189412774D01*
X308676026Y-189412774D01*
X308760235Y-189359510D01*
X308804603Y-189331263D01*
X308879170Y-189283588D01*
X308976747Y-189221088D01*
X309090149Y-189148369D01*
X309212186Y-189070033D01*
X309233333Y-189056451D01*
X309350669Y-188980869D01*
X309455360Y-188913029D01*
X309541600Y-188856724D01*
X309603585Y-188815748D01*
X309635511Y-188793898D01*
X309638231Y-188791762D01*
X309650657Y-188765487D01*
X309671916Y-188705865D01*
X309698804Y-188622331D01*
X309722399Y-188543990D01*
X309751217Y-188446049D01*
X309776145Y-188362287D01*
X309794118Y-188302948D01*
X309801343Y-188280190D01*
X309805159Y-188269708D01*
X309806437Y-188262850D01*
X309801848Y-188262299D01*
X309788064Y-188270740D01*
X309761756Y-188290857D01*
X309719596Y-188325334D01*
X309658256Y-188376856D01*
X309574407Y-188448108D01*
X309464720Y-188541773D01*
X309325868Y-188660536D01*
X309262098Y-188715085D01*
X309137219Y-188821687D01*
X309021745Y-188919858D01*
X308920454Y-189005565D01*
X308838126Y-189074779D01*
X308779541Y-189123468D01*
X308749477Y-189147599D01*
X308748348Y-189148419D01*
X308715111Y-189196461D01*
X308693146Y-189283282D01*
X308691459Y-189295276D01*
X308676026Y-189412774D01*
X308629428Y-189412774D01*
X308629878Y-189401876D01*
X308635600Y-189331046D01*
X308643424Y-189257878D01*
X308651989Y-189196036D01*
X308659937Y-189159184D01*
X308662755Y-189154447D01*
X308680047Y-189140271D01*
X308726201Y-189101481D01*
X308796243Y-189042285D01*
X308885200Y-188966888D01*
X308988099Y-188879497D01*
X309027777Y-188845756D01*
X309164734Y-188727455D01*
X309267726Y-188634304D01*
X309338328Y-188564764D01*
X309378115Y-188517295D01*
X309388888Y-188492712D01*
X309385847Y-188467453D01*
X309371191Y-188467728D01*
X309336620Y-188496047D01*
X309316666Y-188514559D01*
X309153189Y-188667602D01*
X309019078Y-188792516D01*
X308911509Y-188891815D01*
X308827656Y-188968012D01*
X308764695Y-189023623D01*
X308719801Y-189061161D01*
X308690148Y-189083140D01*
X308672911Y-189092074D01*
X308667468Y-189092262D01*
X308656591Y-189086716D01*
X308650455Y-189074139D01*
X308649007Y-189046328D01*
X308650603Y-189020677D01*
X308699681Y-189020677D01*
X308794285Y-188931338D01*
X308837361Y-188890607D01*
X308906817Y-188824871D01*
X308996772Y-188739697D01*
X309101349Y-188640652D01*
X309214668Y-188533303D01*
X309283186Y-188468383D01*
X309302523Y-188450060D01*
X309433333Y-188450060D01*
X309435395Y-188477358D01*
X309446898Y-188483338D01*
X309475812Y-188465492D01*
X309530110Y-188421315D01*
X309533333Y-188418622D01*
X309601698Y-188351198D01*
X309632004Y-188295901D01*
X309633333Y-188284183D01*
X309629178Y-188246727D01*
X309612922Y-188237841D01*
X309578880Y-188259067D01*
X309521367Y-188311952D01*
X309517603Y-188315621D01*
X309463802Y-188378675D01*
X309435629Y-188434375D01*
X309433333Y-188450060D01*
X309302523Y-188450060D01*
X309530102Y-188234418D01*
X309677777Y-188234418D01*
X309680404Y-188260081D01*
X309694076Y-188263215D01*
X309727481Y-188241631D01*
X309765011Y-188212422D01*
X309818830Y-188175735D01*
X309856162Y-188161719D01*
X309865922Y-188165462D01*
X309864535Y-188193193D01*
X309852024Y-188255916D01*
X309830179Y-188346096D01*
X309800796Y-188456200D01*
X309775706Y-188544518D01*
X309742026Y-188663602D01*
X309714518Y-188767458D01*
X309694965Y-188848778D01*
X309685155Y-188900258D01*
X309685213Y-188914842D01*
X309710900Y-188913364D01*
X309754759Y-188891434D01*
X309757237Y-188889830D01*
X309802735Y-188868485D01*
X309832628Y-188869402D01*
X309833414Y-188870153D01*
X309832956Y-188897610D01*
X309816604Y-188954710D01*
X309787592Y-189030977D01*
X309773902Y-189062848D01*
X309733951Y-189158113D01*
X309709470Y-189235234D01*
X309697466Y-189310878D01*
X309694950Y-189401713D01*
X309697452Y-189488888D01*
X309701848Y-189600000D01*
X309741265Y-189488913D01*
X309778377Y-189408512D01*
X309817050Y-189371558D01*
X309823674Y-189369670D01*
X309856645Y-189359943D01*
X309924608Y-189337341D01*
X310020795Y-189304205D01*
X310138440Y-189262876D01*
X310270776Y-189215694D01*
X310321552Y-189197423D01*
X310456427Y-189149224D01*
X310578049Y-189106623D01*
X310679924Y-189071825D01*
X310755558Y-189047033D01*
X310798458Y-189034453D01*
X310804886Y-189033333D01*
X310824930Y-189038295D01*
X310829774Y-189057038D01*
X310817438Y-189095344D01*
X310785943Y-189158997D01*
X310733306Y-189253779D01*
X310723520Y-189270942D01*
X310613707Y-189463120D01*
X310162409Y-189634795D01*
X310013351Y-189691872D01*
X309900835Y-189736195D01*
X309819684Y-189770333D01*
X309764720Y-189796854D01*
X309730767Y-189818326D01*
X309712646Y-189837317D01*
X309705180Y-189856395D01*
X309704304Y-189862019D01*
X309703410Y-189879347D01*
X309708955Y-189890024D01*
X309725860Y-189892651D01*
X309759043Y-189885835D01*
X309813423Y-189868178D01*
X309893920Y-189838286D01*
X310005453Y-189794761D01*
X310152941Y-189736209D01*
X310166009Y-189731005D01*
X310301604Y-189677376D01*
X310423714Y-189629775D01*
X310526185Y-189590543D01*
X310602868Y-189562022D01*
X310647609Y-189546553D01*
X310656149Y-189544444D01*
X310673775Y-189551271D01*
X310672376Y-189574911D01*
X310649690Y-189620107D01*
X310603452Y-189691596D01*
X310548123Y-189770712D01*
X310418468Y-189952825D01*
X310064790Y-190055319D01*
X309933020Y-190094053D01*
X309838062Y-190123762D01*
X309773825Y-190147034D01*
X309734222Y-190166457D01*
X309713161Y-190184619D01*
X309704554Y-190204107D01*
X309703738Y-190208759D01*
X309704995Y-190245481D01*
X309729961Y-190249570D01*
X309737071Y-190247659D01*
X309799738Y-190230197D01*
X309885807Y-190207636D01*
X309985416Y-190182390D01*
X310088701Y-190156875D01*
X310185800Y-190133503D01*
X310266851Y-190114691D01*
X310321989Y-190102852D01*
X310340258Y-190100000D01*
X310357579Y-190102977D01*
X310361105Y-190115037D01*
X310347653Y-190140866D01*
X310314039Y-190185153D01*
X310257081Y-190252587D01*
X310173596Y-190347857D01*
X310166666Y-190355702D01*
X309977777Y-190569438D01*
X309838888Y-190556322D01*
X309700000Y-190543206D01*
X309700000Y-190677158D01*
X309702508Y-190747441D01*
X309709031Y-190795520D01*
X309716666Y-190809982D01*
X309742158Y-190799897D01*
X309798106Y-190773502D01*
X309875592Y-190735102D01*
X309944444Y-190700000D01*
X310027156Y-190656033D01*
X310089411Y-190620361D01*
X310124416Y-190597056D01*
X310127777Y-190590017D01*
X310102027Y-190578348D01*
X310100193Y-190572222D01*
X310113948Y-190550111D01*
X310151524Y-190501093D01*
X310207610Y-190431827D01*
X310276896Y-190348974D01*
X310297345Y-190324942D01*
X310494303Y-190094329D01*
X310735568Y-190031754D01*
X310841541Y-190004769D01*
X310916934Y-189988271D01*
X310974135Y-189981378D01*
X311025530Y-189983210D01*
X311083505Y-189992885D01*
X311132944Y-190003481D01*
X311289055Y-190037783D01*
X311797528Y-189785558D01*
X312306002Y-189533333D01*
X312297445Y-188350036D01*
X312295619Y-188125421D01*
X312293514Y-187914797D01*
X312291199Y-187722234D01*
X312288741Y-187551806D01*
X312286208Y-187407583D01*
X312283669Y-187293637D01*
X312281190Y-187214040D01*
X312278839Y-187172862D01*
X312277777Y-187167939D01*
X312261189Y-187185813D01*
X312227940Y-187231744D01*
X312184956Y-187296121D01*
X312181215Y-187301919D01*
X312114289Y-187404787D01*
X312057340Y-187486597D01*
X312003705Y-187552762D01*
X311946719Y-187608693D01*
X311879717Y-187659803D01*
X311796034Y-187711502D01*
X311689005Y-187769202D01*
X311551966Y-187838316D01*
X311471679Y-187878069D01*
X311340681Y-187942170D01*
X311222027Y-187999013D01*
X311121823Y-188045773D01*
X311046179Y-188079620D01*
X311001201Y-188097728D01*
X310992271Y-188100000D01*
X310972146Y-188084884D01*
X310976191Y-188061111D01*
X310989303Y-188026254D01*
X310996025Y-188008563D01*
X311059145Y-188008563D01*
X311063423Y-188011111D01*
X311086264Y-188001680D01*
X311142738Y-187975353D01*
X311226711Y-187935078D01*
X311332048Y-187883804D01*
X311452616Y-187824480D01*
X311482468Y-187809703D01*
X311626050Y-187738169D01*
X311737179Y-187680342D01*
X311823202Y-187630150D01*
X311891468Y-187581526D01*
X311949326Y-187528400D01*
X312004126Y-187464702D01*
X312063214Y-187384364D01*
X312133940Y-187281315D01*
X312148849Y-187259333D01*
X312203639Y-187175198D01*
X312251885Y-187095177D01*
X312285252Y-187033269D01*
X312291063Y-187020444D01*
X312309944Y-186970639D01*
X312308518Y-186949303D01*
X312284951Y-186944482D01*
X312279400Y-186944444D01*
X312212103Y-186955997D01*
X312112788Y-186989097D01*
X311986914Y-187041402D01*
X311839944Y-187110573D01*
X311677338Y-187194269D01*
X311605938Y-187233056D01*
X311284445Y-187410367D01*
X311178383Y-187682961D01*
X311137951Y-187786887D01*
X311102899Y-187876999D01*
X311076618Y-187944581D01*
X311062497Y-187980918D01*
X311061561Y-187983333D01*
X311059145Y-188008563D01*
X310996025Y-188008563D01*
X311014771Y-187959228D01*
X311049041Y-187869359D01*
X311088561Y-187765978D01*
X311092551Y-187755555D01*
X311133099Y-187649329D01*
X311169388Y-187553710D01*
X311197611Y-187478764D01*
X311213961Y-187434560D01*
X311214543Y-187432933D01*
X311233038Y-187405356D01*
X311273770Y-187370265D01*
X311341075Y-187324749D01*
X311439287Y-187265901D01*
X311572740Y-187190810D01*
X311587032Y-187182933D01*
X311701176Y-187120792D01*
X311802532Y-187066896D01*
X311884458Y-187024674D01*
X311940313Y-186997554D01*
X311962938Y-186988888D01*
X311994269Y-186975210D01*
X311996773Y-186971887D01*
X311981640Y-186964862D01*
X311932075Y-186961564D01*
X311857974Y-186962527D01*
X311839270Y-186963369D01*
X311764302Y-186968370D01*
X311705188Y-186977485D01*
X311650090Y-186995036D01*
X311587166Y-187025344D01*
X311504576Y-187072733D01*
X311450188Y-187105402D01*
X311341734Y-187167610D01*
X311240188Y-187219836D01*
X311152138Y-187259319D01*
X311084168Y-187283297D01*
X311042863Y-187289009D01*
X311033333Y-187280193D01*
X311040086Y-187251224D01*
X311048389Y-187224060D01*
X311104112Y-187224060D01*
X311108121Y-187232019D01*
X311116485Y-187233333D01*
X311140403Y-187222434D01*
X311195111Y-187192449D01*
X311273458Y-187147443D01*
X311368294Y-187091483D01*
X311412262Y-187065125D01*
X311518513Y-186999504D01*
X311616903Y-186935775D01*
X311698183Y-186880136D01*
X311753104Y-186838784D01*
X311763137Y-186830017D01*
X311818542Y-186770007D01*
X311884005Y-186686146D01*
X311955303Y-186585392D01*
X311982274Y-186544444D01*
X312051930Y-186544444D01*
X312153743Y-186544444D01*
X312255555Y-186544444D01*
X312255287Y-186372222D01*
X312255020Y-186200000D01*
X312197985Y-186300000D01*
X312154238Y-186375503D01*
X312110870Y-186448520D01*
X312096440Y-186472222D01*
X312051930Y-186544444D01*
X311982274Y-186544444D01*
X312028212Y-186474701D01*
X312098509Y-186361031D01*
X312161971Y-186251340D01*
X312214374Y-186152586D01*
X312251495Y-186071725D01*
X312269111Y-186015715D01*
X312268668Y-185997203D01*
X312243812Y-185989463D01*
X312188459Y-186005086D01*
X312107957Y-186041156D01*
X312007652Y-186094758D01*
X311892891Y-186162977D01*
X311769021Y-186242896D01*
X311641389Y-186331600D01*
X311600000Y-186361827D01*
X311333333Y-186559048D01*
X311218125Y-186879524D01*
X311171838Y-187008592D01*
X311138976Y-187101722D01*
X311117857Y-187164770D01*
X311106796Y-187203597D01*
X311104112Y-187224060D01*
X311048389Y-187224060D01*
X311057634Y-187193813D01*
X311077777Y-187133333D01*
X311105457Y-187050446D01*
X311118219Y-187000844D01*
X311116299Y-186976027D01*
X311099932Y-186967500D01*
X311082399Y-186966666D01*
X311058120Y-186978459D01*
X311031010Y-187017618D01*
X310997824Y-187089815D01*
X310967688Y-187167198D01*
X310892801Y-187367730D01*
X310435623Y-187654171D01*
X310308174Y-187733346D01*
X310193271Y-187803433D01*
X310096212Y-187861307D01*
X310022289Y-187903843D01*
X309976798Y-187927919D01*
X309964635Y-187932078D01*
X309963733Y-187908392D01*
X309971173Y-187849795D01*
X309977468Y-187812790D01*
X310035010Y-187812790D01*
X310038004Y-187830894D01*
X310042874Y-187833333D01*
X310063739Y-187822059D01*
X310116328Y-187790626D01*
X310194796Y-187742615D01*
X310293293Y-187681608D01*
X310405973Y-187611188D01*
X310424359Y-187599644D01*
X310540440Y-187526430D01*
X310644663Y-187460165D01*
X310730752Y-187404881D01*
X310792434Y-187364610D01*
X310823436Y-187343383D01*
X310824775Y-187342325D01*
X310840341Y-187316674D01*
X310867687Y-187259526D01*
X310903304Y-187179400D01*
X310943689Y-187084816D01*
X310985333Y-186984296D01*
X311024731Y-186886358D01*
X311030208Y-186872222D01*
X311083652Y-186872222D01*
X311092267Y-186894899D01*
X311117804Y-186900000D01*
X311146522Y-186890315D01*
X311172141Y-186855810D01*
X311200083Y-186788306D01*
X311209071Y-186762351D01*
X311237011Y-186677935D01*
X311250730Y-186627753D01*
X311250558Y-186604045D01*
X311236826Y-186599051D01*
X311215846Y-186603433D01*
X311183866Y-186631040D01*
X311149961Y-186691883D01*
X311135210Y-186729131D01*
X311110417Y-186798608D01*
X311090841Y-186852798D01*
X311083652Y-186872222D01*
X311030208Y-186872222D01*
X311058377Y-186799524D01*
X311082764Y-186732314D01*
X311094386Y-186693248D01*
X311094440Y-186687032D01*
X311075812Y-186698179D01*
X311026197Y-186732580D01*
X310950219Y-186786899D01*
X310852504Y-186857800D01*
X310737678Y-186941946D01*
X310610364Y-187036002D01*
X310600194Y-187043546D01*
X310111812Y-187405924D01*
X310073589Y-187591851D01*
X310051955Y-187699935D01*
X310039378Y-187771360D01*
X310035010Y-187812790D01*
X309977468Y-187812790D01*
X309985640Y-187764757D01*
X310005818Y-187661750D01*
X310008897Y-187646985D01*
X310066968Y-187370428D01*
X310300150Y-187200409D01*
X310414741Y-187116736D01*
X310496144Y-187055857D01*
X310546922Y-187014166D01*
X310569641Y-186988055D01*
X310566863Y-186973916D01*
X310541155Y-186968144D01*
X310495078Y-186967130D01*
X310465873Y-186967277D01*
X310333333Y-186967888D01*
X310089716Y-187166993D01*
X310001544Y-187237123D01*
X309925356Y-187294080D01*
X309867674Y-187333267D01*
X309835021Y-187350083D01*
X309830591Y-187349716D01*
X309826939Y-187321308D01*
X309831904Y-187261944D01*
X309836343Y-187234266D01*
X309890471Y-187234266D01*
X309891429Y-187255555D01*
X309910052Y-187242100D01*
X309958538Y-187204164D01*
X310032337Y-187145388D01*
X310126898Y-187069415D01*
X310237669Y-186979888D01*
X310323127Y-186910479D01*
X310411111Y-186910479D01*
X310430110Y-186914270D01*
X310472222Y-186911126D01*
X310535827Y-186905380D01*
X310612374Y-186901777D01*
X310623872Y-186901531D01*
X310676234Y-186895620D01*
X310729236Y-186876209D01*
X310793809Y-186837952D01*
X310879428Y-186776597D01*
X310971836Y-186707305D01*
X311030368Y-186660658D01*
X311056359Y-186632184D01*
X311051147Y-186617412D01*
X311016067Y-186611870D01*
X310952456Y-186611086D01*
X310928887Y-186611111D01*
X310771109Y-186611111D01*
X310591110Y-186756439D01*
X310516746Y-186817262D01*
X310457338Y-186867342D01*
X310420118Y-186900491D01*
X310411111Y-186910479D01*
X310323127Y-186910479D01*
X310360100Y-186880450D01*
X310360782Y-186879894D01*
X310822222Y-186504234D01*
X310936616Y-186212133D01*
X310976423Y-186108398D01*
X311008074Y-186021835D01*
X311029090Y-185959560D01*
X311036993Y-185928690D01*
X311036023Y-185926683D01*
X311015866Y-185942084D01*
X310965918Y-185982534D01*
X310890437Y-186044516D01*
X310793684Y-186124517D01*
X310679915Y-186219019D01*
X310553391Y-186324507D01*
X310495243Y-186373106D01*
X309969450Y-186812879D01*
X309945810Y-186928662D01*
X309917955Y-187069037D01*
X309899410Y-187171500D01*
X309890471Y-187234266D01*
X309836343Y-187234266D01*
X309844399Y-187184038D01*
X309845613Y-187177777D01*
X309864138Y-187080737D01*
X309873106Y-187019186D01*
X309871775Y-186985050D01*
X309859405Y-186970257D01*
X309835253Y-186966733D01*
X309826230Y-186966666D01*
X309805083Y-186969072D01*
X309788860Y-186980877D01*
X309775231Y-187008966D01*
X309761863Y-187060223D01*
X309746425Y-187141531D01*
X309726586Y-187259774D01*
X309726230Y-187261948D01*
X309702471Y-187408533D01*
X309686648Y-187515211D01*
X309679314Y-187585902D01*
X309681025Y-187624527D01*
X309692334Y-187635006D01*
X309713796Y-187621260D01*
X309745965Y-187587208D01*
X309768539Y-187561111D01*
X309821514Y-187506459D01*
X309869292Y-187469108D01*
X309904681Y-187452842D01*
X309920493Y-187461440D01*
X309916425Y-187483333D01*
X309906633Y-187514076D01*
X309887232Y-187578743D01*
X309860829Y-187668527D01*
X309830032Y-187774618D01*
X309822716Y-187800000D01*
X309789514Y-187911142D01*
X309757667Y-188010284D01*
X309730444Y-188087736D01*
X309711112Y-188133806D01*
X309708668Y-188138107D01*
X309684441Y-188194670D01*
X309677777Y-188234418D01*
X309530102Y-188234418D01*
X309677483Y-188094767D01*
X309745542Y-187869606D01*
X309774673Y-187773068D01*
X309799539Y-187690356D01*
X309816970Y-187632036D01*
X309823127Y-187611111D01*
X309811854Y-187614683D01*
X309771099Y-187650526D01*
X309701374Y-187718120D01*
X309603196Y-187816942D01*
X309477078Y-187946470D01*
X309323534Y-188106181D01*
X309143080Y-188295553D01*
X309002008Y-188444444D01*
X308728837Y-188733333D01*
X308714259Y-188877005D01*
X308699681Y-189020677D01*
X308650603Y-189020677D01*
X308652196Y-188995077D01*
X308659970Y-188912182D01*
X308665960Y-188852335D01*
X308680815Y-188704670D01*
X309023740Y-188344272D01*
X309138856Y-188222360D01*
X309226034Y-188127505D01*
X309288782Y-188055355D01*
X309330609Y-188001558D01*
X309355022Y-187961763D01*
X309365530Y-187931619D01*
X309366458Y-187921229D01*
X309433333Y-187921229D01*
X309522222Y-187824796D01*
X309578142Y-187756280D01*
X309604939Y-187699540D01*
X309610199Y-187653070D01*
X309609288Y-187577777D01*
X309521310Y-187675080D01*
X309464381Y-187747079D01*
X309437674Y-187807521D01*
X309433333Y-187846805D01*
X309433333Y-187921229D01*
X309366458Y-187921229D01*
X309366666Y-187918906D01*
X309364068Y-187900508D01*
X309353973Y-187895953D01*
X309332931Y-187908494D01*
X309297492Y-187941388D01*
X309244204Y-187997888D01*
X309169618Y-188081252D01*
X309070282Y-188194733D01*
X309051900Y-188215857D01*
X308957796Y-188322858D01*
X308872146Y-188417978D01*
X308799628Y-188496205D01*
X308744923Y-188552523D01*
X308712710Y-188581920D01*
X308707456Y-188584962D01*
X308694340Y-188579203D01*
X308685542Y-188550392D01*
X308680351Y-188492498D01*
X308678059Y-188399487D01*
X308677883Y-188357748D01*
X308741236Y-188357748D01*
X308741694Y-188426944D01*
X308745593Y-188466546D01*
X308749368Y-188472278D01*
X308767506Y-188454700D01*
X308810946Y-188407750D01*
X308875906Y-188335663D01*
X308958603Y-188242672D01*
X309055256Y-188133014D01*
X309162084Y-188010922D01*
X309190961Y-187977777D01*
X309300441Y-187851221D01*
X309304212Y-187846805D01*
X309400742Y-187733777D01*
X309488004Y-187630087D01*
X309558363Y-187544791D01*
X309607958Y-187482531D01*
X309632927Y-187447948D01*
X309634761Y-187444444D01*
X309649587Y-187394889D01*
X309664565Y-187323656D01*
X309677802Y-187243696D01*
X309687407Y-187167961D01*
X309691484Y-187109402D01*
X309688142Y-187080971D01*
X309687921Y-187080732D01*
X309666674Y-187087677D01*
X309628399Y-187121024D01*
X309603485Y-187148068D01*
X309568972Y-187186687D01*
X309509059Y-187252192D01*
X309428811Y-187339108D01*
X309333296Y-187441963D01*
X309227578Y-187555282D01*
X309144444Y-187644057D01*
X308755555Y-188058644D01*
X308744444Y-188268267D01*
X308741236Y-188357748D01*
X308677883Y-188357748D01*
X308677777Y-188332522D01*
X308677777Y-188072898D01*
X308792068Y-187947560D01*
X308849655Y-187884779D01*
X308928365Y-187799480D01*
X309018986Y-187701623D01*
X309112304Y-187601170D01*
X309138600Y-187572927D01*
X309218381Y-187485122D01*
X309285195Y-187407431D01*
X309333990Y-187346066D01*
X309359715Y-187307237D01*
X309362267Y-187297914D01*
X309345735Y-187305840D01*
X309304517Y-187342789D01*
X309243089Y-187404245D01*
X309165928Y-187485691D01*
X309077513Y-187582614D01*
X309054625Y-187608227D01*
X308963140Y-187710067D01*
X308881173Y-187799510D01*
X308813428Y-187871570D01*
X308764606Y-187921262D01*
X308739411Y-187943602D01*
X308737550Y-187944351D01*
X308730081Y-187923981D01*
X308727309Y-187869318D01*
X308728052Y-187822222D01*
X308783602Y-187822222D01*
X308839410Y-187766666D01*
X308868810Y-187735532D01*
X308923186Y-187676138D01*
X308998030Y-187593482D01*
X309088833Y-187492560D01*
X309191087Y-187378367D01*
X309297608Y-187258906D01*
X309330803Y-187221602D01*
X309415601Y-187221602D01*
X309415715Y-187250967D01*
X309430656Y-187255555D01*
X309454322Y-187239649D01*
X309495088Y-187198562D01*
X309530656Y-187157371D01*
X309583000Y-187086469D01*
X309609325Y-187036823D01*
X309610738Y-187012399D01*
X309588348Y-187017161D01*
X309543266Y-187055076D01*
X309511507Y-187088888D01*
X309447871Y-187166877D01*
X309415601Y-187221602D01*
X309330803Y-187221602D01*
X309551065Y-186974074D01*
X309662962Y-186974074D01*
X309666013Y-186987285D01*
X309677777Y-186988888D01*
X309696069Y-186980758D01*
X309692592Y-186974074D01*
X309666220Y-186971414D01*
X309662962Y-186974074D01*
X309551065Y-186974074D01*
X309620361Y-186896200D01*
X309683699Y-186896200D01*
X309687794Y-186914029D01*
X309728198Y-186921229D01*
X309777479Y-186922222D01*
X309840900Y-186919146D01*
X309876338Y-186903688D01*
X309900152Y-186866502D01*
X309908447Y-186847392D01*
X309944854Y-186788675D01*
X310001362Y-186725442D01*
X310030967Y-186699229D01*
X310082245Y-186655666D01*
X310115350Y-186623021D01*
X310122222Y-186612360D01*
X310103965Y-186601345D01*
X310058996Y-186603332D01*
X310002014Y-186615189D01*
X309947721Y-186633785D01*
X309910816Y-186655988D01*
X309909124Y-186657750D01*
X309866112Y-186694521D01*
X309840577Y-186691202D01*
X309833333Y-186655555D01*
X309819038Y-186621768D01*
X309869807Y-186621768D01*
X309937171Y-186565085D01*
X309972787Y-186534168D01*
X310035763Y-186478519D01*
X310120452Y-186403169D01*
X310221206Y-186313149D01*
X310332378Y-186213489D01*
X310395057Y-186157165D01*
X310785580Y-185805928D01*
X310822202Y-185636297D01*
X310842841Y-185542794D01*
X310862780Y-185455948D01*
X310877943Y-185393481D01*
X310878810Y-185390138D01*
X310889704Y-185337151D01*
X310890558Y-185306174D01*
X310889532Y-185304347D01*
X310870484Y-185316650D01*
X310820356Y-185360274D01*
X310739382Y-185434997D01*
X310627795Y-185540601D01*
X310485826Y-185676863D01*
X310313709Y-185843564D01*
X310111677Y-186040482D01*
X310072222Y-186079051D01*
X309900000Y-186247474D01*
X309899696Y-186379292D01*
X309897043Y-186461489D01*
X309890536Y-186533287D01*
X309884600Y-186566439D01*
X309869807Y-186621768D01*
X309819038Y-186621768D01*
X309817619Y-186618415D01*
X309788888Y-186611111D01*
X309762081Y-186617049D01*
X309748803Y-186642183D01*
X309744601Y-186697488D01*
X309744444Y-186720634D01*
X309736798Y-186803892D01*
X309715756Y-186858101D01*
X309711111Y-186863492D01*
X309683699Y-186896200D01*
X309620361Y-186896200D01*
X309700000Y-186806702D01*
X309699348Y-186592239D01*
X309698697Y-186377777D01*
X309638237Y-186444793D01*
X309607271Y-186479542D01*
X309551665Y-186542374D01*
X309476102Y-186627979D01*
X309385270Y-186731043D01*
X309283854Y-186846256D01*
X309193972Y-186948467D01*
X308810167Y-187385124D01*
X308796885Y-187603673D01*
X308783602Y-187822222D01*
X308728052Y-187822222D01*
X308728558Y-187790188D01*
X308733156Y-187696417D01*
X308740429Y-187597831D01*
X308749704Y-187504256D01*
X308760305Y-187425517D01*
X308771560Y-187371442D01*
X308777922Y-187355555D01*
X308804932Y-187319334D01*
X308852973Y-187260188D01*
X308913578Y-187188439D01*
X308942024Y-187155555D01*
X309001214Y-187086256D01*
X309047327Y-187029606D01*
X309073834Y-186993763D01*
X309077701Y-186986052D01*
X309058640Y-186977698D01*
X309014738Y-186977469D01*
X308949978Y-187002486D01*
X308872257Y-187066173D01*
X308858373Y-187080305D01*
X308765049Y-187177777D01*
X308771097Y-187077777D01*
X308773022Y-187016174D01*
X308766441Y-186995015D01*
X308833991Y-186995015D01*
X308844575Y-186999981D01*
X308877625Y-186973443D01*
X308934067Y-186914415D01*
X308941802Y-186905555D01*
X309011977Y-186905555D01*
X309030788Y-186916891D01*
X309077776Y-186922171D01*
X309083333Y-186922220D01*
X309124713Y-186917046D01*
X309164042Y-186896950D01*
X309210826Y-186855065D01*
X309274566Y-186784528D01*
X309275601Y-186783331D01*
X309395646Y-186644444D01*
X309320739Y-186637118D01*
X309279342Y-186636862D01*
X309243215Y-186649777D01*
X309202032Y-186682458D01*
X309145464Y-186741500D01*
X309129338Y-186759340D01*
X309074230Y-186822495D01*
X309032951Y-186873365D01*
X309012836Y-186902806D01*
X309011977Y-186905555D01*
X308941802Y-186905555D01*
X309014826Y-186821911D01*
X309120828Y-186694945D01*
X309155893Y-186652186D01*
X309198650Y-186600654D01*
X309237530Y-186554400D01*
X309306783Y-186554400D01*
X309312596Y-186565453D01*
X309341000Y-186566666D01*
X309380368Y-186552709D01*
X309388888Y-186522222D01*
X309385662Y-186486046D01*
X309381221Y-186477777D01*
X309362457Y-186492267D01*
X309333333Y-186522222D01*
X309306783Y-186554400D01*
X309237530Y-186554400D01*
X309260731Y-186526798D01*
X309332520Y-186442027D01*
X309380653Y-186385519D01*
X309539083Y-186200000D01*
X309560196Y-185944444D01*
X309568338Y-185843502D01*
X309574646Y-185760646D01*
X309578469Y-185704786D01*
X309579212Y-185684854D01*
X309563354Y-185698303D01*
X309520199Y-185738195D01*
X309454429Y-185800109D01*
X309370732Y-185879628D01*
X309273790Y-185972332D01*
X309237598Y-186007076D01*
X308898080Y-186333333D01*
X308866364Y-186644444D01*
X308854797Y-186760182D01*
X308845020Y-186862305D01*
X308837891Y-186941535D01*
X308834266Y-186988596D01*
X308833991Y-186995015D01*
X308766441Y-186995015D01*
X308763632Y-186985984D01*
X308734980Y-186974304D01*
X308705239Y-186970814D01*
X308633333Y-186963850D01*
X308633333Y-187230613D01*
X308631790Y-187335014D01*
X308627587Y-187422365D01*
X308621366Y-187483554D01*
X308613768Y-187509468D01*
X308613723Y-187509496D01*
X308587301Y-187505064D01*
X308529314Y-187484213D01*
X308448037Y-187450228D01*
X308351743Y-187406390D01*
X308341028Y-187401316D01*
X308087943Y-187281016D01*
X308044887Y-187123841D01*
X308020574Y-187047635D01*
X307996202Y-186991787D01*
X307976576Y-186967039D01*
X307974595Y-186966666D01*
X307963373Y-186980682D01*
X307969861Y-187025838D01*
X307992806Y-187101243D01*
X308014386Y-187172542D01*
X308025926Y-187226014D01*
X308025319Y-187248754D01*
X307991516Y-187253833D01*
X307928398Y-187238488D01*
X307844241Y-187206013D01*
X307747315Y-187159702D01*
X307645894Y-187102849D01*
X307622153Y-187088222D01*
X307529305Y-187034182D01*
X307443236Y-186991679D01*
X307371457Y-186963592D01*
X307321479Y-186952802D01*
X307300812Y-186962187D01*
X307300666Y-186964959D01*
X307318668Y-186981190D01*
X307366775Y-187014939D01*
X307437018Y-187060794D01*
X307497845Y-187098894D01*
X307694359Y-187220011D01*
X307697144Y-187340834D01*
X307706571Y-187462662D01*
X307732227Y-187569100D01*
X307779530Y-187677456D01*
X307830724Y-187767513D01*
X307874034Y-187840430D01*
X307895879Y-187884014D01*
X307898517Y-187906515D01*
X307884206Y-187916182D01*
X307872092Y-187918669D01*
X307828487Y-187911705D01*
X307755714Y-187884797D01*
X307662050Y-187841940D01*
X307555773Y-187787129D01*
X307445161Y-187724360D01*
X307359016Y-187671037D01*
X307176228Y-187533030D01*
X307005572Y-187366363D01*
X306883523Y-187215643D01*
X306835926Y-187150573D01*
X306799355Y-187103451D01*
X306780274Y-187082525D01*
X306779020Y-187082310D01*
X306778352Y-187105115D01*
X306778056Y-187168344D01*
X306724151Y-187168344D01*
X306724323Y-187146720D01*
X306726442Y-187036706D01*
X306729570Y-186956425D01*
X306733733Y-186903429D01*
X306738953Y-186875266D01*
X306741437Y-186870289D01*
X306762229Y-186854229D01*
X306795634Y-186850165D01*
X306853212Y-186857988D01*
X306905926Y-186868717D01*
X307007372Y-186885209D01*
X307122595Y-186896338D01*
X307195933Y-186899219D01*
X307347422Y-186900000D01*
X307201916Y-186756627D01*
X307132486Y-186689200D01*
X307082784Y-186646807D01*
X307076948Y-186643514D01*
X307841625Y-186643514D01*
X307853106Y-186697376D01*
X307872664Y-186764180D01*
X307895966Y-186829809D01*
X307918684Y-186880148D01*
X307927680Y-186894199D01*
X307955135Y-186917504D01*
X307968146Y-186904072D01*
X307966037Y-186859423D01*
X307948133Y-186789077D01*
X307942578Y-186772355D01*
X307905858Y-186677058D01*
X307886737Y-186643654D01*
X308133333Y-186643654D01*
X308150877Y-186662236D01*
X308198351Y-186698723D01*
X308268018Y-186747428D01*
X308333333Y-186790597D01*
X308426027Y-186849144D01*
X308493532Y-186886910D01*
X308547178Y-186908443D01*
X308598296Y-186918293D01*
X308658203Y-186921006D01*
X308783073Y-186922222D01*
X308796847Y-186838888D01*
X308810156Y-186740468D01*
X308810002Y-186677973D01*
X308795102Y-186644588D01*
X308764172Y-186633495D01*
X308758147Y-186633333D01*
X308715289Y-186646983D01*
X308689658Y-186691421D01*
X308678820Y-186771882D01*
X308678081Y-186805555D01*
X308670200Y-186857582D01*
X308650169Y-186877730D01*
X308650000Y-186877730D01*
X308620894Y-186865995D01*
X308564187Y-186834334D01*
X308488897Y-186788007D01*
X308427645Y-186748121D01*
X308322276Y-186683131D01*
X308236152Y-186640405D01*
X308173600Y-186621476D01*
X308138945Y-186627882D01*
X308133333Y-186643654D01*
X307886737Y-186643654D01*
X307875484Y-186623995D01*
X307850431Y-186611571D01*
X307842550Y-186616708D01*
X307841625Y-186643514D01*
X307076948Y-186643514D01*
X307040959Y-186623207D01*
X306995160Y-186612159D01*
X306933538Y-186607422D01*
X306917094Y-186606627D01*
X306777777Y-186600000D01*
X306763653Y-186325115D01*
X306814116Y-186325115D01*
X306815387Y-186388888D01*
X306818821Y-186465698D01*
X306823448Y-186524107D01*
X306827876Y-186550000D01*
X306850942Y-186559028D01*
X306898380Y-186564948D01*
X306952579Y-186567012D01*
X306995927Y-186564471D01*
X307011111Y-186557788D01*
X307002737Y-186540502D01*
X306976220Y-186497176D01*
X306929467Y-186424513D01*
X306860383Y-186319217D01*
X306838821Y-186286567D01*
X306824124Y-186270048D01*
X306816352Y-186280877D01*
X306814116Y-186325115D01*
X306763653Y-186325115D01*
X306763504Y-186322222D01*
X306756755Y-186210082D01*
X306748892Y-186109416D01*
X306740888Y-186031157D01*
X306733713Y-185986237D01*
X306733634Y-185985938D01*
X306729888Y-185934138D01*
X306742793Y-185912131D01*
X306750763Y-185885487D01*
X306755340Y-185823797D01*
X306756851Y-185736303D01*
X306755620Y-185632247D01*
X306751970Y-185520873D01*
X306746225Y-185411423D01*
X306738711Y-185313139D01*
X306729751Y-185235263D01*
X306719670Y-185187039D01*
X306717142Y-185180947D01*
X306709243Y-185132916D01*
X306720163Y-185115392D01*
X306729810Y-185083849D01*
X306737019Y-185017025D01*
X306741805Y-184924017D01*
X306744181Y-184813919D01*
X306744163Y-184695828D01*
X306741764Y-184578840D01*
X306737000Y-184472051D01*
X306729883Y-184384556D01*
X306720428Y-184325451D01*
X306718915Y-184319950D01*
X306704865Y-184256655D01*
X306711185Y-184216593D01*
X306722082Y-184200168D01*
X306739743Y-184166431D01*
X306737385Y-184152700D01*
X306788888Y-184152700D01*
X306802299Y-184169827D01*
X306846400Y-184182110D01*
X306926992Y-184190880D01*
X306966634Y-184193467D01*
X307144380Y-184203757D01*
X307294412Y-184347874D01*
X307376962Y-184422955D01*
X307480493Y-184511035D01*
X307589756Y-184599372D01*
X307661111Y-184654258D01*
X307877777Y-184816526D01*
X307877777Y-185075816D01*
X307881579Y-185223726D01*
X307892271Y-185353835D01*
X307908781Y-185453692D01*
X307911111Y-185463082D01*
X307928885Y-185532875D01*
X307940977Y-185583334D01*
X307944444Y-185601084D01*
X307926348Y-185611162D01*
X307873206Y-185596791D01*
X307786738Y-185558494D01*
X307759080Y-185544718D01*
X307566535Y-185425233D01*
X307374128Y-185262536D01*
X307183092Y-185057849D01*
X306994657Y-184812390D01*
X306940390Y-184733333D01*
X306884859Y-184650900D01*
X306838435Y-184582805D01*
X306806672Y-184537144D01*
X306795562Y-184522222D01*
X306792152Y-184538873D01*
X306790299Y-184592249D01*
X306790089Y-184674654D01*
X306791606Y-184778391D01*
X306792375Y-184811111D01*
X306800000Y-185111111D01*
X307016592Y-185166666D01*
X307116419Y-185193159D01*
X307186736Y-185216634D01*
X307241173Y-185244749D01*
X307293364Y-185285164D01*
X307356940Y-185345537D01*
X307385610Y-185374002D01*
X307472614Y-185455054D01*
X307569245Y-185536436D01*
X307658158Y-185603739D01*
X307680129Y-185618636D01*
X307822222Y-185711491D01*
X307836538Y-185889079D01*
X307845881Y-185993111D01*
X307856824Y-186097697D01*
X307867058Y-186180823D01*
X307867411Y-186183333D01*
X307874881Y-186252881D01*
X307868188Y-186289462D01*
X307840732Y-186296042D01*
X307785908Y-186275590D01*
X307727039Y-186246434D01*
X307551523Y-186143179D01*
X307373581Y-186014118D01*
X307203689Y-185868438D01*
X307052326Y-185715321D01*
X306929967Y-185563952D01*
X306902830Y-185523906D01*
X306811111Y-185381998D01*
X306811111Y-185638127D01*
X306811111Y-185894257D01*
X306966666Y-185909585D01*
X307043258Y-185919514D01*
X307098799Y-185931256D01*
X307122087Y-185942394D01*
X307122222Y-185943168D01*
X307135227Y-185968975D01*
X307168937Y-186017191D01*
X307205555Y-186064238D01*
X307313117Y-186175744D01*
X307450097Y-186285501D01*
X307602409Y-186382673D01*
X307658167Y-186412429D01*
X307733605Y-186457030D01*
X307782378Y-186499377D01*
X307795029Y-186521083D01*
X307821628Y-186559924D01*
X307863741Y-186561659D01*
X307895555Y-186540000D01*
X307925795Y-186524775D01*
X307948888Y-186540000D01*
X307987160Y-186557262D01*
X308048171Y-186566285D01*
X308063334Y-186566666D01*
X308151112Y-186566666D01*
X308062833Y-186502717D01*
X307974554Y-186438768D01*
X307937249Y-186174939D01*
X307918687Y-186040030D01*
X307907032Y-185942942D01*
X307902222Y-185877603D01*
X307904193Y-185837939D01*
X307912884Y-185817876D01*
X307928233Y-185811343D01*
X307933516Y-185811111D01*
X307960615Y-185823923D01*
X308017339Y-185859739D01*
X308097960Y-185914627D01*
X308196751Y-185984658D01*
X308307983Y-186065900D01*
X308346370Y-186094444D01*
X308725707Y-186377777D01*
X308715583Y-186472222D01*
X308711119Y-186531289D01*
X308719340Y-186558552D01*
X308747240Y-186566286D01*
X308769396Y-186566666D01*
X308806545Y-186564220D01*
X308825516Y-186549437D01*
X308832409Y-186511146D01*
X308833333Y-186449652D01*
X308833333Y-186332638D01*
X309100000Y-186066666D01*
X309199229Y-185966767D01*
X309270675Y-185891910D01*
X309318737Y-185836487D01*
X309347815Y-185794891D01*
X309362311Y-185761512D01*
X309366624Y-185730743D01*
X309366666Y-185726802D01*
X309366666Y-185652909D01*
X309259680Y-185743121D01*
X309200763Y-185790019D01*
X309154038Y-185822173D01*
X309131903Y-185832068D01*
X309109892Y-185817702D01*
X309059474Y-185778093D01*
X308985611Y-185717356D01*
X308893266Y-185639603D01*
X308787400Y-185548949D01*
X308722222Y-185492481D01*
X308585018Y-185371768D01*
X308479256Y-185275419D01*
X308401611Y-185200111D01*
X308348759Y-185142519D01*
X308317376Y-185099320D01*
X308306809Y-185077079D01*
X308295946Y-185023559D01*
X308287051Y-184938272D01*
X308281170Y-184833885D01*
X308279335Y-184744444D01*
X308280779Y-184595791D01*
X308286559Y-184489000D01*
X308296943Y-184421675D01*
X308312201Y-184391418D01*
X308319258Y-184389141D01*
X308338399Y-184403796D01*
X308385901Y-184445180D01*
X308457707Y-184509614D01*
X308549765Y-184593420D01*
X308658019Y-184692918D01*
X308778415Y-184804431D01*
X308833333Y-184855555D01*
X308958008Y-184971212D01*
X309072630Y-185076430D01*
X309173086Y-185167524D01*
X309255266Y-185240807D01*
X309315058Y-185292592D01*
X309348351Y-185319192D01*
X309353489Y-185321969D01*
X309359903Y-185300824D01*
X309363460Y-185240937D01*
X309364076Y-185147923D01*
X309361667Y-185027399D01*
X309359045Y-184952006D01*
X309353843Y-184804223D01*
X309349459Y-184649385D01*
X309346255Y-184502678D01*
X309344595Y-184379285D01*
X309344444Y-184340895D01*
X309344444Y-184100000D01*
X308711111Y-184100000D01*
X308548507Y-184100409D01*
X308401352Y-184101566D01*
X308275220Y-184103363D01*
X308175682Y-184105693D01*
X308108313Y-184108449D01*
X308078684Y-184111524D01*
X308077777Y-184112177D01*
X308092952Y-184133248D01*
X308130323Y-184169462D01*
X308138888Y-184176954D01*
X308200000Y-184229555D01*
X308200067Y-184537000D01*
X308201441Y-184654800D01*
X308205156Y-184761251D01*
X308210682Y-184846093D01*
X308217486Y-184899067D01*
X308219143Y-184905555D01*
X308227086Y-184953787D01*
X308214471Y-184966666D01*
X308188513Y-184953957D01*
X308135040Y-184919306D01*
X308061722Y-184867927D01*
X307976226Y-184805032D01*
X307971659Y-184801596D01*
X307764931Y-184631851D01*
X307585589Y-184455886D01*
X307440738Y-184280838D01*
X307411111Y-184238594D01*
X307333333Y-184123368D01*
X307061111Y-184122795D01*
X306942839Y-184123533D01*
X306862774Y-184126791D01*
X306814713Y-184133248D01*
X306792456Y-184143586D01*
X306788888Y-184152700D01*
X306737385Y-184152700D01*
X306737281Y-184152096D01*
X306735486Y-184124306D01*
X306746008Y-184097078D01*
X306759865Y-184079327D01*
X306784189Y-184067450D01*
X306826940Y-184060301D01*
X306896077Y-184056731D01*
X306999557Y-184055594D01*
X307034108Y-184055555D01*
X307299987Y-184055555D01*
X307238882Y-183944321D01*
X307182546Y-183841767D01*
X307839713Y-183841767D01*
X307846639Y-183863353D01*
X307876217Y-183907898D01*
X307914114Y-183956056D01*
X308000000Y-184058860D01*
X308682194Y-184045430D01*
X308874217Y-184041744D01*
X309026594Y-184039226D01*
X309144116Y-184038081D01*
X309231571Y-184038514D01*
X309293748Y-184040731D01*
X309335436Y-184044937D01*
X309361424Y-184051336D01*
X309376502Y-184060134D01*
X309385458Y-184071537D01*
X309387750Y-184075650D01*
X309395195Y-184112534D01*
X309401320Y-184191318D01*
X309406038Y-184309476D01*
X309409263Y-184464479D01*
X309410908Y-184653802D01*
X309411111Y-184758217D01*
X309411208Y-184943475D01*
X309411743Y-185089469D01*
X309413077Y-185201380D01*
X309415573Y-185284389D01*
X309419594Y-185343677D01*
X309425503Y-185384424D01*
X309433661Y-185411812D01*
X309444432Y-185431021D01*
X309458178Y-185447233D01*
X309459429Y-185448567D01*
X309507747Y-185500000D01*
X309459429Y-185551432D01*
X309433350Y-185593945D01*
X309415629Y-185648976D01*
X309408766Y-185701726D01*
X309415257Y-185737396D01*
X309426840Y-185744444D01*
X309450342Y-185730141D01*
X309493610Y-185693463D01*
X309526432Y-185662555D01*
X309575457Y-185619133D01*
X309611683Y-185595191D01*
X309623449Y-185593819D01*
X309626464Y-185619585D01*
X309625639Y-185681173D01*
X309621302Y-185770158D01*
X309613784Y-185878112D01*
X309610948Y-185913051D01*
X309600308Y-186035563D01*
X309590848Y-186122821D01*
X309580260Y-186183879D01*
X309566238Y-186227791D01*
X309546474Y-186263610D01*
X309518660Y-186300390D01*
X309509313Y-186311853D01*
X309460572Y-186380255D01*
X309438176Y-186441471D01*
X309433698Y-186502288D01*
X309434064Y-186600000D01*
X309566065Y-186455555D01*
X309698066Y-186311111D01*
X309698338Y-185995283D01*
X309741652Y-185995283D01*
X310150453Y-185602809D01*
X310559255Y-185210335D01*
X310585631Y-184940800D01*
X310595222Y-184836694D01*
X310602071Y-184750078D01*
X310605566Y-184689725D01*
X310605094Y-184664404D01*
X310604968Y-184664227D01*
X310588110Y-184677430D01*
X310544196Y-184718238D01*
X310477379Y-184782613D01*
X310391811Y-184866514D01*
X310291644Y-184965903D01*
X310184708Y-185073038D01*
X309771487Y-185488888D01*
X309756569Y-185742086D01*
X309741652Y-185995283D01*
X309698338Y-185995283D01*
X309699033Y-185186698D01*
X309699968Y-184100000D01*
X309744444Y-184100000D01*
X309744444Y-184772013D01*
X309744444Y-185444027D01*
X310189453Y-184999791D01*
X310327104Y-184863038D01*
X310436721Y-184756249D01*
X310521229Y-184677499D01*
X310583552Y-184624864D01*
X310626614Y-184596417D01*
X310653340Y-184590235D01*
X310666654Y-184604391D01*
X310669479Y-184636961D01*
X310664741Y-184686019D01*
X310664612Y-184686981D01*
X310651697Y-184791727D01*
X310640110Y-184900787D01*
X310630638Y-185004633D01*
X310624066Y-185093734D01*
X310621179Y-185158561D01*
X310622763Y-185189584D01*
X310623120Y-185190342D01*
X310610531Y-185209579D01*
X310569747Y-185255402D01*
X310504735Y-185323725D01*
X310419464Y-185410460D01*
X310317901Y-185511523D01*
X310204016Y-185622825D01*
X310189369Y-185637006D01*
X309745109Y-186066666D01*
X309750332Y-186305494D01*
X309753582Y-186412719D01*
X309758566Y-186482848D01*
X309766547Y-186523224D01*
X309778789Y-186541192D01*
X309791423Y-186544382D01*
X309817410Y-186529294D01*
X309835007Y-186479574D01*
X309841423Y-186441342D01*
X309850216Y-186363633D01*
X309855160Y-186293627D01*
X309855555Y-186276200D01*
X309861570Y-186245788D01*
X309882505Y-186208231D01*
X309922694Y-186158286D01*
X309986472Y-186090711D01*
X310078174Y-186000264D01*
X310105555Y-185973863D01*
X310213828Y-185869503D01*
X310340422Y-185747028D01*
X310471924Y-185619438D01*
X310594922Y-185499736D01*
X310634383Y-185461228D01*
X310746679Y-185352877D01*
X310831727Y-185274368D01*
X310892857Y-185223288D01*
X310933402Y-185197227D01*
X310956693Y-185193773D01*
X310966060Y-185210517D01*
X310966666Y-185220749D01*
X310960837Y-185272886D01*
X310945161Y-185353314D01*
X310922357Y-185451847D01*
X310895145Y-185558296D01*
X310866243Y-185662474D01*
X310838371Y-185754192D01*
X310814246Y-185823264D01*
X310796589Y-185859502D01*
X310796016Y-185860168D01*
X310767668Y-185888085D01*
X310711653Y-185940343D01*
X310633581Y-186011815D01*
X310539058Y-186097379D01*
X310433693Y-186191908D01*
X310403095Y-186219211D01*
X310050636Y-186533333D01*
X310130248Y-186540193D01*
X310157676Y-186540557D01*
X310186197Y-186534532D01*
X310220663Y-186518810D01*
X310265925Y-186490081D01*
X310326835Y-186445037D01*
X310408243Y-186380367D01*
X310515002Y-186292764D01*
X310616041Y-186208842D01*
X310732553Y-186111792D01*
X310839378Y-186022744D01*
X310931201Y-185946134D01*
X311002706Y-185886399D01*
X311048577Y-185847976D01*
X311061636Y-185836952D01*
X311098107Y-185812872D01*
X311116448Y-185819488D01*
X311116347Y-185858619D01*
X311097491Y-185932082D01*
X311059568Y-186041693D01*
X311002266Y-186189270D01*
X311000187Y-186194444D01*
X310859467Y-186544444D01*
X311063066Y-186543927D01*
X311266666Y-186543410D01*
X311579612Y-186316149D01*
X311698208Y-186232717D01*
X311820393Y-186151413D01*
X311935239Y-186079201D01*
X312031818Y-186023045D01*
X312074056Y-186001106D01*
X312255555Y-185913323D01*
X312255555Y-185757772D01*
X312253233Y-185684792D01*
X312247108Y-185636540D01*
X312238443Y-185622307D01*
X312237287Y-185623333D01*
X312214011Y-185652132D01*
X312174527Y-185702619D01*
X312147544Y-185737609D01*
X312113087Y-185775045D01*
X312059961Y-185820270D01*
X311984232Y-185876032D01*
X311881961Y-185945081D01*
X311749211Y-186030166D01*
X311582046Y-186134037D01*
X311564043Y-186145098D01*
X311428746Y-186227523D01*
X311306050Y-186301062D01*
X311200948Y-186362822D01*
X311118431Y-186409907D01*
X311063489Y-186439424D01*
X311041114Y-186448479D01*
X311040975Y-186448382D01*
X311042883Y-186424355D01*
X311055202Y-186364925D01*
X311060591Y-186342469D01*
X311119212Y-186342469D01*
X311128792Y-186351594D01*
X311131392Y-186350269D01*
X311157695Y-186334235D01*
X311216213Y-186298359D01*
X311301313Y-186246099D01*
X311407365Y-186180915D01*
X311528736Y-186106267D01*
X311611151Y-186055555D01*
X312062501Y-185777777D01*
X312200234Y-185566666D01*
X312285593Y-185432431D01*
X312353850Y-185318056D01*
X312402504Y-185228052D01*
X312429051Y-185166931D01*
X312433333Y-185146526D01*
X312414352Y-185140600D01*
X312361675Y-185151738D01*
X312281704Y-185177831D01*
X312180838Y-185216768D01*
X312065478Y-185266440D01*
X312054636Y-185271350D01*
X311996145Y-185301524D01*
X311914017Y-185348687D01*
X311815482Y-185408179D01*
X311707768Y-185475344D01*
X311598105Y-185545522D01*
X311493722Y-185614057D01*
X311401849Y-185676289D01*
X311329715Y-185727561D01*
X311284550Y-185763215D01*
X311273867Y-185774413D01*
X311260729Y-185806900D01*
X311241740Y-185868244D01*
X311224456Y-185931982D01*
X311198854Y-186029001D01*
X311168313Y-186140212D01*
X311146524Y-186216936D01*
X311124994Y-186298713D01*
X311119212Y-186342469D01*
X311060591Y-186342469D01*
X311076194Y-186277444D01*
X311104122Y-186169262D01*
X311126816Y-186085337D01*
X311223698Y-185733333D01*
X311572715Y-185500000D01*
X311695218Y-185420349D01*
X311817549Y-185344798D01*
X311930216Y-185278926D01*
X312023728Y-185228313D01*
X312079571Y-185202062D01*
X312156262Y-185168046D01*
X312215248Y-185136958D01*
X312245584Y-185114675D01*
X312247158Y-185112052D01*
X312250328Y-185081376D01*
X312252114Y-185015381D01*
X312252415Y-184923177D01*
X312251130Y-184813870D01*
X312250675Y-184790793D01*
X312244444Y-184494939D01*
X312160133Y-184691914D01*
X312112825Y-184800646D01*
X312070808Y-184888989D01*
X312028728Y-184962794D01*
X311981229Y-185027908D01*
X311922957Y-185090182D01*
X311848555Y-185155465D01*
X311752670Y-185229606D01*
X311629946Y-185318455D01*
X311506964Y-185405379D01*
X311353659Y-185513242D01*
X311232668Y-185598041D01*
X311140015Y-185662374D01*
X311071726Y-185708837D01*
X311023826Y-185740028D01*
X310992340Y-185758543D01*
X310973292Y-185766979D01*
X310962708Y-185767933D01*
X310957163Y-185764571D01*
X310956661Y-185739744D01*
X310963056Y-185679230D01*
X310964653Y-185667720D01*
X311014755Y-185667720D01*
X311025385Y-185675197D01*
X311048777Y-185660522D01*
X311103228Y-185623870D01*
X311183469Y-185568867D01*
X311284229Y-185499140D01*
X311400239Y-185418315D01*
X311485034Y-185358944D01*
X311625322Y-185260488D01*
X311735003Y-185181969D01*
X311819540Y-185117359D01*
X311884399Y-185060631D01*
X311935044Y-185005756D01*
X311976938Y-184946708D01*
X312015548Y-184877459D01*
X312056336Y-184791981D01*
X312104767Y-184684246D01*
X312112638Y-184666666D01*
X312180829Y-184509633D01*
X312227511Y-184390760D01*
X312252887Y-184309428D01*
X312257159Y-184265017D01*
X312247175Y-184255555D01*
X312206988Y-184269527D01*
X312136881Y-184309611D01*
X312040734Y-184373055D01*
X311922425Y-184457112D01*
X311785833Y-184559030D01*
X311634837Y-184676059D01*
X311485806Y-184795300D01*
X311108341Y-185101711D01*
X311070301Y-185339744D01*
X311053288Y-185443102D01*
X311037314Y-185534693D01*
X311024484Y-185602736D01*
X311018316Y-185630752D01*
X311014755Y-185667720D01*
X310964653Y-185667720D01*
X310975291Y-185591070D01*
X310992309Y-185483303D01*
X311000597Y-185434311D01*
X311020103Y-185320036D01*
X311036561Y-185221423D01*
X311048623Y-185146729D01*
X311054939Y-185104208D01*
X311055555Y-185098016D01*
X311072205Y-185078370D01*
X311118551Y-185035840D01*
X311189187Y-184974801D01*
X311278706Y-184899630D01*
X311381704Y-184814703D01*
X311492775Y-184724397D01*
X311606511Y-184633087D01*
X311717508Y-184545149D01*
X311820360Y-184464961D01*
X311909660Y-184396899D01*
X311980002Y-184345338D01*
X312014134Y-184322010D01*
X312089668Y-184275836D01*
X312157101Y-184239213D01*
X312202593Y-184219622D01*
X312204561Y-184219091D01*
X312243529Y-184196508D01*
X312255497Y-184147596D01*
X312255555Y-184142035D01*
X312255555Y-184077777D01*
X312013222Y-184077777D01*
X311770889Y-184077777D01*
X311711583Y-184178976D01*
X311663774Y-184250717D01*
X311594974Y-184340673D01*
X311510021Y-184443700D01*
X311413750Y-184554659D01*
X311310998Y-184668406D01*
X311206602Y-184779802D01*
X311105397Y-184883703D01*
X311012220Y-184974969D01*
X310931907Y-185048458D01*
X310869295Y-185099029D01*
X310829220Y-185121539D01*
X310824320Y-185122222D01*
X310804992Y-185116055D01*
X310790488Y-185093901D01*
X310780029Y-185050283D01*
X310772833Y-184979723D01*
X310768119Y-184876741D01*
X310765106Y-184735861D01*
X310764654Y-184703746D01*
X310760860Y-184418017D01*
X310811111Y-184418017D01*
X310811304Y-184620120D01*
X310813013Y-184727809D01*
X310817380Y-184834387D01*
X310823558Y-184920792D01*
X310825447Y-184938354D01*
X310839397Y-185054487D01*
X310923956Y-184987515D01*
X310972678Y-184944790D01*
X311042095Y-184878561D01*
X311122796Y-184798021D01*
X311202096Y-184715827D01*
X311386043Y-184513915D01*
X311535799Y-184333523D01*
X311650472Y-184175786D01*
X311726531Y-184047112D01*
X311799378Y-183886529D01*
X311854720Y-183730593D01*
X311889306Y-183589859D01*
X311900000Y-183484168D01*
X311900000Y-183365010D01*
X311771838Y-183452043D01*
X311721816Y-183491838D01*
X311647233Y-183558890D01*
X311553675Y-183647798D01*
X311446728Y-183753161D01*
X311331976Y-183869578D01*
X311227394Y-183978546D01*
X310811111Y-184418017D01*
X310760860Y-184418017D01*
X310760425Y-184385270D01*
X310901792Y-184242635D01*
X311043160Y-184100000D01*
X310393802Y-184100000D01*
X309744444Y-184100000D01*
X309699968Y-184100000D01*
X309700000Y-184062285D01*
X310405555Y-184047052D01*
X311111111Y-184031818D01*
X311218298Y-183919393D01*
X311269652Y-183862406D01*
X311303934Y-183818232D01*
X311314219Y-183795860D01*
X311313852Y-183795334D01*
X311290243Y-183793640D01*
X311226325Y-183792681D01*
X311126231Y-183792401D01*
X310994090Y-183792746D01*
X310834033Y-183793659D01*
X310650188Y-183795086D01*
X310446688Y-183796972D01*
X310227661Y-183799261D01*
X309997238Y-183801898D01*
X309759550Y-183804829D01*
X309518726Y-183807997D01*
X309278896Y-183811347D01*
X309044191Y-183814825D01*
X308818741Y-183818376D01*
X308606676Y-183821943D01*
X308412127Y-183825472D01*
X308239222Y-183828907D01*
X308092094Y-183832194D01*
X307974871Y-183835277D01*
X307891684Y-183838101D01*
X307846664Y-183840611D01*
X307839713Y-183841767D01*
X307182546Y-183841767D01*
X307177777Y-183833086D01*
X306844444Y-183838765D01*
X306511111Y-183844444D01*
X306497601Y-184922222D01*
X306495274Y-185123480D01*
X306492842Y-185362808D01*
X306490351Y-185633832D01*
X306487851Y-185930177D01*
X306485389Y-186245471D01*
X306483013Y-186573337D01*
X306480773Y-186907404D01*
X306478715Y-187241295D01*
X306476889Y-187568637D01*
X306475519Y-187844444D01*
X306466946Y-189688888D01*
X306412993Y-189688888D01*
X306411374Y-189640553D01*
X306409830Y-189538527D01*
X306408957Y-189404489D01*
X306408766Y-189242582D01*
X306409265Y-189056946D01*
X306410465Y-188851726D01*
X306412374Y-188631063D01*
X306413656Y-188511111D01*
X306416275Y-188259539D01*
X306418841Y-187972434D01*
X306421297Y-187658705D01*
X306423589Y-187327263D01*
X306425660Y-186987018D01*
X306427454Y-186646881D01*
X306428917Y-186315762D01*
X306429991Y-186002571D01*
X306430413Y-185833333D01*
X306431173Y-185571805D01*
X306432319Y-185316335D01*
X306433805Y-185071562D01*
X306435585Y-184842129D01*
X306437612Y-184632677D01*
X306439840Y-184447846D01*
X306442222Y-184292279D01*
X306444714Y-184170616D01*
X306447267Y-184087499D01*
X306447963Y-184072222D01*
X306462414Y-183788888D01*
X306805806Y-183788888D01*
X306936084Y-183788552D01*
X307028045Y-183787058D01*
X307087817Y-183783679D01*
X307121524Y-183777688D01*
X307135295Y-183768358D01*
X307135254Y-183754962D01*
X307133448Y-183750000D01*
X307071267Y-183588439D01*
X307030672Y-183463529D01*
X307011217Y-183373318D01*
X307012455Y-183315859D01*
X307028528Y-183291858D01*
X307054990Y-183297085D01*
G37*
%TD*%
D11*
%TO.C,S45*%
X271145000Y-149225000D03*
D12*
X276225000Y-149225000D03*
D11*
X281305000Y-149225000D03*
D13*
X272415000Y-146685000D03*
X278765000Y-144145000D03*
%TD*%
D11*
%TO.C,S53*%
X185420000Y-168275000D03*
D12*
X190500000Y-168275000D03*
D11*
X195580000Y-168275000D03*
D13*
X186690000Y-165735000D03*
X193040000Y-163195000D03*
%TD*%
D11*
%TO.C,S10*%
X218757500Y-111125000D03*
D12*
X223837500Y-111125000D03*
D11*
X228917500Y-111125000D03*
D13*
X220027500Y-108585000D03*
X226377500Y-106045000D03*
%TD*%
D11*
%TO.C,S9*%
X199707500Y-111125000D03*
D12*
X204787500Y-111125000D03*
D11*
X209867500Y-111125000D03*
D13*
X200977500Y-108585000D03*
X207327500Y-106045000D03*
%TD*%
D11*
%TO.C,S18*%
X42545000Y-134937500D03*
D12*
X47625000Y-134937500D03*
D11*
X52705000Y-134937500D03*
D13*
X43815000Y-132397500D03*
X50165000Y-129857500D03*
%TD*%
D11*
%TO.C,S16*%
X333057500Y-111125000D03*
D12*
X338137500Y-111125000D03*
D11*
X343217500Y-111125000D03*
D13*
X334327500Y-108585000D03*
X340677500Y-106045000D03*
%TD*%
D11*
%TO.C,S35*%
X73501250Y-149225000D03*
D12*
X78581250Y-149225000D03*
D11*
X83661250Y-149225000D03*
D13*
X74771250Y-146685000D03*
X81121250Y-144145000D03*
%TD*%
D11*
%TO.C,S61*%
X68738750Y-187325000D03*
D12*
X73818750Y-187325000D03*
D11*
X78898750Y-187325000D03*
D13*
X70008750Y-184785000D03*
X76358750Y-182245000D03*
%TD*%
D11*
%TO.C,S65*%
X218757500Y-187325000D03*
D14*
X220027500Y-184785000D03*
D12*
X223837500Y-187325000D03*
D14*
X226377500Y-182245000D03*
D11*
X228917500Y-187325000D03*
%TD*%
%TO.C,S3*%
X85407500Y-111125000D03*
D12*
X90487500Y-111125000D03*
D11*
X95567500Y-111125000D03*
D13*
X86677500Y-108585000D03*
X93027500Y-106045000D03*
%TD*%
D11*
%TO.C,S64*%
X161607500Y-187325000D03*
D14*
X162877500Y-184785000D03*
D12*
X166687500Y-187325000D03*
D14*
X169227500Y-182245000D03*
D11*
X171767500Y-187325000D03*
%TD*%
%TO.C,S49*%
X109220000Y-168275000D03*
D12*
X114300000Y-168275000D03*
D11*
X119380000Y-168275000D03*
D13*
X110490000Y-165735000D03*
X116840000Y-163195000D03*
%TD*%
D11*
%TO.C,S50*%
X128270000Y-168275000D03*
D12*
X133350000Y-168275000D03*
D11*
X138430000Y-168275000D03*
D13*
X129540000Y-165735000D03*
X135890000Y-163195000D03*
%TD*%
D11*
%TO.C,S1*%
X42545000Y-111125000D03*
D12*
X47625000Y-111125000D03*
D11*
X52705000Y-111125000D03*
D13*
X43815000Y-108585000D03*
X50165000Y-106045000D03*
%TD*%
D11*
%TO.C,S33*%
X356870000Y-130175000D03*
D12*
X361950000Y-130175000D03*
D11*
X367030000Y-130175000D03*
D13*
X358140000Y-127635000D03*
X364490000Y-125095000D03*
%TD*%
D11*
%TO.C,S55*%
X223520000Y-168275000D03*
D12*
X228600000Y-168275000D03*
D11*
X233680000Y-168275000D03*
D13*
X224790000Y-165735000D03*
X231140000Y-163195000D03*
%TD*%
D11*
%TO.C,S60*%
X337820000Y-168275000D03*
D12*
X342900000Y-168275000D03*
D11*
X347980000Y-168275000D03*
D13*
X339090000Y-165735000D03*
X345440000Y-163195000D03*
%TD*%
D11*
%TO.C,S41*%
X194945000Y-149225000D03*
D12*
X200025000Y-149225000D03*
D11*
X205105000Y-149225000D03*
D13*
X196215000Y-146685000D03*
X202565000Y-144145000D03*
%TD*%
D11*
%TO.C,S5*%
X123507500Y-111125000D03*
D12*
X128587500Y-111125000D03*
D11*
X133667500Y-111125000D03*
D13*
X124777500Y-108585000D03*
X131127500Y-106045000D03*
%TD*%
D11*
%TO.C,S47*%
X321151250Y-149225000D03*
D14*
X322421250Y-146685000D03*
D12*
X326231250Y-149225000D03*
D14*
X328771250Y-144145000D03*
D11*
X331311250Y-149225000D03*
%TD*%
%TO.C,S57*%
X261620000Y-168275000D03*
D12*
X266700000Y-168275000D03*
D11*
X271780000Y-168275000D03*
D13*
X262890000Y-165735000D03*
X269240000Y-163195000D03*
%TD*%
D11*
%TO.C,S26*%
X209232500Y-130175000D03*
D12*
X214312500Y-130175000D03*
D11*
X219392500Y-130175000D03*
D13*
X210502500Y-127635000D03*
X216852500Y-125095000D03*
%TD*%
D11*
%TO.C,S43*%
X233045000Y-149225000D03*
D12*
X238125000Y-149225000D03*
D11*
X243205000Y-149225000D03*
D13*
X234315000Y-146685000D03*
X240665000Y-144145000D03*
%TD*%
D11*
%TO.C,S51*%
X147320000Y-168275000D03*
D12*
X152400000Y-168275000D03*
D11*
X157480000Y-168275000D03*
D13*
X148590000Y-165735000D03*
X154940000Y-163195000D03*
%TD*%
D11*
%TO.C,S59*%
X309245000Y-168275000D03*
D14*
X310515000Y-165735000D03*
D12*
X314325000Y-168275000D03*
D14*
X316865000Y-163195000D03*
D11*
X319405000Y-168275000D03*
%TD*%
%TO.C,S4*%
X104457500Y-111125000D03*
D12*
X109537500Y-111125000D03*
D11*
X114617500Y-111125000D03*
D13*
X105727500Y-108585000D03*
X112077500Y-106045000D03*
%TD*%
D11*
%TO.C,S63*%
X118745000Y-187325000D03*
D12*
X123825000Y-187325000D03*
D11*
X128905000Y-187325000D03*
D13*
X120015000Y-184785000D03*
X126365000Y-182245000D03*
%TD*%
D11*
%TO.C,S27*%
X228282500Y-130175000D03*
D12*
X233362500Y-130175000D03*
D11*
X238442500Y-130175000D03*
D13*
X229552500Y-127635000D03*
X235902500Y-125095000D03*
%TD*%
D11*
%TO.C,S58*%
X280670000Y-168275000D03*
D12*
X285750000Y-168275000D03*
D11*
X290830000Y-168275000D03*
D13*
X281940000Y-165735000D03*
X288290000Y-163195000D03*
%TD*%
D11*
%TO.C,S7*%
X161607500Y-111125000D03*
D12*
X166687500Y-111125000D03*
D11*
X171767500Y-111125000D03*
D13*
X162877500Y-108585000D03*
X169227500Y-106045000D03*
%TD*%
D11*
%TO.C,S62*%
X92551250Y-187325000D03*
D12*
X97631250Y-187325000D03*
D11*
X102711250Y-187325000D03*
D13*
X93821250Y-184785000D03*
X100171250Y-182245000D03*
%TD*%
D11*
%TO.C,S14*%
X294957500Y-111125000D03*
D12*
X300037500Y-111125000D03*
D11*
X305117500Y-111125000D03*
D13*
X296227500Y-108585000D03*
X302577500Y-106045000D03*
%TD*%
D11*
%TO.C,S39*%
X156845000Y-149225000D03*
D12*
X161925000Y-149225000D03*
D11*
X167005000Y-149225000D03*
D13*
X158115000Y-146685000D03*
X164465000Y-144145000D03*
%TD*%
D11*
%TO.C,S24*%
X171132500Y-130175000D03*
D12*
X176212500Y-130175000D03*
D11*
X181292500Y-130175000D03*
D13*
X172402500Y-127635000D03*
X178752500Y-125095000D03*
%TD*%
D11*
%TO.C,S54*%
X204470000Y-168275000D03*
D12*
X209550000Y-168275000D03*
D11*
X214630000Y-168275000D03*
D13*
X205740000Y-165735000D03*
X212090000Y-163195000D03*
%TD*%
D11*
%TO.C,S68*%
X318770000Y-187325000D03*
D12*
X323850000Y-187325000D03*
D11*
X328930000Y-187325000D03*
D13*
X320040000Y-184785000D03*
X326390000Y-182245000D03*
%TD*%
D11*
%TO.C,S29*%
X266382500Y-130175000D03*
D12*
X271462500Y-130175000D03*
D11*
X276542500Y-130175000D03*
D13*
X267652500Y-127635000D03*
X274002500Y-125095000D03*
%TD*%
D11*
%TO.C,S25*%
X190182500Y-130175000D03*
D12*
X195262500Y-130175000D03*
D11*
X200342500Y-130175000D03*
D13*
X191452500Y-127635000D03*
X197802500Y-125095000D03*
%TD*%
D11*
%TO.C,S36*%
X99695000Y-149225000D03*
D12*
X104775000Y-149225000D03*
D11*
X109855000Y-149225000D03*
D13*
X100965000Y-146685000D03*
X107315000Y-144145000D03*
%TD*%
D11*
%TO.C,S22*%
X133032500Y-130175000D03*
D12*
X138112500Y-130175000D03*
D11*
X143192500Y-130175000D03*
D13*
X134302500Y-127635000D03*
X140652500Y-125095000D03*
%TD*%
D11*
%TO.C,S67*%
X287813750Y-187325000D03*
D12*
X292893750Y-187325000D03*
D11*
X297973750Y-187325000D03*
D13*
X289083750Y-184785000D03*
X295433750Y-182245000D03*
%TD*%
D11*
%TO.C,S34*%
X42545000Y-153987500D03*
D12*
X47625000Y-153987500D03*
D11*
X52705000Y-153987500D03*
D13*
X43815000Y-151447500D03*
X50165000Y-148907500D03*
%TD*%
D11*
%TO.C,S70*%
X356870000Y-187325000D03*
D12*
X361950000Y-187325000D03*
D11*
X367030000Y-187325000D03*
D13*
X358140000Y-184785000D03*
X364490000Y-182245000D03*
%TD*%
D11*
%TO.C,S28*%
X247332500Y-130175000D03*
D12*
X252412500Y-130175000D03*
D11*
X257492500Y-130175000D03*
D13*
X248602500Y-127635000D03*
X254952500Y-125095000D03*
%TD*%
D11*
%TO.C,S30*%
X285432500Y-130175000D03*
D12*
X290512500Y-130175000D03*
D11*
X295592500Y-130175000D03*
D13*
X286702500Y-127635000D03*
X293052500Y-125095000D03*
%TD*%
D11*
%TO.C,S13*%
X275907500Y-111125000D03*
D12*
X280987500Y-111125000D03*
D11*
X286067500Y-111125000D03*
D13*
X277177500Y-108585000D03*
X283527500Y-106045000D03*
%TD*%
D11*
%TO.C,S23*%
X152082500Y-130175000D03*
D12*
X157162500Y-130175000D03*
D11*
X162242500Y-130175000D03*
D13*
X153352500Y-127635000D03*
X159702500Y-125095000D03*
%TD*%
D11*
%TO.C,S56*%
X242570000Y-168275000D03*
D12*
X247650000Y-168275000D03*
D11*
X252730000Y-168275000D03*
D13*
X243840000Y-165735000D03*
X250190000Y-163195000D03*
%TD*%
D11*
%TO.C,S17*%
X356870000Y-111125000D03*
D12*
X361950000Y-111125000D03*
D11*
X367030000Y-111125000D03*
D13*
X358140000Y-108585000D03*
X364490000Y-106045000D03*
%TD*%
D11*
%TO.C,S31*%
X304482500Y-130175000D03*
D12*
X309562500Y-130175000D03*
D11*
X314642500Y-130175000D03*
D13*
X305752500Y-127635000D03*
X312102500Y-125095000D03*
%TD*%
D11*
%TO.C,S52*%
X166370000Y-168275000D03*
D12*
X171450000Y-168275000D03*
D11*
X176530000Y-168275000D03*
D13*
X167640000Y-165735000D03*
X173990000Y-163195000D03*
%TD*%
D15*
%TO.C,RESW1*%
X368975000Y-166250000D03*
D16*
X373975000Y-166250000D03*
X371475000Y-166250000D03*
D17*
X365875000Y-158750000D03*
X377075000Y-158750000D03*
D16*
X373975000Y-151750000D03*
X368975000Y-151750000D03*
%TD*%
D11*
%TO.C,S46*%
X290195000Y-149225000D03*
D12*
X295275000Y-149225000D03*
D11*
X300355000Y-149225000D03*
D13*
X291465000Y-146685000D03*
X297815000Y-144145000D03*
%TD*%
D11*
%TO.C,S11*%
X237807500Y-111125000D03*
D12*
X242887500Y-111125000D03*
D11*
X247967500Y-111125000D03*
D13*
X239077500Y-108585000D03*
X245427500Y-106045000D03*
%TD*%
D11*
%TO.C,S12*%
X256857500Y-111125000D03*
D12*
X261937500Y-111125000D03*
D11*
X267017500Y-111125000D03*
D13*
X258127500Y-108585000D03*
X264477500Y-106045000D03*
%TD*%
D11*
%TO.C,S48*%
X78263750Y-168275000D03*
D14*
X79533750Y-165735000D03*
D12*
X83343750Y-168275000D03*
D14*
X85883750Y-163195000D03*
D11*
X88423750Y-168275000D03*
%TD*%
%TO.C,S42*%
X213995000Y-149225000D03*
D12*
X219075000Y-149225000D03*
D11*
X224155000Y-149225000D03*
D13*
X215265000Y-146685000D03*
X221615000Y-144145000D03*
%TD*%
D11*
%TO.C,S66*%
X261620000Y-187325000D03*
D12*
X266700000Y-187325000D03*
D11*
X271780000Y-187325000D03*
D13*
X262890000Y-184785000D03*
X269240000Y-182245000D03*
%TD*%
D11*
%TO.C,S69*%
X337820000Y-187325000D03*
D12*
X342900000Y-187325000D03*
D11*
X347980000Y-187325000D03*
D13*
X339090000Y-184785000D03*
X345440000Y-182245000D03*
%TD*%
D11*
%TO.C,S40*%
X175895000Y-149225000D03*
D12*
X180975000Y-149225000D03*
D11*
X186055000Y-149225000D03*
D13*
X177165000Y-146685000D03*
X183515000Y-144145000D03*
%TD*%
D11*
%TO.C,S19*%
X71120000Y-130175000D03*
D12*
X76200000Y-130175000D03*
D11*
X81280000Y-130175000D03*
D13*
X72390000Y-127635000D03*
X78740000Y-125095000D03*
%TD*%
D11*
%TO.C,S6*%
X142557500Y-111125000D03*
D12*
X147637500Y-111125000D03*
D11*
X152717500Y-111125000D03*
D13*
X143827500Y-108585000D03*
X150177500Y-106045000D03*
%TD*%
D11*
%TO.C,S21*%
X113982500Y-130175000D03*
D12*
X119062500Y-130175000D03*
D11*
X124142500Y-130175000D03*
D13*
X115252500Y-127635000D03*
X121602500Y-125095000D03*
%TD*%
D11*
%TO.C,S15*%
X314007500Y-111125000D03*
D12*
X319087500Y-111125000D03*
D11*
X324167500Y-111125000D03*
D13*
X315277500Y-108585000D03*
X321627500Y-106045000D03*
%TD*%
D11*
%TO.C,S20*%
X94932500Y-130175000D03*
D12*
X100012500Y-130175000D03*
D11*
X105092500Y-130175000D03*
D13*
X96202500Y-127635000D03*
X102552500Y-125095000D03*
%TD*%
D11*
%TO.C,S37*%
X118745000Y-149225000D03*
D12*
X123825000Y-149225000D03*
D11*
X128905000Y-149225000D03*
D13*
X120015000Y-146685000D03*
X126365000Y-144145000D03*
%TD*%
D11*
%TO.C,S32*%
X328295000Y-130175000D03*
D12*
X333375000Y-130175000D03*
D11*
X338455000Y-130175000D03*
D13*
X329565000Y-127635000D03*
X335915000Y-125095000D03*
%TD*%
D11*
%TO.C,S8*%
X180657500Y-111125000D03*
D12*
X185737500Y-111125000D03*
D11*
X190817500Y-111125000D03*
D13*
X181927500Y-108585000D03*
X188277500Y-106045000D03*
%TD*%
D11*
%TO.C,S38*%
X137795000Y-149225000D03*
D12*
X142875000Y-149225000D03*
D11*
X147955000Y-149225000D03*
D13*
X139065000Y-146685000D03*
X145415000Y-144145000D03*
%TD*%
D11*
%TO.C,S44*%
X252095000Y-149225000D03*
D12*
X257175000Y-149225000D03*
D11*
X262255000Y-149225000D03*
D13*
X253365000Y-146685000D03*
X259715000Y-144145000D03*
%TD*%
D11*
%TO.C,S2*%
X66357500Y-111125000D03*
D12*
X71437500Y-111125000D03*
D11*
X76517500Y-111125000D03*
D13*
X67627500Y-108585000D03*
X73977500Y-106045000D03*
%TD*%
D18*
%TO.C,USB1*%
X347160000Y-102055000D03*
X352940000Y-102055000D03*
D19*
X345730000Y-98405000D03*
D20*
X345730000Y-102585000D03*
D19*
X354370000Y-98405000D03*
D20*
X354370000Y-102585000D03*
%TD*%
M02*
