%TF.GenerationSoftware,KiCad,Pcbnew,9.0.2*%
%TF.CreationDate,2025-08-01T12:08:27+09:00*%
%TF.ProjectId,CL70_PCB,434c3730-5f50-4434-922e-6b696361645f,rev?*%
%TF.SameCoordinates,Original*%
%TF.FileFunction,Paste,Bot*%
%TF.FilePolarity,Positive*%
%FSLAX46Y46*%
G04 Gerber Fmt 4.6, Leading zero omitted, Abs format (unit mm)*
G04 Created by KiCad (PCBNEW 9.0.2) date 2025-08-01 12:08:27*
%MOMM*%
%LPD*%
G01*
G04 APERTURE LIST*
G04 Aperture macros list*
%AMRoundRect*
0 Rectangle with rounded corners*
0 $1 Rounding radius*
0 $2 $3 $4 $5 $6 $7 $8 $9 X,Y pos of 4 corners*
0 Add a 4 corners polygon primitive as box body*
4,1,4,$2,$3,$4,$5,$6,$7,$8,$9,$2,$3,0*
0 Add four circle primitives for the rounded corners*
1,1,$1+$1,$2,$3*
1,1,$1+$1,$4,$5*
1,1,$1+$1,$6,$7*
1,1,$1+$1,$8,$9*
0 Add four rect primitives between the rounded corners*
20,1,$1+$1,$2,$3,$4,$5,0*
20,1,$1+$1,$4,$5,$6,$7,0*
20,1,$1+$1,$6,$7,$8,$9,0*
20,1,$1+$1,$8,$9,$2,$3,0*%
G04 Aperture macros list end*
%ADD10RoundRect,0.250000X-1.025000X-1.000000X1.025000X-1.000000X1.025000X1.000000X-1.025000X1.000000X0*%
%ADD11R,1.000000X0.750000*%
%ADD12R,1.800000X1.000000*%
%ADD13RoundRect,0.225000X0.375000X-0.225000X0.375000X0.225000X-0.375000X0.225000X-0.375000X-0.225000X0*%
%ADD14R,0.750000X1.000000*%
%ADD15R,0.900000X0.800000*%
%ADD16R,1.000000X1.200000*%
%ADD17R,1.000000X0.900000*%
%ADD18R,1.800000X1.100000*%
%ADD19R,0.800000X0.900000*%
%ADD20RoundRect,0.250000X0.350000X-0.450000X0.350000X0.450000X-0.350000X0.450000X-0.350000X-0.450000X0*%
%ADD21R,0.600000X1.450000*%
%ADD22R,0.300000X1.450000*%
%ADD23C,5.000000*%
%ADD24O,0.250000X1.000000*%
%ADD25O,1.000000X0.250000*%
%ADD26RoundRect,0.250000X0.625000X-0.375000X0.625000X0.375000X-0.625000X0.375000X-0.625000X-0.375000X0*%
G04 APERTURE END LIST*
D10*
%TO.C,S65*%
X216752500Y-184785000D03*
X229679500Y-182245000D03*
%TD*%
%TO.C,S64*%
X159602500Y-184785000D03*
X172529500Y-182245000D03*
%TD*%
%TO.C,S47*%
X319146250Y-146685000D03*
X332073250Y-144145000D03*
%TD*%
%TO.C,S59*%
X307240000Y-165735000D03*
X320167000Y-163195000D03*
%TD*%
%TO.C,S48*%
X76258750Y-165735000D03*
X89185750Y-163195000D03*
%TD*%
D11*
%TO.C,C6*%
X353200000Y-153250000D03*
X351500000Y-153250000D03*
%TD*%
D12*
%TO.C,RGB7*%
X94812500Y-121443750D03*
X94812500Y-118243750D03*
X100012500Y-118243750D03*
X100012500Y-121443750D03*
%TD*%
D13*
%TO.C,D8*%
X193675000Y-112043750D03*
X193675000Y-108743750D03*
%TD*%
D12*
%TO.C,RGB16*%
X357187500Y-175337500D03*
X357187500Y-178537500D03*
X351987500Y-178537500D03*
X351987500Y-175337500D03*
%TD*%
%TO.C,RGB14*%
X273843750Y-175418750D03*
X273843750Y-178618750D03*
X268643750Y-178618750D03*
X268643750Y-175418750D03*
%TD*%
D14*
%TO.C,CRGB14*%
X277018750Y-176100000D03*
X277018750Y-177800000D03*
%TD*%
D13*
%TO.C,D58*%
X293687500Y-169068750D03*
X293687500Y-165768750D03*
%TD*%
%TO.C,D49*%
X122237500Y-169068750D03*
X122237500Y-165768750D03*
%TD*%
%TO.C,D60*%
X346868750Y-173831250D03*
X346868750Y-170531250D03*
%TD*%
D11*
%TO.C,C1*%
X350500000Y-138906250D03*
X348800000Y-138906250D03*
%TD*%
D13*
%TO.C,D55*%
X236537500Y-169068750D03*
X236537500Y-165768750D03*
%TD*%
%TO.C,D71*%
X365750000Y-155050000D03*
X365750000Y-151750000D03*
%TD*%
D12*
%TO.C,RGB6*%
X136087500Y-121443750D03*
X136087500Y-118243750D03*
X141287500Y-118243750D03*
X141287500Y-121443750D03*
%TD*%
D13*
%TO.C,D57*%
X274637500Y-169068750D03*
X274637500Y-165768750D03*
%TD*%
%TO.C,D14*%
X307975000Y-111981250D03*
X307975000Y-108681250D03*
%TD*%
%TO.C,D7*%
X174625000Y-112043750D03*
X174625000Y-108743750D03*
%TD*%
D11*
%TO.C,C9*%
X364800000Y-169900000D03*
X366500000Y-169900000D03*
%TD*%
D12*
%TO.C,RGB8*%
X52750000Y-121450000D03*
X52750000Y-118250000D03*
X57950000Y-118250000D03*
X57950000Y-121450000D03*
%TD*%
D13*
%TO.C,D47*%
X330200000Y-154781250D03*
X330200000Y-151481250D03*
%TD*%
%TO.C,D4*%
X117475000Y-112043750D03*
X117475000Y-108743750D03*
%TD*%
D14*
%TO.C,CRGB15*%
X317500000Y-176100000D03*
X317500000Y-177800000D03*
%TD*%
D15*
%TO.C,RC1*%
X346075000Y-136525000D03*
X346075000Y-134725000D03*
%TD*%
D14*
%TO.C,CRGB2*%
X317500000Y-120762500D03*
X317500000Y-119062500D03*
%TD*%
D13*
%TO.C,D27*%
X241300000Y-130968750D03*
X241300000Y-127668750D03*
%TD*%
%TO.C,D26*%
X222250000Y-130968750D03*
X222250000Y-127668750D03*
%TD*%
D15*
%TO.C,RC2*%
X348000000Y-134750000D03*
X348000000Y-136550000D03*
%TD*%
D13*
%TO.C,D20*%
X107950000Y-130968750D03*
X107950000Y-127668750D03*
%TD*%
D16*
%TO.C,U2*%
X350756250Y-107837500D03*
D17*
X350756250Y-109537500D03*
X348456250Y-109537500D03*
X348456250Y-107637500D03*
%TD*%
D11*
%TO.C,C8*%
X366500000Y-171500000D03*
X364800000Y-171500000D03*
%TD*%
D14*
%TO.C,CRGB9*%
X61250000Y-176100000D03*
X61250000Y-177800000D03*
%TD*%
%TO.C,CRGB11*%
X144750000Y-176550000D03*
X144750000Y-178250000D03*
%TD*%
D13*
%TO.C,D65*%
X232568750Y-189037500D03*
X232568750Y-185737500D03*
%TD*%
%TO.C,D5*%
X136525000Y-112043750D03*
X136525000Y-108743750D03*
%TD*%
D14*
%TO.C,CRGB16*%
X360362500Y-176100000D03*
X360362500Y-177800000D03*
%TD*%
D13*
%TO.C,D37*%
X131762500Y-150018750D03*
X131762500Y-146718750D03*
%TD*%
%TO.C,D51*%
X160337500Y-169193750D03*
X160337500Y-165893750D03*
%TD*%
D14*
%TO.C,C4*%
X345281250Y-138906250D03*
X345281250Y-140606250D03*
%TD*%
D13*
%TO.C,D6*%
X155575000Y-112043750D03*
X155575000Y-108743750D03*
%TD*%
%TO.C,D62*%
X105568750Y-188243750D03*
X105568750Y-184943750D03*
%TD*%
%TO.C,D18*%
X55562500Y-135856250D03*
X55562500Y-132556250D03*
%TD*%
D12*
%TO.C,RGB13*%
X230981250Y-174600000D03*
X230981250Y-177800000D03*
X225781250Y-177800000D03*
X225781250Y-174600000D03*
%TD*%
D11*
%TO.C,C3*%
X359800000Y-146843750D03*
X361500000Y-146843750D03*
%TD*%
D13*
%TO.C,D13*%
X288925000Y-111981250D03*
X288925000Y-108681250D03*
%TD*%
D14*
%TO.C,CRGB4*%
X234156250Y-120650000D03*
X234156250Y-118950000D03*
%TD*%
D18*
%TO.C,SW1*%
X365050000Y-138906250D03*
X358850000Y-142606250D03*
X365050000Y-142606250D03*
X358850000Y-138906250D03*
%TD*%
D13*
%TO.C,D50*%
X141287500Y-169193750D03*
X141287500Y-165893750D03*
%TD*%
%TO.C,D43*%
X246062500Y-150081250D03*
X246062500Y-146781250D03*
%TD*%
%TO.C,D59*%
X323056250Y-169987500D03*
X323056250Y-166687500D03*
%TD*%
D11*
%TO.C,C7*%
X356750000Y-142500000D03*
X355050000Y-142500000D03*
%TD*%
D13*
%TO.C,D41*%
X207962500Y-150081250D03*
X207962500Y-146781250D03*
%TD*%
D12*
%TO.C,RGB12*%
X183575000Y-174600000D03*
X183575000Y-177800000D03*
X178375000Y-177800000D03*
X178375000Y-174600000D03*
%TD*%
D13*
%TO.C,D39*%
X169862500Y-150018750D03*
X169862500Y-146718750D03*
%TD*%
D12*
%TO.C,RGB4*%
X225781250Y-121443750D03*
X225781250Y-118243750D03*
X230981250Y-118243750D03*
X230981250Y-121443750D03*
%TD*%
%TO.C,RGB2*%
X309125000Y-121443750D03*
X309125000Y-118243750D03*
X314325000Y-118243750D03*
X314325000Y-121443750D03*
%TD*%
D19*
%TO.C,RC8*%
X343000000Y-152750000D03*
X341200000Y-152750000D03*
%TD*%
D13*
%TO.C,D30*%
X298450000Y-131031250D03*
X298450000Y-127731250D03*
%TD*%
%TO.C,D54*%
X217487500Y-169068750D03*
X217487500Y-165768750D03*
%TD*%
%TO.C,D24*%
X184150000Y-130968750D03*
X184150000Y-127668750D03*
%TD*%
%TO.C,D36*%
X112712500Y-150018750D03*
X112712500Y-146718750D03*
%TD*%
D15*
%TO.C,RC7*%
X353137500Y-109425000D03*
X353137500Y-107625000D03*
%TD*%
D13*
%TO.C,D9*%
X212725000Y-112043750D03*
X212725000Y-108743750D03*
%TD*%
%TO.C,D38*%
X150812500Y-150081250D03*
X150812500Y-146781250D03*
%TD*%
%TO.C,D31*%
X317500000Y-130968750D03*
X317500000Y-127668750D03*
%TD*%
D12*
%TO.C,RGB1*%
X351987500Y-121468750D03*
X351987500Y-118268750D03*
X357187500Y-118268750D03*
X357187500Y-121468750D03*
%TD*%
D19*
%TO.C,RLED1*%
X61118750Y-182562500D03*
X59318750Y-182562500D03*
%TD*%
%TO.C,RLED2*%
X61118750Y-185737500D03*
X59318750Y-185737500D03*
%TD*%
D12*
%TO.C,RGB5*%
X178156250Y-121443750D03*
X178156250Y-118243750D03*
X183356250Y-118243750D03*
X183356250Y-121443750D03*
%TD*%
D11*
%TO.C,C2*%
X359843750Y-149225000D03*
X361543750Y-149225000D03*
%TD*%
D13*
%TO.C,D32*%
X337343750Y-135731250D03*
X337343750Y-132431250D03*
%TD*%
%TO.C,D21*%
X127000000Y-130968750D03*
X127000000Y-127668750D03*
%TD*%
%TO.C,D22*%
X146050000Y-130968750D03*
X146050000Y-127668750D03*
%TD*%
%TO.C,D40*%
X188912500Y-150018750D03*
X188912500Y-146718750D03*
%TD*%
D20*
%TO.C,Y1*%
X355193750Y-149043750D03*
X355193750Y-146843750D03*
X356893750Y-146843750D03*
X356893750Y-149043750D03*
%TD*%
D12*
%TO.C,RGB10*%
X100012500Y-175418750D03*
X100012500Y-178618750D03*
X94812500Y-178618750D03*
X94812500Y-175418750D03*
%TD*%
D13*
%TO.C,D53*%
X198437500Y-169193750D03*
X198437500Y-165893750D03*
%TD*%
D12*
%TO.C,RGB3*%
X268643750Y-121443750D03*
X268643750Y-118243750D03*
X273843750Y-118243750D03*
X273843750Y-121443750D03*
%TD*%
D13*
%TO.C,D34*%
X55562500Y-154843750D03*
X55562500Y-151543750D03*
%TD*%
%TO.C,D52*%
X179387500Y-169193750D03*
X179387500Y-165893750D03*
%TD*%
D19*
%TO.C,RC5*%
X364912500Y-168275000D03*
X366712500Y-168275000D03*
%TD*%
D21*
%TO.C,USB1*%
X346825000Y-103500000D03*
X347600000Y-103500000D03*
D22*
X348300000Y-103500000D03*
X348800000Y-103500000D03*
X349300000Y-103500000D03*
X349800000Y-103500000D03*
X350300000Y-103500000D03*
X350800000Y-103500000D03*
X351300000Y-103500000D03*
X351800000Y-103500000D03*
D21*
X352500000Y-103500000D03*
X353275000Y-103500000D03*
%TD*%
D13*
%TO.C,D15*%
X327025000Y-111918750D03*
X327025000Y-108618750D03*
%TD*%
D14*
%TO.C,CRGB6*%
X144750000Y-120750000D03*
X144750000Y-119050000D03*
%TD*%
D13*
%TO.C,D44*%
X265112500Y-150018750D03*
X265112500Y-146718750D03*
%TD*%
%TO.C,D19*%
X84137500Y-131031250D03*
X84137500Y-127731250D03*
%TD*%
D14*
%TO.C,CRGB5*%
X187000000Y-120750000D03*
X187000000Y-119050000D03*
%TD*%
D12*
%TO.C,RGB15*%
X314325000Y-175393750D03*
X314325000Y-178593750D03*
X309125000Y-178593750D03*
X309125000Y-175393750D03*
%TD*%
D13*
%TO.C,D12*%
X269875000Y-111981250D03*
X269875000Y-108681250D03*
%TD*%
%TO.C,D70*%
X365918750Y-192881250D03*
X365918750Y-189581250D03*
%TD*%
D14*
%TO.C,CRGB10*%
X103250000Y-176250000D03*
X103250000Y-177950000D03*
%TD*%
D13*
%TO.C,D64*%
X175418750Y-188912500D03*
X175418750Y-185612500D03*
%TD*%
D19*
%TO.C,RC3*%
X354450000Y-139750000D03*
X356250000Y-139750000D03*
%TD*%
%TO.C,RLED3*%
X61118750Y-188912500D03*
X59318750Y-188912500D03*
%TD*%
D14*
%TO.C,CRGB7*%
X103500000Y-120750000D03*
X103500000Y-119050000D03*
%TD*%
D13*
%TO.C,D69*%
X346868750Y-192881250D03*
X346868750Y-189581250D03*
%TD*%
%TO.C,D3*%
X98425000Y-112043750D03*
X98425000Y-108743750D03*
%TD*%
D12*
%TO.C,RGB11*%
X141287500Y-175393750D03*
X141287500Y-178593750D03*
X136087500Y-178593750D03*
X136087500Y-175393750D03*
%TD*%
D13*
%TO.C,D48*%
X92075000Y-169925000D03*
X92075000Y-166625000D03*
%TD*%
%TO.C,D17*%
X365918750Y-116681250D03*
X365918750Y-113381250D03*
%TD*%
%TO.C,D25*%
X203200000Y-130968750D03*
X203200000Y-127668750D03*
%TD*%
%TO.C,D46*%
X303212500Y-150018750D03*
X303212500Y-146718750D03*
%TD*%
%TO.C,D67*%
X300831250Y-188243750D03*
X300831250Y-184943750D03*
%TD*%
%TO.C,D1*%
X55562500Y-112043750D03*
X55562500Y-108743750D03*
%TD*%
%TO.C,D2*%
X79375000Y-112043750D03*
X79375000Y-108743750D03*
%TD*%
D12*
%TO.C,RGB9*%
X57943750Y-175418750D03*
X57943750Y-178618750D03*
X52743750Y-178618750D03*
X52743750Y-175418750D03*
%TD*%
D13*
%TO.C,D11*%
X250825000Y-112043750D03*
X250825000Y-108743750D03*
%TD*%
%TO.C,D61*%
X81756250Y-188243750D03*
X81756250Y-184943750D03*
%TD*%
%TO.C,D33*%
X365918750Y-135731250D03*
X365918750Y-132431250D03*
%TD*%
%TO.C,D56*%
X255587500Y-169068750D03*
X255587500Y-165768750D03*
%TD*%
%TO.C,D28*%
X260350000Y-130968750D03*
X260350000Y-127668750D03*
%TD*%
D14*
%TO.C,CRGB3*%
X277018750Y-120762500D03*
X277018750Y-119062500D03*
%TD*%
%TO.C,CRGB13*%
X234156250Y-175418750D03*
X234156250Y-177118750D03*
%TD*%
D13*
%TO.C,D68*%
X327818750Y-192881250D03*
X327818750Y-189581250D03*
%TD*%
D14*
%TO.C,C5*%
X341312500Y-149550000D03*
X341312500Y-151250000D03*
%TD*%
D13*
%TO.C,D23*%
X165100000Y-130968750D03*
X165100000Y-127668750D03*
%TD*%
%TO.C,D16*%
X342106250Y-116681250D03*
X342106250Y-113381250D03*
%TD*%
%TO.C,D10*%
X231775000Y-112043750D03*
X231775000Y-108743750D03*
%TD*%
%TO.C,D66*%
X274637500Y-188243750D03*
X274637500Y-184943750D03*
%TD*%
D15*
%TO.C,RC6*%
X345200000Y-109425000D03*
X345200000Y-107625000D03*
%TD*%
D13*
%TO.C,D42*%
X227012500Y-150018750D03*
X227012500Y-146718750D03*
%TD*%
%TO.C,D29*%
X279400000Y-130968750D03*
X279400000Y-127668750D03*
%TD*%
D14*
%TO.C,CRGB12*%
X187250000Y-175500000D03*
X187250000Y-177200000D03*
%TD*%
D13*
%TO.C,D63*%
X131762500Y-188243750D03*
X131762500Y-184943750D03*
%TD*%
D14*
%TO.C,CRGB1*%
X360362500Y-120762500D03*
X360362500Y-119062500D03*
%TD*%
D19*
%TO.C,RC4*%
X364912500Y-173100000D03*
X366712500Y-173100000D03*
%TD*%
D13*
%TO.C,D35*%
X86518750Y-150018750D03*
X86518750Y-146718750D03*
%TD*%
D14*
%TO.C,CRGB8*%
X61500000Y-121000000D03*
X61500000Y-119300000D03*
%TD*%
D23*
%TO.C,U1*%
X348456250Y-147637500D03*
D24*
X345956250Y-144237500D03*
X346456250Y-144237500D03*
X346956250Y-144237500D03*
X347456250Y-144237500D03*
X347956250Y-144237500D03*
X348456250Y-144237500D03*
X348956250Y-144237500D03*
X349456250Y-144237500D03*
X349956250Y-144237500D03*
X350456250Y-144237500D03*
X350956250Y-144237500D03*
D25*
X351856250Y-145137500D03*
X351856250Y-145637500D03*
X351856250Y-146137500D03*
X351856250Y-146637500D03*
X351856250Y-147137500D03*
X351856250Y-147637500D03*
X351856250Y-148137500D03*
X351856250Y-148637500D03*
X351856250Y-149137500D03*
X351856250Y-149637500D03*
X351856250Y-150137500D03*
D24*
X350956250Y-151037500D03*
X350456250Y-151037500D03*
X349956250Y-151037500D03*
X349456250Y-151037500D03*
X348956250Y-151037500D03*
X348456250Y-151037500D03*
X347956250Y-151037500D03*
X347456250Y-151037500D03*
X346956250Y-151037500D03*
X346456250Y-151037500D03*
X345956250Y-151037500D03*
D25*
X345056250Y-150137500D03*
X345056250Y-149637500D03*
X345056250Y-149137500D03*
X345056250Y-148637500D03*
X345056250Y-148137500D03*
X345056250Y-147637500D03*
X345056250Y-147137500D03*
X345056250Y-146637500D03*
X345056250Y-146137500D03*
X345056250Y-145637500D03*
X345056250Y-145137500D03*
%TD*%
D13*
%TO.C,D45*%
X284162500Y-150081250D03*
X284162500Y-146781250D03*
%TD*%
D26*
%TO.C,F1*%
X347662500Y-115512500D03*
X347662500Y-112712500D03*
%TD*%
M02*
