%TF.GenerationSoftware,KiCad,Pcbnew,9.0.2*%
%TF.CreationDate,2025-08-01T12:08:27+09:00*%
%TF.ProjectId,CL70_PCB,434c3730-5f50-4434-922e-6b696361645f,rev?*%
%TF.SameCoordinates,Original*%
%TF.FileFunction,Soldermask,Bot*%
%TF.FilePolarity,Negative*%
%FSLAX46Y46*%
G04 Gerber Fmt 4.6, Leading zero omitted, Abs format (unit mm)*
G04 Created by KiCad (PCBNEW 9.0.2) date 2025-08-01 12:08:27*
%MOMM*%
%LPD*%
G01*
G04 APERTURE LIST*
G04 Aperture macros list*
%AMRoundRect*
0 Rectangle with rounded corners*
0 $1 Rounding radius*
0 $2 $3 $4 $5 $6 $7 $8 $9 X,Y pos of 4 corners*
0 Add a 4 corners polygon primitive as box body*
4,1,4,$2,$3,$4,$5,$6,$7,$8,$9,$2,$3,0*
0 Add four circle primitives for the rounded corners*
1,1,$1+$1,$2,$3*
1,1,$1+$1,$4,$5*
1,1,$1+$1,$6,$7*
1,1,$1+$1,$8,$9*
0 Add four rect primitives between the rounded corners*
20,1,$1+$1,$2,$3,$4,$5,0*
20,1,$1+$1,$4,$5,$6,$7,0*
20,1,$1+$1,$6,$7,$8,$9,0*
20,1,$1+$1,$8,$9,$2,$3,0*%
G04 Aperture macros list end*
%ADD10C,0.000000*%
%ADD11C,1.750000*%
%ADD12C,4.000000*%
%ADD13C,2.500000*%
%ADD14R,1.800000X1.800000*%
%ADD15C,1.800000*%
%ADD16C,3.050000*%
%ADD17RoundRect,0.250000X-1.025000X-1.000000X1.025000X-1.000000X1.025000X1.000000X-1.025000X1.000000X0*%
%ADD18R,2.000000X2.000000*%
%ADD19C,2.000000*%
%ADD20R,2.000000X3.200000*%
%ADD21R,1.000000X0.750000*%
%ADD22R,1.800000X1.000000*%
%ADD23RoundRect,0.225000X0.375000X-0.225000X0.375000X0.225000X-0.375000X0.225000X-0.375000X-0.225000X0*%
%ADD24R,0.750000X1.000000*%
%ADD25R,0.900000X0.800000*%
%ADD26R,1.000000X1.200000*%
%ADD27R,1.000000X0.900000*%
%ADD28R,1.800000X1.100000*%
%ADD29C,1.700000*%
%ADD30R,1.700000X1.700000*%
%ADD31R,0.800000X0.900000*%
%ADD32RoundRect,0.250000X0.350000X-0.450000X0.350000X0.450000X-0.350000X0.450000X-0.350000X-0.450000X0*%
%ADD33C,0.650000*%
%ADD34R,0.600000X1.450000*%
%ADD35R,0.300000X1.450000*%
%ADD36O,1.000000X1.600000*%
%ADD37O,1.000000X2.100000*%
%ADD38C,5.000000*%
%ADD39O,0.250000X1.000000*%
%ADD40O,1.000000X0.250000*%
%ADD41RoundRect,0.250000X0.625000X-0.375000X0.625000X0.375000X-0.625000X0.375000X-0.625000X-0.375000X0*%
G04 APERTURE END LIST*
D10*
%TO.C,G\u002A\u002A\u002A*%
G36*
X282032755Y-158224788D02*
G01*
X282032755Y-158968510D01*
X281572656Y-158968510D01*
X281112556Y-158968510D01*
X281112556Y-158855061D01*
X281112556Y-158741612D01*
X281440298Y-158741612D01*
X281768040Y-158741612D01*
X281768040Y-158111339D01*
X281768040Y-157481066D01*
X281900398Y-157481066D01*
X282032755Y-157481066D01*
X282032755Y-158224788D01*
G37*
G36*
X268521860Y-158675324D02*
G01*
X268570025Y-158700173D01*
X268605540Y-158738859D01*
X268626242Y-158786769D01*
X268629971Y-158839290D01*
X268614562Y-158891810D01*
X268577855Y-158939715D01*
X268549490Y-158962858D01*
X268516970Y-158977440D01*
X268475325Y-158981116D01*
X268464097Y-158980839D01*
X268402750Y-158967189D01*
X268356815Y-158934263D01*
X268328000Y-158883837D01*
X268318015Y-158817686D01*
X268325594Y-158773995D01*
X268353612Y-158725315D01*
X268397327Y-158688752D01*
X268451480Y-158670120D01*
X268463209Y-158668926D01*
X268521860Y-158675324D01*
G37*
G36*
X269433014Y-157600649D02*
G01*
X269616378Y-157720233D01*
X269616378Y-157840153D01*
X269616137Y-157871253D01*
X269614741Y-157916950D01*
X269612377Y-157948381D01*
X269609366Y-157960074D01*
X269604424Y-157957830D01*
X269581341Y-157944486D01*
X269543062Y-157921144D01*
X269493367Y-157890123D01*
X269436041Y-157853744D01*
X269269728Y-157747414D01*
X269266456Y-158357962D01*
X269263185Y-158968510D01*
X269124645Y-158968510D01*
X268986105Y-158968510D01*
X268986105Y-158224788D01*
X268986105Y-157481066D01*
X269117878Y-157481066D01*
X269249651Y-157481066D01*
X269433014Y-157600649D01*
G37*
G36*
X259758909Y-157594515D02*
G01*
X259758909Y-157707964D01*
X259387048Y-157707964D01*
X259357123Y-157707983D01*
X259265589Y-157708290D01*
X259183730Y-157708933D01*
X259114653Y-157709863D01*
X259061465Y-157711029D01*
X259027274Y-157712384D01*
X259015187Y-157713877D01*
X259016202Y-157716332D01*
X259026369Y-157737159D01*
X259046589Y-157777407D01*
X259075791Y-157834983D01*
X259112908Y-157907793D01*
X259156871Y-157993742D01*
X259206612Y-158090736D01*
X259261061Y-158196682D01*
X259319150Y-158309485D01*
X259341403Y-158352658D01*
X259399135Y-158464662D01*
X259453370Y-158569887D01*
X259502957Y-158666101D01*
X259546747Y-158751070D01*
X259583588Y-158822562D01*
X259612330Y-158878344D01*
X259631822Y-158916183D01*
X259640913Y-158933845D01*
X259658713Y-158968510D01*
X259516577Y-158968175D01*
X259374442Y-158967839D01*
X259056154Y-158344864D01*
X258737867Y-157721889D01*
X258737867Y-157601477D01*
X258737867Y-157481066D01*
X259248388Y-157481066D01*
X259758909Y-157481066D01*
X259758909Y-157594515D01*
G37*
G36*
X280961291Y-157594515D02*
G01*
X280961291Y-157707964D01*
X280589430Y-157707964D01*
X280559505Y-157707983D01*
X280467971Y-157708290D01*
X280386112Y-157708933D01*
X280317035Y-157709863D01*
X280263847Y-157711029D01*
X280229656Y-157712384D01*
X280217569Y-157713877D01*
X280218584Y-157716332D01*
X280228752Y-157737159D01*
X280248971Y-157777407D01*
X280278173Y-157834983D01*
X280315290Y-157907793D01*
X280359253Y-157993742D01*
X280408994Y-158090736D01*
X280463443Y-158196682D01*
X280521532Y-158309485D01*
X280543786Y-158352658D01*
X280601517Y-158464662D01*
X280655752Y-158569887D01*
X280705339Y-158666101D01*
X280749129Y-158751070D01*
X280785970Y-158822562D01*
X280814712Y-158878344D01*
X280834204Y-158916183D01*
X280843295Y-158933845D01*
X280861095Y-158968510D01*
X280718960Y-158968175D01*
X280576824Y-158967839D01*
X280258537Y-158344864D01*
X279940249Y-157721889D01*
X279940249Y-157601477D01*
X279940249Y-157481066D01*
X280450770Y-157481066D01*
X280961291Y-157481066D01*
X280961291Y-157594515D01*
G37*
G36*
X270795465Y-157849493D02*
G01*
X270827354Y-157851706D01*
X270839107Y-157855141D01*
X270835689Y-157866440D01*
X270824559Y-157899383D01*
X270806517Y-157951508D01*
X270782401Y-158020433D01*
X270753048Y-158103776D01*
X270719294Y-158199156D01*
X270681975Y-158304190D01*
X270641929Y-158416496D01*
X270444751Y-158968510D01*
X270298400Y-158968510D01*
X270152049Y-158968510D01*
X269960256Y-158429627D01*
X269928502Y-158340286D01*
X269890935Y-158234255D01*
X269856657Y-158137143D01*
X269826535Y-158051421D01*
X269801433Y-157979558D01*
X269782217Y-157924026D01*
X269769751Y-157887295D01*
X269764901Y-157871835D01*
X269765511Y-157865394D01*
X269774811Y-157859105D01*
X269797492Y-157855302D01*
X269837493Y-157853428D01*
X269898754Y-157852927D01*
X270036167Y-157852927D01*
X270161343Y-158256302D01*
X270182730Y-158324943D01*
X270211439Y-158416172D01*
X270237414Y-158497670D01*
X270259723Y-158566562D01*
X270277431Y-158619975D01*
X270289606Y-158655035D01*
X270295315Y-158668869D01*
X270299361Y-158662979D01*
X270310239Y-158635988D01*
X270326774Y-158589719D01*
X270348061Y-158526854D01*
X270373197Y-158450074D01*
X270401275Y-158362060D01*
X270431392Y-158265494D01*
X270558673Y-157852927D01*
X270698890Y-157849363D01*
X270748493Y-157848709D01*
X270795465Y-157849493D01*
G37*
G36*
X277860348Y-158224788D02*
G01*
X277860348Y-158968510D01*
X277727991Y-158968510D01*
X277595633Y-158968510D01*
X277595633Y-158716401D01*
X277595633Y-158464292D01*
X277397097Y-158464142D01*
X277302878Y-158462979D01*
X277223751Y-158458838D01*
X277159466Y-158450778D01*
X277104765Y-158437860D01*
X277054386Y-158419143D01*
X277003068Y-158393686D01*
X276939834Y-158350507D01*
X276873471Y-158279759D01*
X276823477Y-158194127D01*
X276791334Y-158097111D01*
X276778526Y-157992210D01*
X276780614Y-157963736D01*
X277056319Y-157963736D01*
X277062746Y-158044825D01*
X277090259Y-158115766D01*
X277137253Y-158173522D01*
X277202121Y-158215056D01*
X277233070Y-158225972D01*
X277277475Y-158235057D01*
X277337061Y-158241550D01*
X277416830Y-158246176D01*
X277424129Y-158246479D01*
X277484522Y-158248135D01*
X277535066Y-158248065D01*
X277570654Y-158246363D01*
X277586179Y-158243121D01*
X277587001Y-158241268D01*
X277589749Y-158219822D01*
X277592121Y-158178144D01*
X277593983Y-158120121D01*
X277595198Y-158049637D01*
X277595633Y-157970578D01*
X277595633Y-157707964D01*
X277441216Y-157708035D01*
X277380935Y-157708961D01*
X277320672Y-157711685D01*
X277271788Y-157715769D01*
X277241198Y-157720772D01*
X277174310Y-157748650D01*
X277117115Y-157796370D01*
X277078245Y-157861235D01*
X277058138Y-157942714D01*
X277056319Y-157963736D01*
X276780614Y-157963736D01*
X276786538Y-157882925D01*
X276796441Y-157836592D01*
X276834791Y-157734040D01*
X276892241Y-157647095D01*
X276967435Y-157577152D01*
X277059013Y-157525605D01*
X277165617Y-157493848D01*
X277183712Y-157491471D01*
X277229458Y-157488122D01*
X277293087Y-157485258D01*
X277370165Y-157483028D01*
X277456257Y-157481581D01*
X277546932Y-157481066D01*
X277860348Y-157481066D01*
X277860348Y-157970578D01*
X277860348Y-158224788D01*
G37*
G36*
X258149307Y-157475343D02*
G01*
X258246676Y-157506984D01*
X258332963Y-157554122D01*
X258405534Y-157615030D01*
X258461752Y-157687980D01*
X258498983Y-157771246D01*
X258514589Y-157863100D01*
X258517271Y-157928560D01*
X258394148Y-157932170D01*
X258347671Y-157933509D01*
X258306014Y-157933146D01*
X258280717Y-157927939D01*
X258266786Y-157915208D01*
X258259224Y-157892272D01*
X258253037Y-157856450D01*
X258248707Y-157837479D01*
X258220630Y-157781698D01*
X258174769Y-157736368D01*
X258115891Y-157703624D01*
X258048763Y-157685602D01*
X257978152Y-157684436D01*
X257908825Y-157702263D01*
X257862237Y-157726460D01*
X257809299Y-157774016D01*
X257777718Y-157834890D01*
X257767246Y-157909445D01*
X257767577Y-157928571D01*
X257770388Y-157959767D01*
X257777380Y-157989911D01*
X257790116Y-158021052D01*
X257810160Y-158055240D01*
X257839075Y-158094523D01*
X257878427Y-158140950D01*
X257929777Y-158196571D01*
X257994691Y-158263434D01*
X258074731Y-158343587D01*
X258171461Y-158439081D01*
X258511136Y-158773126D01*
X258511052Y-158870818D01*
X258510968Y-158968510D01*
X257994145Y-158968510D01*
X257477321Y-158968510D01*
X257477321Y-158855061D01*
X257477321Y-158741612D01*
X257805063Y-158741612D01*
X257886623Y-158741391D01*
X257966423Y-158740696D01*
X258034250Y-158739599D01*
X258086796Y-158738169D01*
X258120751Y-158736477D01*
X258132805Y-158734594D01*
X258132778Y-158734465D01*
X258123285Y-158723201D01*
X258098278Y-158696712D01*
X258060061Y-158657355D01*
X258010939Y-158607486D01*
X257953220Y-158549461D01*
X257889207Y-158485636D01*
X257793776Y-158389290D01*
X257709988Y-158300413D01*
X257642783Y-158222994D01*
X257590692Y-158154665D01*
X257552248Y-158093056D01*
X257525983Y-158035798D01*
X257510430Y-157980522D01*
X257504119Y-157924859D01*
X257505584Y-157866439D01*
X257524240Y-157769746D01*
X257564860Y-157680474D01*
X257625556Y-157604137D01*
X257704739Y-157542291D01*
X257800819Y-157496491D01*
X257912209Y-157468293D01*
X257931871Y-157465465D01*
X258043494Y-157460928D01*
X258149307Y-157475343D01*
G37*
G36*
X263254518Y-157475343D02*
G01*
X263351887Y-157506984D01*
X263438174Y-157554122D01*
X263510745Y-157615030D01*
X263566963Y-157687980D01*
X263604194Y-157771246D01*
X263619800Y-157863100D01*
X263622482Y-157928560D01*
X263499359Y-157932170D01*
X263452882Y-157933509D01*
X263411225Y-157933146D01*
X263385928Y-157927939D01*
X263371997Y-157915208D01*
X263364435Y-157892272D01*
X263358248Y-157856450D01*
X263353918Y-157837479D01*
X263325841Y-157781698D01*
X263279980Y-157736368D01*
X263221102Y-157703624D01*
X263153974Y-157685602D01*
X263083363Y-157684436D01*
X263014036Y-157702263D01*
X262967448Y-157726460D01*
X262914509Y-157774016D01*
X262882929Y-157834890D01*
X262872457Y-157909445D01*
X262872788Y-157928571D01*
X262875599Y-157959767D01*
X262882591Y-157989911D01*
X262895327Y-158021052D01*
X262915371Y-158055240D01*
X262944286Y-158094523D01*
X262983638Y-158140950D01*
X263034988Y-158196571D01*
X263099901Y-158263434D01*
X263179942Y-158343587D01*
X263276672Y-158439081D01*
X263616347Y-158773126D01*
X263616263Y-158870818D01*
X263616179Y-158968510D01*
X263099355Y-158968510D01*
X262582532Y-158968510D01*
X262582532Y-158855061D01*
X262582532Y-158741612D01*
X262910274Y-158741612D01*
X262991834Y-158741391D01*
X263071633Y-158740696D01*
X263139461Y-158739599D01*
X263192007Y-158738169D01*
X263225962Y-158736477D01*
X263238015Y-158734594D01*
X263237989Y-158734465D01*
X263228496Y-158723201D01*
X263203489Y-158696712D01*
X263165271Y-158657355D01*
X263116150Y-158607486D01*
X263058430Y-158549461D01*
X262994417Y-158485636D01*
X262898987Y-158389290D01*
X262815199Y-158300413D01*
X262747994Y-158222994D01*
X262695903Y-158154665D01*
X262657459Y-158093056D01*
X262631194Y-158035798D01*
X262615641Y-157980522D01*
X262609330Y-157924859D01*
X262610795Y-157866439D01*
X262629450Y-157769746D01*
X262670071Y-157680474D01*
X262730767Y-157604137D01*
X262809949Y-157542291D01*
X262906030Y-157496491D01*
X263017420Y-157468293D01*
X263037081Y-157465465D01*
X263148705Y-157460928D01*
X263254518Y-157475343D01*
G37*
G36*
X265851243Y-157475343D02*
G01*
X265948611Y-157506984D01*
X266034899Y-157554122D01*
X266107470Y-157615030D01*
X266163688Y-157687980D01*
X266200918Y-157771246D01*
X266216524Y-157863100D01*
X266219207Y-157928560D01*
X266096084Y-157932170D01*
X266049607Y-157933509D01*
X266007949Y-157933146D01*
X265982653Y-157927939D01*
X265968721Y-157915208D01*
X265961160Y-157892272D01*
X265954972Y-157856450D01*
X265950643Y-157837479D01*
X265922565Y-157781698D01*
X265876704Y-157736368D01*
X265817826Y-157703624D01*
X265750699Y-157685602D01*
X265680088Y-157684436D01*
X265610760Y-157702263D01*
X265564173Y-157726460D01*
X265511234Y-157774016D01*
X265479653Y-157834890D01*
X265469182Y-157909445D01*
X265469513Y-157928571D01*
X265472324Y-157959767D01*
X265479315Y-157989911D01*
X265492051Y-158021052D01*
X265512095Y-158055240D01*
X265541011Y-158094523D01*
X265580362Y-158140950D01*
X265631713Y-158196571D01*
X265696626Y-158263434D01*
X265776666Y-158343587D01*
X265873397Y-158439081D01*
X266213072Y-158773126D01*
X266212988Y-158870818D01*
X266212904Y-158968510D01*
X265696080Y-158968510D01*
X265179256Y-158968510D01*
X265179256Y-158855061D01*
X265179256Y-158741612D01*
X265506998Y-158741612D01*
X265588558Y-158741391D01*
X265668358Y-158740696D01*
X265736186Y-158739599D01*
X265788732Y-158738169D01*
X265822686Y-158736477D01*
X265834740Y-158734594D01*
X265834714Y-158734465D01*
X265825221Y-158723201D01*
X265800213Y-158696712D01*
X265761996Y-158657355D01*
X265712875Y-158607486D01*
X265655155Y-158549461D01*
X265591142Y-158485636D01*
X265495712Y-158389290D01*
X265411924Y-158300413D01*
X265344718Y-158222994D01*
X265292627Y-158154665D01*
X265254184Y-158093056D01*
X265227919Y-158035798D01*
X265212365Y-157980522D01*
X265206055Y-157924859D01*
X265207520Y-157866439D01*
X265226175Y-157769746D01*
X265266795Y-157680474D01*
X265327491Y-157604137D01*
X265406674Y-157542291D01*
X265502755Y-157496491D01*
X265614145Y-157468293D01*
X265633806Y-157465465D01*
X265745429Y-157460928D01*
X265851243Y-157475343D01*
G37*
G36*
X273246750Y-158224788D02*
G01*
X273246750Y-158968510D01*
X273114393Y-158968510D01*
X272982035Y-158968510D01*
X272982035Y-158697080D01*
X272982035Y-158425650D01*
X272841491Y-158429214D01*
X272700947Y-158432778D01*
X272558706Y-158697493D01*
X272416465Y-158962208D01*
X272263373Y-158965755D01*
X272259213Y-158965848D01*
X272201714Y-158966342D01*
X272155607Y-158965309D01*
X272125492Y-158962947D01*
X272115970Y-158959452D01*
X272121172Y-158950368D01*
X272143257Y-158910941D01*
X272172101Y-158858566D01*
X272205820Y-158796750D01*
X272242531Y-158729002D01*
X272280353Y-158658829D01*
X272317401Y-158589741D01*
X272351794Y-158525245D01*
X272381648Y-158468850D01*
X272405081Y-158424064D01*
X272420210Y-158394395D01*
X272425151Y-158383352D01*
X272422474Y-158381617D01*
X272403813Y-158370144D01*
X272374371Y-158352343D01*
X272366412Y-158347340D01*
X272314200Y-158305375D01*
X272263686Y-158251396D01*
X272221665Y-158193462D01*
X272194933Y-158139628D01*
X272173878Y-158060612D01*
X272164587Y-157960074D01*
X272446379Y-157960074D01*
X272449223Y-158009542D01*
X272466140Y-158072954D01*
X272500320Y-158122169D01*
X272554094Y-158161552D01*
X272576969Y-158173370D01*
X272600960Y-158182370D01*
X272629771Y-158188533D01*
X272668501Y-158192618D01*
X272722246Y-158195384D01*
X272796105Y-158197591D01*
X272982035Y-158202325D01*
X272982035Y-157953963D01*
X272982035Y-157705600D01*
X272802020Y-157709934D01*
X272744219Y-157711528D01*
X272686860Y-157714136D01*
X272645201Y-157718077D01*
X272613851Y-157724155D01*
X272587421Y-157733173D01*
X272560521Y-157745934D01*
X272515356Y-157775176D01*
X272475689Y-157821543D01*
X272453343Y-157881963D01*
X272446379Y-157960074D01*
X272164587Y-157960074D01*
X272163925Y-157952906D01*
X272175075Y-157849464D01*
X272206217Y-157753403D01*
X272256240Y-157667838D01*
X272324034Y-157595885D01*
X272408487Y-157540663D01*
X272409198Y-157540310D01*
X272447008Y-157523124D01*
X272485451Y-157509541D01*
X272528036Y-157499156D01*
X272578274Y-157491566D01*
X272639673Y-157486366D01*
X272715742Y-157483152D01*
X272809992Y-157481520D01*
X272925931Y-157481066D01*
X273246750Y-157481066D01*
X273246750Y-157953963D01*
X273246750Y-158224788D01*
G37*
G36*
X261063055Y-158229892D02*
G01*
X261062686Y-158312972D01*
X261061178Y-158376700D01*
X261058028Y-158426629D01*
X261052734Y-158468314D01*
X261044793Y-158507309D01*
X261033703Y-158549168D01*
X261019545Y-158594365D01*
X260968993Y-158710064D01*
X260903647Y-158807164D01*
X260824490Y-158884626D01*
X260732508Y-158941413D01*
X260628685Y-158976485D01*
X260583723Y-158984741D01*
X260465235Y-158990924D01*
X260354552Y-158973883D01*
X260253297Y-158934615D01*
X260163093Y-158874117D01*
X260085561Y-158793383D01*
X260022324Y-158693410D01*
X259975006Y-158575194D01*
X259971620Y-158563841D01*
X259943889Y-158438690D01*
X259930048Y-158305904D01*
X259929782Y-158217344D01*
X260201284Y-158217344D01*
X260206289Y-158340726D01*
X260223226Y-158457593D01*
X260252201Y-158561003D01*
X260280494Y-158619426D01*
X260325405Y-158679617D01*
X260378111Y-158725899D01*
X260433342Y-158752696D01*
X260468617Y-158760286D01*
X260543899Y-158760105D01*
X260611634Y-158736163D01*
X260670739Y-158688963D01*
X260720130Y-158619011D01*
X260723611Y-158612499D01*
X260755495Y-158537202D01*
X260777320Y-158450218D01*
X260789853Y-158347447D01*
X260793860Y-158224788D01*
X260787819Y-158085207D01*
X260769227Y-157964662D01*
X260738036Y-157865714D01*
X260694198Y-157788218D01*
X260637668Y-157732024D01*
X260625903Y-157723989D01*
X260559084Y-157694446D01*
X260489849Y-157687646D01*
X260421917Y-157702299D01*
X260359005Y-157737113D01*
X260304830Y-157790799D01*
X260263109Y-157862065D01*
X260256768Y-157877527D01*
X260226631Y-157978802D01*
X260208100Y-158094389D01*
X260201284Y-158217344D01*
X259929782Y-158217344D01*
X259929642Y-158170523D01*
X259942220Y-158037587D01*
X259967329Y-157912133D01*
X260004514Y-157799202D01*
X260053324Y-157703832D01*
X260105371Y-157635200D01*
X260184869Y-157562729D01*
X260274445Y-157509682D01*
X260370982Y-157475866D01*
X260471364Y-157461086D01*
X260572475Y-157465150D01*
X260671198Y-157487864D01*
X260764416Y-157529034D01*
X260849014Y-157588468D01*
X260921876Y-157665971D01*
X260979883Y-157761350D01*
X260991108Y-157785431D01*
X261017261Y-157847736D01*
X261036393Y-157906857D01*
X261049522Y-157968459D01*
X261057664Y-158038206D01*
X261061835Y-158121761D01*
X261063053Y-158224788D01*
X261063055Y-158229892D01*
G37*
G36*
X264970748Y-158229892D02*
G01*
X264970379Y-158312972D01*
X264968870Y-158376700D01*
X264965720Y-158426629D01*
X264960426Y-158468314D01*
X264952486Y-158507309D01*
X264941396Y-158549168D01*
X264927237Y-158594365D01*
X264876685Y-158710064D01*
X264811339Y-158807164D01*
X264732182Y-158884626D01*
X264640201Y-158941413D01*
X264536378Y-158976485D01*
X264491415Y-158984741D01*
X264372927Y-158990924D01*
X264262244Y-158973883D01*
X264160989Y-158934615D01*
X264070785Y-158874117D01*
X263993253Y-158793383D01*
X263930017Y-158693410D01*
X263882698Y-158575194D01*
X263879312Y-158563841D01*
X263851581Y-158438690D01*
X263837740Y-158305904D01*
X263837475Y-158217344D01*
X264108976Y-158217344D01*
X264113982Y-158340726D01*
X264130918Y-158457593D01*
X264159894Y-158561003D01*
X264188186Y-158619426D01*
X264233097Y-158679617D01*
X264285803Y-158725899D01*
X264341035Y-158752696D01*
X264376309Y-158760286D01*
X264451591Y-158760105D01*
X264519327Y-158736163D01*
X264578431Y-158688963D01*
X264627822Y-158619011D01*
X264631303Y-158612499D01*
X264663188Y-158537202D01*
X264685013Y-158450218D01*
X264697546Y-158347447D01*
X264701553Y-158224788D01*
X264695511Y-158085207D01*
X264676919Y-157964662D01*
X264645728Y-157865714D01*
X264601890Y-157788218D01*
X264545360Y-157732024D01*
X264533596Y-157723989D01*
X264466776Y-157694446D01*
X264397541Y-157687646D01*
X264329609Y-157702299D01*
X264266697Y-157737113D01*
X264212522Y-157790799D01*
X264170802Y-157862065D01*
X264164460Y-157877527D01*
X264134323Y-157978802D01*
X264115793Y-158094389D01*
X264108976Y-158217344D01*
X263837475Y-158217344D01*
X263837335Y-158170523D01*
X263849913Y-158037587D01*
X263875021Y-157912133D01*
X263912206Y-157799202D01*
X263961017Y-157703832D01*
X264013063Y-157635200D01*
X264092561Y-157562729D01*
X264182137Y-157509682D01*
X264278674Y-157475866D01*
X264379056Y-157461086D01*
X264480167Y-157465150D01*
X264578890Y-157487864D01*
X264672109Y-157529034D01*
X264756707Y-157588468D01*
X264829568Y-157665971D01*
X264887576Y-157761350D01*
X264898801Y-157785431D01*
X264924953Y-157847736D01*
X264944085Y-157906857D01*
X264957214Y-157968459D01*
X264965356Y-158038206D01*
X264969528Y-158121761D01*
X264970745Y-158224788D01*
X264970748Y-158229892D01*
G37*
G36*
X268071691Y-158229892D02*
G01*
X268071321Y-158312972D01*
X268069813Y-158376700D01*
X268066663Y-158426629D01*
X268061369Y-158468314D01*
X268053428Y-158507309D01*
X268042338Y-158549168D01*
X268028180Y-158594365D01*
X267977628Y-158710064D01*
X267912282Y-158807164D01*
X267833125Y-158884626D01*
X267741143Y-158941413D01*
X267637321Y-158976485D01*
X267592358Y-158984741D01*
X267473870Y-158990924D01*
X267363187Y-158973883D01*
X267261932Y-158934615D01*
X267171728Y-158874117D01*
X267094196Y-158793383D01*
X267030960Y-158693410D01*
X266983641Y-158575194D01*
X266980255Y-158563841D01*
X266952524Y-158438690D01*
X266938683Y-158305904D01*
X266938418Y-158217344D01*
X267209919Y-158217344D01*
X267214924Y-158340726D01*
X267231861Y-158457593D01*
X267260837Y-158561003D01*
X267289129Y-158619426D01*
X267334040Y-158679617D01*
X267386746Y-158725899D01*
X267441978Y-158752696D01*
X267477252Y-158760286D01*
X267552534Y-158760105D01*
X267620270Y-158736163D01*
X267679374Y-158688963D01*
X267728765Y-158619011D01*
X267732246Y-158612499D01*
X267764131Y-158537202D01*
X267785956Y-158450218D01*
X267798488Y-158347447D01*
X267802496Y-158224788D01*
X267796454Y-158085207D01*
X267777862Y-157964662D01*
X267746671Y-157865714D01*
X267702833Y-157788218D01*
X267646303Y-157732024D01*
X267634539Y-157723989D01*
X267567719Y-157694446D01*
X267498484Y-157687646D01*
X267430552Y-157702299D01*
X267367640Y-157737113D01*
X267313465Y-157790799D01*
X267271745Y-157862065D01*
X267265403Y-157877527D01*
X267235266Y-157978802D01*
X267216735Y-158094389D01*
X267209919Y-158217344D01*
X266938418Y-158217344D01*
X266938278Y-158170523D01*
X266950856Y-158037587D01*
X266975964Y-157912133D01*
X267013149Y-157799202D01*
X267061959Y-157703832D01*
X267114006Y-157635200D01*
X267193504Y-157562729D01*
X267283080Y-157509682D01*
X267379617Y-157475866D01*
X267479999Y-157461086D01*
X267581110Y-157465150D01*
X267679833Y-157487864D01*
X267773052Y-157529034D01*
X267857650Y-157588468D01*
X267930511Y-157665971D01*
X267988519Y-157761350D01*
X267999744Y-157785431D01*
X268025896Y-157847736D01*
X268045028Y-157906857D01*
X268058157Y-157968459D01*
X268066299Y-158038206D01*
X268070470Y-158121761D01*
X268071688Y-158224788D01*
X268071691Y-158229892D01*
G37*
G36*
X271987822Y-158290803D02*
G01*
X271998404Y-158413870D01*
X271995907Y-158479122D01*
X271975917Y-158601699D01*
X271936606Y-158709960D01*
X271878779Y-158802758D01*
X271803242Y-158878950D01*
X271710800Y-158937389D01*
X271602260Y-158976931D01*
X271554083Y-158985497D01*
X271474180Y-158989898D01*
X271388268Y-158986122D01*
X271306473Y-158974744D01*
X271238923Y-158956338D01*
X271186018Y-158932515D01*
X271112167Y-158885577D01*
X271050881Y-158829644D01*
X271006312Y-158768755D01*
X270982609Y-158706947D01*
X270974616Y-158665979D01*
X271100796Y-158665979D01*
X271118519Y-158665992D01*
X271170315Y-158666584D01*
X271203773Y-158668939D01*
X271224314Y-158674254D01*
X271237356Y-158683726D01*
X271248318Y-158698549D01*
X271266167Y-158719430D01*
X271314448Y-158750906D01*
X271377832Y-158771495D01*
X271450472Y-158778875D01*
X271522849Y-158771641D01*
X271599083Y-158743826D01*
X271661124Y-158695752D01*
X271678439Y-158673722D01*
X271706135Y-158623383D01*
X271726299Y-158568122D01*
X271734095Y-158519614D01*
X271734095Y-158489867D01*
X271346477Y-158486534D01*
X270958859Y-158483200D01*
X270961794Y-158382356D01*
X270964498Y-158327734D01*
X270968010Y-158300421D01*
X271213952Y-158300421D01*
X271474023Y-158300421D01*
X271496372Y-158300380D01*
X271572045Y-158299604D01*
X271637369Y-158297960D01*
X271688629Y-158295607D01*
X271722109Y-158292701D01*
X271734095Y-158289400D01*
X271733257Y-158283826D01*
X271726334Y-158258602D01*
X271714697Y-158223400D01*
X271684604Y-158163310D01*
X271637772Y-158111456D01*
X271580704Y-158075420D01*
X271517285Y-158055000D01*
X271451396Y-158049994D01*
X271386923Y-158060200D01*
X271327746Y-158085415D01*
X271277751Y-158125438D01*
X271240820Y-158180066D01*
X271220835Y-158249098D01*
X271213952Y-158300421D01*
X270968010Y-158300421D01*
X270976112Y-158237421D01*
X270997829Y-158158546D01*
X271031597Y-158082746D01*
X271039555Y-158068233D01*
X271101004Y-157985442D01*
X271180139Y-157920133D01*
X271275880Y-157873028D01*
X271387150Y-157844849D01*
X271461012Y-157838083D01*
X271571400Y-157846509D01*
X271673264Y-157876650D01*
X271764692Y-157926726D01*
X271843772Y-157994958D01*
X271908595Y-158079568D01*
X271957249Y-158178776D01*
X271987439Y-158289400D01*
X271987822Y-158290803D01*
G37*
G36*
X276063298Y-157473507D02*
G01*
X276147896Y-157492334D01*
X276244142Y-157532159D01*
X276348466Y-157599476D01*
X276438371Y-157686121D01*
X276511181Y-157789900D01*
X276544479Y-157857957D01*
X276583607Y-157977855D01*
X276606100Y-158108200D01*
X276611854Y-158243697D01*
X276600764Y-158379053D01*
X276572727Y-158508973D01*
X276527639Y-158628163D01*
X276523352Y-158636919D01*
X276460757Y-158735981D01*
X276379836Y-158823174D01*
X276284914Y-158895170D01*
X276180318Y-158948635D01*
X276070373Y-158980242D01*
X276063735Y-158981311D01*
X276013917Y-158986063D01*
X275952741Y-158988107D01*
X275891929Y-158987001D01*
X275812689Y-158978842D01*
X275691112Y-158947952D01*
X275582452Y-158896510D01*
X275488324Y-158825832D01*
X275410342Y-158737237D01*
X275350120Y-158632041D01*
X275309273Y-158511562D01*
X275300959Y-158476897D01*
X275437540Y-158476897D01*
X275574121Y-158476897D01*
X275602888Y-158546304D01*
X275624973Y-158590345D01*
X275678461Y-158656039D01*
X275748873Y-158703364D01*
X275835654Y-158731996D01*
X275938248Y-158741612D01*
X275962767Y-158741325D01*
X276012860Y-158737052D01*
X276056148Y-158725299D01*
X276105671Y-158703064D01*
X276134051Y-158687923D01*
X276192031Y-158647045D01*
X276237893Y-158595659D01*
X276278797Y-158526462D01*
X276279762Y-158524551D01*
X276306642Y-158461113D01*
X276324215Y-158393497D01*
X276333755Y-158314890D01*
X276336541Y-158218485D01*
X276331594Y-158123775D01*
X276310137Y-158009769D01*
X276272210Y-157912171D01*
X276218374Y-157832317D01*
X276149188Y-157771544D01*
X276125649Y-157756826D01*
X276058035Y-157725777D01*
X275985790Y-157711176D01*
X275900199Y-157710902D01*
X275839177Y-157719044D01*
X275752374Y-157747936D01*
X275680292Y-157794963D01*
X275625175Y-157858494D01*
X275589267Y-157936897D01*
X275574769Y-157985284D01*
X275437864Y-157985284D01*
X275300959Y-157985284D01*
X275308621Y-157950619D01*
X275313728Y-157929326D01*
X275343137Y-157840066D01*
X275383003Y-157754727D01*
X275429618Y-157680404D01*
X275479273Y-157624190D01*
X275490162Y-157614799D01*
X275557753Y-157566957D01*
X275637194Y-157523894D01*
X275717420Y-157491764D01*
X275771256Y-157478270D01*
X275865166Y-157466463D01*
X275965784Y-157464879D01*
X276063298Y-157473507D01*
G37*
G36*
X283021512Y-157473507D02*
G01*
X283106109Y-157492334D01*
X283202356Y-157532159D01*
X283306680Y-157599476D01*
X283396584Y-157686121D01*
X283469394Y-157789900D01*
X283502692Y-157857957D01*
X283541821Y-157977855D01*
X283564313Y-158108200D01*
X283570067Y-158243697D01*
X283558977Y-158379053D01*
X283530941Y-158508973D01*
X283485853Y-158628163D01*
X283481566Y-158636919D01*
X283418970Y-158735981D01*
X283338049Y-158823174D01*
X283243128Y-158895170D01*
X283138532Y-158948635D01*
X283028586Y-158980242D01*
X283021949Y-158981311D01*
X282972131Y-158986063D01*
X282910955Y-158988107D01*
X282850142Y-158987001D01*
X282770902Y-158978842D01*
X282649325Y-158947952D01*
X282540666Y-158896510D01*
X282446538Y-158825832D01*
X282368555Y-158737237D01*
X282308334Y-158632041D01*
X282267487Y-158511562D01*
X282259173Y-158476897D01*
X282395754Y-158476897D01*
X282532334Y-158476897D01*
X282561102Y-158546304D01*
X282583186Y-158590345D01*
X282636674Y-158656039D01*
X282707087Y-158703364D01*
X282793868Y-158731996D01*
X282896461Y-158741612D01*
X282920981Y-158741325D01*
X282971074Y-158737052D01*
X283014361Y-158725299D01*
X283063884Y-158703064D01*
X283092264Y-158687923D01*
X283150245Y-158647045D01*
X283196107Y-158595659D01*
X283237010Y-158526462D01*
X283237975Y-158524551D01*
X283264856Y-158461113D01*
X283282428Y-158393497D01*
X283291968Y-158314890D01*
X283294754Y-158218485D01*
X283289808Y-158123775D01*
X283268351Y-158009769D01*
X283230424Y-157912171D01*
X283176587Y-157832317D01*
X283107402Y-157771544D01*
X283083863Y-157756826D01*
X283016248Y-157725777D01*
X282944003Y-157711176D01*
X282858413Y-157710902D01*
X282797390Y-157719044D01*
X282710588Y-157747936D01*
X282638505Y-157794963D01*
X282583388Y-157858494D01*
X282547480Y-157936897D01*
X282532983Y-157985284D01*
X282396078Y-157985284D01*
X282259173Y-157985284D01*
X282266834Y-157950619D01*
X282271941Y-157929326D01*
X282301350Y-157840066D01*
X282341216Y-157754727D01*
X282387831Y-157680404D01*
X282437487Y-157624190D01*
X282448375Y-157614799D01*
X282515966Y-157566957D01*
X282595407Y-157523894D01*
X282675633Y-157491764D01*
X282729470Y-157478270D01*
X282823380Y-157466463D01*
X282923998Y-157464879D01*
X283021512Y-157473507D01*
G37*
G36*
X279731738Y-158224788D02*
G01*
X279731740Y-158229892D01*
X279731371Y-158312972D01*
X279729863Y-158376700D01*
X279726713Y-158426629D01*
X279721419Y-158468314D01*
X279713478Y-158507309D01*
X279702388Y-158549168D01*
X279688230Y-158594365D01*
X279637678Y-158710064D01*
X279572331Y-158807164D01*
X279493175Y-158884626D01*
X279401193Y-158941413D01*
X279297370Y-158976485D01*
X279252408Y-158984741D01*
X279133920Y-158990924D01*
X279023237Y-158973883D01*
X278921982Y-158934615D01*
X278831777Y-158874117D01*
X278754246Y-158793383D01*
X278691009Y-158693410D01*
X278643691Y-158575194D01*
X278640304Y-158563841D01*
X278612574Y-158438690D01*
X278598733Y-158305904D01*
X278598471Y-158218485D01*
X278869474Y-158218485D01*
X278870261Y-158268580D01*
X278881017Y-158394077D01*
X278903834Y-158503743D01*
X278938027Y-158596009D01*
X278982913Y-158669304D01*
X279037808Y-158722056D01*
X279102027Y-158752696D01*
X279106305Y-158753852D01*
X279183597Y-158762937D01*
X279253723Y-158748431D01*
X279315691Y-158711153D01*
X279368508Y-158651926D01*
X279411181Y-158571571D01*
X279442717Y-158470908D01*
X279442927Y-158469996D01*
X279453866Y-158401699D01*
X279460415Y-158316961D01*
X279462574Y-158224035D01*
X279460344Y-158131176D01*
X279453725Y-158046636D01*
X279442717Y-157978668D01*
X279441747Y-157974538D01*
X279410162Y-157876836D01*
X279367159Y-157798002D01*
X279314139Y-157739228D01*
X279252504Y-157701704D01*
X279183655Y-157686621D01*
X279108994Y-157695169D01*
X279087948Y-157702015D01*
X279024378Y-157739471D01*
X278970721Y-157798453D01*
X278927689Y-157877405D01*
X278895994Y-157974766D01*
X278876352Y-158088979D01*
X278869474Y-158218485D01*
X278598471Y-158218485D01*
X278598327Y-158170523D01*
X278610905Y-158037587D01*
X278636013Y-157912133D01*
X278673199Y-157799202D01*
X278722009Y-157703832D01*
X278774056Y-157635200D01*
X278853554Y-157562729D01*
X278943130Y-157509682D01*
X279039667Y-157475866D01*
X279140049Y-157461086D01*
X279241160Y-157465150D01*
X279339883Y-157487864D01*
X279433101Y-157529034D01*
X279517699Y-157588468D01*
X279590561Y-157665971D01*
X279648568Y-157761350D01*
X279659793Y-157785431D01*
X279685945Y-157847736D01*
X279705078Y-157906857D01*
X279718207Y-157968459D01*
X279726349Y-158038206D01*
X279730520Y-158121761D01*
X279731729Y-158224035D01*
X279731738Y-158224788D01*
G37*
G36*
X262235148Y-157509428D02*
G01*
X262237133Y-157522231D01*
X262241693Y-157558593D01*
X262248023Y-157613213D01*
X262255709Y-157682152D01*
X262264340Y-157761475D01*
X262273501Y-157847246D01*
X262282781Y-157935528D01*
X262291766Y-158022385D01*
X262300043Y-158103880D01*
X262307200Y-158176078D01*
X262312823Y-158235042D01*
X262316500Y-158276835D01*
X262317817Y-158297521D01*
X262317810Y-158299193D01*
X262316133Y-158311716D01*
X262308209Y-158319494D01*
X262289297Y-158323655D01*
X262254657Y-158325326D01*
X262199548Y-158325632D01*
X262081279Y-158325632D01*
X262032242Y-158276594D01*
X261987651Y-158240567D01*
X261916759Y-158209800D01*
X261832424Y-158199648D01*
X261814279Y-158200079D01*
X261729866Y-158215350D01*
X261657624Y-158250787D01*
X261600186Y-158304087D01*
X261560186Y-158372947D01*
X261540259Y-158455065D01*
X261540818Y-158532410D01*
X261561761Y-158610261D01*
X261602277Y-158674949D01*
X261660229Y-158724098D01*
X261733483Y-158755330D01*
X261819901Y-158766269D01*
X261867420Y-158762964D01*
X261940752Y-158743439D01*
X262001920Y-158708607D01*
X262046969Y-158661026D01*
X262071944Y-158603254D01*
X262080316Y-158565136D01*
X262213283Y-158565136D01*
X262346250Y-158565136D01*
X262337951Y-158618709D01*
X262329105Y-158660231D01*
X262292657Y-158748306D01*
X262235306Y-158825889D01*
X262159248Y-158890911D01*
X262066680Y-158941302D01*
X261959799Y-158974993D01*
X261958961Y-158975175D01*
X261837962Y-158990589D01*
X261723909Y-158984529D01*
X261618622Y-158958927D01*
X261523916Y-158915722D01*
X261441609Y-158856846D01*
X261373519Y-158784238D01*
X261321464Y-158699830D01*
X261287260Y-158605560D01*
X261272725Y-158503363D01*
X261279677Y-158395174D01*
X261309933Y-158282928D01*
X261327716Y-158242292D01*
X261381218Y-158161122D01*
X261450767Y-158093947D01*
X261532554Y-158042033D01*
X261622773Y-158006650D01*
X261717616Y-157989065D01*
X261813276Y-157990548D01*
X261905945Y-158012365D01*
X261991816Y-158055786D01*
X262056408Y-158099253D01*
X262049226Y-158051723D01*
X262045766Y-158026143D01*
X262039993Y-157978805D01*
X262033191Y-157919714D01*
X262026210Y-157856079D01*
X262010376Y-157707964D01*
X261678786Y-157707964D01*
X261347197Y-157707964D01*
X261347197Y-157594515D01*
X261347197Y-157481066D01*
X261788148Y-157481066D01*
X262229098Y-157481066D01*
X262235148Y-157509428D01*
G37*
G36*
X275074542Y-158224788D02*
G01*
X275074542Y-158528382D01*
X275074542Y-158968510D01*
X274717934Y-158968510D01*
X274631870Y-158968352D01*
X274535242Y-158967564D01*
X274458384Y-158965985D01*
X274398174Y-158963476D01*
X274351489Y-158959894D01*
X274315204Y-158955098D01*
X274286197Y-158948947D01*
X274218231Y-158926623D01*
X274127060Y-158877625D01*
X274053966Y-158811751D01*
X273999859Y-158729696D01*
X273984456Y-158687490D01*
X273972199Y-158615966D01*
X273970587Y-158542354D01*
X274243632Y-158542354D01*
X274254773Y-158607497D01*
X274288336Y-158664168D01*
X274343468Y-158709417D01*
X274344822Y-158710207D01*
X274364128Y-158719785D01*
X274386815Y-158726799D01*
X274417248Y-158731765D01*
X274459793Y-158735198D01*
X274518817Y-158737612D01*
X274598685Y-158739523D01*
X274809827Y-158743737D01*
X274809827Y-158528382D01*
X274809827Y-158313026D01*
X274628929Y-158313026D01*
X274591530Y-158313266D01*
X274497185Y-158317101D01*
X274423313Y-158326536D01*
X274366614Y-158342764D01*
X274323794Y-158366978D01*
X274291555Y-158400371D01*
X274266600Y-158444137D01*
X274255769Y-158471688D01*
X274243632Y-158542354D01*
X273970587Y-158542354D01*
X273970487Y-158537794D01*
X273979350Y-158462421D01*
X273998818Y-158399294D01*
X274006498Y-158383678D01*
X274058784Y-158309556D01*
X274127928Y-158251465D01*
X274209450Y-158213360D01*
X274225647Y-158208310D01*
X274259388Y-158197045D01*
X274272937Y-158189605D01*
X274269233Y-158183329D01*
X274251215Y-158175558D01*
X274224466Y-158165874D01*
X274209367Y-158161761D01*
X274202902Y-158158966D01*
X274180252Y-158145343D01*
X274148417Y-158124204D01*
X274117015Y-158099033D01*
X274067797Y-158036182D01*
X274038415Y-157958300D01*
X274034966Y-157923657D01*
X274295327Y-157923657D01*
X274312804Y-157984873D01*
X274351468Y-158038040D01*
X274409690Y-158079078D01*
X274430164Y-158088866D01*
X274456754Y-158099091D01*
X274485477Y-158105651D01*
X274522101Y-158109345D01*
X274572396Y-158110974D01*
X274642128Y-158111339D01*
X274809827Y-158111339D01*
X274809827Y-157909652D01*
X274809827Y-157707964D01*
X274641534Y-157707964D01*
X274624400Y-157708015D01*
X274531115Y-157710889D01*
X274458770Y-157719088D01*
X274403941Y-157733878D01*
X274363200Y-157756526D01*
X274333124Y-157788299D01*
X274310287Y-157830463D01*
X274300668Y-157858467D01*
X274295327Y-157923657D01*
X274034966Y-157923657D01*
X274029247Y-157866209D01*
X274031550Y-157818400D01*
X274037251Y-157770579D01*
X274045004Y-157737158D01*
X274046946Y-157732046D01*
X274085059Y-157661649D01*
X274138532Y-157599457D01*
X274200171Y-157553962D01*
X274218429Y-157544297D01*
X274257974Y-157525583D01*
X274297856Y-157510911D01*
X274341628Y-157499805D01*
X274392841Y-157491787D01*
X274455047Y-157486382D01*
X274531799Y-157483111D01*
X274626647Y-157481498D01*
X274743145Y-157481066D01*
X275074542Y-157481066D01*
X275074542Y-157909652D01*
X275074542Y-158224788D01*
G37*
G36*
X257251205Y-158538687D02*
G01*
X257236059Y-158592527D01*
X257214545Y-158646879D01*
X257185614Y-158707324D01*
X257167314Y-158740078D01*
X257101857Y-158824345D01*
X257019171Y-158894721D01*
X256923845Y-158947778D01*
X256820471Y-158980087D01*
X256791102Y-158985184D01*
X256674098Y-158992185D01*
X256562793Y-158978392D01*
X256459717Y-158945445D01*
X256367403Y-158894979D01*
X256288382Y-158828631D01*
X256225185Y-158748039D01*
X256180346Y-158654840D01*
X256156394Y-158550671D01*
X256154427Y-158510309D01*
X256414332Y-158510309D01*
X256430346Y-158583428D01*
X256464576Y-158650150D01*
X256516371Y-158706186D01*
X256585080Y-158747246D01*
X256587170Y-158748108D01*
X256662680Y-158766306D01*
X256741043Y-158763359D01*
X256816338Y-158740999D01*
X256882646Y-158700963D01*
X256934048Y-158644985D01*
X256970699Y-158569436D01*
X256984102Y-158491459D01*
X256974935Y-158415251D01*
X256944206Y-158344513D01*
X256892923Y-158282943D01*
X256822096Y-158234242D01*
X256813086Y-158229807D01*
X256733386Y-158204364D01*
X256653904Y-158202062D01*
X256578721Y-158222494D01*
X256511916Y-158265250D01*
X256482097Y-158295460D01*
X256439557Y-158362036D01*
X256417185Y-158435082D01*
X256414332Y-158510309D01*
X256154427Y-158510309D01*
X256152122Y-158463033D01*
X256165312Y-158352473D01*
X256199330Y-158252629D01*
X256253139Y-158165546D01*
X256325702Y-158093271D01*
X256415985Y-158037852D01*
X256448580Y-158023588D01*
X256480560Y-158013372D01*
X256516046Y-158007511D01*
X256562267Y-158004851D01*
X256626452Y-158004237D01*
X256637070Y-158004248D01*
X256696918Y-158004978D01*
X256739487Y-158007706D01*
X256771686Y-158013623D01*
X256800428Y-158023920D01*
X256832624Y-158039790D01*
X256861066Y-158056677D01*
X256911979Y-158093547D01*
X256955527Y-158132292D01*
X257010919Y-158189286D01*
X257010919Y-158132025D01*
X257008930Y-158089352D01*
X256994691Y-158002941D01*
X256968943Y-157918363D01*
X256934300Y-157843323D01*
X256893375Y-157785522D01*
X256881115Y-157773169D01*
X256820466Y-157730589D01*
X256751577Y-157705889D01*
X256679219Y-157698560D01*
X256608164Y-157708093D01*
X256543184Y-157733978D01*
X256489052Y-157775708D01*
X256450539Y-157832771D01*
X256427239Y-157884441D01*
X256295146Y-157884441D01*
X256163054Y-157884441D01*
X256169830Y-157842687D01*
X256184123Y-157788018D01*
X256222741Y-157707922D01*
X256278371Y-157632587D01*
X256346455Y-157567842D01*
X256422435Y-157519518D01*
X256506357Y-157486196D01*
X256618822Y-157463120D01*
X256730597Y-157462839D01*
X256838663Y-157484351D01*
X256939999Y-157526658D01*
X257031589Y-157588759D01*
X257110413Y-157669654D01*
X257173452Y-157768342D01*
X257206986Y-157840174D01*
X257232322Y-157909176D01*
X257250096Y-157980161D01*
X257261426Y-158058888D01*
X257267426Y-158151116D01*
X257269213Y-158262605D01*
X257268922Y-158324461D01*
X257266588Y-158410233D01*
X257261032Y-158479783D01*
X257259084Y-158491459D01*
X257251205Y-158538687D01*
G37*
%TD*%
D11*
%TO.C,S45*%
X271145000Y-149225000D03*
D12*
X276225000Y-149225000D03*
D11*
X281305000Y-149225000D03*
D13*
X272415000Y-146685000D03*
X278765000Y-144145000D03*
%TD*%
D11*
%TO.C,S53*%
X185420000Y-168275000D03*
D12*
X190500000Y-168275000D03*
D11*
X195580000Y-168275000D03*
D13*
X186690000Y-165735000D03*
X193040000Y-163195000D03*
%TD*%
D11*
%TO.C,S10*%
X218757500Y-111125000D03*
D12*
X223837500Y-111125000D03*
D11*
X228917500Y-111125000D03*
D13*
X220027500Y-108585000D03*
X226377500Y-106045000D03*
%TD*%
D11*
%TO.C,S9*%
X199707500Y-111125000D03*
D12*
X204787500Y-111125000D03*
D11*
X209867500Y-111125000D03*
D13*
X200977500Y-108585000D03*
X207327500Y-106045000D03*
%TD*%
D11*
%TO.C,S18*%
X42545000Y-134937500D03*
D12*
X47625000Y-134937500D03*
D11*
X52705000Y-134937500D03*
D13*
X43815000Y-132397500D03*
X50165000Y-129857500D03*
%TD*%
D11*
%TO.C,S16*%
X333057500Y-111125000D03*
D12*
X338137500Y-111125000D03*
D11*
X343217500Y-111125000D03*
D13*
X334327500Y-108585000D03*
X340677500Y-106045000D03*
%TD*%
D11*
%TO.C,S35*%
X73501250Y-149225000D03*
D12*
X78581250Y-149225000D03*
D11*
X83661250Y-149225000D03*
D13*
X74771250Y-146685000D03*
X81121250Y-144145000D03*
%TD*%
D11*
%TO.C,S61*%
X68738750Y-187325000D03*
D12*
X73818750Y-187325000D03*
D11*
X78898750Y-187325000D03*
D13*
X70008750Y-184785000D03*
X76358750Y-182245000D03*
%TD*%
D14*
%TO.C,LED1*%
X46355000Y-174625000D03*
D15*
X48895000Y-174625000D03*
%TD*%
D11*
%TO.C,S65*%
X218757500Y-187325000D03*
D16*
X220027500Y-184785000D03*
D12*
X223837500Y-187325000D03*
D16*
X226377500Y-182245000D03*
D11*
X228917500Y-187325000D03*
D17*
X216752500Y-184785000D03*
X229679500Y-182245000D03*
%TD*%
D11*
%TO.C,S3*%
X85407500Y-111125000D03*
D12*
X90487500Y-111125000D03*
D11*
X95567500Y-111125000D03*
D13*
X86677500Y-108585000D03*
X93027500Y-106045000D03*
%TD*%
D11*
%TO.C,S64*%
X161607500Y-187325000D03*
D16*
X162877500Y-184785000D03*
D12*
X166687500Y-187325000D03*
D16*
X169227500Y-182245000D03*
D11*
X171767500Y-187325000D03*
D17*
X159602500Y-184785000D03*
X172529500Y-182245000D03*
%TD*%
D11*
%TO.C,S49*%
X109220000Y-168275000D03*
D12*
X114300000Y-168275000D03*
D11*
X119380000Y-168275000D03*
D13*
X110490000Y-165735000D03*
X116840000Y-163195000D03*
%TD*%
D11*
%TO.C,S50*%
X128270000Y-168275000D03*
D12*
X133350000Y-168275000D03*
D11*
X138430000Y-168275000D03*
D13*
X129540000Y-165735000D03*
X135890000Y-163195000D03*
%TD*%
D11*
%TO.C,S1*%
X42545000Y-111125000D03*
D12*
X47625000Y-111125000D03*
D11*
X52705000Y-111125000D03*
D13*
X43815000Y-108585000D03*
X50165000Y-106045000D03*
%TD*%
D11*
%TO.C,S33*%
X356870000Y-130175000D03*
D12*
X361950000Y-130175000D03*
D11*
X367030000Y-130175000D03*
D13*
X358140000Y-127635000D03*
X364490000Y-125095000D03*
%TD*%
D11*
%TO.C,S55*%
X223520000Y-168275000D03*
D12*
X228600000Y-168275000D03*
D11*
X233680000Y-168275000D03*
D13*
X224790000Y-165735000D03*
X231140000Y-163195000D03*
%TD*%
D11*
%TO.C,S60*%
X337820000Y-168275000D03*
D12*
X342900000Y-168275000D03*
D11*
X347980000Y-168275000D03*
D13*
X339090000Y-165735000D03*
X345440000Y-163195000D03*
%TD*%
D11*
%TO.C,S41*%
X194945000Y-149225000D03*
D12*
X200025000Y-149225000D03*
D11*
X205105000Y-149225000D03*
D13*
X196215000Y-146685000D03*
X202565000Y-144145000D03*
%TD*%
D11*
%TO.C,S5*%
X123507500Y-111125000D03*
D12*
X128587500Y-111125000D03*
D11*
X133667500Y-111125000D03*
D13*
X124777500Y-108585000D03*
X131127500Y-106045000D03*
%TD*%
D11*
%TO.C,S47*%
X321151250Y-149225000D03*
D16*
X322421250Y-146685000D03*
D12*
X326231250Y-149225000D03*
D16*
X328771250Y-144145000D03*
D11*
X331311250Y-149225000D03*
D17*
X319146250Y-146685000D03*
X332073250Y-144145000D03*
%TD*%
D11*
%TO.C,S57*%
X261620000Y-168275000D03*
D12*
X266700000Y-168275000D03*
D11*
X271780000Y-168275000D03*
D13*
X262890000Y-165735000D03*
X269240000Y-163195000D03*
%TD*%
D11*
%TO.C,S26*%
X209232500Y-130175000D03*
D12*
X214312500Y-130175000D03*
D11*
X219392500Y-130175000D03*
D13*
X210502500Y-127635000D03*
X216852500Y-125095000D03*
%TD*%
D11*
%TO.C,S43*%
X233045000Y-149225000D03*
D12*
X238125000Y-149225000D03*
D11*
X243205000Y-149225000D03*
D13*
X234315000Y-146685000D03*
X240665000Y-144145000D03*
%TD*%
D11*
%TO.C,S51*%
X147320000Y-168275000D03*
D12*
X152400000Y-168275000D03*
D11*
X157480000Y-168275000D03*
D13*
X148590000Y-165735000D03*
X154940000Y-163195000D03*
%TD*%
D11*
%TO.C,S59*%
X309245000Y-168275000D03*
D16*
X310515000Y-165735000D03*
D12*
X314325000Y-168275000D03*
D16*
X316865000Y-163195000D03*
D11*
X319405000Y-168275000D03*
D17*
X307240000Y-165735000D03*
X320167000Y-163195000D03*
%TD*%
D11*
%TO.C,S4*%
X104457500Y-111125000D03*
D12*
X109537500Y-111125000D03*
D11*
X114617500Y-111125000D03*
D13*
X105727500Y-108585000D03*
X112077500Y-106045000D03*
%TD*%
D11*
%TO.C,S63*%
X118745000Y-187325000D03*
D12*
X123825000Y-187325000D03*
D11*
X128905000Y-187325000D03*
D13*
X120015000Y-184785000D03*
X126365000Y-182245000D03*
%TD*%
D11*
%TO.C,S27*%
X228282500Y-130175000D03*
D12*
X233362500Y-130175000D03*
D11*
X238442500Y-130175000D03*
D13*
X229552500Y-127635000D03*
X235902500Y-125095000D03*
%TD*%
D11*
%TO.C,S58*%
X280670000Y-168275000D03*
D12*
X285750000Y-168275000D03*
D11*
X290830000Y-168275000D03*
D13*
X281940000Y-165735000D03*
X288290000Y-163195000D03*
%TD*%
D11*
%TO.C,S7*%
X161607500Y-111125000D03*
D12*
X166687500Y-111125000D03*
D11*
X171767500Y-111125000D03*
D13*
X162877500Y-108585000D03*
X169227500Y-106045000D03*
%TD*%
D11*
%TO.C,S62*%
X92551250Y-187325000D03*
D12*
X97631250Y-187325000D03*
D11*
X102711250Y-187325000D03*
D13*
X93821250Y-184785000D03*
X100171250Y-182245000D03*
%TD*%
D11*
%TO.C,S14*%
X294957500Y-111125000D03*
D12*
X300037500Y-111125000D03*
D11*
X305117500Y-111125000D03*
D13*
X296227500Y-108585000D03*
X302577500Y-106045000D03*
%TD*%
D11*
%TO.C,S39*%
X156845000Y-149225000D03*
D12*
X161925000Y-149225000D03*
D11*
X167005000Y-149225000D03*
D13*
X158115000Y-146685000D03*
X164465000Y-144145000D03*
%TD*%
D11*
%TO.C,S24*%
X171132500Y-130175000D03*
D12*
X176212500Y-130175000D03*
D11*
X181292500Y-130175000D03*
D13*
X172402500Y-127635000D03*
X178752500Y-125095000D03*
%TD*%
D11*
%TO.C,S54*%
X204470000Y-168275000D03*
D12*
X209550000Y-168275000D03*
D11*
X214630000Y-168275000D03*
D13*
X205740000Y-165735000D03*
X212090000Y-163195000D03*
%TD*%
D11*
%TO.C,S68*%
X318770000Y-187325000D03*
D12*
X323850000Y-187325000D03*
D11*
X328930000Y-187325000D03*
D13*
X320040000Y-184785000D03*
X326390000Y-182245000D03*
%TD*%
D11*
%TO.C,S29*%
X266382500Y-130175000D03*
D12*
X271462500Y-130175000D03*
D11*
X276542500Y-130175000D03*
D13*
X267652500Y-127635000D03*
X274002500Y-125095000D03*
%TD*%
D14*
%TO.C,LED3*%
X46355000Y-187312500D03*
D15*
X48895000Y-187312500D03*
%TD*%
D11*
%TO.C,S25*%
X190182500Y-130175000D03*
D12*
X195262500Y-130175000D03*
D11*
X200342500Y-130175000D03*
D13*
X191452500Y-127635000D03*
X197802500Y-125095000D03*
%TD*%
D11*
%TO.C,S36*%
X99695000Y-149225000D03*
D12*
X104775000Y-149225000D03*
D11*
X109855000Y-149225000D03*
D13*
X100965000Y-146685000D03*
X107315000Y-144145000D03*
%TD*%
D11*
%TO.C,S22*%
X133032500Y-130175000D03*
D12*
X138112500Y-130175000D03*
D11*
X143192500Y-130175000D03*
D13*
X134302500Y-127635000D03*
X140652500Y-125095000D03*
%TD*%
D11*
%TO.C,S67*%
X287813750Y-187325000D03*
D12*
X292893750Y-187325000D03*
D11*
X297973750Y-187325000D03*
D13*
X289083750Y-184785000D03*
X295433750Y-182245000D03*
%TD*%
D11*
%TO.C,S34*%
X42545000Y-153987500D03*
D12*
X47625000Y-153987500D03*
D11*
X52705000Y-153987500D03*
D13*
X43815000Y-151447500D03*
X50165000Y-148907500D03*
%TD*%
D11*
%TO.C,S70*%
X356870000Y-187325000D03*
D12*
X361950000Y-187325000D03*
D11*
X367030000Y-187325000D03*
D13*
X358140000Y-184785000D03*
X364490000Y-182245000D03*
%TD*%
D11*
%TO.C,S28*%
X247332500Y-130175000D03*
D12*
X252412500Y-130175000D03*
D11*
X257492500Y-130175000D03*
D13*
X248602500Y-127635000D03*
X254952500Y-125095000D03*
%TD*%
D11*
%TO.C,S30*%
X285432500Y-130175000D03*
D12*
X290512500Y-130175000D03*
D11*
X295592500Y-130175000D03*
D13*
X286702500Y-127635000D03*
X293052500Y-125095000D03*
%TD*%
D11*
%TO.C,S13*%
X275907500Y-111125000D03*
D12*
X280987500Y-111125000D03*
D11*
X286067500Y-111125000D03*
D13*
X277177500Y-108585000D03*
X283527500Y-106045000D03*
%TD*%
D11*
%TO.C,S23*%
X152082500Y-130175000D03*
D12*
X157162500Y-130175000D03*
D11*
X162242500Y-130175000D03*
D13*
X153352500Y-127635000D03*
X159702500Y-125095000D03*
%TD*%
D11*
%TO.C,S56*%
X242570000Y-168275000D03*
D12*
X247650000Y-168275000D03*
D11*
X252730000Y-168275000D03*
D13*
X243840000Y-165735000D03*
X250190000Y-163195000D03*
%TD*%
D11*
%TO.C,S17*%
X356870000Y-111125000D03*
D12*
X361950000Y-111125000D03*
D11*
X367030000Y-111125000D03*
D13*
X358140000Y-108585000D03*
X364490000Y-106045000D03*
%TD*%
D11*
%TO.C,S31*%
X304482500Y-130175000D03*
D12*
X309562500Y-130175000D03*
D11*
X314642500Y-130175000D03*
D13*
X305752500Y-127635000D03*
X312102500Y-125095000D03*
%TD*%
D11*
%TO.C,S52*%
X166370000Y-168275000D03*
D12*
X171450000Y-168275000D03*
D11*
X176530000Y-168275000D03*
D13*
X167640000Y-165735000D03*
X173990000Y-163195000D03*
%TD*%
D18*
%TO.C,RESW1*%
X368975000Y-166250000D03*
D19*
X373975000Y-166250000D03*
X371475000Y-166250000D03*
D20*
X365875000Y-158750000D03*
X377075000Y-158750000D03*
D19*
X373975000Y-151750000D03*
X368975000Y-151750000D03*
%TD*%
D11*
%TO.C,S46*%
X290195000Y-149225000D03*
D12*
X295275000Y-149225000D03*
D11*
X300355000Y-149225000D03*
D13*
X291465000Y-146685000D03*
X297815000Y-144145000D03*
%TD*%
D11*
%TO.C,S11*%
X237807500Y-111125000D03*
D12*
X242887500Y-111125000D03*
D11*
X247967500Y-111125000D03*
D13*
X239077500Y-108585000D03*
X245427500Y-106045000D03*
%TD*%
D11*
%TO.C,S12*%
X256857500Y-111125000D03*
D12*
X261937500Y-111125000D03*
D11*
X267017500Y-111125000D03*
D13*
X258127500Y-108585000D03*
X264477500Y-106045000D03*
%TD*%
D11*
%TO.C,S48*%
X78263750Y-168275000D03*
D16*
X79533750Y-165735000D03*
D12*
X83343750Y-168275000D03*
D16*
X85883750Y-163195000D03*
D11*
X88423750Y-168275000D03*
D17*
X76258750Y-165735000D03*
X89185750Y-163195000D03*
%TD*%
D11*
%TO.C,S42*%
X213995000Y-149225000D03*
D12*
X219075000Y-149225000D03*
D11*
X224155000Y-149225000D03*
D13*
X215265000Y-146685000D03*
X221615000Y-144145000D03*
%TD*%
D11*
%TO.C,S66*%
X261620000Y-187325000D03*
D12*
X266700000Y-187325000D03*
D11*
X271780000Y-187325000D03*
D13*
X262890000Y-184785000D03*
X269240000Y-182245000D03*
%TD*%
D11*
%TO.C,S69*%
X337820000Y-187325000D03*
D12*
X342900000Y-187325000D03*
D11*
X347980000Y-187325000D03*
D13*
X339090000Y-184785000D03*
X345440000Y-182245000D03*
%TD*%
D11*
%TO.C,S40*%
X175895000Y-149225000D03*
D12*
X180975000Y-149225000D03*
D11*
X186055000Y-149225000D03*
D13*
X177165000Y-146685000D03*
X183515000Y-144145000D03*
%TD*%
D11*
%TO.C,S19*%
X71120000Y-130175000D03*
D12*
X76200000Y-130175000D03*
D11*
X81280000Y-130175000D03*
D13*
X72390000Y-127635000D03*
X78740000Y-125095000D03*
%TD*%
D11*
%TO.C,S6*%
X142557500Y-111125000D03*
D12*
X147637500Y-111125000D03*
D11*
X152717500Y-111125000D03*
D13*
X143827500Y-108585000D03*
X150177500Y-106045000D03*
%TD*%
D11*
%TO.C,S21*%
X113982500Y-130175000D03*
D12*
X119062500Y-130175000D03*
D11*
X124142500Y-130175000D03*
D13*
X115252500Y-127635000D03*
X121602500Y-125095000D03*
%TD*%
D11*
%TO.C,S15*%
X314007500Y-111125000D03*
D12*
X319087500Y-111125000D03*
D11*
X324167500Y-111125000D03*
D13*
X315277500Y-108585000D03*
X321627500Y-106045000D03*
%TD*%
D14*
%TO.C,LED2*%
X46355000Y-180968750D03*
D15*
X48895000Y-180968750D03*
%TD*%
D11*
%TO.C,S20*%
X94932500Y-130175000D03*
D12*
X100012500Y-130175000D03*
D11*
X105092500Y-130175000D03*
D13*
X96202500Y-127635000D03*
X102552500Y-125095000D03*
%TD*%
D11*
%TO.C,S37*%
X118745000Y-149225000D03*
D12*
X123825000Y-149225000D03*
D11*
X128905000Y-149225000D03*
D13*
X120015000Y-146685000D03*
X126365000Y-144145000D03*
%TD*%
D11*
%TO.C,S32*%
X328295000Y-130175000D03*
D12*
X333375000Y-130175000D03*
D11*
X338455000Y-130175000D03*
D13*
X329565000Y-127635000D03*
X335915000Y-125095000D03*
%TD*%
D11*
%TO.C,S8*%
X180657500Y-111125000D03*
D12*
X185737500Y-111125000D03*
D11*
X190817500Y-111125000D03*
D13*
X181927500Y-108585000D03*
X188277500Y-106045000D03*
%TD*%
D11*
%TO.C,S38*%
X137795000Y-149225000D03*
D12*
X142875000Y-149225000D03*
D11*
X147955000Y-149225000D03*
D13*
X139065000Y-146685000D03*
X145415000Y-144145000D03*
%TD*%
D11*
%TO.C,S44*%
X252095000Y-149225000D03*
D12*
X257175000Y-149225000D03*
D11*
X262255000Y-149225000D03*
D13*
X253365000Y-146685000D03*
X259715000Y-144145000D03*
%TD*%
D11*
%TO.C,S2*%
X66357500Y-111125000D03*
D12*
X71437500Y-111125000D03*
D11*
X76517500Y-111125000D03*
D13*
X67627500Y-108585000D03*
X73977500Y-106045000D03*
%TD*%
D21*
%TO.C,C6*%
X353200000Y-153250000D03*
X351500000Y-153250000D03*
%TD*%
D22*
%TO.C,RGB7*%
X94812500Y-121443750D03*
X94812500Y-118243750D03*
X100012500Y-118243750D03*
X100012500Y-121443750D03*
%TD*%
D23*
%TO.C,D8*%
X193675000Y-112043750D03*
X193675000Y-108743750D03*
%TD*%
D22*
%TO.C,RGB16*%
X357187500Y-175337500D03*
X357187500Y-178537500D03*
X351987500Y-178537500D03*
X351987500Y-175337500D03*
%TD*%
%TO.C,RGB14*%
X273843750Y-175418750D03*
X273843750Y-178618750D03*
X268643750Y-178618750D03*
X268643750Y-175418750D03*
%TD*%
D24*
%TO.C,CRGB14*%
X277018750Y-176100000D03*
X277018750Y-177800000D03*
%TD*%
D23*
%TO.C,D58*%
X293687500Y-169068750D03*
X293687500Y-165768750D03*
%TD*%
%TO.C,D49*%
X122237500Y-169068750D03*
X122237500Y-165768750D03*
%TD*%
%TO.C,D60*%
X346868750Y-173831250D03*
X346868750Y-170531250D03*
%TD*%
D21*
%TO.C,C1*%
X350500000Y-138906250D03*
X348800000Y-138906250D03*
%TD*%
D23*
%TO.C,D55*%
X236537500Y-169068750D03*
X236537500Y-165768750D03*
%TD*%
%TO.C,D71*%
X365750000Y-155050000D03*
X365750000Y-151750000D03*
%TD*%
D22*
%TO.C,RGB6*%
X136087500Y-121443750D03*
X136087500Y-118243750D03*
X141287500Y-118243750D03*
X141287500Y-121443750D03*
%TD*%
D23*
%TO.C,D57*%
X274637500Y-169068750D03*
X274637500Y-165768750D03*
%TD*%
%TO.C,D14*%
X307975000Y-111981250D03*
X307975000Y-108681250D03*
%TD*%
%TO.C,D7*%
X174625000Y-112043750D03*
X174625000Y-108743750D03*
%TD*%
D21*
%TO.C,C9*%
X364800000Y-169900000D03*
X366500000Y-169900000D03*
%TD*%
D22*
%TO.C,RGB8*%
X52750000Y-121450000D03*
X52750000Y-118250000D03*
X57950000Y-118250000D03*
X57950000Y-121450000D03*
%TD*%
D23*
%TO.C,D47*%
X330200000Y-154781250D03*
X330200000Y-151481250D03*
%TD*%
%TO.C,D4*%
X117475000Y-112043750D03*
X117475000Y-108743750D03*
%TD*%
D24*
%TO.C,CRGB15*%
X317500000Y-176100000D03*
X317500000Y-177800000D03*
%TD*%
D25*
%TO.C,RC1*%
X346075000Y-136525000D03*
X346075000Y-134725000D03*
%TD*%
D24*
%TO.C,CRGB2*%
X317500000Y-120762500D03*
X317500000Y-119062500D03*
%TD*%
D23*
%TO.C,D27*%
X241300000Y-130968750D03*
X241300000Y-127668750D03*
%TD*%
%TO.C,D26*%
X222250000Y-130968750D03*
X222250000Y-127668750D03*
%TD*%
D25*
%TO.C,RC2*%
X348000000Y-134750000D03*
X348000000Y-136550000D03*
%TD*%
D23*
%TO.C,D20*%
X107950000Y-130968750D03*
X107950000Y-127668750D03*
%TD*%
D26*
%TO.C,U2*%
X350756250Y-107837500D03*
D27*
X350756250Y-109537500D03*
X348456250Y-109537500D03*
X348456250Y-107637500D03*
%TD*%
D21*
%TO.C,C8*%
X366500000Y-171500000D03*
X364800000Y-171500000D03*
%TD*%
D24*
%TO.C,CRGB9*%
X61250000Y-176100000D03*
X61250000Y-177800000D03*
%TD*%
%TO.C,CRGB11*%
X144750000Y-176550000D03*
X144750000Y-178250000D03*
%TD*%
D23*
%TO.C,D65*%
X232568750Y-189037500D03*
X232568750Y-185737500D03*
%TD*%
%TO.C,D5*%
X136525000Y-112043750D03*
X136525000Y-108743750D03*
%TD*%
D24*
%TO.C,CRGB16*%
X360362500Y-176100000D03*
X360362500Y-177800000D03*
%TD*%
D23*
%TO.C,D37*%
X131762500Y-150018750D03*
X131762500Y-146718750D03*
%TD*%
%TO.C,D51*%
X160337500Y-169193750D03*
X160337500Y-165893750D03*
%TD*%
D24*
%TO.C,C4*%
X345281250Y-138906250D03*
X345281250Y-140606250D03*
%TD*%
D23*
%TO.C,D6*%
X155575000Y-112043750D03*
X155575000Y-108743750D03*
%TD*%
%TO.C,D62*%
X105568750Y-188243750D03*
X105568750Y-184943750D03*
%TD*%
%TO.C,D18*%
X55562500Y-135856250D03*
X55562500Y-132556250D03*
%TD*%
D22*
%TO.C,RGB13*%
X230981250Y-174600000D03*
X230981250Y-177800000D03*
X225781250Y-177800000D03*
X225781250Y-174600000D03*
%TD*%
D21*
%TO.C,C3*%
X359800000Y-146843750D03*
X361500000Y-146843750D03*
%TD*%
D23*
%TO.C,D13*%
X288925000Y-111981250D03*
X288925000Y-108681250D03*
%TD*%
D24*
%TO.C,CRGB4*%
X234156250Y-120650000D03*
X234156250Y-118950000D03*
%TD*%
D28*
%TO.C,SW1*%
X365050000Y-138906250D03*
X358850000Y-142606250D03*
X365050000Y-142606250D03*
X358850000Y-138906250D03*
%TD*%
D23*
%TO.C,D50*%
X141287500Y-169193750D03*
X141287500Y-165893750D03*
%TD*%
%TO.C,D43*%
X246062500Y-150081250D03*
X246062500Y-146781250D03*
%TD*%
%TO.C,D59*%
X323056250Y-169987500D03*
X323056250Y-166687500D03*
%TD*%
D21*
%TO.C,C7*%
X356750000Y-142500000D03*
X355050000Y-142500000D03*
%TD*%
D23*
%TO.C,D41*%
X207962500Y-150081250D03*
X207962500Y-146781250D03*
%TD*%
D22*
%TO.C,RGB12*%
X183575000Y-174600000D03*
X183575000Y-177800000D03*
X178375000Y-177800000D03*
X178375000Y-174600000D03*
%TD*%
D23*
%TO.C,D39*%
X169862500Y-150018750D03*
X169862500Y-146718750D03*
%TD*%
D22*
%TO.C,RGB4*%
X225781250Y-121443750D03*
X225781250Y-118243750D03*
X230981250Y-118243750D03*
X230981250Y-121443750D03*
%TD*%
D29*
%TO.C,J1*%
X358000000Y-160460000D03*
X355460000Y-160460000D03*
X358000000Y-163000000D03*
X355460000Y-163000000D03*
X358000000Y-165540000D03*
D30*
X355460000Y-165540000D03*
%TD*%
D22*
%TO.C,RGB2*%
X309125000Y-121443750D03*
X309125000Y-118243750D03*
X314325000Y-118243750D03*
X314325000Y-121443750D03*
%TD*%
D31*
%TO.C,RC8*%
X343000000Y-152750000D03*
X341200000Y-152750000D03*
%TD*%
D23*
%TO.C,D30*%
X298450000Y-131031250D03*
X298450000Y-127731250D03*
%TD*%
%TO.C,D54*%
X217487500Y-169068750D03*
X217487500Y-165768750D03*
%TD*%
%TO.C,D24*%
X184150000Y-130968750D03*
X184150000Y-127668750D03*
%TD*%
%TO.C,D36*%
X112712500Y-150018750D03*
X112712500Y-146718750D03*
%TD*%
D25*
%TO.C,RC7*%
X353137500Y-109425000D03*
X353137500Y-107625000D03*
%TD*%
D23*
%TO.C,D9*%
X212725000Y-112043750D03*
X212725000Y-108743750D03*
%TD*%
%TO.C,D38*%
X150812500Y-150081250D03*
X150812500Y-146781250D03*
%TD*%
%TO.C,D31*%
X317500000Y-130968750D03*
X317500000Y-127668750D03*
%TD*%
D22*
%TO.C,RGB1*%
X351987500Y-121468750D03*
X351987500Y-118268750D03*
X357187500Y-118268750D03*
X357187500Y-121468750D03*
%TD*%
D31*
%TO.C,RLED1*%
X61118750Y-182562500D03*
X59318750Y-182562500D03*
%TD*%
%TO.C,RLED2*%
X61118750Y-185737500D03*
X59318750Y-185737500D03*
%TD*%
D22*
%TO.C,RGB5*%
X178156250Y-121443750D03*
X178156250Y-118243750D03*
X183356250Y-118243750D03*
X183356250Y-121443750D03*
%TD*%
D21*
%TO.C,C2*%
X359843750Y-149225000D03*
X361543750Y-149225000D03*
%TD*%
D23*
%TO.C,D32*%
X337343750Y-135731250D03*
X337343750Y-132431250D03*
%TD*%
%TO.C,D21*%
X127000000Y-130968750D03*
X127000000Y-127668750D03*
%TD*%
%TO.C,D22*%
X146050000Y-130968750D03*
X146050000Y-127668750D03*
%TD*%
%TO.C,D40*%
X188912500Y-150018750D03*
X188912500Y-146718750D03*
%TD*%
D32*
%TO.C,Y1*%
X355193750Y-149043750D03*
X355193750Y-146843750D03*
X356893750Y-146843750D03*
X356893750Y-149043750D03*
%TD*%
D22*
%TO.C,RGB10*%
X100012500Y-175418750D03*
X100012500Y-178618750D03*
X94812500Y-178618750D03*
X94812500Y-175418750D03*
%TD*%
D23*
%TO.C,D53*%
X198437500Y-169193750D03*
X198437500Y-165893750D03*
%TD*%
D22*
%TO.C,RGB3*%
X268643750Y-121443750D03*
X268643750Y-118243750D03*
X273843750Y-118243750D03*
X273843750Y-121443750D03*
%TD*%
D23*
%TO.C,D34*%
X55562500Y-154843750D03*
X55562500Y-151543750D03*
%TD*%
%TO.C,D52*%
X179387500Y-169193750D03*
X179387500Y-165893750D03*
%TD*%
D31*
%TO.C,RC5*%
X364912500Y-168275000D03*
X366712500Y-168275000D03*
%TD*%
D33*
%TO.C,USB1*%
X347160000Y-102055000D03*
X352940000Y-102055000D03*
D34*
X346825000Y-103500000D03*
X347600000Y-103500000D03*
D35*
X348300000Y-103500000D03*
X348800000Y-103500000D03*
X349300000Y-103500000D03*
X349800000Y-103500000D03*
X350300000Y-103500000D03*
X350800000Y-103500000D03*
X351300000Y-103500000D03*
X351800000Y-103500000D03*
D34*
X352500000Y-103500000D03*
X353275000Y-103500000D03*
D36*
X345730000Y-98405000D03*
D37*
X345730000Y-102585000D03*
D36*
X354370000Y-98405000D03*
D37*
X354370000Y-102585000D03*
%TD*%
D23*
%TO.C,D15*%
X327025000Y-111918750D03*
X327025000Y-108618750D03*
%TD*%
D24*
%TO.C,CRGB6*%
X144750000Y-120750000D03*
X144750000Y-119050000D03*
%TD*%
D23*
%TO.C,D44*%
X265112500Y-150018750D03*
X265112500Y-146718750D03*
%TD*%
%TO.C,D19*%
X84137500Y-131031250D03*
X84137500Y-127731250D03*
%TD*%
D24*
%TO.C,CRGB5*%
X187000000Y-120750000D03*
X187000000Y-119050000D03*
%TD*%
D22*
%TO.C,RGB15*%
X314325000Y-175393750D03*
X314325000Y-178593750D03*
X309125000Y-178593750D03*
X309125000Y-175393750D03*
%TD*%
D23*
%TO.C,D12*%
X269875000Y-111981250D03*
X269875000Y-108681250D03*
%TD*%
%TO.C,D70*%
X365918750Y-192881250D03*
X365918750Y-189581250D03*
%TD*%
D24*
%TO.C,CRGB10*%
X103250000Y-176250000D03*
X103250000Y-177950000D03*
%TD*%
D23*
%TO.C,D64*%
X175418750Y-188912500D03*
X175418750Y-185612500D03*
%TD*%
D31*
%TO.C,RC3*%
X354450000Y-139750000D03*
X356250000Y-139750000D03*
%TD*%
%TO.C,RLED3*%
X61118750Y-188912500D03*
X59318750Y-188912500D03*
%TD*%
D24*
%TO.C,CRGB7*%
X103500000Y-120750000D03*
X103500000Y-119050000D03*
%TD*%
D23*
%TO.C,D69*%
X346868750Y-192881250D03*
X346868750Y-189581250D03*
%TD*%
%TO.C,D3*%
X98425000Y-112043750D03*
X98425000Y-108743750D03*
%TD*%
D22*
%TO.C,RGB11*%
X141287500Y-175393750D03*
X141287500Y-178593750D03*
X136087500Y-178593750D03*
X136087500Y-175393750D03*
%TD*%
D23*
%TO.C,D48*%
X92075000Y-169925000D03*
X92075000Y-166625000D03*
%TD*%
%TO.C,D17*%
X365918750Y-116681250D03*
X365918750Y-113381250D03*
%TD*%
%TO.C,D25*%
X203200000Y-130968750D03*
X203200000Y-127668750D03*
%TD*%
%TO.C,D46*%
X303212500Y-150018750D03*
X303212500Y-146718750D03*
%TD*%
%TO.C,D67*%
X300831250Y-188243750D03*
X300831250Y-184943750D03*
%TD*%
%TO.C,D1*%
X55562500Y-112043750D03*
X55562500Y-108743750D03*
%TD*%
%TO.C,D2*%
X79375000Y-112043750D03*
X79375000Y-108743750D03*
%TD*%
D22*
%TO.C,RGB9*%
X57943750Y-175418750D03*
X57943750Y-178618750D03*
X52743750Y-178618750D03*
X52743750Y-175418750D03*
%TD*%
D23*
%TO.C,D11*%
X250825000Y-112043750D03*
X250825000Y-108743750D03*
%TD*%
%TO.C,D61*%
X81756250Y-188243750D03*
X81756250Y-184943750D03*
%TD*%
%TO.C,D33*%
X365918750Y-135731250D03*
X365918750Y-132431250D03*
%TD*%
%TO.C,D56*%
X255587500Y-169068750D03*
X255587500Y-165768750D03*
%TD*%
%TO.C,D28*%
X260350000Y-130968750D03*
X260350000Y-127668750D03*
%TD*%
D24*
%TO.C,CRGB3*%
X277018750Y-120762500D03*
X277018750Y-119062500D03*
%TD*%
%TO.C,CRGB13*%
X234156250Y-175418750D03*
X234156250Y-177118750D03*
%TD*%
D23*
%TO.C,D68*%
X327818750Y-192881250D03*
X327818750Y-189581250D03*
%TD*%
D24*
%TO.C,C5*%
X341312500Y-149550000D03*
X341312500Y-151250000D03*
%TD*%
D23*
%TO.C,D23*%
X165100000Y-130968750D03*
X165100000Y-127668750D03*
%TD*%
%TO.C,D16*%
X342106250Y-116681250D03*
X342106250Y-113381250D03*
%TD*%
%TO.C,D10*%
X231775000Y-112043750D03*
X231775000Y-108743750D03*
%TD*%
%TO.C,D66*%
X274637500Y-188243750D03*
X274637500Y-184943750D03*
%TD*%
D25*
%TO.C,RC6*%
X345200000Y-109425000D03*
X345200000Y-107625000D03*
%TD*%
D23*
%TO.C,D42*%
X227012500Y-150018750D03*
X227012500Y-146718750D03*
%TD*%
%TO.C,D29*%
X279400000Y-130968750D03*
X279400000Y-127668750D03*
%TD*%
D24*
%TO.C,CRGB12*%
X187250000Y-175500000D03*
X187250000Y-177200000D03*
%TD*%
D23*
%TO.C,D63*%
X131762500Y-188243750D03*
X131762500Y-184943750D03*
%TD*%
D24*
%TO.C,CRGB1*%
X360362500Y-120762500D03*
X360362500Y-119062500D03*
%TD*%
D31*
%TO.C,RC4*%
X364912500Y-173100000D03*
X366712500Y-173100000D03*
%TD*%
D23*
%TO.C,D35*%
X86518750Y-150018750D03*
X86518750Y-146718750D03*
%TD*%
D24*
%TO.C,CRGB8*%
X61500000Y-121000000D03*
X61500000Y-119300000D03*
%TD*%
D38*
%TO.C,U1*%
X348456250Y-147637500D03*
D39*
X345956250Y-144237500D03*
X346456250Y-144237500D03*
X346956250Y-144237500D03*
X347456250Y-144237500D03*
X347956250Y-144237500D03*
X348456250Y-144237500D03*
X348956250Y-144237500D03*
X349456250Y-144237500D03*
X349956250Y-144237500D03*
X350456250Y-144237500D03*
X350956250Y-144237500D03*
D40*
X351856250Y-145137500D03*
X351856250Y-145637500D03*
X351856250Y-146137500D03*
X351856250Y-146637500D03*
X351856250Y-147137500D03*
X351856250Y-147637500D03*
X351856250Y-148137500D03*
X351856250Y-148637500D03*
X351856250Y-149137500D03*
X351856250Y-149637500D03*
X351856250Y-150137500D03*
D39*
X350956250Y-151037500D03*
X350456250Y-151037500D03*
X349956250Y-151037500D03*
X349456250Y-151037500D03*
X348956250Y-151037500D03*
X348456250Y-151037500D03*
X347956250Y-151037500D03*
X347456250Y-151037500D03*
X346956250Y-151037500D03*
X346456250Y-151037500D03*
X345956250Y-151037500D03*
D40*
X345056250Y-150137500D03*
X345056250Y-149637500D03*
X345056250Y-149137500D03*
X345056250Y-148637500D03*
X345056250Y-148137500D03*
X345056250Y-147637500D03*
X345056250Y-147137500D03*
X345056250Y-146637500D03*
X345056250Y-146137500D03*
X345056250Y-145637500D03*
X345056250Y-145137500D03*
%TD*%
D23*
%TO.C,D45*%
X284162500Y-150081250D03*
X284162500Y-146781250D03*
%TD*%
D41*
%TO.C,F1*%
X347662500Y-115512500D03*
X347662500Y-112712500D03*
%TD*%
M02*
