M48
; DRILL file {KiCad 9.0.2} date 2025-08-01T12:08:25+0900
; FORMAT={-:-/ absolute / metric / decimal}
; #@! TF.CreationDate,2025-08-01T12:08:25+09:00
; #@! TF.GenerationSoftware,Kicad,Pcbnew,9.0.2
; #@! TF.FileFunction,NonPlated,1,2,NPTH
FMAT,2
METRIC
; #@! TA.AperFunction,NonPlated,NPTH,ComponentDrill
T1C0.650
; #@! TA.AperFunction,NonPlated,NPTH,ComponentDrill
T2C1.750
; #@! TA.AperFunction,NonPlated,NPTH,ComponentDrill
T3C3.050
; #@! TA.AperFunction,NonPlated,NPTH,ComponentDrill
T4C4.000
%
G90
G05
T1
X347.16Y-102.055
X352.94Y-102.055
T2
X42.545Y-111.125
X42.545Y-134.938
X42.545Y-153.987
X52.705Y-111.125
X52.705Y-134.938
X52.705Y-153.987
X66.358Y-111.125
X68.739Y-187.325
X71.12Y-130.175
X73.501Y-149.225
X76.517Y-111.125
X78.264Y-168.275
X78.899Y-187.325
X81.28Y-130.175
X83.661Y-149.225
X85.407Y-111.125
X88.424Y-168.275
X92.551Y-187.325
X94.932Y-130.175
X95.567Y-111.125
X99.695Y-149.225
X102.711Y-187.325
X104.457Y-111.125
X105.093Y-130.175
X109.22Y-168.275
X109.855Y-149.225
X113.983Y-130.175
X114.617Y-111.125
X118.745Y-149.225
X118.745Y-187.325
X119.38Y-168.275
X123.507Y-111.125
X124.142Y-130.175
X128.27Y-168.275
X128.905Y-149.225
X128.905Y-187.325
X133.032Y-130.175
X133.667Y-111.125
X137.795Y-149.225
X138.43Y-168.275
X142.558Y-111.125
X143.192Y-130.175
X147.32Y-168.275
X147.955Y-149.225
X152.082Y-130.175
X152.718Y-111.125
X156.845Y-149.225
X157.48Y-168.275
X161.607Y-111.125
X161.607Y-187.325
X162.243Y-130.175
X166.37Y-168.275
X167.005Y-149.225
X171.132Y-130.175
X171.767Y-111.125
X171.767Y-187.325
X175.895Y-149.225
X176.53Y-168.275
X180.657Y-111.125
X181.292Y-130.175
X185.42Y-168.275
X186.055Y-149.225
X190.183Y-130.175
X190.817Y-111.125
X194.945Y-149.225
X195.58Y-168.275
X199.707Y-111.125
X200.343Y-130.175
X204.47Y-168.275
X205.105Y-149.225
X209.232Y-130.175
X209.867Y-111.125
X213.995Y-149.225
X214.63Y-168.275
X218.757Y-111.125
X218.757Y-187.325
X219.392Y-130.175
X223.52Y-168.275
X224.155Y-149.225
X228.282Y-130.175
X228.917Y-111.125
X228.917Y-187.325
X233.045Y-149.225
X233.68Y-168.275
X237.807Y-111.125
X238.442Y-130.175
X242.57Y-168.275
X243.205Y-149.225
X247.332Y-130.175
X247.968Y-111.125
X252.095Y-149.225
X252.73Y-168.275
X256.858Y-111.125
X257.493Y-130.175
X261.62Y-168.275
X261.62Y-187.325
X262.255Y-149.225
X266.382Y-130.175
X267.017Y-111.125
X271.145Y-149.225
X271.78Y-168.275
X271.78Y-187.325
X275.907Y-111.125
X276.542Y-130.175
X280.67Y-168.275
X281.305Y-149.225
X285.433Y-130.175
X286.067Y-111.125
X287.814Y-187.325
X290.195Y-149.225
X290.83Y-168.275
X294.957Y-111.125
X295.592Y-130.175
X297.974Y-187.325
X300.355Y-149.225
X304.482Y-130.175
X305.118Y-111.125
X309.245Y-168.275
X314.007Y-111.125
X314.642Y-130.175
X318.77Y-187.325
X319.405Y-168.275
X321.151Y-149.225
X324.167Y-111.125
X328.295Y-130.175
X328.93Y-187.325
X331.311Y-149.225
X333.058Y-111.125
X337.82Y-168.275
X337.82Y-187.325
X338.455Y-130.175
X343.217Y-111.125
X347.98Y-168.275
X347.98Y-187.325
X356.87Y-111.125
X356.87Y-130.175
X356.87Y-187.325
X367.03Y-111.125
X367.03Y-130.175
X367.03Y-187.325
T3
X79.534Y-165.735
X85.884Y-163.195
X162.877Y-184.785
X169.227Y-182.245
X220.028Y-184.785
X226.377Y-182.245
X310.515Y-165.735
X316.865Y-163.195
X322.421Y-146.685
X328.771Y-144.145
T4
X47.625Y-111.125
X47.625Y-134.938
X47.625Y-153.987
X71.438Y-111.125
X73.819Y-187.325
X76.2Y-130.175
X78.581Y-149.225
X83.344Y-168.275
X90.487Y-111.125
X97.631Y-187.325
X100.012Y-130.175
X104.775Y-149.225
X109.537Y-111.125
X114.3Y-168.275
X119.062Y-130.175
X123.825Y-149.225
X123.825Y-187.325
X128.588Y-111.125
X133.35Y-168.275
X138.112Y-130.175
X142.875Y-149.225
X147.637Y-111.125
X152.4Y-168.275
X157.162Y-130.175
X161.925Y-149.225
X166.688Y-111.125
X166.688Y-187.325
X171.45Y-168.275
X176.213Y-130.175
X180.975Y-149.225
X185.737Y-111.125
X190.5Y-168.275
X195.262Y-130.175
X200.025Y-149.225
X204.787Y-111.125
X209.55Y-168.275
X214.312Y-130.175
X219.075Y-149.225
X223.837Y-111.125
X223.837Y-187.325
X228.6Y-168.275
X233.362Y-130.175
X238.125Y-149.225
X242.887Y-111.125
X247.65Y-168.275
X252.412Y-130.175
X257.175Y-149.225
X261.938Y-111.125
X266.7Y-168.275
X266.7Y-187.325
X271.462Y-130.175
X276.225Y-149.225
X280.988Y-111.125
X285.75Y-168.275
X290.512Y-130.175
X292.894Y-187.325
X295.275Y-149.225
X300.037Y-111.125
X309.562Y-130.175
X314.325Y-168.275
X319.087Y-111.125
X323.85Y-187.325
X326.231Y-149.225
X333.375Y-130.175
X338.137Y-111.125
X342.9Y-168.275
X342.9Y-187.325
X361.95Y-111.125
X361.95Y-130.175
X361.95Y-187.325
M30
