M48
; DRILL file {KiCad 9.0.2} date 2025-08-01T12:08:25+0900
; FORMAT={-:-/ absolute / metric / decimal}
; #@! TF.CreationDate,2025-08-01T12:08:25+09:00
; #@! TF.GenerationSoftware,Kicad,Pcbnew,9.0.2
; #@! TF.FileFunction,Plated,1,2,PTH
FMAT,2
METRIC
; #@! TA.AperFunction,Plated,PTH,ViaDrill
T1C0.400
; #@! TA.AperFunction,Plated,PTH,ComponentDrill
T2C0.600
; #@! TA.AperFunction,Plated,PTH,ComponentDrill
T3C0.900
; #@! TA.AperFunction,Plated,PTH,ComponentDrill
T4C1.000
; #@! TA.AperFunction,Plated,PTH,ComponentDrill
T5C1.500
%
G90
G05
T1
X62.5Y-182.5
X62.5Y-185.75
X62.5Y-189.0
X70.0Y-168.5
X153.0Y-186.25
X210.0Y-186.25
X292.25Y-157.0
X304.75Y-169.5
X328.75Y-115.5
X330.75Y-115.5
X332.75Y-139.55
X337.377Y-138.387
X338.5Y-140.373
X338.525Y-138.375
X339.125Y-140.873
X339.75Y-120.0
X339.75Y-121.0
X339.8Y-141.373
X340.452Y-141.837
X341.098Y-142.308
X341.761Y-142.757
X342.106Y-129.644
X342.433Y-143.19
X343.25Y-145.0
X343.25Y-150.264
X343.75Y-136.5
X345.25Y-106.5
X345.25Y-114.25
X345.25Y-142.25
X346.075Y-138.112
X346.25Y-141.25
X347.53Y-157.311
X348.057Y-117.057
X348.456Y-105.956
X348.456Y-138.112
X348.763Y-105.218
X349.0Y-120.0
X349.0Y-121.0
X349.083Y-141.191
X349.5Y-136.5
X349.5Y-162.75
X350.583Y-152.5
X351.0Y-120.0
X351.0Y-142.25
X351.25Y-106.0
X351.503Y-137.997
X351.518Y-105.246
X353.057Y-143.443
X353.137Y-106.75
X353.25Y-134.25
X353.25Y-135.123
X353.25Y-139.75
X353.25Y-155.0
X353.441Y-141.191
X354.0Y-136.5
X355.0Y-141.5
X355.46Y-156.5
X356.75Y-115.5
X357.5Y-143.75
X361.238Y-156.25
X363.5Y-170.5
X363.852Y-154.75
T3
X46.355Y-174.625
X46.355Y-180.969
X46.355Y-187.312
X48.895Y-174.625
X48.895Y-180.969
X48.895Y-187.312
T4
X355.46Y-160.46
X355.46Y-163.0
X355.46Y-165.54
X358.0Y-160.46
X358.0Y-163.0
X358.0Y-165.54
X368.975Y-151.75
X368.975Y-166.25
X371.475Y-166.25
X373.975Y-151.75
X373.975Y-166.25
T5
X43.815Y-108.585
X43.815Y-132.398
X43.815Y-151.447
X50.165Y-106.045
X50.165Y-129.857
X50.165Y-148.907
X67.627Y-108.585
X70.009Y-184.785
X72.39Y-127.635
X73.977Y-106.045
X74.771Y-146.685
X76.359Y-182.245
X78.74Y-125.095
X81.121Y-144.145
X86.677Y-108.585
X93.027Y-106.045
X93.821Y-184.785
X96.203Y-127.635
X100.171Y-182.245
X100.965Y-146.685
X102.552Y-125.095
X105.727Y-108.585
X107.315Y-144.145
X110.49Y-165.735
X112.078Y-106.045
X115.252Y-127.635
X116.84Y-163.195
X120.015Y-146.685
X120.015Y-184.785
X121.602Y-125.095
X124.777Y-108.585
X126.365Y-144.145
X126.365Y-182.245
X129.54Y-165.735
X131.127Y-106.045
X134.302Y-127.635
X135.89Y-163.195
X139.065Y-146.685
X140.653Y-125.095
X143.827Y-108.585
X145.415Y-144.145
X148.59Y-165.735
X150.177Y-106.045
X153.352Y-127.635
X154.94Y-163.195
X158.115Y-146.685
X159.702Y-125.095
X162.877Y-108.585
X164.465Y-144.145
X167.64Y-165.735
X169.227Y-106.045
X172.403Y-127.635
X173.99Y-163.195
X177.165Y-146.685
X178.752Y-125.095
X181.927Y-108.585
X183.515Y-144.145
X186.69Y-165.735
X188.278Y-106.045
X191.452Y-127.635
X193.04Y-163.195
X196.215Y-146.685
X197.802Y-125.095
X200.977Y-108.585
X202.565Y-144.145
X205.74Y-165.735
X207.327Y-106.045
X210.502Y-127.635
X212.09Y-163.195
X215.265Y-146.685
X216.852Y-125.095
X220.028Y-108.585
X221.615Y-144.145
X224.79Y-165.735
X226.377Y-106.045
X229.552Y-127.635
X231.14Y-163.195
X234.315Y-146.685
X235.903Y-125.095
X239.077Y-108.585
X240.665Y-144.145
X243.84Y-165.735
X245.427Y-106.045
X248.602Y-127.635
X250.19Y-163.195
X253.365Y-146.685
X254.952Y-125.095
X258.127Y-108.585
X259.715Y-144.145
X262.89Y-165.735
X262.89Y-184.785
X264.477Y-106.045
X267.652Y-127.635
X269.24Y-163.195
X269.24Y-182.245
X272.415Y-146.685
X274.002Y-125.095
X277.178Y-108.585
X278.765Y-144.145
X281.94Y-165.735
X283.527Y-106.045
X286.702Y-127.635
X288.29Y-163.195
X289.084Y-184.785
X291.465Y-146.685
X293.053Y-125.095
X295.434Y-182.245
X296.227Y-108.585
X297.815Y-144.145
X302.577Y-106.045
X305.752Y-127.635
X312.102Y-125.095
X315.277Y-108.585
X320.04Y-184.785
X321.627Y-106.045
X326.39Y-182.245
X329.565Y-127.635
X334.327Y-108.585
X335.915Y-125.095
X339.09Y-165.735
X339.09Y-184.785
X340.678Y-106.045
X345.44Y-163.195
X345.44Y-182.245
X358.14Y-108.585
X358.14Y-127.635
X358.14Y-184.785
X364.49Y-106.045
X364.49Y-125.095
X364.49Y-182.245
T2
G00X345.73Y-98.105
M15
G01X345.73Y-98.705
M16
G05
G00X345.73Y-102.035
M15
G01X345.73Y-103.135
M16
G05
G00X354.37Y-98.105
M15
G01X354.37Y-98.705
M16
G05
G00X354.37Y-102.035
M15
G01X354.37Y-103.135
M16
G05
T5
G00X365.875Y-159.4
M15
G01X365.875Y-158.1
M16
G05
G00X377.075Y-159.4
M15
G01X377.075Y-158.1
M16
G05
M30
